<svg width="52" height="52" viewBox="0 0 52 52" fill="none" xmlns="http://www.w3.org/2000/svg">
<rect width="52" height="52" rx="8" fill="#CC2229"/>
<path d="M40.6467 21.0051C40.2491 20.0637 39.7624 19.1623 39.1934 18.3134C38.6201 17.4613 37.9672 16.6658 37.2433 15.9374C37.2351 15.9292 37.2273 15.9207 37.2199 15.9121C36.5 15.1948 35.7218 14.5547 34.8884 13.9924C34.0402 13.421 33.1393 12.9322 32.198 12.5325L32.197 12.5321C31.2215 12.1156 30.2063 11.7989 29.167 11.5869C28.1253 11.3749 27.0692 11.2696 25.9999 11.2696H25.9991C24.9376 11.2679 23.8786 11.373 22.8382 11.5833C21.8096 11.7923 20.7987 12.1081 19.8024 12.5323L19.8021 12.5324C18.8569 12.934 17.9519 13.4246 17.0996 13.9975C16.2534 14.5665 15.4642 15.2159 14.7429 15.9367L14.7429 15.9368C14.0174 16.6616 13.3646 17.4556 12.7937 18.3076C12.2241 19.1596 11.7372 20.064 11.3395 21.0085L11.339 21.0098C10.9256 21.9842 10.6114 22.9977 10.4009 24.035C10.1927 25.0667 10.0881 26.1208 10.0881 27.1937L40.6467 21.0051ZM40.6467 21.0051C40.6487 21.01 40.6509 21.0149 40.6531 21.0199C40.6553 21.0247 40.6577 21.0296 40.6601 21.0346C41.0716 21.9978 41.3845 23.0002 41.5941 24.0264C41.8061 25.0686 41.9124 26.1295 41.9116 27.193C41.9107 27.7218 41.8833 28.2502 41.8292 28.7762L41.8292 28.7766C41.7741 29.3176 41.695 29.856 41.5923 30.39L41.5922 30.3906L41.5915 30.3942L36.8839 33.8038L36.7081 33.9311L36.6811 34.1463L35.9485 39.9715H27.9906H27.8392L27.7132 40.0555L27.4079 40.2591L27.393 40.269L27.3788 40.28C27.2016 40.4174 27.0037 40.5256 26.7926 40.6007L26.7447 40.6165C26.5133 40.6926 26.2662 40.7307 25.9999 40.7307C25.7265 40.7307 25.4798 40.6925 25.2492 40.6165L25.196 40.599C24.9952 40.5272 24.8029 40.4233 24.6131 40.2821L24.5954 40.2689L24.5767 40.2574L24.233 40.0458L24.1125 39.9715H23.9709H16.0896L15.3453 34.1465L15.3177 33.9312L15.1416 33.8042L10.4068 30.3916L10.4064 30.3896C10.4064 30.3895 10.4064 30.3894 10.4064 30.3893C10.2989 29.8562 10.2188 29.318 10.1663 28.7768L10.1662 28.776C10.1144 28.2502 10.0883 27.7222 10.0881 27.1938L40.6467 21.0051ZM40.8271 20.3992C40.8278 20.3987 40.8286 20.3982 40.8296 20.3975C40.8287 20.3981 40.8278 20.3987 40.827 20.3993L40.8271 20.3992Z" stroke="white"/>
<path d="M16.2465 22.9157H15V20.9157H18.5087V30H16.2465V22.9157Z" fill="#F6D330"/>
<path d="M27.5639 26.3133H28.6142V28.1205H27.5639V30H25.4633V28.1205H21.239V26.6145L24.5977 20.9157H27.5639V26.3133ZM25.4633 26.3133V22.8193H25.4402L23.4088 26.3133H25.4633Z" fill="#F6D330"/>
<path d="M31.76 20V26.0482L33.9414 23.8193H36.8153L33.8491 26.6747L37 30H34.0568L31.76 27.4819V30H29.6593V20H31.76Z" fill="#F6D330"/>
</svg>
