<svg width="52" height="52" viewBox="0 0 52 52" fill="none" xmlns="http://www.w3.org/2000/svg">
<rect width="52" height="52" rx="8" fill="#CC2229"/>
<path fill-rule="evenodd" clip-rule="evenodd" d="M17.3759 14.6265C17.3309 14.5737 17.2759 14.5304 17.2141 14.499C17.1523 14.4675 17.0849 14.4485 17.0158 14.4432C16.9467 14.4378 16.8772 14.4461 16.8113 14.4676C16.7454 14.4891 16.6844 14.5233 16.6317 14.5684C16.5791 14.6136 16.5358 14.6686 16.5045 14.7304C16.4731 14.7923 16.4543 14.8597 16.449 14.9288C16.4437 14.9979 16.4522 15.0674 16.4738 15.1333C16.4954 15.1992 16.5298 15.2601 16.575 15.3127L17.2672 16.1206C17.3583 16.2266 17.4877 16.2921 17.627 16.3027C17.7663 16.3133 17.9041 16.2682 18.0102 16.1773C18.1163 16.0864 18.182 15.9571 18.1929 15.8178C18.2037 15.6786 18.1589 15.5407 18.0681 15.4344L17.3759 14.6265ZM16.4319 17.1244L15.3713 16.9412C15.3031 16.9294 15.2332 16.9312 15.1656 16.9464C15.0981 16.9616 15.0342 16.99 14.9776 17.0299C14.921 17.0699 14.8728 17.1205 14.8358 17.1791C14.7988 17.2376 14.7737 17.3029 14.7619 17.3711C14.7501 17.4393 14.7519 17.5092 14.7671 17.5768C14.7824 17.6443 14.8107 17.7082 14.8507 17.7648C14.8906 17.8214 14.9413 17.8696 14.9998 17.9066C15.0583 17.9436 15.1236 17.9687 15.1918 17.9805L16.2524 18.1637C16.3207 18.1754 16.3906 18.1737 16.4581 18.1584C16.5257 18.1432 16.5896 18.1148 16.6462 18.0749C16.7028 18.035 16.7509 17.9843 16.7879 17.9258C16.825 17.8672 16.8501 17.802 16.8618 17.7337C16.8736 17.6655 16.8719 17.5956 16.8566 17.5281C16.8414 17.4605 16.813 17.3966 16.7731 17.34C16.7332 17.2834 16.6825 17.2353 16.624 17.1983C16.5654 17.1612 16.5002 17.1361 16.4319 17.1244ZM20.1588 15.2662C20.2987 15.2662 20.4328 15.2106 20.5317 15.1117C20.6306 15.0128 20.6862 14.8787 20.6862 14.7388V13.6841C20.6862 13.5443 20.6306 13.4101 20.5317 13.3112C20.4328 13.2123 20.2987 13.1568 20.1588 13.1568C20.0189 13.1568 19.8848 13.2123 19.7859 13.3112C19.687 13.4101 19.6315 13.5443 19.6315 13.6841V14.7388C19.6315 14.8787 19.687 15.0128 19.7859 15.1117C19.8848 15.2106 20.0189 15.2662 20.1588 15.2662ZM20.1588 25.0005C20.0838 25.0005 20.0097 25.0165 19.9414 25.0474C19.8731 25.0783 19.8122 25.1234 19.7627 25.1797C19.3149 25.6893 15.3877 30.2282 15.3877 32.6522C15.3877 35.2346 17.528 37.3355 20.1588 37.3355C22.7896 37.3355 24.9299 35.2346 24.9299 32.6522C24.9299 30.2282 21.0027 25.6893 20.5549 25.1797C20.5054 25.1234 20.4445 25.0783 20.3762 25.0474C20.3079 25.0165 20.2338 25.0005 20.1588 25.0005ZM23.8752 32.6522C23.8752 34.653 22.2081 36.2808 20.1588 36.2808C18.1095 36.2808 16.4424 34.653 16.4424 32.6522C16.4424 31.1074 18.8416 27.916 20.1574 26.341C20.5569 26.8212 21.206 27.6266 21.8507 28.5346C23.6122 31.0154 23.8752 32.1793 23.8752 32.6522ZM20.1588 16.5781C19.8469 16.5825 19.5432 16.679 19.2859 16.8555C19.0286 17.032 18.8293 17.2806 18.7129 17.5701C18.5966 17.8595 18.5684 18.177 18.6319 18.4824C18.6955 18.7878 18.8479 19.0677 19.0701 19.2867C19.2922 19.5058 19.5742 19.6543 19.8805 19.7135C20.1868 19.7728 20.5037 19.7402 20.7916 19.6198C21.0794 19.4994 21.3252 19.2966 21.498 19.0369C21.6709 18.7772 21.7632 18.4721 21.7632 18.1602C21.7597 17.7378 21.5889 17.334 21.2881 17.0374C20.9873 16.7408 20.5812 16.5757 20.1588 16.5781ZM20.1588 18.6875C20.0554 18.6832 19.9556 18.6486 19.8717 18.5881C19.7878 18.5275 19.7236 18.4437 19.687 18.3469C19.6504 18.2501 19.6431 18.1447 19.6659 18.0438C19.6887 17.9429 19.7406 17.8509 19.8153 17.7793C19.8899 17.7077 19.984 17.6596 20.0858 17.641C20.1875 17.6224 20.2925 17.6341 20.3877 17.6747C20.4829 17.7152 20.564 17.7829 20.621 17.8692C20.6781 17.9555 20.7085 18.0567 20.7085 18.1602C20.7053 18.3029 20.6457 18.4386 20.5426 18.5374C20.4396 18.6363 20.3016 18.6902 20.1588 18.6875ZM24.9463 16.9412L23.8857 17.1244C23.8174 17.1361 23.7522 17.1612 23.6937 17.1983C23.6351 17.2353 23.5844 17.2834 23.5445 17.34C23.5046 17.3966 23.4762 17.4605 23.461 17.5281C23.4458 17.5956 23.444 17.6655 23.4558 17.7338C23.4676 17.802 23.4927 17.8672 23.5297 17.9258C23.5667 17.9843 23.6148 18.035 23.6714 18.0749C23.728 18.1148 23.7919 18.1432 23.8595 18.1584C23.927 18.1737 23.9969 18.1754 24.0652 18.1637L25.1258 17.9805C25.2636 17.9567 25.3863 17.8791 25.467 17.7648C25.5476 17.6505 25.5795 17.5089 25.5557 17.3711C25.5319 17.2333 25.4543 17.1106 25.34 17.0299C25.2258 16.9493 25.0841 16.9174 24.9463 16.9412ZM23.6853 14.5691C23.5791 14.4781 23.4411 14.4331 23.3017 14.4438C23.1622 14.4546 23.0328 14.5203 22.9417 14.6265L22.2495 15.4344C22.2043 15.487 22.1698 15.5479 22.1482 15.6138C22.1266 15.6797 22.1182 15.7492 22.1234 15.8183C22.1287 15.8875 22.1475 15.9549 22.1789 16.0167C22.2102 16.0786 22.2535 16.1337 22.3061 16.1788C22.3588 16.2239 22.4198 16.2582 22.4857 16.2797C22.5517 16.3012 22.6212 16.3095 22.6903 16.3041C22.7594 16.2987 22.8268 16.2797 22.8886 16.2482C22.9504 16.2167 23.0054 16.1734 23.0504 16.1206L23.7427 15.3127C23.7877 15.2601 23.822 15.1992 23.8435 15.1333C23.865 15.0675 23.8733 14.9981 23.868 14.929C23.8627 14.86 23.8438 14.7927 23.8125 14.7309C23.7811 14.6692 23.7379 14.6142 23.6853 14.5691Z" fill="#F6D330"/>
<path fill-rule="evenodd" clip-rule="evenodd" d="M43.4569 19.6095L40.8361 17.7315L39.0859 16.4774C38.9722 16.3959 38.8308 16.363 38.6928 16.3857C38.5548 16.4085 38.4315 16.4852 38.3501 16.5989C38.2686 16.7125 38.2356 16.8539 38.2584 16.9919C38.2812 17.1299 38.3579 17.2532 38.4715 17.3347L40.0016 18.431V24.8398C40.0019 25.1847 40.1391 25.5153 40.383 25.7592C40.6268 26.0031 40.9575 26.1402 41.3023 26.1406H41.4734V37.3644C41.4734 37.8949 41.2627 38.4038 40.8875 38.7789C40.5123 39.1541 40.0035 39.3648 39.473 39.3648C38.9424 39.3648 38.4336 39.1541 38.0585 38.7789C37.6833 38.4038 37.4725 37.8949 37.4725 37.3644V20.5859C37.4718 19.8869 37.1937 19.2167 36.6994 18.7224C36.2051 18.2281 35.5349 17.95 34.8358 17.9492H33.3946V16.2617C33.3943 15.9541 33.2719 15.6592 33.0544 15.4417C32.8369 15.2243 32.5421 15.1019 32.2345 15.1016H31.2407V10.6367C31.2399 9.93766 30.9618 9.26746 30.4675 8.77315C29.9732 8.27884 29.303 8.00079 28.6039 8H11.7137C11.0147 8.00079 10.3445 8.27884 9.85015 8.77315C9.35584 9.26746 9.07779 9.93766 9.077 10.6367V40.5675C8.7634 40.6735 8.49088 40.8751 8.29772 41.144C8.10455 41.4128 8.00044 41.7354 8 42.0664V42.418C8.00047 42.8374 8.1673 43.2395 8.46388 43.5361C8.76047 43.8327 9.16259 43.9995 9.58203 44H30.7356C31.1551 43.9995 31.5572 43.8327 31.8538 43.5361C32.1504 43.2395 32.3172 42.8374 32.3177 42.418V42.0664C32.3172 41.7354 32.2131 41.4128 32.0199 41.144C31.8268 40.8751 31.5543 40.6735 31.2407 40.5675V21.8516H32.2345C32.5421 21.8512 32.8369 21.7289 33.0544 21.5114C33.2719 21.2939 33.3943 20.999 33.3946 20.6914V19.0039H34.8358C35.2553 19.0044 35.6574 19.1712 35.954 19.4678C36.2506 19.7644 36.4174 20.1665 36.4179 20.5859V37.3644C36.4179 38.1747 36.7397 38.9518 37.3127 39.5247C37.8856 40.0976 38.6627 40.4195 39.473 40.4195C40.2832 40.4195 41.0603 40.0976 41.6333 39.5247C42.2062 38.9518 42.5281 38.1747 42.5281 37.3644V26.1406H42.6992C43.0441 26.1402 43.3747 26.0031 43.6186 25.7592C43.8624 25.5154 43.9996 25.1847 44 24.8398V20.6668C43.9998 20.4601 43.9504 20.2565 43.856 20.0726C43.7615 19.8888 43.6248 19.73 43.4569 19.6095ZM10.1317 10.6367C10.1322 10.2173 10.299 9.81516 10.5956 9.51857C10.8922 9.22199 11.2943 9.05516 11.7137 9.05469H28.6039C29.0234 9.05516 29.4255 9.22199 29.7221 9.51857C30.0187 9.81516 30.1855 10.2173 30.186 10.6367V40.4844H10.1317V10.6367ZM31.263 42.0664V42.418C31.2628 42.5578 31.2072 42.6918 31.1083 42.7907C31.0095 42.8895 30.8754 42.9452 30.7356 42.9453H9.58203C9.44222 42.9452 9.30817 42.8895 9.20931 42.7907C9.11045 42.6918 9.05484 42.5578 9.05469 42.418V42.0664C9.05484 41.9266 9.11045 41.7925 9.20931 41.6937C9.30817 41.5948 9.44222 41.5392 9.58203 41.5391H30.7356C30.8754 41.5392 31.0095 41.5948 31.1083 41.6937C31.2072 41.7925 31.2628 41.9266 31.263 42.0664ZM32.3399 20.6914C32.3399 20.7194 32.3288 20.7462 32.309 20.766C32.2892 20.7857 32.2624 20.7968 32.2345 20.7969H31.2407V16.1562H32.2345C32.2624 16.1563 32.2892 16.1674 32.309 16.1872C32.3288 16.2069 32.3399 16.2338 32.3399 16.2617L32.3399 20.6914ZM42.9453 24.8398C42.9452 24.9051 42.9193 24.9676 42.8731 25.0138C42.827 25.0599 42.7645 25.0859 42.6992 25.0859H41.3023C41.2371 25.0859 41.1745 25.0599 41.1284 25.0138C41.0823 24.9676 41.0563 24.9051 41.0562 24.8398V23.785L41.3645 24.0591C41.4162 24.1053 41.4765 24.1409 41.542 24.1638C41.6075 24.1867 41.6769 24.1964 41.7461 24.1925C41.8154 24.1885 41.8832 24.1709 41.9457 24.1407C42.0081 24.1105 42.064 24.0683 42.1101 24.0164C42.1562 23.9646 42.1916 23.9042 42.2144 23.8386C42.2371 23.773 42.2466 23.7036 42.2424 23.6344C42.2383 23.5651 42.2205 23.4974 42.1901 23.435C42.1597 23.3726 42.1173 23.3169 42.0653 23.2709L41.0562 22.3736V19.1868L42.8426 20.4668C42.8743 20.4896 42.9002 20.5196 42.9181 20.5544C42.9359 20.5892 42.9453 20.6277 42.9453 20.6668V24.8398Z" fill="white"/>
</svg>
