<svg width="150" height="150" viewBox="0 0 150 150" fill="none" xmlns="http://www.w3.org/2000/svg">
<path fill-rule="evenodd" clip-rule="evenodd" d="M0 0H150V150H0V0Z" fill="white"/>
<path d="M131.703 41.812C134.15 45.4621 136.242 49.3377 137.951 53.3859C137.951 53.3867 137.953 53.3844 137.954 53.3851C139.747 57.561 141.108 61.909 142.017 66.3614C142.929 70.8416 143.386 75.4023 143.382 79.9742C143.379 82.2474 143.26 84.5189 143.028 86.7802C142.792 89.0957 142.454 91.3995 142.014 93.6851L141.856 94.5115L121.572 109.203L118.29 135.298H83.2946L82.0223 136.146C81.0425 136.906 79.94 137.492 78.7625 137.881H78.7547C77.5633 138.273 76.312 138.461 75 138.461C73.6607 138.461 72.4109 138.273 71.2203 137.881H71.2118C70.0694 137.506 69.0009 136.941 67.9776 136.179L66.5458 135.298H31.8729L28.5392 109.208L8.14915 94.5115L7.98495 93.7014C7.52321 91.4103 7.17881 89.0971 6.95307 86.7709C6.73045 84.5121 6.61851 82.2439 6.61768 79.9742C6.61768 75.3673 7.06669 70.8367 7.96238 66.3995C8.867 61.94 10.218 57.5828 11.9949 53.3937C13.7034 49.3355 15.7956 45.4497 18.243 41.7894C20.6972 38.1263 23.504 34.7123 26.6233 31.5959C29.7233 28.4976 33.1157 25.7062 36.7529 23.2608C40.4141 20.7999 44.301 18.6927 48.3611 16.9676C52.638 15.1466 56.985 13.7879 61.4128 12.8883C65.8852 11.9842 70.4372 11.5324 75 11.5397C79.5936 11.5397 84.1335 11.9926 88.6128 12.9039C93.0811 13.8154 97.4456 15.1769 101.64 16.9676C105.684 18.6849 109.555 20.7855 113.2 23.2405C116.823 25.6848 120.203 28.4715 123.325 31.5959C123.328 31.5975 123.324 31.6022 123.325 31.6037C126.435 34.7331 129.241 38.1513 131.703 41.812Z" fill="white"/>
<path fill-rule="evenodd" clip-rule="evenodd" d="M136.004 54.2147C132.637 46.2577 127.893 39.2183 121.824 33.0978C115.754 27.028 108.715 22.2841 100.809 18.9177C92.5465 15.3987 83.9258 13.6642 75 13.6642C66.0228 13.6642 57.4542 15.3987 49.1907 18.9177C41.2843 22.2841 34.1943 27.028 28.1252 33.0978C22.0048 39.2183 17.3115 46.2577 13.9451 54.2147C10.4767 62.4269 8.74292 71.0469 8.74292 79.9735C8.74292 84.3601 9.15069 88.746 10.0689 93.2859L30.522 108.026L33.7351 133.172H67.1442L69.1332 134.395C70.8678 135.722 72.7549 136.333 74.9992 136.333C77.1929 136.333 79.1314 135.722 80.8138 134.395L82.6496 133.172H116.417L119.579 108.026L139.93 93.2859C140.798 88.746 141.257 84.3593 141.257 79.9735C141.257 71.0469 139.523 62.4269 136.004 54.2147Z" fill="#CC2229"/>
<path fill-rule="evenodd" clip-rule="evenodd" d="M126.211 61.7639C124.884 56.1532 122.028 51.358 117.59 47.4818L86.528 100.988L114.02 42.3302C110.347 37.4845 105.706 34.1694 99.8404 32.2815L80.8146 98.7939L94.7402 29.5781C90.4041 27.1805 85.8136 25.9564 80.9165 25.9564L77.8053 26.1603L75.0513 98.1807L72.144 26.1603L69.0834 25.9564C64.1871 25.9564 59.5452 27.1805 55.2605 29.5781L69.0321 98.7939L50.1603 32.2823C44.2943 34.1702 39.5513 37.4852 35.981 42.331L63.626 100.988L32.4099 47.4826C27.9727 51.3587 25.1159 56.1539 23.7899 61.7647L58.5764 104.507L22.7697 68.5473C21.1371 72.2204 20.3215 76.0459 20.3215 79.9734C20.3215 82.1664 20.5768 84.5118 21.1884 87.0121L41.2851 101.702L43.9379 121.441H68.3698L71.8382 124.093C72.8078 124.756 73.828 125.062 75.0007 125.113C76.1229 125.063 77.1944 124.756 78.0613 124.093L81.7336 121.441H106.267L108.768 101.702L128.812 87.0121C129.373 84.5118 129.68 82.1664 129.68 79.9734C129.68 76.0459 128.812 72.2204 127.232 68.5473L91.6298 104.506L126.211 61.7639Z" fill="#F6D330"/>
</svg>
