<svg width="96" height="96" viewBox="0 0 96 96" fill="none" xmlns="http://www.w3.org/2000/svg">
<path d="M78.5004 4.80811H17.4997C10.5149 4.80811 4.80005 10.5228 4.80005 17.5076V78.5083C4.80005 85.4932 10.5149 91.2081 17.4997 91.2081H78.5004C85.4852 91.2081 91.2 85.4932 91.2 78.5083V17.5076C91.2 10.5228 85.4852 4.80811 78.5004 4.80811ZM88.8 78.5083C88.8 84.1876 84.1796 88.8081 78.5004 88.8081H17.4997C11.8205 88.8081 7.20005 84.1876 7.20005 78.5083V17.5076C7.20005 11.8284 11.8205 7.20811 17.4997 7.20811H78.5004C84.1796 7.20811 88.8 11.8284 88.8 17.5076V78.5083Z" fill="white"/>
<path d="M19.9518 49.9033C19.6235 49.5759 19.2343 49.3156 18.7846 49.1231C18.3347 48.9316 17.8427 48.835 17.3084 48.835H13.793V59.0998H15.7057V56.1609H17.294C17.8281 56.1609 18.3223 56.0652 18.7772 55.8727C19.2323 55.6802 19.6235 55.4209 19.9518 55.0926C20.2801 54.7642 20.5375 54.375 20.7249 53.9252C20.9123 53.4753 21.006 52.9967 21.006 52.4913C21.006 51.9847 20.9123 51.5092 20.7249 51.0634C20.5375 50.6188 20.2801 50.2316 19.9518 49.9033ZM18.939 53.2294C18.8452 53.459 18.7145 53.6607 18.5457 53.8335C18.3769 54.0076 18.1751 54.1434 17.9404 54.2412C17.7068 54.3399 17.4484 54.3895 17.1675 54.3895H15.7057V50.6063H17.1675C17.4484 50.6063 17.7068 50.6559 17.9404 50.7546C18.1751 50.8524 18.3769 50.9863 18.5457 51.1551C18.7145 51.3239 18.8452 51.5236 18.939 51.7532C19.0326 51.9828 19.0799 52.2287 19.0799 52.4913C19.0799 52.7537 19.0326 52.9998 18.939 53.2294Z" fill="white"/>
<path d="M26.7221 50.9719C26.4822 50.9071 26.2136 50.874 25.9131 50.874C24.8918 50.874 24.1888 51.2817 23.8038 52.0971V50.874H21.9202V59.0998H23.8184V54.7126C23.8184 54.0003 23.9614 53.4867 24.2475 53.1727C24.5326 52.8587 24.9526 52.7023 25.5053 52.7023C25.7773 52.7023 25.9995 52.7321 26.1734 52.7927C26.3464 52.8547 26.5038 52.9319 26.645 53.0254L27.3614 51.2251C27.1741 51.1222 26.961 51.0377 26.7221 50.9719Z" fill="white"/>
<path d="M34.2869 52.0591C33.8979 51.6845 33.4459 51.3911 32.9303 51.1791C32.4144 50.9659 31.8618 50.8599 31.2709 50.8599C30.6811 50.8599 30.1251 50.9659 29.6053 51.1791C29.0845 51.3911 28.6325 51.6845 28.2475 52.0591C27.8637 52.4349 27.561 52.8723 27.3408 53.3747C27.1205 53.876 27.0103 54.4154 27.0103 54.9939C27.0103 55.5632 27.1205 56.0986 27.3408 56.5999C27.561 57.1021 27.8637 57.5397 28.2475 57.9143C28.6325 58.2901 29.0845 58.5834 29.6053 58.7955C30.1251 59.0085 30.6811 59.1146 31.2709 59.1146C31.8618 59.1146 32.4144 59.0085 32.9303 58.7955C33.4459 58.5834 33.8979 58.2901 34.2869 57.9143C34.676 57.5397 34.9808 57.1021 35.2011 56.5999C35.4215 56.0986 35.5315 55.5632 35.5315 54.9939C35.5315 54.4154 35.4215 53.876 35.2011 53.3747C34.9808 52.8723 34.676 52.4349 34.2869 52.0591ZM33.4789 55.8968C33.3563 56.1829 33.1875 56.432 32.9723 56.6419C32.7573 56.8541 32.5042 57.0208 32.2127 57.1443C31.9224 57.2669 31.6085 57.3287 31.2709 57.3287C30.9333 57.3287 30.6171 57.2669 30.3218 57.1443C30.0264 57.0208 29.7731 56.8541 29.5632 56.6419C29.3522 56.432 29.1853 56.1829 29.0639 55.8968C28.9413 55.6115 28.8807 55.3099 28.8807 54.9939C28.8807 54.6687 28.9413 54.3629 29.0639 54.0768C29.1853 53.7915 29.3522 53.5426 29.5632 53.3315C29.7731 53.1205 30.0264 52.9536 30.3218 52.8301C30.6171 52.7077 30.9333 52.6459 31.2709 52.6459C31.6085 52.6459 31.9224 52.7077 32.2127 52.8301C32.5042 52.9536 32.7573 53.1205 32.9723 53.3315C33.1875 53.5426 33.3563 53.7915 33.4789 54.0768C33.6003 54.3629 33.6611 54.6687 33.6611 54.9939C33.6611 55.3099 33.6003 55.6115 33.4789 55.8968Z" fill="white"/>
<path d="M40.4396 59.1146C40.9172 59.1146 41.3631 59.0517 41.7758 58.9282C42.1874 58.8037 42.5601 58.6296 42.8937 58.4043C43.2263 58.1787 43.5185 57.9101 43.7719 57.5973C44.025 57.2853 44.2308 56.9447 44.3905 56.5771L42.69 55.8915C42.5015 56.3136 42.2185 56.6584 41.8386 56.9261C41.4588 57.1947 41.0017 57.3287 40.4674 57.3287C40.1206 57.3287 39.7972 57.2669 39.4978 57.1443C39.1972 57.0208 38.9367 56.8541 38.7175 56.6419C38.4962 56.432 38.3254 56.1829 38.2038 55.8968C38.0814 55.6115 38.0206 55.3099 38.0206 54.9939C38.0206 54.6687 38.0814 54.3629 38.2038 54.0768C38.3254 53.7915 38.4962 53.5426 38.7175 53.3315C38.9367 53.1205 39.1951 52.9536 39.4905 52.8301C39.786 52.7077 40.1073 52.6459 40.4542 52.6459C40.9596 52.6459 41.4073 52.7715 41.7964 53.0226C42.1855 53.2738 42.4737 53.6104 42.661 54.0325L44.3626 53.3602C44.203 52.9919 43.9972 52.6562 43.7441 52.3515C43.4906 52.0479 43.1953 51.7853 42.8577 51.565C42.521 51.3437 42.1484 51.1707 41.7398 51.0463C41.3321 50.9226 40.8988 50.8599 40.4396 50.8599C39.8396 50.8599 39.2794 50.9659 38.7598 51.1791C38.2388 51.3911 37.787 51.6845 37.402 52.0591C37.018 52.4349 36.7153 52.8723 36.4949 53.3747C36.2746 53.876 36.1646 54.4154 36.1646 54.9939C36.1646 55.5632 36.2746 56.0986 36.4949 56.5999C36.7153 57.1021 37.018 57.5375 37.402 57.9082C37.787 58.2787 38.2388 58.5722 38.7598 58.7893C39.2794 59.0055 39.8396 59.1146 40.4396 59.1146Z" fill="white"/>
<path d="M51.4571 58.5021C52.0984 58.0944 52.5976 57.5581 52.9538 56.892L51.3933 55.9925C51.1967 56.4331 50.9011 56.785 50.508 57.0475C50.1138 57.3101 49.6495 57.4408 49.1152 57.4408C48.441 57.4408 47.8831 57.2627 47.4426 56.9066C47.0008 56.5504 46.7157 56.0819 46.584 55.5003H53.2781V54.8282C53.2781 54.257 53.172 53.7299 52.961 53.2459C52.7501 52.7632 52.4576 52.3432 52.0818 51.9871C51.7072 51.6309 51.2595 51.3539 50.7395 51.1563C50.2197 50.9587 49.6546 50.8599 49.0453 50.8599C48.445 50.8599 47.8851 50.969 47.3653 51.1851C46.8445 51.4024 46.3925 51.6959 46.0074 52.0664C45.6235 52.4368 45.321 52.8755 45.1007 53.381C44.8803 53.8872 44.7703 54.4288 44.7703 55.0074C44.7703 55.5767 44.8762 56.1119 45.0872 56.6141C45.2973 57.1155 45.5927 57.5509 45.9725 57.9216C46.3523 58.292 46.8095 58.5834 47.3437 58.7955C47.8779 59.0085 48.4688 59.1146 49.1152 59.1146C50.0344 59.1146 50.8147 58.9107 51.4571 58.5021ZM47.5619 52.9125C47.9789 52.6592 48.4728 52.5336 49.0453 52.5336C49.636 52.5336 50.1322 52.6499 50.5357 52.8837C50.9383 53.1173 51.2112 53.4602 51.3511 53.9111H46.6829C46.8515 53.4983 47.144 53.1647 47.5619 52.9125Z" fill="white"/>
<path d="M59.6469 54.856C59.3658 54.6819 59.0539 54.5431 58.7122 54.4402C58.3695 54.3371 58.0298 54.2549 57.6922 54.192C57.0735 54.0664 56.6051 53.948 56.2859 53.8368C55.9679 53.7247 55.8083 53.5394 55.8083 53.28C55.8083 53.0567 55.9163 52.86 56.1315 52.6903C56.3477 52.5203 56.68 52.4349 57.1299 52.4349C57.5242 52.4349 57.8703 52.5152 58.1707 52.6757C58.4703 52.8354 58.705 53.0535 58.8738 53.3293L60.4911 52.5645C60.1719 52.0386 59.7384 51.6239 59.1899 51.3179C58.6411 51.0123 57.9546 50.8599 57.1299 50.8599C56.6421 50.8599 56.1994 50.9248 55.8011 51.0544C55.4026 51.1842 55.0631 51.3602 54.7821 51.5835C54.501 51.808 54.2827 52.0642 54.1283 52.3546C53.973 52.645 53.8957 52.9464 53.8957 53.2594C53.8957 53.6711 53.98 54.013 54.149 54.2848C54.3176 54.5575 54.5379 54.7808 54.8098 54.9559C55.0815 55.1298 55.3883 55.2656 55.7312 55.3645C56.0728 55.4632 56.4218 55.5477 56.7791 55.6187C57.0312 55.6723 57.2752 55.7218 57.5099 55.7659C57.7435 55.8112 57.9474 55.8667 58.1213 55.9338C58.2943 56.0007 58.4352 56.0789 58.5434 56.1685C58.6504 56.2579 58.705 56.3743 58.705 56.5173C58.705 56.7768 58.5875 57.0002 58.353 57.1875C58.1192 57.3749 57.7672 57.4685 57.2989 57.4685C56.849 57.4685 56.4547 57.3728 56.1171 57.1794C55.7805 56.9858 55.5128 56.7088 55.3162 56.3487L53.5581 57.1392C53.8864 57.7795 54.3507 58.2685 54.9507 58.6071C55.5499 58.9447 56.3055 59.1146 57.2144 59.1146C57.8053 59.1146 58.3107 59.0343 58.7327 58.8727C59.1547 58.712 59.5039 58.504 59.7808 58.2488C60.0565 57.9946 60.2615 57.7176 60.3922 57.4171C60.5239 57.1186 60.5888 56.8304 60.5888 56.5523C60.5888 56.1416 60.5023 55.7989 60.3295 55.5261C60.1554 55.2544 59.9279 55.0299 59.6469 54.856Z" fill="white"/>
<path d="M67.0709 54.856C66.7899 54.6819 66.4779 54.5431 66.136 54.4402C65.7933 54.3371 65.4536 54.2549 65.116 54.192C64.4975 54.0664 64.029 53.948 63.7099 53.8368C63.3917 53.7247 63.2322 53.5394 63.2322 53.28C63.2322 53.0567 63.3402 52.86 63.5555 52.6903C63.7715 52.5203 64.1042 52.4349 64.5541 52.4349C64.9482 52.4349 65.2941 52.5152 65.5946 52.6757C65.8942 52.8354 66.129 53.0535 66.2978 53.3293L67.9149 52.5645C67.5957 52.0386 67.1624 51.6239 66.6138 51.3179C66.0651 51.0123 65.3786 50.8599 64.5541 50.8599C64.0661 50.8599 63.6234 50.9248 63.225 51.0544C62.8267 51.1842 62.4869 51.3602 62.2059 51.5835C61.9248 51.808 61.7067 52.0642 61.5523 52.3546C61.3968 52.645 61.3197 52.9464 61.3197 53.2594C61.3197 53.6711 61.404 54.013 61.5728 54.2848C61.7418 54.5575 61.9619 54.7808 62.2338 54.9559C62.5054 55.1298 62.8122 55.2656 63.1551 55.3645C63.4966 55.4632 63.8458 55.5477 64.2029 55.6187C64.4551 55.6723 64.6992 55.7218 64.9338 55.7659C65.1675 55.8112 65.3714 55.8667 65.5453 55.9338C65.7182 56.0007 65.8592 56.0789 65.9674 56.1685C66.0744 56.2579 66.129 56.3743 66.129 56.5173C66.129 56.7768 66.0115 57.0002 65.7768 57.1875C65.5432 57.3749 65.1911 57.4685 64.7227 57.4685C64.273 57.4685 63.8786 57.3728 63.541 57.1794C63.2043 56.9858 62.9368 56.7088 62.7402 56.3487L60.9819 57.1392C61.3104 57.7795 61.7746 58.2685 62.3747 58.6071C62.9738 58.9447 63.7294 59.1146 64.6382 59.1146C65.2291 59.1146 65.7347 59.0343 66.1568 58.8727C66.5789 58.712 66.9277 58.504 67.2046 58.2488C67.4805 57.9946 67.6853 57.7176 67.816 57.4171C67.9478 57.1186 68.0126 56.8304 68.0126 56.5523C68.0126 56.1416 67.9262 55.7989 67.7533 55.5261C67.5794 55.2544 67.3518 55.0299 67.0709 54.856Z" fill="white"/>
<path d="M75.8379 52.0591C75.449 51.6845 74.9971 51.3911 74.4813 51.1791C73.9656 50.9659 73.413 50.8599 72.8219 50.8599C72.2322 50.8599 71.6763 50.9659 71.1563 51.1791C70.6355 51.3911 70.1835 51.6845 69.7987 52.0591C69.4147 52.4349 69.112 52.8723 68.8918 53.3747C68.6715 53.876 68.5613 54.4154 68.5613 54.9939C68.5613 55.5632 68.6715 56.0986 68.8918 56.5999C69.112 57.1021 69.4147 57.5397 69.7987 57.9143C70.1835 58.2901 70.6355 58.5834 71.1563 58.7955C71.6763 59.0085 72.2322 59.1146 72.8219 59.1146C73.413 59.1146 73.9656 59.0085 74.4813 58.7955C74.9971 58.5834 75.449 58.2901 75.8379 57.9143C76.2272 57.5397 76.532 57.1021 76.752 56.5999C76.9723 56.0986 77.0826 55.5632 77.0826 54.9939C77.0826 54.4154 76.9723 53.876 76.752 53.3747C76.532 52.8723 76.2272 52.4349 75.8379 52.0591ZM75.0299 55.8968C74.9074 56.1829 74.7387 56.432 74.5235 56.6419C74.3083 56.8541 74.055 57.0208 73.7638 57.1443C73.4736 57.2669 73.1595 57.3287 72.8219 57.3287C72.4843 57.3287 72.1683 57.2669 71.8728 57.1443C71.5774 57.0208 71.3242 56.8541 71.1142 56.6419C70.9032 56.432 70.7365 56.1829 70.6149 55.8968C70.4925 55.6115 70.4317 55.3099 70.4317 54.9939C70.4317 54.6687 70.4925 54.3629 70.6149 54.0768C70.7365 53.7915 70.9032 53.5426 71.1142 53.3315C71.3242 53.1205 71.5774 52.9536 71.8728 52.8301C72.1683 52.7077 72.4843 52.6459 72.8219 52.6459C73.1595 52.6459 73.4736 52.7077 73.7638 52.8301C74.055 52.9536 74.3083 53.1205 74.5235 53.3315C74.7387 53.5426 74.9074 53.7915 75.0299 54.0768C75.1515 54.3629 75.2122 54.6687 75.2122 54.9939C75.2122 55.3099 75.1515 55.6115 75.0299 55.8968Z" fill="white"/>
<path d="M81.9063 50.874C80.8852 50.874 80.1821 51.2817 79.7972 52.0971V50.874H77.9133V59.0998H79.8116V54.7126C79.8116 54.0003 79.9546 53.4867 80.2409 53.1727C80.526 52.8587 80.946 52.7023 81.4986 52.7023C81.7705 52.7023 81.9927 52.7321 82.1668 52.7927C82.3397 52.8547 82.4972 52.9319 82.6381 53.0254L83.3546 51.2251C83.1674 51.1222 82.9541 51.0377 82.7154 50.9719C82.4756 50.9071 82.2069 50.874 81.9063 50.874Z" fill="white"/>
<path d="M28.2456 46.0586C28.8097 46.0586 29.3027 45.9586 29.7259 45.7602C30.1489 45.5615 30.5009 45.2864 30.783 44.9365V46.0431H32.8069V37.208H30.7686V41.9451C30.7686 42.7027 30.5824 43.2823 30.2096 43.6858C29.8371 44.0893 29.3686 44.291 28.8045 44.291C28.1601 44.291 27.6846 44.0965 27.3779 43.7085C27.0701 43.3192 26.9166 42.7914 26.9166 42.1223V37.208H24.8477V42.3518C24.8477 43.5181 25.1525 44.428 25.7617 45.0797C26.371 45.7323 27.1987 46.0586 28.2456 46.0586Z" fill="white"/>
<path d="M35.0725 44.8932C35.4853 45.2721 35.9505 45.5613 36.4694 45.7601C36.9872 45.9585 37.5133 46.0585 38.0473 46.0585C38.631 46.0585 39.1745 45.9452 39.679 45.7188C40.1824 45.4924 40.5952 45.1825 40.9173 44.7871V46.0429H42.9555V37.2079H40.9173V38.373C40.5952 38.0087 40.1865 37.7204 39.6934 37.5093C39.2003 37.2983 38.6609 37.1924 38.0773 37.1924C37.5235 37.1924 36.983 37.2922 36.4539 37.4908C35.9259 37.6895 35.4576 37.9788 35.0499 38.3577C34.6411 38.7354 34.3137 39.1996 34.0678 39.7473C33.8208 40.2959 33.6973 40.9239 33.6973 41.633C33.6973 42.3309 33.8238 42.9548 34.075 43.5034C34.3273 44.0521 34.6587 44.5154 35.0725 44.8932ZM35.9104 40.5965C36.0462 40.2845 36.2347 40.0149 36.4766 39.7873C36.7184 39.561 37.0025 39.3809 37.3299 39.249C37.6574 39.1162 38.0073 39.0503 38.38 39.0503C38.7617 39.0503 39.1149 39.1162 39.4371 39.249C39.7593 39.3809 40.0361 39.5631 40.2678 39.7946C40.4995 40.0261 40.6827 40.2991 40.8185 40.6109C40.9544 40.9229 41.0224 41.2543 41.0224 41.6033C41.0224 41.9625 40.9544 42.2991 40.8185 42.6111C40.6827 42.9229 40.4995 43.1967 40.2678 43.4335C40.0361 43.6703 39.7593 43.8545 39.4371 43.9873C39.1149 44.1191 38.7617 44.1849 38.38 44.1849C38.0073 44.1849 37.6574 44.1191 37.3299 43.9873C37.0025 43.8545 36.7184 43.6722 36.4766 43.4407C36.2347 43.209 36.0462 42.9341 35.9104 42.6181C35.7745 42.3012 35.7065 41.9625 35.7065 41.6033C35.7065 41.2439 35.7745 40.9084 35.9104 40.5965Z" fill="white"/>
<path d="M46.233 41.3058C46.233 40.5481 46.4317 39.9685 46.829 39.565C47.2274 39.1615 47.7184 38.9597 48.3021 38.9597C48.967 38.9597 49.4653 39.1545 49.7976 39.5425C50.1291 39.9316 50.2958 40.4596 50.2958 41.1287V46.0429H52.365V40.8991C52.365 39.7329 52.055 38.8229 51.4355 38.1713C50.8168 37.5186 49.9582 37.1924 48.861 37.1924C48.2866 37.1924 47.776 37.3045 47.3282 37.5269C46.8794 37.7503 46.5099 38.0457 46.2176 38.4141V37.2079H44.1936V46.0429H46.233V41.3058Z" fill="white"/>
<path d="M54.1317 42.3579C54.1317 43.063 54.1893 43.6486 54.3056 44.1171C54.4208 44.5854 54.6153 44.9632 54.8872 45.2505C55.1589 45.5364 55.5233 45.7416 55.9824 45.8619C56.4405 45.9824 57.0118 46.043 57.6963 46.043H57.9835V44.1252C57.5902 44.1252 57.2753 44.1048 57.0397 44.0646C56.8029 44.0244 56.6216 43.9411 56.495 43.8155C56.3694 43.6899 56.2861 43.5088 56.2459 43.272C56.2057 43.0352 56.1862 42.7254 56.1862 42.3425V39.035H57.9835V37.208H56.1862V34.4595L54.1317 35.8635V37.208H52.6216V39.035H54.1317V42.3579Z" fill="white"/>
<path d="M62.3624 46.0586C62.9264 46.0586 63.4196 45.9586 63.8428 45.7602C64.2656 45.5615 64.6178 45.2864 64.8999 44.9365V46.0431H66.9236V37.208H64.8853V41.9451C64.8853 42.7027 64.6992 43.2823 64.3264 43.6858C63.9538 44.0893 63.4855 44.291 62.9213 44.291C62.277 44.291 61.8013 44.0965 61.4946 43.7085C61.1869 43.3192 61.0335 42.7914 61.0335 42.1223V37.208H58.9644V42.3518C58.9644 43.5181 59.2692 44.428 59.8784 45.0797C60.4879 45.7323 61.3156 46.0586 62.3624 46.0586Z" fill="white"/>
<path d="M70.2165 41.2615C70.2165 40.4946 70.405 39.9191 70.7829 39.5353C71.1605 39.1513 71.636 38.9597 72.2105 38.9597C72.8241 38.9597 73.2873 39.1369 73.5993 39.4909C73.9122 39.845 74.0676 40.3319 74.0676 40.9516V46.0429H76.1367V41.2172C76.1367 40.4596 76.3229 39.8945 76.6956 39.5209C77.0681 39.1471 77.5314 38.9597 78.0852 38.9597C78.7193 38.9597 79.198 39.1441 79.5202 39.5125C79.8425 39.8821 80.0029 40.3813 80.0029 41.0103V46.0429H82.0876V40.825C82.0876 39.6978 81.7858 38.8116 81.1817 38.1641C80.5773 37.5165 79.6809 37.1924 78.4929 37.1924C77.8588 37.1924 77.2925 37.3292 76.7945 37.6021C76.2951 37.8748 75.8957 38.2393 75.5932 38.6953C75.3317 38.2197 74.961 37.8501 74.4834 37.5866C74.0047 37.3241 73.418 37.1924 72.7233 37.1924C72.1796 37.1924 71.6938 37.2964 71.2666 37.5033C70.8384 37.7101 70.4832 37.9921 70.2012 38.3484V37.2079H68.1775V46.0429H70.2165V41.2615Z" fill="white"/>
<path d="M18.2341 46.2362C19.3752 46.2362 20.4328 45.8927 21.323 45.3137L22.0121 46.0426H24.7414L22.7645 43.9511C23.4779 43.0012 23.9163 41.8335 23.9163 40.5542C23.9163 37.4159 21.3723 34.8721 18.2341 34.8721C15.096 34.8721 12.552 37.4159 12.552 40.5542C12.552 43.6924 15.096 46.2362 18.2341 46.2362ZM18.2341 36.8345C20.2851 36.8345 21.9537 38.5033 21.9537 40.5542C21.9537 41.2687 21.7414 41.9306 21.3907 42.498L19.7001 40.7095H16.9707L19.9334 43.8436C19.4216 44.1094 18.8494 44.2738 18.2341 44.2738C16.183 44.2738 14.5145 42.6052 14.5145 40.5542C14.5145 38.5033 16.183 36.8345 18.2341 36.8345Z" fill="white"/>
<path d="M66.9667 31.1295H79.9992C81.1477 31.1295 82.0875 30.1897 82.0875 29.0411V16.0087C82.0875 14.8602 81.1477 13.9204 79.9992 13.9204H66.9667C65.8183 13.9204 64.8784 14.8602 64.8784 16.0087V29.0411C64.8784 30.1897 65.8183 31.1295 66.9667 31.1295Z" fill="white"/>
<path d="M55.3444 67.8262L50.2227 72.8209V72.4647V67.8262H48.1865V81.7284H50.2227V76.6332V75.8959L55.3444 81.7284H58.2134L51.6371 74.2395L58.2134 67.8262H55.3444Z" fill="white"/>
<path d="M44.75 76.1303V67.8262H42.7947L37.1057 76.5702V78.1801H42.7108V81.7228H44.75V78.1801H46.8763V76.1303H44.75ZM39.6339 76.1303L42.7108 71.4035V76.1303H39.6339Z" fill="white"/>
<path d="M70.4147 17.2998L66.8787 27.2272H68.8099L69.4223 25.4598H73.2702L73.8827 27.2272H75.8137L72.2779 17.2998H70.4147ZM70.0471 23.6913L71.3534 19.9248L72.6588 23.6913H70.0471Z" fill="#020202"/>
<path d="M79.1861 17.2998H77.3362V27.2272H79.1861V17.2998Z" fill="#020202"/>
</svg>
