<svg width="96" height="96" viewBox="0 0 96 96" fill="none" xmlns="http://www.w3.org/2000/svg">
<path d="M76.1801 39.3715C74.4906 38.9183 72.7641 38.6189 71.018 38.4668C72.132 37.1372 73.1432 35.707 74.0273 34.1777C76.6594 29.6391 78.0504 24.443 78.0504 19.1496C78.0504 18.4863 77.5137 17.9496 76.8504 17.9496C71.557 17.9496 66.3609 19.3406 61.8234 21.9727C60.2899 22.8595 58.856 23.8737 57.5232 24.9911C57.3716 23.2455 57.0823 21.5143 56.6297 19.8223C55.282 14.7527 52.5914 10.0945 48.8484 6.35156C48.3797 5.88281 47.6203 5.88281 47.1516 6.35156C43.4086 10.0945 40.718 14.7527 39.3715 19.8199C38.9184 21.5112 38.6297 23.2436 38.4779 24.9917C37.1451 23.874 35.7113 22.8595 34.1777 21.9727C29.6391 19.3406 24.443 17.9496 19.1496 17.9496C18.4863 17.9496 17.9496 18.4863 17.9496 19.1496C17.9496 24.443 19.3406 29.6391 21.9727 34.1766C22.8595 35.71 23.8742 37.1438 24.9919 38.4768C23.246 38.6282 21.5145 38.9177 19.8223 39.3703C14.7527 40.718 10.0945 43.4086 6.35156 47.1516C5.88281 47.6203 5.88281 48.3797 6.35156 48.8484C10.0945 52.5914 14.7527 55.282 19.8199 56.6285C21.511 57.0816 23.243 57.3712 24.9908 57.523C23.8734 58.8557 22.8591 60.2892 21.9727 61.8223C19.3406 66.3609 17.9496 71.557 17.9496 76.8504C17.9496 77.5137 18.4863 78.0504 19.1496 78.0504C24.443 78.0504 29.6391 76.6594 34.1766 74.0273C35.7101 73.1407 37.144 72.1263 38.4768 71.0087C38.6284 72.7544 38.9178 74.4857 39.3703 76.1777C40.718 81.2473 43.4086 85.9055 47.1516 89.6484C47.3859 89.8828 47.693 90 48 90C48.307 90 48.6141 89.8828 48.8484 89.6484C52.5914 85.9055 55.282 81.2473 56.6285 76.1801C57.0816 74.4888 57.3702 72.7564 57.522 71.0083C58.8549 72.126 60.2887 73.1407 61.8223 74.0273C66.3609 76.6594 71.557 78.0504 76.8504 78.0504C77.5137 78.0504 78.0504 77.5137 78.0504 76.8504C78.0504 71.557 76.6594 66.3609 74.0285 61.8234C73.1418 60.2899 72.1272 58.856 71.0096 57.5232C72.755 57.3715 74.486 57.0822 76.1777 56.6297C81.2473 55.282 85.9055 52.5914 89.6484 48.8484C90.1172 48.3797 90.1172 47.6203 89.6484 47.1516C85.9055 43.4086 81.2473 40.718 76.1801 39.3715ZM63.027 24.0492C66.8484 21.832 71.1797 20.5734 75.6234 20.3766C75.4266 24.8203 74.168 29.1516 71.9496 32.9742C70.7667 35.0209 69.3392 36.8766 67.7231 38.5251C67.5305 38.6361 67.3746 38.7932 67.2686 38.9889C63.6182 42.5421 59.0335 45.0311 53.9793 46.1443C53.3657 44.1753 51.8246 42.6343 49.8554 42.0208C50.9965 36.836 53.5915 32.148 57.295 28.4515C57.2972 28.4493 57.2993 28.4474 57.3015 28.4452C58.9924 26.7586 60.9086 25.2743 63.027 24.0492ZM48 51.8906C45.8543 51.8906 44.1094 50.1457 44.1094 48C44.1094 45.8543 45.8543 44.1094 48 44.1094C50.1457 44.1094 51.8906 45.8543 51.8906 48C51.8906 50.1457 50.1457 51.8906 48 51.8906ZM48 8.93555C51.0035 12.2168 53.175 16.1695 54.3106 20.441C54.8925 22.6178 55.1953 24.8615 55.2346 27.1176C51.8594 30.6038 49.3677 34.865 48 39.5663C46.6324 34.8653 44.1411 30.6047 40.7667 27.1187C40.8062 24.8578 41.1078 22.6134 41.6906 20.4387C42.825 16.1695 44.9965 12.2168 48 8.93555ZM20.3766 20.3766C24.8203 20.5734 29.1516 21.832 32.9742 24.0492C35.0213 25.2333 36.8772 26.6615 38.5263 28.2782C38.6372 28.4698 38.7935 28.6252 38.9884 28.7309C42.5429 32.3824 45.0324 36.9674 46.1446 42.0208C44.1755 42.6343 42.6344 44.1751 42.0208 46.1442C36.8356 45.0023 32.1468 42.4066 28.4504 38.7034C28.4491 38.7021 28.4479 38.7007 28.4466 38.6994C26.7591 37.0081 25.2744 35.0915 24.0492 32.973C21.832 29.1516 20.5734 24.8203 20.3766 20.3766ZM8.93555 48C12.2168 44.9965 16.1695 42.825 20.441 41.6895C22.6183 41.1073 24.8625 40.8045 27.1192 40.7654C30.6056 44.1398 34.867 46.6315 39.5685 47.9999C34.8659 49.3682 30.604 51.8599 27.1176 55.2344C24.8577 55.1946 22.6132 54.8918 20.4387 54.3094C16.1695 53.175 12.2168 51.0035 8.93555 48ZM32.973 71.9508C29.1516 74.168 24.8203 75.4266 20.3766 75.6234C20.5734 71.1797 21.832 66.8484 24.0504 63.0258C25.2333 60.9791 26.6607 59.1234 28.2768 57.4749C28.4695 57.3639 28.6254 57.2068 28.7314 57.0111C32.382 53.4577 36.9669 50.9687 42.0207 49.8554C42.6342 51.8244 44.1752 53.3657 46.1442 53.9792C45.0031 59.164 42.4088 63.8515 38.7065 67.5475C38.7036 67.5504 38.7006 67.553 38.6977 67.556C37.0069 69.2423 35.0911 70.7262 32.973 71.9508ZM48 87.0645C44.9965 83.7832 42.825 79.8305 41.6895 75.559C41.1075 73.3821 40.8046 71.1382 40.7654 68.8819C44.1402 65.3955 46.6318 61.1336 47.9999 56.4311C49.368 61.1336 51.8594 65.3952 55.2333 68.8812C55.1939 71.142 54.8922 73.3866 54.3094 75.5613C53.175 79.8305 51.0035 83.7832 48 87.0645ZM75.6234 75.6234C71.1797 75.4266 66.8484 74.168 63.0258 71.9496C60.9789 70.7666 59.1231 69.3387 57.4742 67.7224C57.3631 67.5303 57.2065 67.3745 57.0111 67.2687C53.4579 63.6182 50.9689 59.0335 49.8557 53.9792C51.8247 53.3657 53.3658 51.8247 53.9793 49.8557C59.1643 50.9977 63.8517 53.5916 67.5472 57.2931C67.5504 57.2962 67.5532 57.2994 67.5563 57.3025C69.2427 58.9931 70.7265 60.9089 71.9508 63.027C74.168 66.8484 75.4266 71.1797 75.6234 75.6234ZM75.559 54.3106C73.3823 54.8924 71.1387 55.1953 68.8826 55.2346C65.3962 51.8599 61.1343 49.3685 56.4315 48C61.1363 46.6311 65.3996 44.1381 68.8866 40.7616C71.1408 40.7757 73.3886 41.1082 75.5613 41.6906C79.8305 42.825 83.7832 44.9965 87.0645 48C83.7832 51.0035 79.8305 53.175 75.559 54.3106Z" fill="white"/>
</svg>
