<svg width="40" height="40" viewBox="0 0 40 40" fill="none" xmlns="http://www.w3.org/2000/svg">
<g clip-path="url(#clip0_21_10)">
<path d="M35.4973 20.0292C35.4973 22.6105 35.4779 25.2112 35.5168 27.7924C35.5362 28.6076 35.245 29.0928 34.5464 29.5003C30.0049 32.101 25.4634 34.7211 20.9413 37.3412C20.262 37.7294 19.738 37.7294 19.0587 37.3412C14.5755 34.7211 10.0534 32.1204 5.53131 29.5392C4.75499 29.0928 4.46387 28.5688 4.46387 27.676C4.50268 22.5329 4.50268 17.3897 4.46387 12.2466C4.46387 11.3926 4.75499 10.888 5.49249 10.461C10.034 7.86037 14.5755 5.24028 19.0975 2.62019C19.738 2.25144 20.262 2.25144 20.8831 2.62019C25.4246 5.25969 29.9466 7.87978 34.5075 10.4805C35.245 10.9074 35.5362 11.412 35.5168 12.266C35.4779 14.8473 35.4973 17.4479 35.4973 20.0292ZM19.9903 35.8274C24.6094 33.1685 29.1509 30.529 33.6536 27.9283C33.6536 22.5717 33.6536 17.3315 33.6536 12.0525C29.0733 9.41301 24.5318 6.79292 19.9903 4.17284C15.3712 6.85115 10.8297 9.47124 6.30763 12.0719C6.30763 17.3703 6.30763 22.6105 6.30763 27.9089C10.8491 30.529 15.3712 33.1491 19.9903 35.8274Z" fill="white"/>
<path d="M2.46482 39.9806C2.01844 39.9806 1.55264 40 1.10626 39.9806C0.349344 39.9418 0.0388155 39.6701 0.0194075 38.9132C-0.0194086 37.9427 -0.0194086 36.9723 0.0194075 36.0019C0.0388155 35.3421 0.426977 34.9345 0.931586 34.9539C1.4362 34.9733 1.76613 35.3615 1.80495 36.0408C1.82436 36.2931 1.80495 36.5648 1.80495 36.8171C1.82436 37.9816 1.99903 38.1756 3.1441 38.1951C3.47404 38.1951 3.78457 38.1951 4.11451 38.1951C4.63852 38.2145 4.96846 38.4862 5.02668 39.0102C5.08491 39.476 4.71616 39.903 4.13391 39.9418C3.57108 40 3.02766 39.9806 2.46482 39.9806Z" fill="white"/>
<path d="M39.9806 37.4188C39.9806 37.9429 40 38.4475 39.9806 38.9715C39.9418 39.6508 39.6312 39.9613 38.9325 39.9807C37.9621 40.0195 36.9917 40.0195 36.0213 39.9807C35.3615 39.9613 34.9539 39.5731 34.9539 39.0879C34.9539 38.5833 35.3615 38.2534 36.0213 38.2146C36.4095 38.1952 36.7977 38.234 37.1858 38.1952C37.9039 38.1564 38.1368 37.904 38.1756 37.1665C38.195 36.7396 38.1562 36.332 38.195 35.905C38.2338 35.3228 38.622 34.9152 39.0878 34.9734C39.6118 35.0317 39.9029 35.3422 39.9418 35.8662C40 36.3708 39.9612 36.8948 39.9806 37.4188C39.9612 37.4188 39.9806 37.4188 39.9806 37.4188Z" fill="white"/>
<path d="M0.0200904 2.48332C0.0200904 2.03693 0.000682366 1.57114 0.0200904 1.12475C0.0589065 0.367837 0.350027 0.0573081 1.06813 0.018492C2.03853 -0.0203241 3.00893 -0.0203241 3.95992 0.018492C4.6198 0.0379 5.00796 0.426061 5.00796 0.911263C4.98855 1.43528 4.6198 1.7264 3.94052 1.78463C3.80466 1.78463 3.68821 1.78463 3.55236 1.78463C1.84445 1.80403 1.78622 1.84285 1.78622 3.51194C1.78622 3.70602 1.78622 3.9001 1.78622 4.09418C1.74741 4.6182 1.4951 4.94814 0.971085 5.02577C0.505292 5.084 0.0783146 4.71524 0.0394985 4.133C-0.0187257 3.57017 0.0200904 3.02674 0.0200904 2.48332Z" fill="white"/>
<path d="M37.5158 0.0194489C37.9622 0.0194489 38.428 4.08152e-05 38.8744 0.0194489C39.6313 0.058265 39.9418 0.329978 39.9806 1.06748C40.0194 2.03789 40.0194 3.00829 39.9806 3.95928C39.9612 4.61916 39.5925 5.02673 39.0878 5.00732C38.5832 5.00732 38.2533 4.61916 38.2145 3.93988C38.1951 3.59053 38.2145 3.22178 38.2145 2.87243C38.1757 2.03789 37.9428 1.80499 37.0888 1.78558C36.7007 1.76617 36.3125 1.78558 35.9243 1.76617C35.4003 1.74677 35.0704 1.47505 34.9927 0.970444C34.9151 0.50465 35.3033 0.077673 35.8855 0.0194489C36.4095 -0.0193672 36.9724 0.0194489 37.5158 0.0194489Z" fill="white"/>
<path d="M19.0975 26.8802C19.0975 25.1917 19.0587 23.5226 19.1169 21.8341C19.1363 20.8831 18.787 20.2815 17.9525 19.8157C15.0412 18.1854 12.1883 16.4969 9.29646 14.8278C9.04416 14.692 8.77245 14.5561 8.55896 14.362C8.1902 14.0709 8.05435 13.6828 8.32606 13.2558C8.57837 12.8482 8.94712 12.6929 9.41291 12.8676C9.64581 12.9647 9.8787 13.1005 10.0922 13.2364C12.9452 14.8861 15.8176 16.4969 18.6317 18.2048C19.6215 18.8065 20.4173 18.7677 21.3877 18.1854C24.2018 16.4775 27.0936 14.8666 29.9466 13.217C30.1795 13.0811 30.393 12.9453 30.6259 12.8676C31.0917 12.6929 31.4605 12.887 31.6934 13.2946C31.9262 13.6828 31.8098 14.0515 31.4799 14.3426C31.2276 14.5561 30.9364 14.7114 30.6647 14.8666C27.7923 16.5357 24.9199 18.2242 22.0087 19.8545C21.213 20.3009 20.8637 20.8831 20.8831 21.7953C20.9219 25.1335 20.9025 28.4523 20.8831 31.7905C20.8831 32.1786 20.9219 32.6056 20.7472 32.9355C20.6114 33.1879 20.2232 33.479 19.9515 33.479C19.6798 33.479 19.311 33.1684 19.1752 32.9161C19.0199 32.625 19.0587 32.2175 19.0587 31.8681C19.0781 30.1796 19.0975 28.5299 19.0975 26.8802Z" fill="white"/>
</g>
<defs>
<clipPath id="clip0_21_10">
<rect width="40" height="40" fill="white"/>
</clipPath>
</defs>
</svg>
