<svg width="34" height="42" viewBox="0 0 34 42" fill="none" xmlns="http://www.w3.org/2000/svg">
<path d="M0 21.0179C0 26.827 0 32.6481 0 38.4573C0 40.664 1.32222 42 3.50625 42C12.5021 42 21.5097 42 30.5056 42C32.6778 42 34 40.664 34 38.4573C34 26.8151 34 15.173 34 3.53082C34 1.33598 32.6778 0 30.4937 0C21.4979 0 12.4903 0 3.49444 0C1.32222 0 0 1.33598 0 3.53082C0 9.36382 0 15.1968 0 21.0179ZM32.1229 7.66998C32.1229 7.89662 32.1229 8.05169 32.1229 8.21869C32.1229 18.2744 32.1229 28.3419 32.1229 38.3976C32.1229 38.505 32.1229 38.6123 32.1229 38.7078C32.0875 39.5427 31.5681 40.0557 30.7417 40.0676C30.2694 40.0795 29.7972 40.0437 29.325 40.0795C28.9944 40.1034 28.7937 39.996 28.6167 39.6978C27.8847 38.4573 27.1174 37.2406 26.3854 36C25.7243 34.8907 24.7562 34.3539 23.4931 34.3539C19.1722 34.3539 14.8514 34.3539 10.5306 34.3539C9.25556 34.3539 8.2993 34.9026 7.63819 36C7.11875 36.8827 6.57569 37.7535 6.04444 38.6243C5.74931 39.1014 5.53681 39.7575 5.11181 39.996C4.675 40.2346 4.02569 40.0676 3.45903 40.0676C2.38472 40.0676 1.90069 39.5785 1.90069 38.4811C1.90069 28.3777 1.90069 18.2744 1.90069 8.15904C1.90069 8.00397 1.90069 7.83698 1.90069 7.65805C11.9826 7.66998 22.0174 7.66998 32.1229 7.66998ZM32.0993 5.68986C22.0056 5.68986 11.959 5.68986 1.87708 5.68986C1.87708 4.97416 1.87708 4.29424 1.87708 3.61432C1.87708 2.37376 2.32569 1.92048 3.56528 1.92048C12.5257 1.92048 21.4743 1.92048 30.4347 1.92048C30.5646 1.92048 30.7063 1.92048 30.8361 1.92048C31.509 1.95626 32.0403 2.38569 32.0875 3.07754C32.1347 3.93638 32.0993 4.79523 32.0993 5.68986ZM7.37847 40.0557C8.03958 38.9702 8.66528 37.9563 9.26736 36.9423C9.55069 36.4771 9.92847 36.2624 10.4715 36.2744C14.8278 36.2863 19.1722 36.2863 23.5285 36.2744C24.0715 36.2744 24.4493 36.4771 24.7326 36.9543C25.2875 37.8847 25.8542 38.8032 26.4208 39.7336C26.4799 39.829 26.5153 39.9364 26.5861 40.0676C20.1757 40.0557 13.8243 40.0557 7.37847 40.0557Z" fill="white"/>
<path d="M21.7104 21.984C21.7104 23.1649 21.7104 24.3339 21.7104 25.5148C21.7104 26.3975 22.041 26.7196 22.9146 26.7196C23.6111 26.7196 24.2958 26.7196 24.9924 26.7196C26.3736 26.7077 27.3535 25.7415 27.3653 24.3339C27.3771 22.7355 27.3771 21.149 27.3653 19.5506C27.3535 18.1908 26.409 17.2246 25.0632 17.1769C24.2958 17.153 23.5285 17.1649 22.7611 17.1769C22.0646 17.1888 21.7104 17.5586 21.7104 18.2743C21.7104 19.5148 21.7104 20.7435 21.7104 21.984ZM23.6347 19.0973C24.1424 19.0973 24.6028 19.0854 25.075 19.0973C25.3583 19.1093 25.5 19.3001 25.5 19.5745C25.5 21.149 25.5118 22.7355 25.4882 24.3101C25.4882 24.4771 25.2757 24.7633 25.134 24.7753C24.65 24.8349 24.1542 24.7991 23.6347 24.7991C23.6347 22.8906 23.6347 21.0297 23.6347 19.0973Z" fill="white"/>
<path d="M10.3535 19.0973C10.3535 19.7653 10.3535 20.3618 10.3535 20.994C9.47984 20.994 8.62984 20.994 7.77984 20.994C6.95345 20.994 6.6229 21.316 6.6229 22.151C6.6229 23.2961 6.6229 24.4413 6.6229 25.5983C6.6229 26.3737 6.96526 26.7196 7.73262 26.7196C8.87776 26.7196 10.0347 26.7196 11.1798 26.7196C11.8528 26.7196 12.2778 26.326 12.2778 25.7534C12.266 25.1928 11.8528 24.823 11.2035 24.8111C10.318 24.7991 9.43262 24.8111 8.52359 24.8111C8.52359 24.1669 8.52359 23.5586 8.52359 22.8906C8.67706 22.8906 8.83054 22.8906 8.98401 22.8906C9.75137 22.8906 10.5187 22.9025 11.2861 22.8906C11.8764 22.8787 12.2541 22.5447 12.266 21.9602C12.2896 20.6838 12.2896 19.3956 12.266 18.1192C12.2541 17.5586 11.8882 17.2007 11.3333 17.1888C10.0819 17.1649 8.83054 17.1649 7.56734 17.1888C6.97706 17.2007 6.61109 17.6063 6.6229 18.155C6.6347 18.6918 7.00068 19.0735 7.60276 19.0973C8.35831 19.1212 9.10206 19.1093 9.85762 19.1093C10.0111 19.0973 10.1764 19.0973 10.3535 19.0973Z" fill="white"/>
<path d="M17.9209 19.0974C17.9209 19.7535 17.9209 20.3499 17.9209 20.994C17.0473 20.994 16.1973 20.994 15.3355 20.994C14.4855 20.994 14.1549 21.328 14.1549 22.1869C14.1549 23.3081 14.1549 24.4175 14.1549 25.5388C14.1549 26.3738 14.4855 26.7197 15.3 26.7197C16.4806 26.7197 17.6611 26.7316 18.8417 26.7197C19.3493 26.7197 19.7035 26.4095 19.798 25.9563C19.8806 25.5388 19.6799 25.0855 19.2785 24.9304C19.0896 24.8588 18.8771 24.835 18.6764 24.835C17.8264 24.8231 16.9646 24.835 16.0674 24.835C16.0674 24.1908 16.0674 23.5825 16.0674 22.9145C16.8938 22.9145 17.7202 22.9145 18.5466 22.9145C19.5264 22.9145 19.8216 22.6282 19.8216 21.6382C19.8216 20.5527 19.8216 19.4672 19.8216 18.3698C19.8216 17.5467 19.4792 17.1889 18.6764 17.1769C17.5431 17.165 16.4098 17.165 15.2646 17.1769C14.5799 17.1769 14.1549 17.5467 14.1549 18.1193C14.1431 18.7038 14.5799 19.0855 15.2882 19.0974C16.1736 19.0974 17.0355 19.0974 17.9209 19.0974Z" fill="white"/>
<path d="M5.69028 31.4911C5.19444 31.4792 4.75764 31.8967 4.72222 32.3977C4.69861 32.9106 5.12361 33.3758 5.64305 33.3997C6.13889 33.4116 6.57569 32.9941 6.61111 32.4931C6.63472 31.9802 6.20972 31.515 5.69028 31.4911Z" fill="white"/>
<path d="M28.3215 31.4911C27.8021 31.503 27.3653 31.9682 27.3889 32.4812C27.4125 32.9941 27.8493 33.4116 28.3451 33.3997C28.8646 33.3877 29.3014 32.9225 29.2778 32.4096C29.2542 31.9086 28.8174 31.4911 28.3215 31.4911Z" fill="white"/>
<path d="M5.66666 10.5208C5.14722 10.5208 4.73402 10.9264 4.72222 11.4393C4.71041 11.9642 5.14722 12.4055 5.66666 12.4055C6.18611 12.4055 6.62291 11.9522 6.61111 11.4274C6.5993 10.9145 6.1743 10.5089 5.66666 10.5208Z" fill="white"/>
<path d="M28.3333 10.5208C27.8139 10.5208 27.4007 10.9264 27.3889 11.4393C27.3771 11.9642 27.8139 12.4055 28.3333 12.4055C28.8528 12.4055 29.2896 11.9522 29.2778 11.4274C29.266 10.9145 28.841 10.5089 28.3333 10.5208Z" fill="white"/>
</svg>
