<svg width="38" height="38" viewBox="0 0 38 38" fill="none" xmlns="http://www.w3.org/2000/svg">
<g clip-path="url(#clip0_21_2)">
<path d="M26.5703 38C26.7651 38 26.9692 38 27.1641 38C27.8784 37.6846 28.1289 37.1372 28.0918 36.3672C28.0547 35.3931 28.0825 34.4097 28.0825 33.4355C28.0825 33.3057 28.1011 33.1758 28.1103 33.0088C29.5483 33.1294 30.8843 33.0088 31.9419 31.9419C33.0181 30.875 33.1201 29.5205 33.0181 28.0918C33.2036 28.0825 33.3335 28.0732 33.4634 28.0732C34.5396 28.0732 35.6157 28.0825 36.6919 28.064C37.4619 28.0547 37.9907 27.5352 37.9907 26.8301C37.9907 26.1157 37.4341 25.5962 36.6548 25.5869C35.6899 25.5776 34.7251 25.5869 33.7603 25.5869C33.5283 25.5869 33.2964 25.5869 33.0552 25.5869C33.0552 24.752 33.0552 23.9541 33.0552 23.1191C33.3613 23.1191 33.6396 23.1191 33.918 23.1191C34.8179 23.1191 35.727 23.1191 36.6269 23.1191C37.2114 23.1191 37.666 22.8872 37.8979 22.3306C38.2412 21.4956 37.6382 20.6514 36.6733 20.6328C35.5972 20.6143 34.521 20.6328 33.4448 20.6235C33.3149 20.6235 33.1851 20.6143 33.0552 20.605C33.0552 19.501 33.0552 18.4248 33.0552 17.3301C34.1963 17.3301 35.3096 17.3301 36.4136 17.3301C36.6269 17.3301 36.8403 17.3208 37.0352 17.2744C37.731 17.1167 38.1299 16.4116 37.9258 15.7344C37.7495 15.1685 37.3042 14.853 36.6269 14.8438C35.5601 14.8345 34.5024 14.8438 33.4355 14.8438C33.3057 14.8438 33.1758 14.8252 33.0459 14.8252C33.0459 13.9902 33.0459 13.2017 33.0459 12.376C33.1943 12.376 33.3335 12.376 33.4634 12.376C34.5396 12.376 35.6157 12.376 36.6919 12.376C37.2393 12.376 37.6475 12.1348 37.8794 11.6338C38.2412 10.8359 37.6938 9.94531 36.8032 9.91748C35.6992 9.88037 34.6045 9.9082 33.5005 9.89893C33.352 9.89893 33.2129 9.89893 33.0366 9.89893C33.0366 9.56494 33.0459 9.28662 33.0366 8.99902C33.0273 8.67432 33.0366 8.34961 32.981 8.04346C32.6284 6.19727 31.1533 4.97266 29.27 4.94482C28.8896 4.94482 28.5093 4.94482 28.0825 4.94482C28.0825 4.76855 28.0825 4.63867 28.0825 4.50879C28.0825 3.54395 28.0547 2.5791 28.0918 1.61426C28.1289 0.853516 27.8784 0.296875 27.1641 -0.0185547C26.9692 -0.0185547 26.7651 -0.0185547 26.5703 -0.0185547C25.8374 0.259766 25.5684 0.807129 25.5962 1.57715C25.6333 2.56055 25.6055 3.55322 25.6055 4.53662C25.6055 4.6665 25.6055 4.79639 25.6055 4.91699C24.752 4.91699 23.9541 4.91699 23.1377 4.91699C23.1377 3.79443 23.1191 2.69043 23.147 1.5957C23.1655 0.834961 22.915 0.27832 22.1914 -0.0185547C21.9966 -0.0185547 21.7925 -0.0185547 21.5977 -0.0185547C20.874 0.27832 20.6143 0.825684 20.6328 1.5957C20.6699 2.56982 20.6421 3.55322 20.6421 4.52734C20.6421 4.65723 20.6328 4.78711 20.6235 4.91699C19.5195 4.91699 18.4434 4.91699 17.3486 4.91699C17.3486 3.79443 17.3208 2.69043 17.3579 1.5957C17.3765 0.825684 17.126 0.27832 16.3931 -0.0185547C16.1982 -0.0185547 15.9941 -0.0185547 15.7993 -0.0185547C15.0757 0.27832 14.8159 0.834961 14.8437 1.5957C14.8716 2.50488 14.853 3.42334 14.853 4.33252C14.853 4.52734 14.853 4.71289 14.853 4.91699C14.0088 4.91699 13.2109 4.91699 12.3853 4.91699C12.3853 3.78516 12.3574 2.68115 12.3945 1.56787C12.4224 0.797852 12.1533 0.259766 11.4204 -0.027832C11.2256 -0.027832 11.0215 -0.027832 10.8267 -0.027832C10.1123 0.287598 9.86182 0.834961 9.89892 1.5957C9.93603 2.56982 9.9082 3.54395 9.9082 4.51807C9.9082 4.64795 9.89892 4.77783 9.88965 4.92627C9.50928 4.92627 9.18457 4.92627 8.85058 4.92627C6.55908 4.93555 4.97266 6.52197 4.96338 8.81348C4.96338 9.15674 4.96338 9.5 4.96338 9.88037C4.78711 9.88037 4.64795 9.88037 4.51807 9.88037C3.55322 9.88037 2.58838 9.9082 1.63281 9.87109C0.87207 9.83398 0.31543 10.0845 0.00927734 10.7988C0.00927734 10.9937 0.00927734 11.1978 0.00927734 11.3926C0.287598 12.1255 0.834961 12.3945 1.60498 12.3667C2.58838 12.3296 3.58105 12.3574 4.56445 12.3574C4.69434 12.3574 4.82422 12.3574 4.94482 12.3574C4.94482 13.2109 4.94482 14.0088 4.94482 14.8252C3.82227 14.8252 2.71826 14.8438 1.62354 14.8159C0.853516 14.8345 0.296875 15.085 0 15.8086C0 16.0034 0 16.2075 0 16.4023C0.296875 17.126 0.844238 17.3857 1.61426 17.3672C2.58838 17.3301 3.57178 17.3579 4.5459 17.3579C4.67578 17.3579 4.80566 17.3672 4.93555 17.3765C4.93555 18.4805 4.93555 19.5566 4.93555 20.6514C3.81299 20.6514 2.70898 20.6792 1.61426 20.6421C0.844238 20.6235 0.296875 20.874 0 21.6069C0 21.8018 0 22.0059 0 22.2007C0.296875 22.9243 0.853516 23.1841 1.61426 23.1562C2.52344 23.1284 3.44189 23.147 4.35107 23.147C4.5459 23.147 4.73144 23.147 4.93555 23.147C4.93555 23.9912 4.93555 24.7891 4.93555 25.6147C3.80371 25.6147 2.69971 25.6426 1.58643 25.6055C0.825684 25.5776 0.27832 25.8374 0 26.5703C0 26.7651 0 26.9692 0 27.1641C0.31543 27.8784 0.862793 28.1289 1.62354 28.0918C2.59766 28.0547 3.57178 28.0825 4.5459 28.0825C4.67578 28.0825 4.80566 28.0918 4.9541 28.1011C4.9541 28.4814 4.9541 28.8062 4.9541 29.1401C4.96338 31.4316 6.5498 33.0181 8.84131 33.0273C9.18457 33.0273 9.52783 33.0273 9.9082 33.0273C9.9082 33.2036 9.9082 33.3428 9.9082 33.4727C9.9082 34.4375 9.93603 35.4023 9.89892 36.3579C9.87109 37.1187 10.1123 37.6753 10.8267 37.9814C11.0215 37.9814 11.2256 37.9814 11.4204 37.9814C12.1533 37.7031 12.4224 37.1558 12.3945 36.3857C12.3574 35.4023 12.3853 34.4097 12.3853 33.4263C12.3853 33.2964 12.3853 33.1665 12.3853 33.0459C13.2388 33.0459 14.0366 33.0459 14.853 33.0459C14.853 34.1685 14.8716 35.2725 14.8437 36.3672C14.8252 37.1279 15.0757 37.6846 15.7993 37.9814C15.9941 37.9814 16.1982 37.9814 16.3931 37.9814C17.1167 37.6846 17.3765 37.1372 17.3579 36.3672C17.3208 35.3931 17.3486 34.4097 17.3486 33.4355C17.3486 33.3057 17.3579 33.1758 17.3672 33.0459C18.4712 33.0459 19.5474 33.0459 20.6421 33.0459C20.6421 34.1685 20.6699 35.2725 20.6328 36.3672C20.6143 37.1558 20.874 37.7031 21.5977 38C21.7925 38 21.9966 38 22.1914 38C22.915 37.7031 23.1748 37.1465 23.147 36.3857C23.1191 35.4766 23.1377 34.5581 23.1377 33.6489C23.1377 33.4541 23.1377 33.2686 23.1377 33.0645C23.9819 33.0645 24.7798 33.0645 25.6055 33.0645C25.6055 34.1963 25.6333 35.3003 25.5962 36.4136C25.5776 37.1743 25.8374 37.7217 26.5703 38ZM18.9629 7.43115C22.3306 7.43115 25.689 7.43115 29.0566 7.43115C30.105 7.43115 30.5781 7.89502 30.5781 8.94336C30.5781 15.6416 30.5781 22.3491 30.5781 29.0474C30.5781 30.0957 30.1143 30.5688 29.0659 30.5688C22.3677 30.5688 15.6602 30.5688 8.96191 30.5688C7.91357 30.5688 7.44043 30.105 7.44043 29.0566C7.44043 22.3584 7.44043 15.6509 7.44043 8.95264C7.44043 7.9043 7.9043 7.43115 8.95264 7.43115C12.2832 7.43115 15.623 7.43115 18.9629 7.43115Z" fill="white"/>
<path d="M13.8696 21.9131C12.6729 21.9316 11.6709 22.98 11.708 24.1675C11.7544 25.355 12.7471 26.3105 13.9253 26.292C15.1035 26.2734 16.0869 25.2807 16.0869 24.1118C16.0869 22.915 15.0571 21.8945 13.8696 21.9131Z" fill="white"/>
<path d="M26.292 24.1304C26.3105 22.9336 25.29 21.9038 24.1025 21.9131C22.9336 21.9224 21.9409 22.9058 21.9131 24.0747C21.8945 25.2622 22.9058 26.292 24.1118 26.292C25.29 26.292 26.2734 25.3179 26.292 24.1304Z" fill="white"/>
<path d="M13.9067 11.7081C12.7285 11.6988 11.7358 12.6636 11.708 13.8511C11.6709 15.0386 12.6821 16.0777 13.8789 16.087C15.0664 16.0963 16.0962 15.0665 16.0776 13.879C16.0684 12.7007 15.085 11.7173 13.9067 11.7081Z" fill="white"/>
<path d="M24.1118 16.0869C25.3086 16.0869 26.3198 15.0479 26.292 13.8604C26.2642 12.6729 25.2715 11.708 24.1025 11.7173C22.9243 11.7266 21.9409 12.7007 21.9224 13.8789C21.8945 15.0571 22.9243 16.0869 24.1118 16.0869Z" fill="white"/>
</g>
<defs>
<clipPath id="clip0_21_2">
<rect width="38" height="38" fill="white" transform="matrix(1 0 0 -1 0 38)"/>
</clipPath>
</defs>
</svg>
