<svg width="270" height="24" viewBox="0 0 270 24" fill="none" xmlns="http://www.w3.org/2000/svg">
<path d="M39.4426 20.6394C39.4426 21.9894 38.3229 23.0844 36.9431 23.0844H2.4995C1.11974 23.0844 0 21.9881 0 20.6394V2.4505C0 1.09912 1.11974 0.00488281 2.4995 0.00488281H36.9431C38.3236 0.00488281 39.4426 1.09912 39.4426 2.4505V20.6394Z" fill="white"/>
<path d="M17.068 7.66504L15.7141 15.4389H17.8795L19.2341 7.66504H17.068Z" fill="#07085B"/>
<path d="M13.8988 7.67344L11.7782 12.975L11.5524 12.1748C11.1337 11.2106 9.9462 9.82498 8.55246 8.95233L10.4914 15.4357L12.7826 15.4316L16.1929 7.67139L13.8988 7.67344Z" fill="#07085B"/>
<path d="M10.7305 8.35729C10.604 7.83479 10.2398 7.67887 9.78618 7.6604H6.42905L6.40109 7.83137C9.78618 9.7073 11.0366 11.0963 11.7545 13.0796L10.7305 8.35729Z" fill="#07085B"/>
<path d="M23.6229 9.15531C24.3323 9.14437 24.8454 9.29551 25.2438 9.4528L25.4395 9.5424L25.7317 7.85796C25.3039 7.70066 24.6308 7.53174 23.792 7.53174C21.6525 7.53174 20.1448 8.58562 20.1336 10.097C20.119 11.2138 21.2079 11.8369 22.0299 12.2096C22.8729 12.5912 23.1567 12.8333 23.1525 13.1746C23.1455 13.6943 22.4794 13.9323 21.8566 13.9323C20.9899 13.9323 20.53 13.8147 19.8177 13.5268L19.5388 13.4009L19.2341 15.1401C19.7415 15.3583 20.676 15.545 21.6469 15.5552C23.9234 15.5552 25.4024 14.5136 25.4185 12.8983C25.4283 12.0147 24.8503 11.341 23.5984 10.7878C22.8414 10.4274 22.3773 10.1873 22.3822 9.82348C22.3822 9.50068 22.7764 9.15531 23.6229 9.15531Z" fill="#07085B"/>
<path d="M31.2898 7.67334H29.6165C29.0972 7.67334 28.7107 7.81149 28.4821 8.31894L25.2668 15.4431H27.5413C27.5413 15.4431 27.9117 14.4856 27.9956 14.2757C28.2437 14.2757 30.4539 14.2784 30.7691 14.2784C30.8334 14.5492 31.0326 15.4431 31.0326 15.4431H33.0414L31.2898 7.67334ZM28.6184 12.6836C28.7973 12.237 29.4809 10.5108 29.4809 10.5108C29.469 10.532 29.6577 10.0615 29.7703 9.7688L29.9157 10.439C29.9157 10.439 30.3316 12.2951 30.4182 12.6836H28.6184Z" fill="#07085B"/>
<path d="M85.1781 20.9375C85.1781 22.2869 84.0591 23.3825 82.6786 23.3825H48.235C46.8545 23.3825 45.7355 22.2862 45.7355 20.9375V2.74791C45.7355 1.39721 46.8545 0.302979 48.235 0.302979H82.6786C84.0591 0.302979 85.1781 1.39721 85.1781 2.74791V20.9375Z" fill="white"/>
<path d="M62.1004 5.92326L58.4476 14.448H56.0648L54.2671 7.64326C54.158 7.2254 54.0637 7.07153 53.7317 6.89508C53.19 6.60716 52.2946 6.3377 51.5083 6.17015L51.5607 5.92258H55.3973C55.8852 5.92258 56.3255 6.24059 56.4367 6.79113L57.3859 11.7254L59.7302 5.92326H62.1004ZM65.3219 5.92326L63.4578 14.448H61.2036L63.0678 5.92326H65.3219ZM71.4372 11.6646C71.4463 9.41524 68.2576 9.29077 68.2786 8.28544C68.2862 7.97974 68.584 7.65421 69.2347 7.57146C69.557 7.53042 70.4488 7.49828 71.4582 7.95307L71.8531 6.14416C71.3107 5.95199 70.6124 5.76733 69.7443 5.76733C67.516 5.76733 65.9475 6.92517 65.9356 8.58499C65.9209 9.81327 67.0554 10.4972 67.9081 10.9055C68.7874 11.3233 69.0817 11.5914 69.0775 11.9648C69.0712 12.5365 68.3757 12.7896 67.7292 12.7998C66.5947 12.8169 65.9377 12.4996 65.4135 12.2609L65.0053 14.1287C65.5323 14.3667 66.5046 14.5705 67.5111 14.5814C69.8806 14.5821 71.4295 13.4366 71.4372 11.6646ZM77.3211 14.448H79.4054L77.5846 5.92326H75.6617C75.2284 5.92326 74.8635 6.16947 74.7021 6.54766L71.3198 14.448H73.6872L74.1562 13.1746H77.0485L77.3211 14.448ZM74.8048 11.428L75.9923 8.22594L76.6745 11.428H74.8048ZM68.2073 16.7952H67.2916V17.6295H68.3156V17.8805H66.9827V15.5662H68.2632V15.8158H67.2916V16.5469H68.2073V16.7952ZM68.7888 15.4424H69.097V17.8798H68.7888V15.4424ZM69.8757 17.1036C69.8827 17.5133 70.1462 17.6815 70.4579 17.6815C70.6788 17.6815 70.8165 17.6432 70.9283 17.5953L70.9843 17.8101C70.8752 17.858 70.6858 17.9168 70.416 17.9168C69.8932 17.9168 69.5814 17.5776 69.5814 17.0763C69.5814 16.575 69.8834 16.1824 70.3776 16.1824C70.9353 16.1824 71.0793 16.6557 71.0793 16.9627C71.0793 17.0243 71.0758 17.0681 71.0681 17.1029H69.8757V17.1036ZM70.7816 16.8875C70.785 16.6994 70.7005 16.3999 70.3538 16.3999C70.0379 16.3999 69.9044 16.6775 69.8799 16.8875H70.7816ZM72.7596 17.8217C72.6785 17.86 72.4996 17.9188 72.2718 17.9188C71.7594 17.9188 71.4267 17.5782 71.4267 17.0708C71.4267 16.5592 71.7839 16.1851 72.3389 16.1851C72.5213 16.1851 72.6827 16.2289 72.7666 16.2734L72.6967 16.5045C72.6226 16.4655 72.5066 16.4252 72.3389 16.4252C71.9488 16.4252 71.7391 16.7104 71.7391 17.0537C71.7391 17.4387 71.9915 17.6747 72.3284 17.6747C72.5031 17.6747 72.6198 17.6343 72.7072 17.5967L72.7596 17.8217ZM73.6256 15.8199V16.218H74.0674V16.4478H73.6256V17.345C73.6256 17.5502 73.6851 17.6678 73.857 17.6678C73.9409 17.6678 73.9905 17.661 74.0359 17.648L74.0499 17.8785C73.9905 17.8976 73.8954 17.9195 73.7759 17.9195C73.6319 17.9195 73.5159 17.8716 73.4425 17.7916C73.3579 17.6986 73.3237 17.5502 73.3237 17.3553V16.4478H73.0602V16.218H73.3237V15.9088L73.6256 15.8199ZM74.4987 16.737C74.4987 16.5408 74.4945 16.3732 74.4847 16.218H74.7545L74.7685 16.5469H74.7789C74.8565 16.3247 75.0459 16.1831 75.2528 16.1831C75.2843 16.1831 75.3088 16.1872 75.3367 16.1899V16.4758C75.3053 16.4676 75.2738 16.4676 75.2312 16.4676C75.0138 16.4676 74.86 16.6256 74.8174 16.8526C74.8104 16.895 74.8069 16.945 74.8069 16.9935V17.8798H74.4987V16.737ZM77.2351 17.0359C77.2351 17.6494 76.7969 17.9175 76.3894 17.9175C75.9329 17.9175 75.5751 17.5878 75.5751 17.0626C75.5751 16.5093 75.9511 16.1838 76.4173 16.1838C76.9052 16.1838 77.2351 16.5305 77.2351 17.0359ZM75.891 17.0523C75.891 17.4162 76.1021 17.6918 76.4033 17.6918C76.6976 17.6918 76.9192 17.4209 76.9192 17.0469C76.9192 16.7658 76.7752 16.4108 76.4103 16.4108C76.0497 16.4108 75.891 16.7411 75.891 17.0523ZM77.7083 16.6673C77.7083 16.4922 77.7048 16.3561 77.6943 16.2187H77.9683L77.9858 16.4922H77.9928C78.0774 16.3376 78.2738 16.1838 78.5541 16.1838C78.7889 16.1838 79.1538 16.3212 79.1538 16.8916V17.8798H78.8455V16.9224C78.8455 16.6536 78.7435 16.4307 78.452 16.4307C78.2521 16.4307 78.0941 16.5715 78.0382 16.7405C78.0242 16.7781 78.0172 16.8287 78.0172 16.88V17.8798H77.709L77.7083 16.6673Z" fill="#1A1F71"/>
<path d="M131.271 20.7439C131.271 22.0967 130.152 23.1909 128.771 23.1909H94.3122C92.9303 23.1909 91.8112 22.0953 91.8112 20.7439V2.54884C91.8112 1.19677 92.931 0.102539 94.3122 0.102539H128.771C130.152 0.102539 131.271 1.19746 131.271 2.54884V20.7439Z" fill="white"/>
<path d="M103.362 21.0004V19.7434C103.362 19.2599 103.062 18.946 102.548 18.946C102.291 18.946 102.012 19.0301 101.819 19.3023C101.669 19.0718 101.456 18.946 101.134 18.946C100.919 18.946 100.706 19.0089 100.534 19.2401V18.9891H100.084V21.0004H100.534V19.8891C100.534 19.5328 100.727 19.3652 101.027 19.3652C101.327 19.3652 101.477 19.5533 101.477 19.8891V21.0004H101.927V19.8891C101.927 19.5328 102.142 19.3652 102.42 19.3652C102.721 19.3652 102.87 19.5533 102.87 19.8891V21.0004H103.362ZM110.023 18.9884H109.295V18.3804H108.845V18.9884H108.438V19.3857H108.845V20.309C108.845 20.7706 109.037 21.0414 109.552 21.0414C109.744 21.0414 109.959 20.9785 110.108 20.8951L109.98 20.5176C109.851 20.6003 109.701 20.6215 109.594 20.6215C109.38 20.6215 109.294 20.4964 109.294 20.2864V19.3857H110.023L110.023 18.9884ZM113.836 18.946C113.579 18.946 113.409 19.0725 113.302 19.2401V18.9891H112.851V21.0004H113.302V19.8692C113.302 19.5335 113.451 19.344 113.729 19.344C113.815 19.344 113.922 19.3659 114.008 19.3871L114.136 18.9679C114.051 18.946 113.922 18.946 113.836 18.946ZM108.074 19.1553C107.86 19.0082 107.56 18.9453 107.239 18.9453C106.725 18.9453 106.383 19.1963 106.383 19.5936C106.383 19.9294 106.64 20.1182 107.089 20.1804L107.303 20.2016C107.539 20.244 107.667 20.3056 107.667 20.4102C107.667 20.5579 107.496 20.6626 107.196 20.6626C106.896 20.6626 106.66 20.5579 106.51 20.4526L106.297 20.7877C106.531 20.9553 106.854 21.0387 107.174 21.0387C107.774 21.0387 108.117 20.7679 108.117 20.3897C108.117 20.0334 107.839 19.846 107.41 19.7817L107.196 19.7605C107.004 19.7407 106.854 19.6983 106.854 19.5724C106.854 19.4254 107.004 19.3413 107.239 19.3413C107.496 19.3413 107.753 19.4459 107.881 19.5102L108.074 19.1553ZM120.027 18.946C119.77 18.946 119.599 19.0725 119.492 19.2401V18.9891H119.042V21.0004H119.492V19.8692C119.492 19.5335 119.641 19.344 119.92 19.344C120.005 19.344 120.112 19.3659 120.198 19.3871L120.328 18.9679C120.241 18.946 120.112 18.946 120.027 18.946ZM114.286 19.9937C114.286 20.601 114.714 21.0408 115.379 21.0408C115.679 21.0408 115.893 20.9772 116.106 20.811L115.893 20.454C115.721 20.5812 115.55 20.6434 115.357 20.6434C114.992 20.6434 114.736 20.3911 114.736 19.9937C114.736 19.6155 114.993 19.3652 115.357 19.344C115.549 19.344 115.721 19.4069 115.893 19.5321L116.106 19.1765C115.893 19.0069 115.679 18.9439 115.379 18.9439C114.716 18.946 114.286 19.3857 114.286 19.9937ZM118.442 19.9937V18.987H117.992V19.238C117.842 19.0499 117.628 18.9439 117.35 18.9439C116.771 18.9439 116.322 19.3837 116.322 19.9924C116.322 20.599 116.771 21.0394 117.35 21.0394C117.65 21.0394 117.863 20.9348 117.992 20.7453V20.9977H118.442V19.9937ZM116.793 19.9937C116.793 19.6367 117.029 19.344 117.414 19.344C117.778 19.344 118.035 19.6155 118.035 19.9937C118.035 20.35 117.778 20.6434 117.414 20.6434C117.029 20.6222 116.793 20.3493 116.793 19.9937ZM111.417 18.946C110.817 18.946 110.388 19.3652 110.388 19.9937C110.388 20.6222 110.817 21.0414 111.438 21.0414C111.738 21.0414 112.038 20.958 112.273 20.7693L112.059 20.4553C111.888 20.5812 111.673 20.6653 111.459 20.6653C111.18 20.6653 110.902 20.5395 110.837 20.1838H112.359V20.017C112.38 19.3652 111.994 18.946 111.417 18.946ZM111.417 19.3235C111.695 19.3235 111.888 19.4904 111.931 19.8043H110.859C110.903 19.5328 111.095 19.3235 111.417 19.3235ZM122.576 19.9937V18.1917H122.127V19.238C121.976 19.0506 121.762 18.9453 121.484 18.9453C120.905 18.9453 120.456 19.385 120.456 19.993C120.456 20.6003 120.905 21.0401 121.484 21.0401C121.783 21.0401 121.997 20.9354 122.127 20.7467V20.999H122.576V19.9937ZM120.927 19.9937C120.927 19.6367 121.162 19.344 121.548 19.344C121.912 19.344 122.169 19.6155 122.169 19.9937C122.169 20.35 121.911 20.6434 121.548 20.6434C121.162 20.6222 120.927 20.3493 120.927 19.9937ZM105.89 19.9937V18.987H105.44V19.238C105.29 19.0499 105.075 18.9439 104.798 18.9439C104.22 18.9439 103.77 19.3837 103.77 19.9924C103.77 20.599 104.22 21.0394 104.798 21.0394C105.097 21.0394 105.312 20.9348 105.44 20.7453V20.9977H105.89V19.9937ZM104.219 19.9937C104.219 19.6367 104.454 19.344 104.84 19.344C105.204 19.344 105.461 19.6155 105.461 19.9937C105.461 20.35 105.204 20.6434 104.84 20.6434C104.455 20.6222 104.219 20.3493 104.219 19.9937Z" fill="black"/>
<path d="M114.672 3.70947H107.925V15.5717H114.672V3.70947Z" fill="#FF5F00"/>
<path d="M108.353 9.64021C108.353 7.23016 109.51 5.0923 111.288 3.70946C109.981 2.70344 108.332 2.09546 106.532 2.09546C102.27 2.09546 98.8212 5.46981 98.8212 9.64021C98.8212 13.8106 102.27 17.185 106.532 17.185C108.332 17.185 109.981 16.577 111.288 15.5717C109.51 14.2086 108.353 12.0503 108.353 9.64021Z" fill="#EB001B"/>
<path d="M123.776 9.64026C123.776 13.8107 120.327 17.185 116.064 17.185C114.264 17.185 112.616 16.577 111.309 15.5717C113.108 14.1895 114.244 12.051 114.244 9.64094C114.244 7.23089 113.087 5.09303 111.309 3.71019C112.616 2.70418 114.264 2.09619 116.064 2.09619C120.328 2.09551 123.776 5.49037 123.776 9.64026Z" fill="#F79E1B"/>
<path d="M177.517 20.7439C177.517 22.0967 176.397 23.1909 175.016 23.1909H140.557C139.175 23.1909 138.056 22.0953 138.056 20.7439V2.54884C138.056 1.19677 139.176 0.102539 140.557 0.102539H175.016C176.397 0.102539 177.517 1.19746 177.517 2.54884V20.7439Z" fill="white"/>
<path d="M161.102 15.9807H154.167V3.7854H161.102V15.9807Z" fill="#6C6BBD"/>
<path d="M154.607 9.88401C154.607 7.41035 155.79 5.20683 157.634 3.78638C156.286 2.74822 154.585 2.12793 152.736 2.12793C148.359 2.12793 144.811 5.60008 144.811 9.88332C144.811 14.1673 148.359 17.6387 152.736 17.6387C154.585 17.6387 156.286 17.0177 157.634 15.9809C155.791 14.5619 154.607 12.357 154.607 9.88401Z" fill="#D32011"/>
<path d="M170.459 9.88293C170.459 14.1662 166.91 17.6376 162.534 17.6376C160.685 17.6376 158.983 17.0167 157.634 15.9799C159.479 14.5601 160.662 12.3552 160.662 9.88157C160.662 7.40791 159.48 5.20439 157.634 3.78394C158.983 2.74578 160.685 2.12549 162.534 2.12549C166.909 2.12686 170.459 5.59969 170.459 9.88293Z" fill="#0099DF"/>
<path d="M163.448 19.4247C163.541 19.4247 163.672 19.4425 163.774 19.4808L163.633 19.9028C163.536 19.8631 163.439 19.8515 163.346 19.8515C163.047 19.8515 162.897 20.0416 162.897 20.3801V21.5352H162.44V19.4753H162.893V19.7249C163.011 19.5458 163.183 19.4247 163.448 19.4247ZM161.755 19.8863H161.008V20.8158C161.008 21.0244 161.082 21.1618 161.312 21.1618C161.431 21.1618 161.581 21.1215 161.718 21.0442L161.849 21.4279C161.704 21.5277 161.474 21.5879 161.277 21.5879C160.735 21.5879 160.545 21.3027 160.545 20.8253V19.8863H160.119V19.4767H160.545V18.8523H161.008V19.4767H161.755V19.8863ZM155.897 20.3261C155.946 20.0272 156.13 19.8262 156.455 19.8262C156.75 19.8262 156.941 20.0081 156.988 20.3261H155.897ZM157.464 20.5053C157.46 19.8638 157.054 19.4247 156.464 19.4247C155.848 19.4247 155.416 19.8651 155.416 20.5053C155.416 21.1611 155.865 21.5872 156.494 21.5872C156.812 21.5872 157.102 21.5106 157.357 21.2986L157.133 20.9669C156.957 21.1037 156.733 21.1817 156.522 21.1817C156.227 21.1817 155.957 21.0483 155.892 20.679H157.455C157.459 20.6215 157.464 20.5675 157.464 20.5053ZM159.475 20.0026C159.347 19.9253 159.089 19.8262 158.82 19.8262C158.569 19.8262 158.419 19.9171 158.419 20.0683C158.419 20.2044 158.578 20.244 158.776 20.2707L158.992 20.3008C159.449 20.3651 159.726 20.5552 159.726 20.9163C159.726 21.3075 159.375 21.5879 158.767 21.5879C158.423 21.5879 158.107 21.501 157.854 21.3191L158.071 20.9703C158.226 21.0866 158.456 21.1851 158.771 21.1851C159.083 21.1851 159.252 21.0948 159.252 20.9368C159.252 20.8185 159.133 20.7542 158.882 20.7207L158.665 20.6927C158.194 20.627 157.938 20.4205 157.938 20.0847C157.938 19.6743 158.283 19.424 158.814 19.424C159.149 19.424 159.453 19.4965 159.673 19.6395L159.475 20.0026ZM165.122 19.8508C165.027 19.8508 164.94 19.8658 164.859 19.8987C164.778 19.9315 164.709 19.9766 164.649 20.0341C164.59 20.0915 164.545 20.1626 164.51 20.244C164.476 20.3268 164.46 20.4157 164.46 20.5142C164.46 20.6126 164.476 20.6995 164.51 20.7823C164.544 20.8643 164.59 20.9348 164.649 20.9929C164.709 21.051 164.778 21.0962 164.859 21.1283C164.94 21.1618 165.027 21.1769 165.122 21.1769C165.217 21.1769 165.304 21.1618 165.384 21.1283C165.465 21.0962 165.536 21.051 165.595 20.9929C165.655 20.9348 165.701 20.8643 165.737 20.7823C165.77 20.7009 165.786 20.6126 165.786 20.5142C165.786 20.4157 165.77 20.3281 165.737 20.244C165.702 20.1633 165.655 20.0915 165.595 20.0341C165.536 19.9766 165.465 19.9315 165.384 19.8987C165.304 19.8672 165.217 19.8508 165.122 19.8508ZM165.122 19.4247C165.285 19.4247 165.436 19.4521 165.575 19.5082C165.713 19.5635 165.835 19.6401 165.937 19.7373C166.039 19.8344 166.118 19.9506 166.175 20.0826C166.232 20.2133 166.261 20.3576 166.261 20.5142C166.261 20.6694 166.232 20.8137 166.175 20.9457C166.118 21.077 166.039 21.194 165.937 21.2904C165.835 21.3882 165.715 21.4641 165.575 21.5202C165.436 21.5749 165.285 21.6029 165.122 21.6029C164.959 21.6029 164.808 21.5749 164.669 21.5202C164.53 21.4641 164.41 21.3882 164.309 21.2904C164.208 21.194 164.129 21.077 164.072 20.9457C164.014 20.8137 163.986 20.6694 163.986 20.5142C163.986 20.3576 164.015 20.2146 164.072 20.0826C164.13 19.9506 164.209 19.8344 164.309 19.7373C164.411 19.6401 164.53 19.5635 164.669 19.5082C164.808 19.4521 164.958 19.4247 165.122 19.4247ZM153.22 20.5053C153.22 20.1442 153.464 19.8474 153.859 19.8474C154.237 19.8474 154.492 20.1312 154.492 20.5053C154.492 20.8828 154.237 21.1659 153.859 21.1659C153.464 21.1659 153.22 20.8698 153.22 20.5053ZM154.924 20.5053V19.4767H154.467V19.727C154.323 19.5417 154.103 19.4247 153.803 19.4247C153.212 19.4247 152.75 19.8768 152.75 20.5053C152.75 21.1351 153.212 21.5879 153.803 21.5879C154.102 21.5879 154.321 21.4709 154.467 21.2877V21.5359H154.924V20.5053ZM152.345 21.5359V20.2433C152.345 19.7564 152.027 19.4309 151.517 19.4254C151.249 19.4213 150.972 19.5034 150.776 19.7927C150.631 19.5635 150.403 19.4254 150.081 19.4254C149.857 19.4254 149.636 19.4911 149.464 19.7318V19.4774H149.007V21.5373H149.468V20.3945C149.468 20.0375 149.672 19.848 149.983 19.848C150.287 19.848 150.441 20.0423 150.441 20.3904V21.5373H150.903V20.3945C150.903 20.0375 151.116 19.848 151.417 19.848C151.731 19.848 151.88 20.0423 151.88 20.3904V21.5373H152.344V21.5359H152.345Z" fill="#110F0D"/>
<path d="M223.8 20.6483C223.8 21.9997 222.681 23.0939 221.302 23.0939H186.861C185.482 23.0939 184.363 21.9976 184.363 20.6483V2.46349C184.363 1.11279 185.483 0.0185547 186.861 0.0185547H221.3C222.682 0.0185547 223.8 1.11279 223.8 2.46349V20.6483Z" fill="white"/>
<path d="M200.655 12.4238L198.984 16.8274L198.807 15.9322C198.39 14.8352 197.49 13.6828 196.442 13.2151L197.97 18.8729L199.776 18.8702L202.462 12.4197H200.655V12.4238Z" fill="#025EA3"/>
<path d="M202.087 18.881L203.155 12.4148H204.859L203.793 18.881H202.087Z" fill="#025EA3"/>
<path d="M209.983 12.5743C209.644 12.445 209.113 12.3035 208.453 12.3035C206.765 12.3035 205.58 13.1809 205.568 14.4359C205.557 15.366 206.416 15.885 207.062 16.1935C207.729 16.5101 207.951 16.7126 207.951 16.995C207.942 17.4293 207.416 17.6262 206.926 17.6262C206.244 17.6262 205.882 17.5284 205.322 17.2877L205.101 17.1858L204.862 18.6336C205.262 18.8142 205.998 18.9687 206.766 18.9769C208.557 18.9769 209.721 18.1091 209.736 16.7686C209.744 16.0307 209.286 15.472 208.302 15.0124C207.705 14.7128 207.338 14.5138 207.345 14.2088C207.345 13.9393 207.652 13.6528 208.321 13.6528C208.881 13.6446 209.282 13.7704 209.599 13.9024L209.752 13.9763L209.983 12.5743Z" fill="#025EA3"/>
<path d="M214.357 12.4238H213.039C212.631 12.4238 212.324 12.536 212.144 12.9593L209.611 18.8832H211.404C211.404 18.8832 211.696 18.0844 211.763 17.9107C211.958 17.9107 213.7 17.9148 213.947 17.9148C213.999 18.1405 214.155 18.8832 214.155 18.8832H215.74L214.357 12.4238ZM212.253 16.5881C212.396 16.2167 212.933 14.7799 212.933 14.7799C212.922 14.7976 213.072 14.4051 213.161 14.165L213.274 14.7217C213.274 14.7217 213.602 16.2646 213.67 16.5881C213.403 16.5881 212.586 16.5881 212.253 16.5881Z" fill="#025EA3"/>
<path d="M197.436 12.4182H194.684L194.668 12.529C196.809 13.0645 198.219 14.3776 198.808 15.9341L198.211 12.9646C198.106 12.5543 197.808 12.4333 197.436 12.4182Z" fill="#F1A535"/>
<path d="M189.523 10.8562H188.435L187.18 5.32006L188.384 5.12378L189.242 9.45627L191.429 5.18123H192.583L189.523 10.8562Z" fill="#025EA3"/>
<path d="M195.181 9.04675H192.587C192.514 9.81613 192.882 10.1519 193.5 10.1519C194.019 10.1519 194.477 9.96317 194.969 9.66021L194.965 10.4296C194.484 10.725 193.926 10.9131 193.273 10.9131C192.144 10.9131 191.396 10.2832 191.621 8.85799C191.824 7.57227 192.733 6.79468 193.788 6.79468C195 6.79468 195.404 7.68785 195.229 8.80944C195.215 8.89082 195.19 8.98862 195.181 9.04675ZM193.654 7.47447C193.252 7.47447 192.877 7.78564 192.7 8.43193H194.308C194.336 7.81847 194.138 7.47447 193.654 7.47447Z" fill="#025EA3"/>
<path d="M196.872 8.56328L196.516 10.8318H195.51L196.133 6.87679H196.987L196.988 7.6708C197.328 7.21259 197.789 6.82755 198.423 6.79541L198.429 7.76996C197.794 7.81031 197.224 8.1379 196.872 8.56328Z" fill="#025EA3"/>
<path d="M198.416 10.8309L199.037 6.87594H200.043L199.42 10.8309H198.416ZM199.654 6.21325C199.319 6.21325 199.086 5.98414 199.139 5.65655C199.191 5.32144 199.496 5.08276 199.832 5.08276C200.158 5.08276 200.388 5.32144 200.335 5.65655C200.282 5.98414 199.978 6.21325 199.654 6.21325Z" fill="#025EA3"/>
<path d="M202.822 5.79538C202.481 5.79538 202.273 5.94241 202.218 6.2953L202.126 6.87662H202.895V7.67883H202.001L201.504 10.8316H200.507L201.004 7.67883H200.419L200.544 6.87662H201.132L201.238 6.19682C201.374 5.32075 201.997 4.99316 202.824 4.99316C203.001 4.99316 203.131 5.00958 203.23 5.02599L203.237 5.8282C203.139 5.81247 202.991 5.79538 202.822 5.79538Z" fill="#025EA3"/>
<path d="M202.834 10.8309L203.456 6.87594H204.461L203.839 10.8309H202.834ZM204.07 6.21325C203.736 6.21325 203.503 5.98414 203.557 5.65655C203.609 5.32144 203.915 5.08276 204.249 5.08276C204.576 5.08276 204.806 5.32144 204.755 5.65655C204.703 5.98414 204.399 6.21325 204.07 6.21325Z" fill="#025EA3"/>
<path d="M208.354 9.04675H205.762C205.689 9.81613 206.055 10.1519 206.674 10.1519C207.194 10.1519 207.651 9.96317 208.143 9.66021L208.139 10.4296C207.657 10.725 207.1 10.9131 206.446 10.9131C205.317 10.9131 204.57 10.2832 204.796 8.85799C204.998 7.57227 205.907 6.79468 206.962 6.79468C208.174 6.79468 208.578 7.68785 208.403 8.80944C208.388 8.89082 208.365 8.98862 208.354 9.04675ZM206.827 7.47447C206.426 7.47447 206.05 7.78564 205.874 8.43193H207.482C207.509 7.81847 207.314 7.47447 206.827 7.47447Z" fill="#025EA3"/>
<path d="M211.329 10.831L211.333 10.2825C210.996 10.6183 210.556 10.9131 209.994 10.9131C209.149 10.9131 208.567 10.2996 208.778 8.96395C209.01 7.49015 209.942 6.83498 210.879 6.83498C211.264 6.83498 211.563 6.89995 211.794 6.98202L212.094 5.07395L213.124 4.9187L212.194 10.8317L211.329 10.831ZM211.665 7.79312C211.433 7.67891 211.25 7.62078 210.906 7.62078C210.379 7.62078 209.929 8.03864 209.792 8.9065C209.669 9.67589 209.948 10.0363 210.389 10.0363C210.759 10.0363 211.076 9.82293 211.395 9.49671L211.665 7.79312Z" fill="#025EA3"/>
<path d="M215.269 10.87C214.794 10.87 214.405 10.7955 214.044 10.671L214.705 6.47188L215.483 6.35425L215.199 8.17136C215.425 7.97303 215.741 7.7747 216.129 7.7747C216.774 7.7747 217.208 8.24522 217.051 9.25192C216.877 10.3537 216.182 10.87 215.269 10.87ZM215.83 8.43124C215.576 8.43124 215.321 8.59811 215.097 8.82175L214.881 10.18C215.031 10.236 215.135 10.2607 215.351 10.2607C215.832 10.2607 216.168 9.9748 216.276 9.29295C216.368 8.71643 216.171 8.43124 215.83 8.43124Z" fill="#025EA3"/>
<path d="M218.843 10.9924C218.455 11.731 218.07 11.9594 217.48 11.9594C217.347 11.9594 217.273 11.9478 217.204 11.9293L217.202 11.3152C217.299 11.3398 217.402 11.3583 217.548 11.3583C217.769 11.3583 217.965 11.2591 218.091 11.043L218.193 10.844L217.548 7.8916L218.356 7.79175L218.73 9.92551L219.743 7.83552H220.498L218.843 10.9924Z" fill="#025EA3"/>
<path d="M270 20.7515C270 22.1009 268.882 23.1944 267.505 23.1944H233.105C231.726 23.1944 230.608 22.0995 230.608 20.7515V2.58722C230.608 1.23789 231.727 0.14502 233.105 0.14502H267.505C268.884 0.14502 270 1.23789 270 2.58722V20.7515Z" fill="white"/>
<path d="M266.02 10.2064C266.02 9.84603 266.311 9.55127 266.66 9.55127C267.02 9.55127 267.301 9.84535 267.301 10.2064C267.301 10.5675 267.02 10.8616 266.66 10.8616C266.311 10.8712 266.02 10.5757 266.02 10.2064ZM266.662 10.7187C266.934 10.7187 267.146 10.4909 267.146 10.216C267.146 9.94109 266.922 9.71267 266.662 9.71267C266.39 9.71267 266.176 9.94041 266.176 10.216C266.174 10.4916 266.39 10.7187 266.662 10.7187ZM266.573 10.5012H266.439V9.92126H266.681C266.73 9.92126 266.789 9.92126 266.827 9.94998C266.873 9.97871 266.894 10.0355 266.894 10.0922C266.894 10.1593 266.856 10.2153 266.799 10.2345L266.904 10.4909H266.759L266.671 10.2632H266.573V10.5012ZM266.573 10.1784H266.65C266.681 10.1784 266.709 10.1784 266.727 10.1681C266.746 10.1593 266.757 10.1305 266.757 10.1018C266.757 10.0827 266.746 10.0546 266.727 10.045C266.709 10.0355 266.669 10.0355 266.65 10.0355H266.582L266.573 10.1784Z" fill="#FD0C15"/>
<path d="M256.853 5.83098L256.678 6.9512C256.3 6.7515 256.021 6.67627 255.719 6.67627C254.923 6.67627 254.361 7.47302 254.361 8.60281C254.361 9.38109 254.74 9.85503 255.362 9.85503C255.624 9.85503 255.913 9.77023 256.274 9.58968L256.088 10.7667C255.691 10.8809 255.438 10.9185 255.139 10.9185C253.985 10.9185 253.266 10.0643 253.266 8.69719C253.266 6.85614 254.254 5.56494 255.681 5.56494C255.864 5.56494 256.03 5.58409 256.165 5.62171L256.613 5.73523C256.727 5.78379 256.757 5.79268 256.853 5.83098Z" fill="#FD0C15"/>
<path d="M253.294 6.59966C253.265 6.59009 253.224 6.59009 253.186 6.59009C252.838 6.59009 252.635 6.77064 252.304 7.27399L252.401 6.63796H251.431L250.773 10.8241H251.849C252.236 8.26153 252.333 7.82452 252.848 7.82452C252.878 7.82452 252.887 7.82452 252.926 7.82452C253.023 7.32117 253.148 6.95119 253.332 6.60924L253.294 6.59966Z" fill="#FD0C15"/>
<path d="M246.882 10.7667C246.59 10.8625 246.358 10.9096 246.114 10.9096C245.571 10.9096 245.271 10.5868 245.271 9.98843C245.271 9.87491 245.282 9.74223 245.301 9.60955L245.369 9.20127L245.417 8.86889L245.882 6.01294H246.948L246.822 6.62981H247.375L247.221 7.64472H246.678L246.395 9.39139C246.385 9.46799 246.378 9.52407 246.378 9.56237C246.378 9.78121 246.492 9.87559 246.745 9.87559C246.872 9.87559 246.959 9.86533 247.035 9.83798L246.882 10.7667Z" fill="#FD0C15"/>
<path d="M242.653 7.958C242.653 8.48939 242.904 8.8498 243.467 9.12541C243.894 9.334 243.973 9.40034 243.973 9.59046C243.973 9.84692 243.778 9.97071 243.362 9.97071C243.041 9.97071 242.75 9.92284 242.401 9.79974L242.256 10.7674L242.303 10.777L242.497 10.8146C242.566 10.8249 242.653 10.8434 242.778 10.8529C243.03 10.8714 243.234 10.8912 243.368 10.8912C244.494 10.8912 245.018 10.4453 245.018 9.4954C245.018 8.92571 244.805 8.58377 244.262 8.32799C243.815 8.11872 243.766 8.07153 243.766 7.87183C243.766 7.64409 243.941 7.53056 244.292 7.53056C244.505 7.53056 244.786 7.55929 245.058 7.5969L245.213 6.62919C244.933 6.58132 244.516 6.5437 244.272 6.5437C243.06 6.5437 242.643 7.17904 242.653 7.958Z" fill="#FD0C15"/>
<path d="M265.399 10.8138H264.382L264.43 10.4062C264.139 10.729 263.83 10.8713 263.44 10.8713C262.655 10.8713 262.141 10.1792 262.141 9.13416C262.141 7.73901 262.936 6.56202 263.887 6.56202C264.305 6.56202 264.614 6.74325 264.916 7.13171L265.148 5.66064H266.207L265.399 10.8138ZM263.818 9.83652C264.324 9.83652 264.672 9.25726 264.672 8.42222C264.672 7.89083 264.468 7.59607 264.1 7.59607C263.616 7.59607 263.268 8.18491 263.268 9.00011C263.267 9.55133 263.45 9.83652 263.818 9.83652Z" fill="#FD0C15"/>
<path d="M250.276 10.7282C249.909 10.8418 249.559 10.8992 249.171 10.8992C247.978 10.8992 247.348 10.2529 247.348 9.01917C247.348 7.57683 248.143 6.52295 249.22 6.52295C250.105 6.52295 250.665 7.12136 250.665 8.05078C250.665 8.35511 250.625 8.65876 250.529 9.0862H248.395C248.385 9.15253 248.385 9.18057 248.385 9.21887C248.385 9.71265 248.706 9.95953 249.326 9.95953C249.705 9.95953 250.054 9.87405 250.443 9.69418L250.276 10.7282ZM249.675 8.23201C249.687 8.14652 249.687 8.07129 249.687 8.02342C249.687 7.68147 249.501 7.48246 249.181 7.48246C248.842 7.48246 248.598 7.74781 248.503 8.23201H249.675Z" fill="#FD0C15"/>
<path d="M238.347 10.8138H237.279L237.89 6.85604L236.512 10.8138H235.785L235.698 6.88477L235.048 10.8138H234.049L234.883 5.67017H236.426L236.464 8.85918L237.512 5.67017H239.181L238.347 10.8138Z" fill="#FD0C15"/>
<path d="M241.11 8.95425C240.993 8.94399 240.945 8.9351 240.868 8.9351C240.257 8.9351 239.954 9.15258 239.954 9.57044C239.954 9.8269 240.112 9.99787 240.344 9.99787C240.771 9.99787 241.091 9.57044 241.11 8.95425ZM241.885 10.8138H240.993L241.012 10.3774C240.741 10.7283 240.383 10.8801 239.889 10.8801C239.307 10.8801 238.909 10.4144 238.909 9.74073C238.909 8.71557 239.608 8.12742 240.791 8.12742C240.917 8.12742 241.07 8.13631 241.228 8.15614C241.256 8.01389 241.266 7.95713 241.266 7.8819C241.266 7.60629 241.082 7.50165 240.578 7.50165C240.276 7.50165 239.928 7.54952 239.687 7.62544L239.551 7.67331L239.454 7.70135L239.6 6.76167C240.134 6.59959 240.492 6.53394 240.88 6.53394C241.802 6.53394 242.287 6.96137 242.287 7.75811C242.287 7.9667 242.268 8.11853 242.199 8.59315L241.986 10.0827L241.945 10.348L241.918 10.5566L241.897 10.7084L241.885 10.8138Z" fill="#FD0C15"/>
<path d="M258.705 8.95435C258.599 8.94409 258.542 8.9352 258.464 8.9352C257.853 8.9352 257.542 9.15268 257.542 9.57054C257.542 9.827 257.698 9.99798 257.932 9.99798C258.367 9.99798 258.687 9.57054 258.705 8.95435ZM259.483 10.8139H258.59L258.609 10.3775C258.337 10.7284 257.98 10.8802 257.486 10.8802C256.901 10.8802 256.504 10.4145 256.504 9.74083C256.504 8.71567 257.203 8.12752 258.387 8.12752C258.504 8.12752 258.669 8.13641 258.825 8.15624C258.854 8.01399 258.862 7.95723 258.862 7.882C258.862 7.60639 258.677 7.50175 258.174 7.50175C257.872 7.50175 257.524 7.54962 257.283 7.62554L257.127 7.66384L257.03 7.69256L257.175 6.75288C257.709 6.59148 258.067 6.52515 258.455 6.52515C259.376 6.52515 259.863 6.95258 259.863 7.74932C259.863 7.95791 259.843 8.10974 259.774 8.58436L259.552 10.065L259.522 10.3303L259.493 10.5396L259.473 10.6819L259.483 10.8139Z" fill="#FD0C15"/>
<path d="M262.481 6.59966C262.452 6.59009 262.412 6.59009 262.373 6.59009C262.025 6.59009 261.821 6.77064 261.491 7.27399L261.588 6.63796H260.618L259.959 10.8241H261.036C261.422 8.26153 261.521 7.82452 262.035 7.82452C262.065 7.82452 262.065 7.82452 262.112 7.82452C262.208 7.32117 262.344 6.95119 262.519 6.60924L262.481 6.59966Z" fill="#FD0C15"/>
<path d="M257.979 14.8858C257.979 15.8358 257.677 16.3952 257.203 16.3952C256.853 16.4048 256.65 16.0252 256.65 15.4665C256.65 14.8024 256.959 14.044 257.447 14.044C257.844 14.0412 257.979 14.4481 257.979 14.8858ZM259.036 14.8961C259.036 13.8422 258.503 13.0154 257.503 13.0154C256.35 13.0154 255.604 14.0111 255.604 15.4836C255.604 16.5361 256.051 17.4012 257.134 17.4012C258.232 17.4012 259.036 16.6407 259.036 14.8961Z" fill="#F3AE12"/>
<path d="M255.942 12.2848L255.779 13.4051C255.417 13.2067 255.167 13.1301 254.886 13.1301C254.14 13.1301 253.616 13.9289 253.616 15.0567C253.616 15.8356 253.965 16.3089 254.547 16.3089C254.799 16.3089 255.069 16.2241 255.401 16.0429L255.227 17.2205C254.858 17.334 254.615 17.3737 254.333 17.3737C253.257 17.3737 252.577 16.5182 252.577 15.1524C252.577 13.3107 253.509 12.0188 254.837 12.0188C255.011 12.0188 255.157 12.0373 255.285 12.0762L255.691 12.1905C255.825 12.2294 255.854 12.2376 255.942 12.2848Z" fill="#F3AE12"/>
<path d="M249.316 13.0462C249.288 13.0332 249.248 13.0332 249.211 13.0332C248.879 13.0332 248.696 13.2158 248.384 13.7178L248.481 13.0804H247.58L246.968 17.2665H247.969C248.329 14.7046 248.425 14.2663 248.899 14.2663C248.929 14.2663 248.929 14.2663 248.977 14.2758C249.065 13.7739 249.191 13.4046 249.356 13.0633L249.316 13.0462Z" fill="#F3AE12"/>
<path d="M262.392 17.2295H261.442L261.491 16.8219C261.219 17.144 260.928 17.2862 260.56 17.2862C259.832 17.2862 259.346 16.5941 259.346 15.5485C259.346 14.1547 260.094 12.9763 260.978 12.9763C261.366 12.9763 261.666 13.1569 261.937 13.5563L262.16 12.0852H263.149L262.392 17.2295ZM260.909 16.2433C261.385 16.2433 261.704 15.6627 261.704 14.8283C261.704 14.2976 261.521 14.0117 261.17 14.0117C260.716 14.0117 260.395 14.5931 260.395 15.4185C260.394 15.9684 260.568 16.2433 260.909 16.2433Z" fill="#F3AE12"/>
<path d="M239.926 17.211C239.588 17.3259 239.257 17.382 238.898 17.382C237.783 17.382 237.2 16.7371 237.2 15.5026C237.2 14.0685 237.946 13.0071 238.946 13.0071C239.77 13.0071 240.295 13.5952 240.295 14.5356C240.295 14.8399 240.255 15.1422 240.169 15.5703H238.18C238.17 15.6367 238.17 15.6647 238.17 15.7016C238.17 16.1865 238.47 16.432 239.052 16.432C239.411 16.432 239.732 16.3472 240.091 16.1667L239.926 17.211ZM239.364 14.7155C239.364 14.6293 239.375 14.5534 239.375 14.5055C239.375 14.1636 239.199 13.9645 238.899 13.9645C238.579 13.9645 238.356 14.2313 238.259 14.7155H239.364Z" fill="#F3AE12"/>
<path d="M251.839 17.211C251.5 17.3259 251.17 17.382 250.809 17.382C249.685 17.382 249.103 16.7371 249.103 15.5026C249.103 14.0685 249.85 13.0071 250.849 13.0071C251.674 13.0071 252.207 13.5952 252.207 14.5356C252.207 14.8399 252.169 15.1422 252.08 15.5703H250.091C250.081 15.6367 250.081 15.6647 250.081 15.7016C250.081 16.1865 250.383 16.432 250.964 16.432C251.324 16.432 251.644 16.3472 252.002 16.1667L251.839 17.211ZM251.277 14.7155C251.287 14.6293 251.287 14.5534 251.287 14.5055C251.287 14.1636 251.112 13.9645 250.811 13.9645C250.49 13.9645 250.268 14.2313 250.171 14.7155H251.277Z" fill="#F3AE12"/>
<path d="M265.808 17.211C265.459 17.3259 265.129 17.382 264.778 17.382C263.662 17.382 263.072 16.7371 263.072 15.5026C263.072 14.0685 263.818 13.0071 264.828 13.0071C265.652 13.0071 266.177 13.5952 266.177 14.5356C266.177 14.8399 266.137 15.1422 266.049 15.5703H264.062C264.052 15.6367 264.052 15.6647 264.052 15.7016C264.052 16.1865 264.352 16.432 264.935 16.432C265.295 16.432 265.613 16.3472 265.973 16.1667L265.808 17.211ZM265.245 14.7155C265.245 14.6293 265.255 14.5534 265.255 14.5055C265.255 14.1636 265.08 13.9645 264.779 13.9645C264.457 13.9645 264.236 14.2313 264.139 14.7155H265.245Z" fill="#F3AE12"/>
<path d="M236.957 13.2343C236.765 13.1023 236.493 12.9976 236.125 12.9976C235.718 12.9976 235.398 13.0831 235.398 13.4996C235.398 14.2396 236.873 13.9647 236.873 15.5595C236.873 17.0114 235.9 17.3924 235.019 17.3924C234.631 17.3924 234.177 17.2679 233.845 17.1174L234.088 16.0533C234.293 16.2338 234.69 16.3556 235.03 16.3556C235.349 16.3556 235.835 16.2701 235.835 15.7305C235.835 14.8852 234.36 15.1991 234.36 13.7191C234.36 12.3623 235.222 11.9629 236.058 11.9629C236.524 11.9629 236.97 12.0299 237.223 12.2009L236.957 13.2343Z" fill="#F3AE12"/>
<path d="M242.856 17.211C242.653 17.3061 242.372 17.3731 241.965 17.3731C241.091 17.3731 240.548 16.5176 240.548 15.4746C240.548 14.1068 241.333 13.0249 242.488 13.0249C242.74 13.0249 243.128 13.1289 243.429 13.3012L243.207 14.297C242.992 14.154 242.77 14.0685 242.538 14.0685C242.004 14.0685 241.615 14.552 241.615 15.4069C241.615 15.9021 241.897 16.3083 242.334 16.3083C242.595 16.3083 242.781 16.2508 243.002 16.1271L242.856 17.211Z" fill="#F3AE12"/>
<path d="M246.601 16.158C246.553 16.517 246.505 16.8699 246.475 17.2385H245.514L245.591 16.5669H245.58C245.28 17.0217 244.969 17.3343 244.416 17.3343C243.815 17.3343 243.486 16.7085 243.486 15.9015C243.486 15.617 243.504 15.4645 243.562 15.0288L243.834 13.092H244.911L244.621 15.0391C244.592 15.2477 244.552 15.4535 244.552 15.6738C244.552 15.9206 244.668 16.1689 244.959 16.1484C245.396 16.1484 245.656 15.6252 245.735 15.009L246.037 13.092H247.075L246.601 16.158Z" fill="#F3AE12"/>
<path d="M266.806 17.1918H266.64V16.499H266.409V16.3472H267.038V16.499H266.806V17.1918Z" fill="#F3AE12"/>
<path d="M267.882 17.1918H267.728V16.4894L267.582 17.1918H267.426L267.282 16.4894V17.1918H267.126V16.3472H267.369L267.504 17.0119H267.514L267.649 16.3472H267.882V17.1918Z" fill="#F3AE12"/>
</svg>
