<svg width="48" height="48" viewBox="0 0 48 48" fill="none" xmlns="http://www.w3.org/2000/svg">
<path fill-rule="evenodd" clip-rule="evenodd" d="M24 5.50037C34.218 5.50037 42.5 13.7844 42.5 24.0004C42.5 34.2164 34.218 42.5004 24 42.5004C13.784 42.5004 5.5 34.2164 5.5 24.0004C5.5 13.7844 13.784 5.50037 24 5.50037Z" stroke="#767676" stroke-width="3" stroke-linecap="round" stroke-linejoin="round"/>
<path d="M22.2155 28.0909V28.3409H22.4655H24.5109H24.7609V28.0909V27.9906C24.7722 27.3004 24.8446 26.7367 24.9727 26.2938C25.0996 25.8549 25.3014 25.4822 25.5761 25.1711L25.5775 25.1696C25.8583 24.8463 26.2379 24.5322 26.7222 24.2295C27.2403 23.9114 27.6855 23.5441 28.0554 23.1267C28.434 22.7058 28.7228 22.2274 28.921 21.6931C29.1263 21.1552 29.2268 20.5594 29.2268 19.909C29.2268 18.9829 29.0127 18.1486 28.5789 17.4133C28.151 16.6783 27.5424 16.1013 26.7598 15.6831C25.9784 15.2624 25.067 15.0568 24.0336 15.0568C23.0794 15.0568 22.2037 15.2455 21.411 15.6269L21.4104 15.6273C20.6208 16.0101 19.9815 16.5652 19.4964 17.2899L19.4964 17.2898L19.4956 17.291C19.0122 18.0222 18.7516 18.8943 18.7044 19.8973L18.6921 20.159H18.9541H21.1018H21.3355L21.3513 19.9259C21.3946 19.2864 21.5531 18.7916 21.8096 18.4244C22.0753 18.0441 22.4016 17.7709 22.7891 17.5975C23.1894 17.4184 23.6035 17.3295 24.0336 17.3295C24.5321 17.3295 24.9786 17.4326 25.3781 17.6349C25.7761 17.8365 26.0916 18.1215 26.3287 18.4925C26.5607 18.8557 26.6814 19.2905 26.6814 19.8068C26.6814 20.2256 26.6073 20.6005 26.4631 20.9351L26.4631 20.9351L26.4619 20.9381C26.3199 21.2799 26.1262 21.5807 25.8807 21.842C25.6293 22.104 25.3456 22.3316 25.029 22.5248C24.4577 22.8688 23.964 23.2473 23.5501 23.6612C23.12 24.0913 22.7951 24.6468 22.5694 25.318C22.3417 25.9952 22.227 26.8883 22.2155 27.986H22.2155V27.9886V28.0909ZM24.452 33.1461L24.4536 33.1452C24.7208 32.9823 24.9346 32.7656 25.092 32.4975C25.2577 32.225 25.3405 31.9248 25.3405 31.6022C25.3405 31.1145 25.1629 30.6904 24.8155 30.3431C24.4682 29.9957 24.0441 29.8181 23.5564 29.8181C23.0687 29.8181 22.6446 29.9957 22.2972 30.3431C21.9499 30.6904 21.7723 31.1145 21.7723 31.6022C21.7723 32.0899 21.9499 32.514 22.2972 32.8614C22.6446 33.2087 23.0687 33.3863 23.5564 33.3863C23.8824 33.3863 24.1831 33.3075 24.452 33.1461Z" fill="#767676" stroke="#767676" stroke-width="0.5"/>
</svg>
