<?xml version="1.0" encoding="utf-8"?>
<!-- Generator: Adobe Illustrator 25.2.0, SVG Export Plug-In . SVG Version: 6.00 Build 0)  -->
<svg version="1.1" id="Layer_1" xmlns="http://www.w3.org/2000/svg" xmlns:xlink="http://www.w3.org/1999/xlink" x="0px" y="0px"
	 viewBox="0 0 602.2 294.2" style="enable-background:new 0 0 602.2 294.2;" xml:space="preserve">
<style type="text/css">
	.st0{fill:#9B0033;}
	.st1{fill-rule:evenodd;clip-rule:evenodd;fill:#9B0033;}
	.st2{fill-rule:evenodd;clip-rule:evenodd;}
	.st3{fill:#A10045;}
	.st4{fill:#FFFFFF;}
	.st5{fill-rule:evenodd;clip-rule:evenodd;fill:none;stroke:#9B0033;stroke-miterlimit:10;}
</style>
<path class="st0" d="M208.1,74.7h284c28.5,0,52.3,9.1,72.3,27.5c19.7,18.3,29.4,40,29.7,66.6h4.1h-4.1c-0.3,26-9.9,47.5-29.7,66.1
	l0,0c-20.1,18.5-43.8,27.8-72.3,27.8h-284c-2.2,0-4.1,1.8-4.1,4.1c0,2.2,1.8,4.1,4.1,4.1h284c30.3,0,56.4-10.1,77.8-29.9l0,0
	c21.2-19.8,32-43.9,32.3-72v-0.1c-0.2-28.5-11.1-53-32.3-72.5c-21.4-19.8-47.6-29.7-77.8-29.7h-284c-2.2,0-4.1,1.8-4.1,4.1
	C204.1,72.9,205.9,74.7,208.1,74.7z M208.1,74.7h284c28.5,0,52.3,9.1,72.3,27.5c19.7,18.3,29.4,40,29.7,66.6h4.1h-4.1
	c-0.3,26-9.9,47.5-29.7,66.1l0,0c-20.1,18.5-43.8,27.8-72.3,27.8h-284c-2.2,0-4.1,1.8-4.1,4.1c0,2.2,1.8,4.1,4.1,4.1h284
	c30.3,0,56.4-10.1,77.8-29.9l0,0c21.2-19.8,32-43.9,32.3-72v-0.1c-0.2-28.5-11.1-53-32.3-72.5c-21.4-19.8-47.6-29.7-77.8-29.7h-284
	c-2.2,0-4.1,1.8-4.1,4.1C204.1,72.9,205.9,74.7,208.1,74.7z"/>
<path class="st1" d="M182.9,72.4c16.3,9.5,29.1,22.3,38.6,38.3c9.5,16.3,14.2,34.4,14.4,54.1c-0.3,20-5,38.1-14.4,54.1
	s-22.3,28.9-38.6,38.6c-16,9.4-33.9,14.2-54.1,14.4c-19.7-0.3-37.8-5-53.8-14.4c-16.3-9.7-29.1-22.6-38.3-38.6
	C27,202.9,22.3,185,22,164.8c0.3-19.7,5-37.8,14.7-54.1c9.2-16,22-28.9,38.3-38.3C91,63,109.1,58,128.8,57.7
	C148.8,58,166.9,63,182.9,72.4 M128.9,36c-23.9,0.3-45.7,6-65.1,17.6c-19.2,11.5-34.4,27-46.2,46.2C6,119.2,0.3,140.9,0,164.8
	c0.3,23.9,6,45.7,17.6,65.1c11.8,19.4,27,34.9,46.2,46.7c19.4,11.3,41.2,17.1,65.1,17.6c24.1-0.3,45.9-6,65.4-17.6
	c19.4-11.8,34.9-27.3,46.5-46.7c11.3-19.4,17.3-41.2,17.6-65.1c-0.3-23.9-6-45.7-17.6-65.1c-11.5-19.2-27-34.6-46.5-46.2
	C174.8,42,153,36.2,128.9,36z"/>
<polyline class="st0" points="290.8,127.6 299.7,127.6 309.2,153.5 318.9,127.6 327.6,127.6 312.9,164.6 305.8,164.6 290.8,127.6 
	"/>
<path class="st0" d="M393.4,136.2h8.1v28.1h-8.1V136.2z M393.2,126h8.4v7.1h-8.4V126z M368,136.2h7.9v5.5c0.8-1.8,2.1-3.4,3.4-4.5
	c1.3-1.3,3.2-1.8,5.5-1.6v8.4h-0.3c-2.9,0-5,0.8-6.3,2.4c-1.6,1.6-2.4,4.2-2.4,7.6v10.2H368V136.2z M350.9,148
	c-0.3-1.8-0.8-3.1-1.8-4.5c-1-1.1-2.4-1.6-3.9-1.6c-1.8,0-3.1,0.5-4.2,1.6c-1.1,1.3-1.8,2.6-2.1,4.5H350.9z M345.7,165.1
	c-1.8,0-3.9-0.5-5.8-1.3c-1.8-0.5-3.4-1.6-4.7-2.9c-1.3-1.3-2.1-2.6-2.9-4.5c-0.8-1.8-1.3-3.9-1.3-6s0.3-3.9,1-5.8
	c0.8-1.8,1.6-3.4,2.9-4.7s2.6-2.4,4.5-3.2c1.8-0.8,3.7-1.1,5.8-1.1c2.4,0,4.2,0.5,6,1.3s3.2,1.8,4.2,3.4c1.1,1.3,1.8,2.9,2.6,4.7
	c0.5,1.8,0.8,3.9,0.8,5.8l-0.3,1.1v1.1h-19.4c0.3,1.8,1,3.2,2.4,4.2c1.3,0.8,2.6,1.3,4.5,1.3c1.3,0,2.4-0.3,3.7-0.8
	c0.8-0.3,1.8-1,3.1-2.1l4.5,3.9c-1.3,1.8-2.9,3.1-4.7,3.9C350.7,164.6,348.3,165.1,345.7,165.1z"/>
<path class="st0" d="M426.3,164.8c-2.9,0-5.5-0.5-8.4-1.6c-2.6-0.8-5-2.4-7.3-4.5l5-5.5c1.6,1.3,3.1,2.4,5,3.1
	c1.8,0.8,3.7,1.3,5.8,1.3c1.8,0,3.1-0.3,3.9-1c0.8-0.5,1.3-1.3,1.3-2.4v-1.6l-1.3-1.1l-2.1-1l-3.9-1.3l-5-1.3l-3.9-2.1l-2.4-3.2
	c-0.5-1.3-0.8-2.6-0.8-4.5v-0.3l0.8-4.5c0.8-1.3,1.6-2.6,2.9-3.4c1.1-1.1,2.4-1.8,3.9-2.4c1.6-0.5,3.4-0.8,5.2-0.8
	c2.6,0,5,0.5,7.3,1.3c2.4,0.8,4.5,1.8,6.3,3.4l-4.2,6l-5-2.6c-1.6-0.8-3.1-1.1-4.7-1.1s-2.6,0.3-3.4,1.1c-0.8,0.5-1.3,1.3-1.3,2.1
	v0.3l0.5,1.6l1.1,1.1l2.6,1.1l3.9,1l5,1.8c1.3,0.5,2.6,1.3,3.7,2.1l2.1,2.9c0.5,1.3,0.8,2.6,0.8,4.2v0.3c0,1.8-0.3,3.4-1.1,4.7
	c-0.5,1.3-1.3,2.6-2.6,3.7c-1.3,0.8-2.6,1.6-4.5,2.1C429.9,164.6,428.1,164.8,426.3,164.8"/>
<path class="st0" d="M449.9,136.2h8.1v28.1h-8.1V136.2z M449.6,126h8.4v7.1h-8.4V126z"/>
<path class="st0" d="M508.7,136.2h7.9v3.9l1.6-1.6l1.8-1.6l2.1-1.1l2.6-0.3c3.1,0,5.5,1.1,7.1,2.9c1.8,1.8,2.6,4.2,2.6,7.6v18.1
	h-8.1v-15.7c0-1.8-0.3-3.1-1-4.2c-0.8-0.8-2.1-1.3-3.7-1.3s-2.9,0.5-3.7,1.3c-0.8,1.1-1.3,2.4-1.3,4.2v15.7h-7.9L508.7,136.2
	 M483.5,155.4l2.9-0.5c0.8-0.3,1.3-0.5,2.1-1.3c0.5-0.5,1-1.3,1.3-2.1s0.5-1.6,0.5-2.6l-0.5-2.6c-0.3-0.8-0.8-1.6-1.3-2.1l-2.1-1.3
	l-2.9-0.5l-2.6,0.5l-2.1,1.3c-0.8,0.5-1.3,1.3-1.6,2.1l-0.5,2.6c0,2.1,0.8,3.7,2.1,4.7C480.1,154.9,481.6,155.4,483.5,155.4z
	 M482.7,172.7l-6.6-0.8c-2.4-0.3-4.2-1.1-6-2.1l2.9-6l4.5,2.1l5,0.5c2.6,0,4.7-0.5,6-1.8s1.8-3.1,1.8-5.8v-1.3
	c-1.1,1.3-2.4,2.6-3.7,3.4c-1.3,0.8-3.1,1-5.5,1c-1.6,0-3.2-0.3-4.7-0.8c-1.3-0.5-2.6-1.3-3.9-2.6c-1-1.1-1.8-2.4-2.6-3.9
	c-0.8-1.8-1.1-3.7-1.1-5.8s0.3-3.9,1.1-5.5c0.8-1.8,1.6-3.1,2.6-4.2c1.3-1.3,2.6-2.1,4.2-2.6l4.5-0.8c2.4,0,4.2,0.5,5.5,1.3
	s2.6,1.6,3.7,2.9v-3.7h7.9V158c0,5-1.1,8.7-3.4,11c-1.3,1.3-3.2,2.4-5,2.9L482.7,172.7z"/>
<path class="st0" d="M311.3,210.8c-2.9,0-5.5-0.5-8.4-1.6c-2.6-0.8-5-2.4-7.3-4.5l5-5.5c1.6,1.3,3.1,2.4,5,3.1
	c1.8,0.8,3.7,1.3,5.8,1.3c1.8,0,3.2-0.3,3.9-1c0.8-0.5,1.3-1.3,1.3-2.4v-1.6l-1.3-1.1l-2.1-1l-3.9-1.3l-5-1.3l-3.9-2.1l-2.4-3.2
	c-0.5-1.3-0.8-2.6-0.8-4.5V184l0.8-4.5c0.8-1.3,1.6-2.6,2.9-3.4c1.1-1.1,2.4-1.8,3.9-2.4c1.6-0.5,3.4-0.8,5.3-0.8
	c2.6,0,5,0.5,7.3,1.3c2.4,0.8,4.5,1.8,6.3,3.4l-4.2,6l-5-2.6c-1.6-0.8-3.2-1.1-4.7-1.1c-1.6,0-2.6,0.3-3.4,1.1
	c-0.8,0.5-1.3,1.3-1.3,2.1v0.3l0.5,1.6l1.1,1.1l2.6,1.1l3.9,1l5,1.8c1.3,0.5,2.6,1.3,3.7,2.1l2.1,2.9c0.5,1.3,0.8,2.6,0.8,4.2v0.3
	c0,1.8-0.3,3.4-1,4.7c-0.5,1.3-1.3,2.6-2.6,3.7c-1.3,0.8-2.6,1.6-4.5,2.1C315,210.5,313.1,210.8,311.3,210.8"/>
<path class="st0" d="M385.6,211c-2.1,0-3.9-0.5-5.8-1.3c-1.8-0.8-3.4-1.8-4.7-3.2c-1.3-1.3-2.1-2.6-2.9-4.5
	c-0.8-1.8-1.3-3.9-1.3-5.8c0-2.1,0.5-3.9,1.3-5.8c0.8-1.8,1.6-3.4,2.9-4.7s2.9-2.4,4.7-3.2c1.8-0.8,3.7-1.1,6-1.1
	c2.6,0,4.7,0.5,6.6,1.3c1.8,0.8,3.1,1.8,4.5,3.4l-4.7,5.3c-0.8-1.1-1.8-1.8-2.9-2.4c-0.8-0.5-2.1-0.8-3.7-0.8l-2.6,0.5l-2.1,1.8
	l-1.6,2.4l-0.5,2.9v0.3c0,1.1,0.3,2.1,0.5,2.9c0.3,1.1,0.8,1.8,1.6,2.6c0.5,0.8,1.3,1.3,2.1,1.6c0.8,0.3,1.8,0.5,3.1,0.5
	c1.3,0,2.4-0.3,3.4-0.8l2.9-2.1l4.7,4.7c-1.3,1.3-2.9,2.6-4.7,3.7C390.6,210.5,388.5,211,385.6,211"/>
<path class="st0" d="M361.2,191.1c-0.8-1.8-1.6-3.4-2.6-4.7c-1.1-1.5-2.4-2.6-4.2-3.4c-1.8-0.8-3.7-1.3-6-1.3
	c-2.1,0-3.9,0.3-5.8,1.1c-1.8,0.8-3.2,1.8-4.5,3.2c-1.3,1.3-2.1,2.9-2.9,4.7s-1.1,3.7-1.1,5.8s0.5,4.2,1.3,6s1.6,3.2,2.9,4.5
	s2.9,2.4,4.7,2.9c1.8,0.8,3.9,1.3,5.8,1.3c2.6,0,5-0.5,6.8-1.6c1.8-0.8,3.4-2.1,4.7-3.9l-4.5-3.9c-1.3,1.1-2.4,1.8-3.2,2.1
	c-1.3,0.5-2.4,0.8-3.7,0.8c-1.8,0-3.2-0.5-4.5-1.3c-1.3-1.1-2.1-2.4-2.3-4.2h19.4v-1l0.2-1.1C361.9,195,361.7,192.9,361.2,191.1z
	 M342,194c0.3-1.8,1.1-3.2,2.1-4.5c1.1-1.1,2.4-1.6,4.2-1.6c1.6,0,2.9,0.5,3.9,1.6c1,1.3,1.6,2.6,1.8,4.5H342z"/>
<path class="st0" d="M416.3,210.8c-2.9,0-5.2-1-7.1-2.9c-1.6-1.8-2.4-4.2-2.4-7.6v-18.1h7.9v15.7c0,1.8,0.5,3.1,1.3,4.2
	c0.8,0.8,2.1,1.3,3.7,1.3c1.3,0,2.6-0.5,3.7-1.3c0.8-1.1,1.3-2.4,1.3-4.2v-15.7h7.9v28.1h-7.9v-3.9l-1.6,1.6l-1.8,1.6l-2.1,1.1
	L416.3,210.8"/>
<path class="st0" d="M521.8,203.9c1.1,0,2.1-0.3,2.9-0.5l2.1-1.6c0.5-0.8,1.1-1.6,1.3-2.4l0.5-3.1V196l-0.5-3.2l-1.3-2.4l-2.1-1.6
	c-0.8-0.3-1.8-0.5-2.9-0.5l-2.6,0.5l-2.1,1.6l-1.6,2.4c-0.3,0.8-0.5,1.8-0.5,3.2v0.3l0.5,3.1c0.3,0.8,0.8,1.6,1.6,2.4l2.1,1.6
	L521.8,203.9 M520,210.8c-1.8,0-3.4-0.3-5-1c-1.3-0.5-2.6-1.3-3.9-2.6c-1.3-1.3-2.1-2.9-2.9-4.7s-1-3.7-1-6v-0.3
	c0-2.4,0.3-4.5,1-6.3c0.8-1.8,1.6-3.1,2.9-4.5c1.1-1.3,2.4-2.1,3.9-2.6c1.6-0.8,3.2-1.1,5-1.1c2.1,0,3.9,0.5,5.3,1.3
	c1.3,0.8,2.6,1.6,3.4,2.9V172h7.9v38.3h-7.9v-3.9c-0.8,1.3-2.1,2.4-3.4,3.1C523.9,210.2,522.1,210.8,520,210.8z M490,194
	c-0.3-1.8-0.8-3.1-1.8-4.5c-1.1-1.1-2.4-1.6-3.9-1.6c-1.8,0-3.1,0.5-4.2,1.6c-1,1.3-1.8,2.6-2.1,4.5H490z M484.8,211
	c-1.8,0-3.9-0.5-5.8-1.3c-1.8-0.5-3.4-1.6-4.7-2.9c-1.3-1.3-2.1-2.6-2.9-4.5c-0.8-1.8-1.3-3.9-1.3-6s0.3-3.9,1-5.8
	c0.8-1.8,1.6-3.4,2.9-4.7s2.6-2.4,4.5-3.2c1.8-0.8,3.7-1.1,5.8-1.1c2.4,0,4.2,0.5,6,1.3s3.1,1.8,4.2,3.4c1,1.3,1.8,2.9,2.6,4.7
	c0.5,1.8,0.8,3.9,0.8,5.8l-0.3,1.1v1.1h-19.4c0.3,1.8,1.1,3.2,2.4,4.2c1.3,0.8,2.6,1.3,4.5,1.3c1.3,0,2.4-0.3,3.7-0.8
	c0.8-0.3,1.8-1,3.2-2.1l4.5,3.9c-1.3,1.8-2.9,3.1-4.7,3.9C489.8,210.5,487.4,211,484.8,211z M445.2,182.2h7.9v5.5
	c0.8-1.8,2.1-3.4,3.4-4.5c1.3-1.3,3.2-1.8,5.5-1.6v8.4h-0.3c-2.9,0-5,0.8-6.3,2.4c-1.6,1.6-2.4,4.2-2.4,7.6v10.2h-7.9L445.2,182.2
	L445.2,182.2z"/>
<path class="st2" d="M205.5,102.6h-9.7v10h9.7V102.6z M195.8,77.4h9.7v9.7h-9.7V77.4z M221,51.7h-10V42h10V51.7z M240.4,31.5h19.2
	V21h-19.2v30.7H221v10h-16.5v6.8h-8.7v8.9h-10.5v15.5h-10v9.7h-6.6v10h-7.4c-14.7,21.8-26.2,43.3-34.6,65.1
	c-18.9-26.5-36.5-42.3-52.8-47.5c-4.5-1.3-7.6-0.3-9.5,3.7c-1.8,3.9-0.3,8.9,5.3,14.7c16.5,18.1,31.8,43.8,45.7,76.6
	c2.1,5.2,6.8,8.1,14.4,8.9c7.1,0.5,11.8-2.1,13.9-7.9c10.2-27,22-50.1,35.7-69.8v-11.3h7.9v-9.7h8.4v-11.8h9.7v-11h10v-10h7.9v-12
	h8.7v-8.1h8.4V61.7h9.7v-10h11.3v-10h-11.3v10h-9.7v10h-9.7v9.7H221v-9.7h9.7V31.5H240.4z"/>
<rect x="240.4" y="31.5" class="st3" width="9.7" height="10.2"/>
<rect x="195.8" y="77.4" class="st4" width="9.7" height="9.7"/>
<rect x="270.6" y="21" class="st0" width="10.5" height="10.5"/>
<polyline points="270.9,21 270.9,10.5 260.4,10.5 260.4,21 "/>
<rect x="270.6" class="st0" width="10.5" height="10.5"/>
<g>
	<path class="st0" d="M560.6,72.4V54.4h6.4c1.4,0,2.6,0.2,3.5,0.7s1.6,1.1,2.1,2s0.7,1.8,0.7,2.9c0,1.1-0.2,2.1-0.7,2.9
		c-0.5,0.8-1.2,1.5-2.1,2c-0.9,0.5-2.1,0.7-3.5,0.7h-4.9v-2.3h4.6c0.9,0,1.6-0.1,2.2-0.4c0.6-0.3,1-0.6,1.2-1.1
		c0.3-0.5,0.4-1.1,0.4-1.7c0-0.7-0.1-1.3-0.4-1.8c-0.3-0.5-0.7-0.9-1.2-1.2c-0.6-0.3-1.3-0.4-2.2-0.4h-3.4v15.7H560.6z M569.5,64.3
		l4.5,8.2h-3.1l-4.4-8.2H569.5z"/>
</g>
<circle class="st5" cx="566.7" cy="63.8" r="15.5"/>
</svg>
