<svg width="298" height="308" viewBox="0 0 298 308" fill="none" xmlns="http://www.w3.org/2000/svg">
<path d="M150.595 91.072C140.661 91.072 125.283 79.7544 109.088 80.1634C87.7224 80.4361 68.1256 92.5719 57.1024 111.798C34.9198 150.387 51.3866 207.385 73.0248 238.746C83.6398 254.019 96.1599 271.199 112.763 270.653C128.685 269.972 134.673 260.291 153.998 260.291C173.186 260.291 178.63 270.653 195.505 270.245C212.652 269.972 223.539 254.7 234.018 239.292C246.13 221.566 251.166 204.384 251.438 203.43C251.03 203.294 218.096 190.613 217.687 152.433C217.415 120.525 243.68 105.253 244.905 104.571C229.936 82.6178 206.937 80.1634 198.908 79.618C177.95 77.9817 160.394 91.072 150.595 91.072ZM185.979 58.8918C194.824 48.2559 200.676 33.393 199.044 18.6665C186.387 19.2119 171.145 27.1206 162.027 37.7564C153.862 47.1651 146.785 62.3007 148.69 76.7545C162.707 77.8453 177.133 69.5276 185.979 58.8918Z" fill="white"/>
<path d="M150.595 91.072C140.661 91.072 125.283 79.7544 109.088 80.1634C87.7224 80.4361 68.1256 92.5719 57.1024 111.798C34.9198 150.387 51.3866 207.385 73.0248 238.746C83.6398 254.019 96.1599 271.199 112.763 270.653C128.685 269.972 134.673 260.291 153.998 260.291C173.186 260.291 178.63 270.653 195.505 270.245C212.652 269.972 223.539 254.7 234.018 239.292C246.13 221.566 251.166 204.384 251.438 203.43C251.03 203.294 218.096 190.613 217.687 152.433C217.415 120.525 243.68 105.253 244.905 104.571C229.936 82.6178 206.937 80.1634 198.908 79.618C177.95 77.9817 160.394 91.072 150.595 91.072ZM185.979 58.8918C194.824 48.2559 200.676 33.393 199.044 18.6665C186.387 19.2119 171.145 27.1206 162.027 37.7564C153.862 47.1651 146.785 62.3007 148.69 76.7545C162.707 77.8453 177.133 69.5276 185.979 58.8918Z" fill="#888888"/>
</svg>
