<svg width="32" height="32" viewBox="0 0 32 32" fill="none" xmlns="http://www.w3.org/2000/svg">
<g clip-path="url(#clip0_105_793)">
<path d="M31.7134 13.7832C32.3376 12.564 31.9074 10.958 30.7568 10.2143C29.6065 9.47086 28.6089 7.74224 28.5407 6.37454C28.4714 5.00578 27.2956 3.83074 25.9279 3.7618C24.5592 3.69322 22.8313 2.69564 22.0878 1.54499C21.3444 0.393987 19.7374 -0.0362256 18.5182 0.588766C17.2989 1.2134 15.3041 1.2134 14.0849 0.588766C12.8657 -0.0362256 11.2597 0.393987 10.5159 1.54499C9.77253 2.69564 8.04461 3.69322 6.6762 3.7618C5.30815 3.83074 4.1324 5.00578 4.06382 6.37454C3.99489 7.74224 2.9973 9.47086 1.84665 10.2143C0.69565 10.958 0.266144 12.564 0.889723 13.7832C1.51507 15.0025 1.51507 16.998 0.889723 18.2165C0.266144 19.4364 0.69565 21.0428 1.84665 21.7862C2.9973 22.5296 3.99489 24.2575 4.06382 25.6256C4.1324 26.994 5.30815 28.1697 6.6762 28.2383C8.04461 28.3072 9.77253 29.3048 10.5159 30.4558C11.2597 31.6058 12.8657 32.036 14.0849 31.4117C15.3041 30.7874 17.2989 30.7874 18.5182 31.4117C19.7374 32.036 21.3444 31.6058 22.0878 30.4558C22.8313 29.3048 24.5592 28.3072 25.9279 28.2383C27.2956 28.1697 28.4714 26.994 28.5407 25.6256C28.6089 24.2575 29.6065 22.5296 30.7568 21.7862C31.9074 21.0428 32.3376 19.4364 31.7134 18.2165C31.0884 16.998 31.0884 15.0025 31.7134 13.7832Z" fill="#B71E3A"/>
<path d="M30.3134 7.0232C29.9013 7.0232 29.0394 7.28903 27.9662 8.03775C27.4985 8.34954 27.04 8.68148 26.5925 9.03109C27.2267 8.71223 27.8273 8.43685 28.389 8.20884C29.6785 7.66763 30.2692 7.21232 30.405 7.02744C30.382 7.02496 30.352 7.0232 30.3134 7.0232ZM15.1326 6.85104C10.2402 6.85104 4.45757 10.3408 4.04114 15.0109C3.94534 16.134 4.33172 17.3016 5.102 18.2144C5.844 19.0932 6.83982 19.6386 7.91517 19.7588C8.62147 18.8669 9.39175 17.8153 10.2684 16.5462C10.3791 16.3804 10.4954 16.2132 10.6145 16.046C10.4091 16.1181 10.2189 16.2242 10.056 16.3599L9.86933 16.5154L9.59572 16.0605L9.74419 15.9474C10.1497 15.6384 10.617 15.45 11.0709 15.4104C13.3609 12.2649 16.7177 8.40115 19.9251 7.47568C18.7946 7.15222 17.1886 6.85104 15.1326 6.85104V6.85104ZM11.3353 15.9484C11.1207 16.2429 10.921 16.5359 10.7344 16.8156C10.0061 17.8831 9.28676 18.8793 8.59178 19.7832C11.0666 19.7125 12.3036 18.4643 12.4061 17.3016C12.4404 16.911 12.3417 16.5745 12.1208 16.3284C11.926 16.111 11.6499 15.9781 11.3353 15.9484V15.9484ZM14.8848 18.4226C13.6723 19.7344 12.9388 20.8455 12.8016 21.585C12.7186 21.9778 12.7645 22.326 12.9236 22.5225C12.977 22.5883 13.0682 22.6664 13.2 22.6664C13.7791 22.6664 14.3185 21.754 14.5126 20.4464C14.6452 19.7942 14.7664 19.1027 14.8848 18.4226V18.4226ZM22.0157 30.863C20.7855 30.863 19.5942 30.3052 18.6606 29.2938C17.3742 27.8993 16.7418 25.7924 16.9256 23.5127C17.2501 19.867 19.4231 15.6038 22.821 11.8552C20.1004 13.6683 17.4078 15.8388 15.5286 17.7527C15.5201 17.7895 15.5134 17.8241 15.5134 17.8545L15.4646 18.1511C15.3239 18.9486 15.1821 19.7549 15.0266 20.5178C14.7615 22.2104 14.0824 23.1871 13.1661 23.1871C12.9225 23.1871 12.6959 23.0757 12.5277 22.8735C12.2633 22.5561 12.1692 22.0587 12.2703 21.508C12.493 20.5146 13.4765 19.0882 15.0418 17.4791C15.6233 14.2322 16.3391 10.9711 17.9536 8.99645C15.4844 10.6254 13.1064 13.5358 11.6902 15.4588C12.0246 15.5437 12.3156 15.7179 12.5298 15.9661C12.8338 16.3171 12.9703 16.7915 12.925 17.337C12.7995 18.7757 11.3258 20.323 8.3871 20.323C8.31286 20.323 8.23014 20.3223 8.1499 20.3166C5.81466 23.1991 3.80359 24.6004 2.00497 24.6004C1.15868 24.6004 0.567626 24.4265 0.24806 24.0839C0.0691876 23.892 -0.0156529 23.6534 0.00237572 23.3939C0.0211113 23.0482 0.200338 22.7431 0.520258 22.5147L0.663426 22.4119L1.03849 22.7855L0.826037 22.9266C0.655649 23.0397 0.551367 23.2147 0.538641 23.4056C0.529803 23.5254 0.565153 23.6251 0.647166 23.7138C0.768064 23.8442 1.10707 24.0627 2.02194 24.0627C3.58194 24.0627 5.3848 22.8141 7.52738 20.2481C5.10271 19.779 3.29702 17.4476 3.52114 14.972C3.93792 10.0262 9.99518 6.32998 15.1326 6.32998C17.868 6.32998 19.8985 6.85246 21.1203 7.2908L21.3829 7.38023L21.1871 7.83378L20.9414 7.81469C20.7477 7.83166 20.4666 7.87832 20.1856 7.94867C17.4643 8.98019 16.442 12.8263 15.6982 16.8258C18.0367 14.5563 21.3217 12.0677 24.428 10.2235C25.4355 9.24001 26.5306 8.35024 27.6448 7.60718C28.8386 6.78034 29.8157 6.48516 30.3311 6.48516C30.5938 6.48516 30.7659 6.5396 30.872 6.65732C30.925 6.716 30.9847 6.81852 30.9695 6.97371C30.9441 7.49088 30.0939 8.10173 28.5767 8.68254C27.3765 9.17991 26.0378 9.86147 24.7101 10.6512C20.5713 14.5938 17.8482 19.4269 17.4622 23.5505C17.2879 25.6673 17.8691 27.6218 19.0572 28.9121C19.8975 29.8244 20.9605 30.3264 22.0507 30.3264C22.84 30.3264 24.1119 29.998 24.4683 29.2687L24.5726 29.0542L25.0268 29.3561L24.9462 29.5204C24.4251 30.582 22.8015 30.863 22.0157 30.863" fill="white"/>
</g>
<defs>
<clipPath id="clip0_105_793">
<rect width="32" height="32" fill="white"/>
</clipPath>
</defs>
</svg>
