<svg width="80" height="80" viewBox="0 0 80 80" fill="none" xmlns="http://www.w3.org/2000/svg">
<path d="M12.0699 6.83C30.8099 6.64 49.5499 6.66 68.2899 6.81C65.4699 12.49 58.6199 13.31 53.0499 14.1C43.0599 15.2 32.8799 15.18 22.9699 13.46C18.6899 12.7 14.0399 11.06 12.0699 6.83Z" fill="#B51339"/>
<path d="M31.4399 15.9101C37.2599 15.8501 43.0699 15.8601 48.8799 15.9201C48.6899 18.3401 48.3999 20.7501 48.0999 23.1501C50.7899 23.2801 53.5899 22.8601 56.1799 23.7301C58.2699 25.1201 57.7299 27.8601 58.0499 29.9901C57.7399 34.4601 61.4899 37.6301 62.3299 41.8201C64.3899 48.0701 62.5599 54.6301 59.7799 60.3301C58.9499 65.1601 60.5699 70.1301 59.8499 74.9701C59.6299 77.2701 56.7299 76.8701 55.0599 77.0901C45.3799 77.1201 35.6899 77.0701 26.0099 77.1101C24.0099 77.0201 21.0299 77.2601 20.2999 74.8501C19.3899 68.8801 22.4399 62.4001 19.0999 56.8901C15.4799 49.1101 17.2699 39.7201 22.3399 33.0101C22.7599 29.9801 22.0099 26.4401 24.0799 23.9101C26.6199 22.6801 29.6199 23.3501 32.3499 23.1601C31.9699 20.7501 31.6399 18.3401 31.4399 15.9101ZM33.4099 28.6601C24.9599 31.3201 19.1099 40.2301 19.7699 49.0201C20.0999 57.4401 26.3299 65.1501 34.4499 67.3601C39.9699 69.2201 46.1199 67.9501 50.9999 64.9501C57.8299 60.6601 61.6999 52.0101 60.0199 44.0701C58.8599 38.0101 54.8499 32.5401 49.3499 29.7201C44.4499 27.3001 38.5999 27.0401 33.4099 28.6601Z" fill="#B51339"/>
<path d="M39.3199 29.3801C39.6999 29.3601 40.4499 29.3301 40.8299 29.3101C40.8299 30.9201 40.8199 32.5301 40.8099 34.1501C40.4399 34.1601 39.6999 34.1801 39.3299 34.1901C39.3199 32.5901 39.3099 30.9901 39.3199 29.3801Z" fill="#B51339"/>
<path d="M57.6527 42.0218C57.7687 42.3842 57.9886 43.1019 58.1046 43.4643C56.5476 43.8739 54.988 44.2739 53.4188 44.6764C53.315 44.3211 53.1074 43.6106 53.0036 43.2553C54.5484 42.8385 56.0932 42.4218 57.6527 42.0218Z" fill="#B51339"/>
<path d="M22.4519 42.0218C22.3359 42.3842 22.116 43.1019 22 43.4643C23.557 43.8739 25.1166 44.2739 26.6858 44.6764C26.7896 44.3211 26.9973 43.6106 27.1011 43.2553C25.5563 42.8385 24.0115 42.4218 22.4519 42.0218Z" fill="#B51339"/>
<path d="M29.0484 61.6759C29.3256 61.9365 29.879 62.4436 30.1563 62.7042C31.1957 61.4747 32.2275 60.2387 33.2657 58.9951C32.9896 58.7486 32.4374 58.2556 32.1613 58.0091C31.1207 59.2245 30.0801 60.4399 29.0484 61.6759Z" fill="#B51339"/>
<path d="M52.2585 61.6759C51.9812 61.9365 51.4279 62.4436 51.1506 62.7042C50.1112 61.4747 49.0794 60.2387 48.0411 58.9951C48.3172 58.7486 48.8695 58.2556 49.1456 58.0091C50.1862 59.2245 51.2268 60.4399 52.2585 61.6759Z" fill="#B51339"/>
<path d="M31.67 34.13C35.25 38.48 38.28 43.27 42.23 47.31C43.51 49.88 40.34 49.41 38.86 50.28C37 44.67 34 39.54 31.67 34.13Z" fill="#B51339"/>
<path d="M44 49C44 50.6569 42.6569 52 41 52C39.3432 52 38 50.6569 38 49C38 47.3432 39.3432 46 41 46C42.6569 46 44 47.3432 44 49Z" fill="#B51339"/>
</svg>
