<svg width="69" height="68" viewBox="0 0 69 68" fill="none" xmlns="http://www.w3.org/2000/svg">
<g clip-path="url(#clip0_22_458)">
<path d="M30.0389 0.988647H30.9871C33.3698 1.12082 35.7007 2.09833 37.4007 3.75632C39.2813 5.54779 40.3903 8.09693 40.3916 10.6762C40.3969 20.3441 40.3929 30.0133 40.3929 39.6825C43.3321 41.9529 45.4425 45.2453 46.2088 48.8518C46.9632 52.296 46.5076 55.9862 44.9139 59.1439C43.1913 62.6025 40.1459 65.3989 36.5161 66.8358C34.767 67.545 32.8864 67.9049 31.0004 67.9886H30.0415C28.4677 67.9232 26.9005 67.6667 25.409 67.1642C21.6411 65.9328 18.3912 63.2594 16.4694 59.84C14.6313 56.6196 14.019 52.7514 14.7442 49.1305C15.4667 45.4324 17.5837 42.0131 20.6092 39.7086C20.6371 29.9845 20.6065 20.2603 20.6238 10.5361C20.657 7.97392 21.7925 5.45619 23.6771 3.69482C25.3771 2.07609 27.6814 1.11166 30.0389 0.988647ZM29.404 5.02173C27.5021 5.36589 25.8274 6.69804 25.0796 8.45287C24.7357 9.23148 24.5922 10.086 24.6042 10.9327C24.6055 20.7903 24.6028 30.6479 24.6055 40.5043C24.6161 40.9282 24.5364 41.3653 24.2974 41.7239C24.0171 42.1845 23.5191 42.437 23.106 42.7603C20.4418 44.7768 18.7126 47.9331 18.4696 51.2347C18.2212 54.1908 19.1575 57.2215 21.0382 59.5364C22.8696 61.8304 25.583 63.4243 28.5089 63.8967C31.0668 64.3233 33.7629 63.9111 36.0619 62.7255C38.6903 61.3842 40.7821 59.0627 41.8153 56.3304C42.838 53.6622 42.8314 50.6302 41.8034 47.9645C40.9414 45.6863 39.3411 43.6946 37.3064 42.3232C36.6968 41.9345 36.3607 41.2135 36.4086 40.5056C36.4099 30.6047 36.4112 20.7039 36.4086 10.8031C36.4325 9.11502 35.6688 7.43609 34.3646 6.33818C33.0325 5.17876 31.1465 4.68281 29.404 5.02173Z" fill="#292929"/>
<path d="M46.1185 8.78526C48.2687 8.75123 50.4203 8.77871 52.5705 8.77217C53.5015 8.76694 54.3595 9.49321 54.5043 10.3988C54.7314 11.4967 53.8163 12.6391 52.6821 12.6862C50.565 12.7071 48.4467 12.6953 46.3283 12.6914C45.3043 12.6849 44.3906 11.8003 44.3786 10.7887C44.3321 9.81119 45.1343 8.89518 46.1185 8.78526Z" fill="#B71E3A"/>
<path d="M28.5168 18.5264C28.5075 17.4861 29.4611 16.5662 30.5156 16.5897C31.5609 16.5766 32.5012 17.4861 32.4945 18.5173C32.5038 27.154 32.4945 35.7907 32.4998 44.4261C34.2968 44.8894 35.9264 45.9624 37.0221 47.4437C38.2519 49.0729 38.7991 51.1798 38.5295 53.1924C38.2639 55.2272 37.1576 57.1391 35.5227 58.4071C34.0445 59.5718 32.1399 60.196 30.2473 60.1305C28.2166 60.073 26.2284 59.2119 24.7967 57.796C23.5138 56.5398 22.6677 54.8517 22.4685 53.0772C22.2308 51.0698 22.7992 48.9774 24.0477 47.3704C25.1407 45.9284 26.7464 44.8815 28.5141 44.4313C28.5168 35.7959 28.5102 27.1605 28.5168 18.5264ZM29.7719 48.1792C28.2445 48.4383 26.9337 49.6252 26.5445 51.1026C26.0398 52.8129 26.862 54.7758 28.4345 55.6499C30.1278 56.6824 32.5357 56.2257 33.731 54.6606C34.9887 53.1531 34.8745 50.7584 33.48 49.3726C32.5516 48.3911 31.108 47.9318 29.7719 48.1792Z" fill="#292929"/>
<path d="M46.1224 16.6394C48.2275 16.5989 50.3352 16.6342 52.4403 16.6211C53.2425 16.5831 54.0447 17.0569 54.3608 17.7897C54.6941 18.4924 54.5308 19.377 53.9862 19.9318C53.5905 20.3506 53.0048 20.5665 52.4297 20.5482C50.395 20.5443 48.359 20.5534 46.3243 20.5443C45.3043 20.5364 44.3985 19.6583 44.3799 18.6533C44.3241 17.6693 45.1343 16.7493 46.1224 16.6394Z" fill="#B71E3A"/>
<path d="M46.1119 24.4936C48.213 24.4478 50.3194 24.4871 52.4219 24.4727C53.232 24.4321 54.0448 24.9045 54.3622 25.6465C54.6783 26.3178 54.5455 27.1566 54.0528 27.7127C53.657 28.176 53.0368 28.4233 52.4258 28.4011C50.3912 28.3958 48.3551 28.405 46.3204 28.3958C45.3018 28.3893 44.396 27.5086 44.3801 26.5036C44.3256 25.5248 45.1278 24.6088 46.1119 24.4936Z" fill="#B71E3A"/>
<path d="M46.1106 32.3465C48.2609 32.2994 50.4164 32.3334 52.568 32.3295C53.5481 32.3242 54.4327 33.1238 54.5243 34.083C54.6638 35.1429 53.7739 36.1938 52.6888 36.2435C50.6143 36.2618 48.5384 36.2448 46.4626 36.2526C45.76 36.2814 45.0548 35.9216 44.6869 35.3288C43.886 34.1968 44.7294 32.4773 46.1106 32.3465Z" fill="#B71E3A"/>
</g>
<defs>
<clipPath id="clip0_22_458">
<rect width="68" height="67" fill="white" transform="translate(0.5 0.988647)"/>
</clipPath>
</defs>
</svg>
