<svg width="89" height="89" viewBox="0 0 89 89" fill="none" xmlns="http://www.w3.org/2000/svg">
<g clip-path="url(#clip0_20_436)">
<path d="M40.0785 13.893C46.211 12.989 52.6074 13.991 58.1645 16.7599C63.2551 19.2607 67.6306 23.2069 70.6866 28.0143C73.3409 32.1702 74.977 36.9707 75.464 41.888C75.4912 42.7044 76.1926 43.428 77.0133 43.4108C80.1953 43.4383 83.379 43.4005 86.5611 43.428C87.3119 43.4108 87.9282 44.0261 88.0849 44.7394V45.2035C87.9521 45.8051 87.5179 46.3688 86.9033 46.508C86.3363 46.6026 85.7592 46.5476 85.1871 46.5579C82.4597 46.5665 79.7322 46.5441 77.0048 46.5682C76.1297 46.551 75.4554 47.3726 75.4571 48.2233C74.863 54.1668 72.5356 59.9194 68.8343 64.5807C65.4922 68.8208 61.0418 72.1569 56.0585 74.1679C51.2794 76.1049 46.0169 76.8044 40.9042 76.1908C36.0077 75.6305 31.2542 73.8551 27.1664 71.0758C22.7773 68.1076 19.1594 63.9929 16.7656 59.2388C15.0069 55.7669 13.9207 51.9599 13.5342 48.0824C13.5053 47.2694 12.8055 46.5476 11.9883 46.5665C9.09061 46.5476 6.1929 46.5613 3.29518 46.5613C2.70611 46.5493 2.03701 46.6421 1.54157 46.2451C1.20617 46.0096 1.03251 45.6194 0.915039 45.2396V44.7618C1.05294 44.1688 1.47858 43.6136 2.08468 43.471C2.53926 43.3885 3.00235 43.4194 3.46203 43.4177C6.30527 43.4143 9.1502 43.4315 11.9934 43.4091C12.8668 43.4211 13.5444 42.6047 13.541 41.7522C14.2697 34.2671 17.8076 27.1136 23.2744 22.0072C27.8815 17.6588 33.8268 14.7627 40.0785 13.893ZM41.1902 16.9335C37.0599 17.4251 33.0436 18.8636 29.533 21.1135C24.5786 24.2622 20.6457 29.0197 18.4852 34.5129C16.3502 39.8771 15.9127 45.9065 17.2475 51.5268C18.4937 56.8704 21.3404 61.8152 25.3124 65.5655C29.3644 69.4327 34.5895 72.0194 40.0972 72.896C44.5595 73.6093 49.1938 73.2243 53.474 71.7616C57.3422 70.4416 60.9158 68.2519 63.8629 65.4005C69.0897 60.3955 72.2598 53.2868 72.4896 46.0165C72.711 40.2277 71.1038 34.3857 67.9524 29.5457C64.8912 24.8054 60.3863 21.0327 55.2055 18.8757C50.801 17.028 45.9233 16.368 41.1902 16.9335Z" fill="#292929"/>
<path d="M41.6874 20.0272C46.6264 19.4601 51.7306 20.414 56.1232 22.7704C60.8205 25.266 64.6852 29.3188 66.9649 34.1588C68.9126 38.2563 69.7213 42.8952 69.277 47.419C68.8105 52.5185 66.7317 57.4461 63.427 61.3305C60.1173 65.2475 55.5886 68.1041 50.6376 69.3571C45.3904 70.7046 39.7056 70.2749 34.7291 68.1127C29.9824 66.0794 25.8981 62.5096 23.2234 58.0597C20.6764 53.8574 19.4165 48.8868 19.6208 43.9677C19.8268 38.4196 21.9329 32.9677 25.5065 28.7482C29.5466 23.9116 35.4544 20.7165 41.6874 20.0272ZM25.4792 34.4011C24.1615 35.123 23.5434 36.8693 24.1172 38.2701C26.6523 45.0419 29.1942 51.8104 31.7343 58.5788C32.1498 59.7974 33.3484 60.698 34.6338 60.6946C36.2733 60.698 37.9128 60.7066 39.5524 60.6911C40.8055 60.6654 41.9751 59.7785 42.365 58.5788C43.0886 56.3427 43.7713 54.0946 44.4932 51.8585C45.244 54.0843 45.9011 56.3427 46.6332 58.5754C47.0197 59.7733 48.1859 60.6619 49.4373 60.6894C51.0769 60.7066 52.7198 60.698 54.3593 60.6946C55.6482 60.6963 56.8519 59.794 57.2639 58.5702C59.7087 51.9221 62.1416 45.2688 64.5865 38.619C64.8419 37.9847 65.0053 37.2886 64.8759 36.6029C64.658 35.154 63.3215 33.9886 61.8658 33.9938C60.5583 33.9852 59.249 33.9818 57.9398 33.9955C56.7327 34.0058 55.5852 34.8085 55.1459 35.9429C54.0478 38.7685 52.9888 41.6096 51.889 44.4335C51.036 41.6921 50.1796 38.9507 49.3164 36.211C48.9436 34.934 47.7024 33.9852 46.3796 33.9955C45.1299 33.9835 43.8785 33.9835 42.6306 33.9938C41.3145 33.9818 40.0717 34.9133 39.6903 36.1818C38.8271 38.9232 37.9673 41.668 37.1178 44.4146C35.9958 41.6061 34.9607 38.7633 33.8591 35.948C33.4999 35.0319 32.6861 34.3169 31.736 34.0849C30.7826 33.8976 29.802 34.0265 28.8366 33.9886C27.7164 34.0402 26.4956 33.7876 25.4792 34.4011Z" fill="#292929"/>
<path d="M27.0166 37.1305C28.3378 37.1254 29.6606 37.1271 30.9818 37.1305C32.5754 41.314 34.1758 45.4957 35.7744 49.6774C35.96 50.2274 36.4487 50.664 37.0258 50.7413C37.7613 50.8702 38.5291 50.3769 38.7369 49.6568C40.0512 45.4837 41.3451 41.3019 42.6578 37.1271C43.8853 37.1288 45.1146 37.1271 46.3421 37.1288C47.6718 41.3449 48.964 45.573 50.3107 49.7822C50.7397 51.0524 52.7334 51.0576 53.1744 49.7943C54.802 45.5782 56.4058 41.3518 58.0215 37.1305C59.2814 37.1271 60.5412 37.1254 61.8011 37.1322C59.3086 43.9351 56.7991 50.7344 54.3219 57.5424C52.7402 57.5785 51.1569 57.5493 49.5735 57.5579C48.3579 53.7354 47.1712 49.9026 45.9471 46.0835C45.6747 45.2465 44.631 44.8047 43.8479 45.1966C43.3643 45.4011 43.0596 45.8772 42.9353 46.3757C41.7674 50.1037 40.6011 53.8316 39.4264 57.5579C37.843 57.5579 36.2614 57.5613 34.678 57.5562C32.1242 50.7482 29.5721 43.9385 27.0166 37.1305Z" fill="#B71E3A"/>
</g>
<defs>
<clipPath id="clip0_20_436">
<rect width="87.1698" height="88" fill="white" transform="translate(0.915039 0.988647)"/>
</clipPath>
</defs>
</svg>
