<svg width="70" height="80" viewBox="0 0 70 80" fill="none" xmlns="http://www.w3.org/2000/svg">
<g clip-path="url(#clip0_22_445)">
<path d="M23.8662 1.53772V1.53763L23.8596 1.53781C20.7477 1.62033 17.8612 3.7406 16.6823 6.66276C16.2433 7.74168 16.0604 8.91027 16.0708 10.0649C16.0719 16.2513 16.0713 22.4378 16.0707 28.6245C16.0698 38.6758 16.0688 48.7274 16.0752 58.7794C16.0681 58.8949 16.0721 59.014 16.0757 59.1204L16.0759 59.1264C16.0798 59.2418 16.083 59.3443 16.0771 59.4415C16.0654 59.6327 16.0206 59.759 15.9121 59.8503L15.8996 59.8609L15.8885 59.8731C13.3018 62.7088 12.31 66.9456 13.3743 70.6749C14.1249 73.4524 15.9548 75.8923 18.3589 77.3753C20.0147 78.4171 21.9358 78.9654 23.8642 79.0375L23.8642 79.0377H23.8735H24.4404V79.0378L24.4483 79.0376C27.6642 78.936 30.7976 77.3597 32.8135 74.7812C34.3334 72.8683 35.2235 70.4425 35.3045 67.9761C35.4226 65.0329 34.348 62.0689 32.4063 59.9032L32.4064 59.9032L32.4035 59.9001C32.2364 59.7199 32.1629 59.5801 32.1883 59.4328L32.1919 59.4118L32.1919 59.3904C32.1966 48.817 32.1959 38.2435 32.1951 27.6705C32.1947 21.7978 32.1943 15.9253 32.1948 10.0529C32.2052 9.03058 32.069 7.99635 31.7176 7.02362C30.6316 3.89028 27.5842 1.57666 24.3116 1.53774V1.53772H24.3086H23.8662ZM23.1422 5.37354L23.1422 5.37356L23.1459 5.37269C24.5162 5.04869 26.0295 5.43494 27.0686 6.41098L27.0685 6.41104L27.0734 6.41542C28.0755 7.30817 28.6082 8.68838 28.5719 10.0586L28.5718 10.0586L28.5718 10.0652C28.5727 20.8925 28.5724 31.7197 28.5721 42.5464C28.5719 47.9597 28.5718 53.3728 28.5718 58.7858H28.5716L28.572 58.7961C28.5812 59.0206 28.5762 59.2361 28.571 59.4605C28.5676 59.6067 28.5641 59.7566 28.5644 59.9153C28.5652 60.3008 28.5903 60.7041 28.7133 61.1019L28.7176 61.1157L28.7234 61.129C28.8708 61.4632 29.096 61.7291 29.3176 61.9634C29.3841 62.0338 29.4491 62.1003 29.5122 62.1648C29.6677 62.3239 29.812 62.4715 29.9408 62.6382L29.9407 62.6383L29.9465 62.6453C31.4494 64.4514 32.0341 67.0042 31.4962 69.3166L31.4956 69.3195C30.7943 72.501 27.9587 75.0566 24.7938 75.2945L24.7937 75.2944L24.7874 75.2951C22.3092 75.5447 19.76 74.4009 18.2421 72.3727L18.2424 72.3725L18.2344 72.3629C16.082 69.7666 16.0324 65.6264 18.0851 62.9503L18.0909 62.9428L18.0961 62.9348C18.2178 62.7482 18.3731 62.5717 18.5466 62.3878C18.5929 62.3386 18.6412 62.2882 18.6903 62.237C18.8195 62.1023 18.9547 61.9614 19.0776 61.8178C19.4221 61.4156 19.724 60.934 19.6938 60.2808C19.6994 52.2846 19.6984 44.2896 19.6973 36.2947C19.6961 27.4983 19.695 18.702 19.7026 9.90452H19.7027L19.7025 9.89751C19.6456 7.80071 21.157 5.81119 23.1422 5.37354Z" fill="#292929" stroke="#292929" stroke-width="0.5"/>
<path d="M2.16872 14.6431C5.12917 14.592 8.09401 14.6401 11.0559 14.619C11.6038 14.6145 12.2263 14.619 12.6511 15.0341C13.3455 15.6191 13.3455 16.8298 12.6526 17.4148C12.263 17.7968 11.6961 17.8344 11.1863 17.8314C8.21559 17.8178 5.24343 17.8449 2.27272 17.8178C1.49343 17.8253 0.7654 17.1727 0.721454 16.3636C0.621845 15.5018 1.32643 14.6702 2.16872 14.6431Z" fill="#B71E3A"/>
<path d="M8.02956 21.1355C8.87624 20.9415 9.75368 21.0784 10.615 21.0362C11.3723 21.0302 12.2966 20.943 12.8225 21.6318C13.5037 22.4093 13.1433 23.7899 12.1824 24.1268C11.384 24.3524 10.5432 24.208 9.72731 24.2471C8.91872 24.229 7.9153 24.4065 7.33669 23.6771C6.61891 22.88 7.0071 21.4288 8.02956 21.1355Z" fill="#B71E3A"/>
<path d="M45.6645 24.2621C47.3154 24.2771 48.9853 24.1312 50.623 24.3974C54.1855 25.0652 57.039 28.5648 56.9306 32.3035C56.9306 33.2269 56.0312 34.0119 55.142 33.8314C54.3554 33.7367 53.812 32.9501 53.8163 32.1651C53.768 30.5559 52.914 28.9964 51.5619 28.1692C50.5805 27.521 49.3852 27.4128 48.247 27.4519C46.8598 27.5 45.3906 27.2654 44.0912 27.891C42.4228 28.64 41.3022 30.4537 41.3256 32.32C41.311 36.3775 41.3256 40.4336 41.3183 44.4911C41.3183 45.1934 41.3388 45.9123 41.5659 46.5845C42.0112 48.0253 43.1684 49.2119 44.5746 49.6645C45.5239 49.9924 46.5419 49.8992 47.5278 49.9127C48.6044 49.8977 49.7236 50.0074 50.7504 49.5999C52.4496 48.9803 53.6977 47.2658 53.7914 45.416C53.8105 44.7528 54.0317 44.0234 54.6484 43.7031C55.5654 43.1496 56.8647 43.858 56.9189 44.9498C57.102 48.6284 54.3642 52.1204 50.8925 52.91C49.791 53.1852 48.6498 53.1145 47.5263 53.122C46.5024 53.1145 45.4653 53.1762 44.456 52.9551C42.663 52.5957 41.0297 51.5294 39.9106 50.0571C38.7431 48.6554 38.185 46.7846 38.1982 44.9558C38.204 40.6095 38.1777 36.2617 38.2114 31.9155C38.2978 27.903 41.7577 24.3508 45.6645 24.2621Z" fill="#B71E3A"/>
<path d="M63.5458 24.423C65.5453 23.8365 67.8275 24.8276 68.8222 26.6954C69.6425 28.1377 69.6293 30.0311 68.8002 31.4643C68.0429 32.8163 66.6161 33.7457 65.0971 33.8435C63.3319 34.0014 61.5448 33.0043 60.6879 31.4162C60.0316 30.2341 59.8998 28.7588 60.348 27.476C60.8373 26.0006 62.0795 24.8201 63.5458 24.423ZM64.1449 27.5993C63.0814 28.0189 62.8925 29.6671 63.8329 30.3259C64.6898 31.0462 66.1488 30.4597 66.2777 29.3243C66.5399 28.1422 65.2055 27.0699 64.1449 27.5993Z" fill="#B71E3A"/>
<path d="M7.89337 27.5993C8.72101 27.3301 9.60578 27.4985 10.4583 27.4519C11.2698 27.4609 12.2864 27.3075 12.8387 28.0715C13.5667 28.9227 13.0438 30.4281 11.951 30.6041C11.0223 30.7334 10.0775 30.6281 9.14142 30.6657C8.47492 30.6958 7.68683 30.6266 7.27374 30.0085C6.67169 29.2385 6.99982 27.9647 7.89337 27.5993Z" fill="#B71E3A"/>
<path d="M2.16734 33.8931C5.12486 33.842 8.08677 33.8901 11.0472 33.8691C11.6024 33.8646 12.2308 33.8691 12.6585 34.2902C13.3441 34.8752 13.3426 36.0783 12.6556 36.6618C12.2689 37.0423 11.7064 37.0859 11.1981 37.0814C8.26548 37.0724 5.33286 37.0859 2.40025 37.0739C1.63706 37.1145 0.860695 36.5686 0.744973 35.7715C0.539895 34.8692 1.26792 33.9187 2.16734 33.8931Z" fill="#B71E3A"/>
<path d="M25.6986 35.9294L25.9486 35.9297C25.9486 35.9299 25.9486 35.9301 25.9486 35.9303C25.9438 40.0984 25.9447 44.2678 25.9456 48.4373C25.9466 53.2459 25.9476 58.0546 25.94 62.8616C27.4275 63.4958 28.621 64.8547 28.9533 66.4965C29.4832 68.8422 28.129 71.4233 25.9219 72.2613C23.8731 73.1242 21.3499 72.3286 20.1079 70.4626C18.7819 68.6042 18.9449 65.8278 20.5037 64.1596C21.0066 63.5895 21.6401 63.169 22.3154 62.8766C22.3206 56.3221 22.3197 49.7677 22.3188 43.2125C22.3185 40.7338 22.3182 38.255 22.3182 35.7761C22.3034 35.1751 22.4623 34.4577 23.0227 34.0362C23.7608 33.4076 24.9691 33.5482 25.5414 34.3428L23.179 34.2315C23.8075 33.6901 24.8563 33.8119 25.3426 34.4947C25.6678 34.8917 25.7015 35.4346 25.6986 35.9294ZM25.6986 35.9294C25.6938 40.0989 25.6947 44.2685 25.6956 48.4379C25.6966 53.3021 25.6977 58.1662 25.6898 63.0298L25.6986 35.9294ZM23.6395 66.3207L23.6501 66.3168L23.6604 66.312C24.0837 66.113 24.57 66.2201 24.9365 66.5238C25.3028 66.8272 25.511 67.2962 25.4061 67.7702L25.4034 67.7827L25.4019 67.7954C25.349 68.2516 25.0281 68.6135 24.6124 68.7864C24.1964 68.9593 23.7242 68.9275 23.3808 68.6437L23.3714 68.6359L23.3613 68.6291C22.9706 68.3657 22.8011 67.8809 22.8603 67.3949C22.9196 66.9086 23.2006 66.4803 23.6395 66.3207Z" fill="#292929" stroke="#292929" stroke-width="0.5"/>
<path d="M8.03116 40.3855C8.82364 40.1975 9.64542 40.3223 10.4511 40.2877C11.226 40.3042 12.1576 40.1448 12.748 40.796C13.4892 41.5284 13.2138 42.9466 12.2631 43.3421C11.4457 43.6279 10.5639 43.4489 9.71866 43.497C8.91446 43.4805 7.9169 43.6534 7.33975 42.9301C6.61759 42.133 7.00577 40.6772 8.03116 40.3855Z" fill="#B71E3A"/>
<path d="M7.89486 46.8477C8.7225 46.58 9.60726 46.7485 10.4613 46.7018C11.2435 46.7184 12.1971 46.5575 12.7743 47.2402C13.5052 48.0012 13.1829 49.4314 12.1986 49.7819C11.4002 50.0285 10.5506 49.8676 9.72885 49.9127C8.92318 49.8946 7.93441 50.0691 7.34701 49.3532C6.65853 48.5983 6.9559 47.2297 7.89486 46.8477Z" fill="#B71E3A"/>
<path d="M2.16869 53.1431C5.12475 53.092 8.08373 53.1401 11.0427 53.1191C11.5964 53.1145 12.2248 53.116 12.654 53.5371C13.344 54.1207 13.344 55.3283 12.6555 55.9133C12.2688 56.2923 11.7078 56.3344 11.2009 56.3314C8.22436 56.3163 5.24633 56.3449 2.26977 56.3163C1.489 56.3239 0.762441 55.6682 0.721425 54.8576C0.624746 53.9988 1.32934 53.1702 2.16869 53.1431Z" fill="#B71E3A"/>
</g>
<defs>
<clipPath id="clip0_22_445">
<rect width="70" height="79" fill="white" transform="translate(0 0.988647)"/>
</clipPath>
</defs>
</svg>
