<svg width="90" height="89" viewBox="0 0 90 89" fill="none" xmlns="http://www.w3.org/2000/svg">
<path d="M7.01532 6.49037C6.95448 4.29209 8.94829 2.31552 11.1698 2.36537C22.7624 2.36021 34.355 2.36537 45.9476 2.36365C46.9037 2.38084 47.9032 2.2674 48.8123 2.63005C50.408 3.19724 51.5327 4.81287 51.5118 6.48693C51.5153 22.9886 51.5153 39.4886 51.5118 55.9886C51.531 57.6197 50.4654 59.1976 48.9322 59.7991C48.3238 60.0587 47.6546 60.1257 46.9993 60.1154C43.8686 60.1119 40.738 60.1136 37.6073 60.1136C37.6091 62.2346 37.6021 64.3555 37.6108 66.4747C37.6369 69.0219 38.4434 71.5554 39.9019 73.6557C41.588 76.1135 44.1485 77.9663 47.0271 78.8136C50.1316 79.7401 53.5769 79.4788 56.5024 78.0935C60.092 76.4177 62.8263 73.0627 63.6902 69.2282C64.1544 67.3736 64.0049 65.4504 64.0292 63.558C64.0153 61.4027 64.057 59.2474 64.0066 57.0938C62.3883 56.549 61.241 54.9265 61.2497 53.2404C61.2462 46.8208 61.2462 40.4013 61.2497 33.9818C61.2445 32.306 62.3778 30.6749 63.9979 30.1438C64.0709 28.6777 64.0083 27.2065 64.0292 25.7386C64.9557 25.7386 65.8822 25.7386 66.8104 25.7386C66.8174 27.1996 66.7965 28.6605 66.8209 30.1197C68.4444 30.6715 69.5969 32.2922 69.59 33.9869C69.5952 39.9476 69.59 45.9082 69.5917 51.8688C69.5726 52.7247 69.6751 53.6082 69.3988 54.4349C69.032 55.6638 68.0412 56.671 66.8261 57.1024C66.7896 59.3643 66.8209 61.6279 66.8104 63.8915C66.7931 65.4366 66.88 66.9904 66.6488 68.5252C66.2073 71.686 64.7506 74.6972 62.5551 77.0347C60.1285 79.6386 56.7962 81.4055 53.2501 81.9263C49.6988 82.4746 45.9702 81.794 42.8569 80.0151C38.2314 77.4232 35.0903 72.4302 34.8539 67.1691C34.7931 64.8179 34.8417 62.4666 34.8261 60.1136C31.1183 60.1136 27.4106 60.1136 23.7028 60.1136C23.6681 62.183 23.7567 64.2644 24.2052 66.2908C25.3855 71.9902 28.8429 77.1757 33.6423 80.5324C37.5552 83.3047 42.3459 84.8344 47.1574 84.8585C49.3633 84.8585 51.5692 84.8843 53.7733 84.843C59.9703 84.6626 66.0213 81.9126 70.2262 77.4163C74.0191 73.4185 76.3015 68.0629 76.5396 62.5869C74.9352 62.0249 73.7688 60.4436 73.7688 58.7524C73.7566 52.3294 73.7653 45.9047 73.7653 39.4801C73.7566 37.7888 74.9108 36.1766 76.5292 35.6249C76.5657 34.164 76.5344 32.7013 76.5448 31.2386C77.4713 31.2386 78.3978 31.2386 79.3261 31.2386C79.3382 32.703 79.3035 34.1657 79.3435 35.6283C80.9688 36.1697 82.1125 37.8008 82.1056 39.4904C82.1108 45.6211 82.1056 51.7502 82.1073 57.8793C82.1038 58.5066 82.1438 59.1494 81.9683 59.7596C81.6449 61.0572 80.6367 62.1676 79.3556 62.6007C79.1696 65.1324 78.7524 67.659 77.8885 70.0566C75.919 75.7113 71.9053 80.6372 66.7444 83.7533C62.6646 86.2524 57.8792 87.5862 53.0832 87.6085C51.0512 87.6154 49.0191 87.6205 46.9871 87.6051C42.471 87.5552 37.9741 86.3297 34.0734 84.0765C27.8625 80.5393 23.2352 74.3982 21.6256 67.4888C21.0311 65.0774 20.8746 62.5886 20.9198 60.1136C17.6727 60.1102 14.4256 60.1171 11.1785 60.1119C9.52714 60.1274 7.93661 59.0704 7.32821 57.5544C6.98577 56.7947 7.00315 55.9474 7.01358 55.1327C7.01532 38.9197 7.01011 22.7051 7.01532 6.49037ZM10.7109 5.19959C10.1077 5.39896 9.74094 6.0349 9.79483 6.65193C9.79483 23.0419 9.79483 39.4319 9.79483 55.8219C9.70618 56.6005 10.358 57.3722 11.1646 57.3568C23.164 57.3722 35.1633 57.3585 47.1627 57.3636C48.0318 57.4685 48.8314 56.6899 48.7323 55.8288C48.7323 39.4354 48.7323 23.0436 48.7323 6.65021C48.8175 5.87162 48.1639 5.0999 47.3573 5.1188C35.4188 5.10334 23.4786 5.12052 11.5401 5.11021C11.2619 5.11709 10.9751 5.10334 10.7109 5.19959Z" fill="#292929"/>
<path d="M13.4974 7.94614C13.7581 7.85333 14.0415 7.86708 14.3144 7.86021C24.4033 7.87224 34.4923 7.85333 44.5796 7.87052C45.3879 7.84989 46.038 8.62333 45.9511 9.40193C45.9459 14.8538 45.9615 20.3074 45.9441 25.761C45.9598 26.5585 45.1793 27.1996 44.3918 27.1136C34.3081 27.1136 24.2243 27.1136 14.1388 27.1136C13.3479 27.2013 12.5604 26.5585 12.583 25.7558C12.5674 20.3057 12.5813 14.8538 12.5761 9.40364C12.5205 8.78489 12.889 8.1438 13.4974 7.94614Z" fill="#B71E3A"/>
<path d="M34.9599 32.9265C36.5296 32.4899 38.32 33.0777 39.3126 34.353C40.333 35.5957 40.4964 37.4348 39.728 38.839C39.4134 39.468 38.8641 39.9235 38.4104 40.446C39.2917 42.854 39.0884 45.6126 37.9272 47.8951C36.7799 50.1862 34.6662 51.984 32.1995 52.7505C30.197 53.3968 27.9929 53.3487 26.0043 52.6783C25.3472 53.3384 24.6606 54.0276 23.7428 54.3129C22.2722 54.8302 20.527 54.4383 19.4371 53.3332C18.2464 52.1954 17.8813 50.3254 18.5367 48.8249C18.8548 48.0291 19.491 47.4258 20.1029 46.8432C19.4632 44.8993 19.3815 42.7663 20.0125 40.8087C20.8503 38.0793 22.9919 35.7796 25.6758 34.7346C27.8399 33.8477 30.3118 33.8305 32.5263 34.5576C33.1921 33.8357 33.9743 33.1602 34.9599 32.9265ZM24.2695 38.8424C22.7902 40.3326 22.0897 42.5085 22.3783 44.5727C25.0013 41.9877 27.6192 39.3976 30.2353 36.8057C28.0694 36.5118 25.7801 37.2715 24.2695 38.8424ZM28.2936 50.4887C30.3952 50.7619 32.5976 50.0435 34.0978 48.5602C35.7022 47.0701 36.507 44.8116 36.2167 42.6546C33.5728 45.2637 30.9306 47.8744 28.2936 50.4887Z" fill="#B71E3A"/>
</svg>
