<svg width="59" height="60" viewBox="0 0 59 60" fill="none" xmlns="http://www.w3.org/2000/svg">
<g clip-path="url(#clip0_20_441)">
<path d="M50.0606 0.988647H50.2985C50.9952 1.03474 51.6669 1.42423 52.009 2.05226C52.3534 2.63074 52.2821 3.33367 52.2889 3.98128C52.2866 7.5547 52.2866 11.1281 52.2889 14.7015C52.2775 15.3572 52.3534 16.0578 52.06 16.6663C51.7995 17.2425 51.2546 17.6181 50.6769 17.8083C46.6271 19.1819 42.5773 20.5578 38.5252 21.9279C37.6042 22.2897 36.4691 21.8933 35.9933 21.006C35.5527 20.2443 35.6524 19.2095 36.2414 18.5561C36.6583 18.056 37.3085 17.8981 37.8931 17.6976C40.6979 16.7469 43.5028 15.7951 46.3053 14.8421C42.3881 10.4724 36.7795 7.72525 30.9727 7.36917C24.2846 6.88865 17.4639 9.63699 12.91 14.6382C9.24877 18.5561 7.03865 23.8281 6.75205 29.2234C6.7158 29.7938 6.75318 30.37 6.65916 30.9358C6.47678 31.9003 5.54674 32.6355 4.58272 32.5871C3.50315 32.5848 2.55272 31.5937 2.57877 30.4944C2.56631 27.5144 3.04662 24.5322 3.98233 21.7078C5.47311 17.1941 8.14768 13.094 11.6617 9.94927C15.4656 6.498 20.2676 4.21406 25.3041 3.42701C30.1911 2.64917 35.2876 3.27029 39.8472 5.22466C42.9239 6.52912 45.7412 8.44201 48.1416 10.7928C48.1473 8.21845 48.1303 5.64527 48.1484 3.07208C48.136 2.00271 49.0241 1.07277 50.0606 0.988647Z" fill="#292929"/>
<path d="M52.2843 30.5981C52.2254 29.4965 53.1067 28.449 54.1999 28.396C55.3078 28.2762 56.3851 29.2268 56.4145 30.3607C56.495 36.7666 54.2225 43.1598 50.175 48.0642C47.3758 51.474 43.7554 54.1878 39.7056 55.8575C35.2479 57.7059 30.2998 58.3062 25.5409 57.571C20.0456 56.7517 14.8437 54.1163 10.8585 50.1845C10.8517 52.76 10.8698 55.3343 10.8506 57.9098C10.863 58.9769 9.97602 59.9034 8.94177 59.9886H8.70274C8.0038 59.9426 7.32977 59.5508 6.9888 58.9204C6.64442 58.3396 6.71806 57.6367 6.71126 56.9891C6.71353 53.1864 6.71466 49.3836 6.71013 45.5821C6.71352 45.0658 6.76903 44.5219 7.06583 44.0863C7.36489 43.5931 7.88825 43.3096 8.41388 43.1356C12.432 41.777 16.4478 40.4115 20.4659 39.0517C21.0606 38.8408 21.7448 38.8731 22.284 39.22C23.1268 39.7132 23.5086 40.8574 23.1461 41.7736C22.9195 42.3866 22.3984 42.8556 21.7867 43.0469C18.7576 44.0782 15.7262 45.1027 12.697 46.1352C14.8992 48.5828 17.6259 50.5383 20.6313 51.8289C24.0172 53.2901 27.7533 53.8916 31.4179 53.5759C36.9641 53.1057 42.3088 50.4841 46.0969 46.3322C50.0176 42.1365 52.2639 36.3852 52.2843 30.5981Z" fill="#B71E3A"/>
</g>
<defs>
<clipPath id="clip0_20_441">
<rect width="58" height="59" fill="white" transform="translate(0.5 0.988647)"/>
</clipPath>
</defs>
</svg>
