<svg width="80" height="80" viewBox="0 0 80 80" fill="none" xmlns="http://www.w3.org/2000/svg">
<path d="M33.48 4.01997C36.36 1.55997 40.77 1.52997 44.15 2.84997C47.08 3.96997 44.39 6.92997 44.18 8.91997C44.55 11.29 45.64 13.52 45.62 15.95C45.65 22.98 45.6 30.02 45.62 37.06C41.61 37.18 37.6 37.19 33.59 37.17C33.42 30.45 33.54 23.72 33.49 17C33.34 14.18 34.43 11.53 35.26 8.88998C34.67 7.26998 33.83 5.71997 33.48 4.01997ZM39.19 26.32C37.53 26.67 38.39 29.28 39.94 28.73C41.6 28.37 40.76 25.72 39.19 26.32ZM38.77 30.32C38.23 31.91 38.78 32.48 40.41 32.03C40.96 30.41 40.42 29.84 38.77 30.32Z" fill="#B51339"/>
<path fill-rule="evenodd" clip-rule="evenodd" d="M39.5 24C41.433 24 43 22.433 43 20.5C43 18.567 41.433 17 39.5 17C37.567 17 36 18.567 36 20.5C36 22.433 37.567 24 39.5 24ZM39.5 25C41.9853 25 44 22.9853 44 20.5C44 18.0147 41.9853 16 39.5 16C37.0147 16 35 18.0147 35 20.5C35 22.9853 37.0147 25 39.5 25Z" fill="white"/>
<path fill-rule="evenodd" clip-rule="evenodd" d="M39 22V18.5H40V22H39Z" fill="white"/>
<path d="M33.25 37.82C37.45 37.85 41.64 37.82 45.84 37.76C45.52 40.68 44.41 43.47 41.91 45.17C41.8 53.95 41.89 62.74 41.86 71.52C40.31 71.52 38.77 71.52 37.22 71.51C37.2 62.67 37.27 53.83 37.18 45C35.07 43.1 33.86 40.57 33.25 37.82Z" fill="#B51339"/>
<path d="M32.3 77.26C31.96 73.15 36.7 71.87 39.98 72.11C43.06 72.14 47.55 73.46 46.97 77.37C42.14 78.51 37.09 78.63 32.3 77.26Z" fill="#B51339"/>
<path d="M40 77C41.4545 77 44.6909 76.8 46 76" stroke="white"/>
<path d="M39 77C37.5455 77 34.3091 76.8 33 76" stroke="white"/>
</svg>
