<svg width="80" height="80" viewBox="0 0 80 80" fill="none" xmlns="http://www.w3.org/2000/svg">
<path d="M32.52 4.72002C39.05 3.28002 46.16 3.65002 52.24 6.57002C54.52 7.74002 57.11 9.31002 57.6 12.05C57.88 15.38 54.94 18.23 55.5 21.56C58.84 26.6 65.83 29.41 66.5 36.03C66.43 44.71 62.62 52.73 60.45 60.98C59.28 64.49 62.68 68.22 60.4 71.48C57.66 74.91 52.94 75.59 48.88 76.26C41.1 77.17 33.12 77.1 25.46 75.39C22.17 74.54 18.41 73.22 16.96 69.85C15.56 66.82 19.52 64.1 18 61.07C14.95 53.09 12.58 44.65 12.67 36.05C13.1 29.93 19.29 27.03 23.09 23.09C27.35 19.58 20.36 14.38 23.3 10.31C25.32 7.15002 29.05 5.64002 32.52 4.72002ZM36.33 7.32002C33.04 11.49 42.58 13.55 43.4 9.06002C42.91 5.90002 38.38 5.55002 36.33 7.32002ZM15.97 40.65C16.64 47.68 18.75 54.42 21.2 61C22.95 64.2 17.54 68.25 21.41 70.5C27.96 74.09 35.76 73.57 42.99 73.61C48.33 73.34 54.43 73.2 58.49 69.2C57.14 65.88 56.56 62.14 57.81 58.7C59.79 52.76 61.8 46.82 63.05 40.67C56.63 41.44 50.17 41.8 43.73 42.27C43.71 48.21 43.72 54.16 43.71 60.1C46.28 60.37 49.41 60.69 50.65 63.35C52.12 65.64 49.86 67.88 47.84 68.71L47.53 66.9C47.88 66.35 48.59 65.25 48.94 64.7C47.7 63.15 45.92 62.52 43.99 62.4C43.73 64.68 42.99 67.98 40.02 67.82C37.08 68.45 35.45 65.73 35.07 63.25C32.51 62.91 29.3 62.65 28.14 59.89C26.77 57.66 29.36 53.88 31.87 55.82C31.19 56.85 30.51 57.88 29.82 58.9C31.33 60.25 33.25 60.8 35.24 60.95C35.27 54.72 35.24 48.5 35.25 42.27C28.82 41.83 22.37 41.45 15.97 40.65ZM36.79 42.17C36.85 49.5 36.6 56.84 36.95 64.15C37.1 66.36 39.43 66.37 41.11 66.37C41.38 65.79 41.92 64.63 42.19 64.05C41.9 56.8 42.38 49.49 42.2 42.21C40.4 42.21 38.59 42.2 36.79 42.17Z" fill="#B51339"/>
<path d="M36.33 7.31998C38.38 5.54998 42.91 5.89998 43.4 9.05998C42.58 13.55 33.04 11.49 36.33 7.31998Z" fill="white"/>
</svg>
