<svg width="80" height="79" viewBox="0 0 80 79" fill="none" xmlns="http://www.w3.org/2000/svg">
<path d="M36.5005 29.5C40.9005 31.5 41.3338 39.6667 41.0005 43.5C37.0009 44.3 31.0006 43.1667 28.5005 42.5C32.001 52.5 41.5 49.5 44.5 50C46.9 50.4 45.8333 51.8333 45 52.5C31 55.7 25.5003 45.8333 24.5005 40.5C23.7005 36.9 26.8338 34 28.5005 33C31.3005 29.4 35.0005 29.1667 36.5005 29.5Z" fill="#B51339"/>
<path d="M24 21.5001C19.2 27.5001 8 32.0001 3 33.5001C11 35.1001 20.6667 29.8334 24.5 27.0001L30 30.0001L37 28.5001C39.5 29.5001 42.6667 40.6667 43 46.5001L60.5 58.0001L53 48.0001C50.6 46.0001 49.6667 37.5001 49.5 33.5001C48.7 30.7001 45.1667 27.3334 43.5 26.0001C46.3 24.0001 51 25.8334 53 27.0001C58.6 18.2001 68.6667 16.6667 73 17C63.8 13 54.1667 19.0001 50.5 22.5001C48.9 20.9001 46.1667 20.8334 45 21.0001C43.8 29.4001 34.5 27.8334 30 26.0001L24 21.5001Z" fill="#B51339"/>
<path d="M32.0002 25L32.5002 22.5L30.5002 21L29.5002 22.5C25.8386 20.908 18.0408 17.7953 14.9092 17.5196C14.0099 17.5 13.751 17.5 14.5002 17.5C14.6257 17.5 14.7623 17.5067 14.9092 17.5196C18.2106 17.5917 30.1425 17.9282 32.5002 19.5C33 19 34 17 37 17V15L35.5 12.5H41L40 15V17C41.3333 16.8334 44 17.3 44 20.5C44.1667 21.6667 44.2 24.2001 43 25C41.5 26 37.5005 28.5001 32.0002 25Z" fill="#B51339"/>
<path d="M50 34C50.5 37.1667 51.5 43.6 51.5 44C51.5 44.5 55 38.5 50 34Z" fill="#B51339"/>
<path d="M9.45003 57.41C12.88 57.41 16.32 57.41 19.76 57.42C17.83 59.23 15.89 61.04 13.96 62.85C20.74 69.41 29.52 74.29 39.06 75C49.91 76.08 60.35 71.01 68.43 64.14C69.23 65.02 70.03 65.89 70.83 66.77C63.14 72.98 54.04 78.13 43.95 78.55C31.64 79.3 19.8 73.51 11.1 65.1C10.16 66.07 9.22003 67.05 8.28003 68.02C8.72003 64.49 9.14003 60.95 9.45003 57.41Z" fill="#B51339"/>
<path d="M62.88 56.8099C66.59 56.8499 70.31 57.0299 74.02 57.2199C74.13 60.8999 74.37 64.5699 74.57 68.2399C72.45 66.2099 70.34 64.1599 68.21 62.1399C60.34 69.2899 49.96 74.4499 39.1 73.6599C30.38 73.0799 22.5 68.5799 16.12 62.8299C16.93 62.0399 17.75 61.2499 18.56 60.4499C24.89 65.7599 32.44 70.5599 41.01 70.3999C50.35 70.5899 58.62 65.3599 65.55 59.6199C64.66 58.6799 63.77 57.7399 62.88 56.8099Z" fill="#B51339"/>
</svg>
