<svg width="80" height="80" viewBox="0 0 80 80" fill="none" xmlns="http://www.w3.org/2000/svg">
<rect width="80" height="80" rx="40" fill="black"/>
<path d="M27.6364 66V19.4545H43.3636C47.0152 19.4545 50 20.1136 52.3182 21.4318C54.6515 22.7348 56.3788 24.5 57.5 26.7273C58.6212 28.9545 59.1818 31.4394 59.1818 34.1818C59.1818 36.9242 58.6212 39.4167 57.5 41.6591C56.3939 43.9015 54.6818 45.6894 52.3636 47.0227C50.0455 48.3409 47.0758 49 43.4545 49H32.1818V44H43.2727C45.7727 44 47.7803 43.5682 49.2955 42.7045C50.8106 41.8409 51.9091 40.6742 52.5909 39.2045C53.2879 37.7197 53.6364 36.0455 53.6364 34.1818C53.6364 32.3182 53.2879 30.6515 52.5909 29.1818C51.9091 27.7121 50.803 26.5606 49.2727 25.7273C47.7424 24.8788 45.7121 24.4545 43.1818 24.4545H33.2727V66H27.6364Z" fill="white"/>
</svg>
