<svg width="80" height="80" viewBox="0 0 80 80" fill="none" xmlns="http://www.w3.org/2000/svg">
<rect width="80" height="80" rx="40" fill="black"/>
<path d="M41.75 31.25V29.5C41.75 29.0359 41.5656 28.5908 41.2374 28.2626C40.9092 27.9344 40.4641 27.75 40 27.75C39.5359 27.75 39.0908 27.9344 38.7626 28.2626C38.4344 28.5908 38.25 29.0359 38.25 29.5V31.25C38.25 31.7141 38.4344 32.1592 38.7626 32.4874C39.0908 32.8156 39.5359 33 40 33C40.4641 33 40.9092 32.8156 41.2374 32.4874C41.5656 32.1592 41.75 31.7141 41.75 31.25Z" fill="white"/>
<path d="M27.75 33.875C29.683 33.875 31.25 32.308 31.25 30.375C31.25 28.442 29.683 26.875 27.75 26.875C25.817 26.875 24.25 28.442 24.25 30.375C24.25 32.308 25.817 33.875 27.75 33.875Z" fill="white"/>
<path d="M52.25 22.5H27.75C25.6614 22.5 23.6584 23.3297 22.1815 24.8065C20.7047 26.2834 19.875 28.2864 19.875 30.375C19.875 32.4636 20.7047 34.4666 22.1815 35.9435C23.6584 37.4203 25.6614 38.25 27.75 38.25H52.25C54.3386 38.25 56.3416 37.4203 57.8185 35.9435C59.2953 34.4666 60.125 32.4636 60.125 30.375C60.125 28.2864 59.2953 26.2834 57.8185 24.8065C56.3416 23.3297 54.3386 22.5 52.25 22.5ZM27.75 35.625C26.7116 35.625 25.6966 35.3171 24.8333 34.7402C23.9699 34.1633 23.297 33.3434 22.8996 32.3841C22.5023 31.4248 22.3983 30.3692 22.6009 29.3508C22.8034 28.3324 23.3035 27.3969 24.0377 26.6627C24.7719 25.9285 25.7074 25.4284 26.7258 25.2259C27.7442 25.0233 28.7998 25.1273 29.7591 25.5246C30.7184 25.922 31.5383 26.5949 32.1152 27.4583C32.6921 28.3216 33 29.3366 33 30.375C33 31.7674 32.4469 33.1027 31.4623 34.0873C30.4777 35.0719 29.1424 35.625 27.75 35.625ZM43.5 31.25C43.5 32.1783 43.1313 33.0685 42.4749 33.7249C41.8185 34.3813 40.9283 34.75 40 34.75C39.0717 34.75 38.1815 34.3813 37.5251 33.7249C36.8687 33.0685 36.5 32.1783 36.5 31.25V29.5C36.5 28.5717 36.8687 27.6815 37.5251 27.0251C38.1815 26.3687 39.0717 26 40 26C40.9283 26 41.8185 26.3687 42.4749 27.0251C43.1313 27.6815 43.5 28.5717 43.5 29.5V31.25ZM52.25 33.875C52.25 34.1071 52.1578 34.3296 51.9937 34.4937C51.8296 34.6578 51.6071 34.75 51.375 34.75C50.745 34.75 50.9112 34.75 47 29.5V33.875C47 34.1071 46.9078 34.3296 46.7437 34.4937C46.5796 34.6578 46.3571 34.75 46.125 34.75C45.8929 34.75 45.6704 34.6578 45.5063 34.4937C45.3422 34.3296 45.25 34.1071 45.25 33.875V26.875C45.25 26.6914 45.3078 26.5124 45.4152 26.3634C45.5225 26.2144 45.6741 26.103 45.8483 26.0449C46.0225 25.9868 46.2106 25.985 46.3859 26.0398C46.5612 26.0946 46.7148 26.2031 46.825 26.35L50.5 31.25V26.875C50.5 26.6429 50.5922 26.4204 50.7563 26.2563C50.9204 26.0922 51.1429 26 51.375 26C51.6071 26 51.8296 26.0922 51.9937 26.2563C52.1578 26.4204 52.25 26.6429 52.25 26.875V33.875Z" fill="white"/>
<path d="M52.25 41.75H27.75C25.6614 41.75 23.6584 42.5797 22.1815 44.0565C20.7047 45.5334 19.875 47.5364 19.875 49.625C19.875 51.7136 20.7047 53.7166 22.1815 55.1935C23.6584 56.6703 25.6614 57.5 27.75 57.5H52.25C54.3386 57.5 56.3416 56.6703 57.8185 55.1935C59.2953 53.7166 60.125 51.7136 60.125 49.625C60.125 47.5364 59.2953 45.5334 57.8185 44.0565C56.3416 42.5797 54.3386 41.75 52.25 41.75ZM31.25 50.5C31.25 51.4283 30.8813 52.3185 30.2249 52.9749C29.5685 53.6313 28.6783 54 27.75 54C26.8217 54 25.9315 53.6313 25.2751 52.9749C24.6187 52.3185 24.25 51.4283 24.25 50.5V48.75C24.25 47.8217 24.6187 46.9315 25.2751 46.2751C25.9315 45.6187 26.8217 45.25 27.75 45.25C28.6783 45.25 29.5685 45.6187 30.2249 46.2751C30.8813 46.9315 31.25 47.8217 31.25 48.75V50.5ZM37.375 48.75C37.6071 48.75 37.8296 48.8422 37.9937 49.0063C38.1578 49.1704 38.25 49.3929 38.25 49.625C38.25 49.8571 38.1578 50.0796 37.9937 50.2437C37.8296 50.4078 37.6071 50.5 37.375 50.5H34.75V53.125C34.75 53.3571 34.6578 53.5796 34.4937 53.7437C34.3296 53.9078 34.1071 54 33.875 54C33.6429 54 33.4204 53.9078 33.2563 53.7437C33.0922 53.5796 33 53.3571 33 53.125V46.125C33 45.8929 33.0922 45.6704 33.2563 45.5063C33.4204 45.3422 33.6429 45.25 33.875 45.25C36.99 45.25 38.25 44.9437 38.25 46.125C38.25 47.3063 36.885 47 34.75 47V48.75H37.375ZM44.375 48.75C44.6071 48.75 44.8296 48.8422 44.9937 49.0063C45.1578 49.1704 45.25 49.3929 45.25 49.625C45.25 49.8571 45.1578 50.0796 44.9937 50.2437C44.8296 50.4078 44.6071 50.5 44.375 50.5H41.75V53.125C41.75 53.3571 41.6578 53.5796 41.4937 53.7437C41.3296 53.9078 41.1071 54 40.875 54C40.6429 54 40.4204 53.9078 40.2563 53.7437C40.0922 53.5796 40 53.3571 40 53.125V46.125C40 45.8929 40.0922 45.6704 40.2563 45.5063C40.4204 45.3422 40.6429 45.25 40.875 45.25C43.99 45.25 45.25 44.9437 45.25 46.125C45.25 47.3063 43.885 47 41.75 47V48.75H44.375ZM52.25 54.875C51.2116 54.875 50.1966 54.5671 49.3333 53.9902C48.4699 53.4133 47.797 52.5934 47.3996 51.6341C47.0023 50.6748 46.8983 49.6192 47.1009 48.6008C47.3034 47.5824 47.8035 46.6469 48.5377 45.9127C49.2719 45.1785 50.2074 44.6784 51.2258 44.4759C52.2442 44.2733 53.2998 44.3773 54.2591 44.7746C55.2184 45.172 56.0383 45.8449 56.6152 46.7083C57.1921 47.5716 57.5 48.5866 57.5 49.625C57.5 51.0174 56.9469 52.3527 55.9623 53.3373C54.9777 54.3219 53.6424 54.875 52.25 54.875Z" fill="white"/>
<path d="M52.25 53.125C54.183 53.125 55.75 51.558 55.75 49.625C55.75 47.692 54.183 46.125 52.25 46.125C50.317 46.125 48.75 47.692 48.75 49.625C48.75 51.558 50.317 53.125 52.25 53.125Z" fill="white"/>
<path d="M26 48.75V50.5C26 50.9641 26.1844 51.4092 26.5126 51.7374C26.8408 52.0656 27.2859 52.25 27.75 52.25C28.2141 52.25 28.6592 52.0656 28.9874 51.7374C29.3156 51.4092 29.5 50.9641 29.5 50.5V48.75C29.5 48.2859 29.3156 47.8408 28.9874 47.5126C28.6592 47.1844 28.2141 47 27.75 47C27.2859 47 26.8408 47.1844 26.5126 47.5126C26.1844 47.8408 26 48.2859 26 48.75Z" fill="white"/>
</svg>
