<svg width="80" height="80" viewBox="0 0 80 80" fill="none" xmlns="http://www.w3.org/2000/svg">
<g clip-path="url(#clip0_47_2)">
<path d="M53.7875 39.2875V46.1125C53.6351 50.1006 52.2067 53.9344 49.7125 57.05C49.1178 57.805 48.7962 58.739 48.8 59.7V63.2125H36.0125V58.7375C36.0625 56.75 34.6 55.5125 33.1 54.4375C30.9625 53.0375 30.3875 50.275 29.525 47.9875C28.7431 45.6899 28.4369 43.2572 28.625 40.8375C28.6239 39.9639 28.967 39.1251 29.58 38.5028C30.193 37.8804 31.0265 37.5246 31.9 37.5125V42.325C31.9057 42.5583 32.0023 42.7801 32.1693 42.9431C32.3363 43.1061 32.5604 43.1973 32.7938 43.1973C33.0271 43.1973 33.2512 43.1061 33.4182 42.9431C33.5852 42.7801 33.6818 42.5583 33.6875 42.325V26C33.6922 25.6386 33.8024 25.2866 34.0046 24.987C34.2068 24.6875 34.4922 24.4536 34.8256 24.3142C35.1589 24.1747 35.5258 24.1358 35.8811 24.2021C36.2363 24.2684 36.5644 24.4371 36.825 24.6875C37.1725 25.0365 37.3698 25.5075 37.375 26V34.4875C37.35 34.575 37.3874 42.1625 37.375 42.2375C37.375 42.4729 37.4685 42.6986 37.6349 42.8651C37.8014 43.0315 38.0271 43.125 38.2625 43.125C38.4979 43.125 38.7236 43.0315 38.8901 42.8651C39.0565 42.6986 39.15 42.4729 39.15 42.2375V34.5125C39.1738 34.0342 39.3826 33.5839 39.7323 33.2567C40.082 32.9295 40.5452 32.7512 41.024 32.7593C41.5028 32.7674 41.9597 32.9614 42.2981 33.3002C42.6365 33.639 42.83 34.0962 42.8375 34.575V42.2375C42.8375 42.4745 42.9317 42.7019 43.0993 42.8695C43.2669 43.0371 43.4942 43.1312 43.7313 43.1312C43.9683 43.1312 44.1956 43.0371 44.3632 42.8695C44.5308 42.7019 44.625 42.4745 44.625 42.2375V37.15C44.633 36.6663 44.8307 36.205 45.1756 35.8658C45.5205 35.5265 45.985 35.3364 46.4688 35.3364C46.9526 35.3364 47.417 35.5265 47.7619 35.8658C48.1068 36.205 48.3045 36.6663 48.3125 37.15V42.2375C48.3125 42.4745 48.4067 42.7019 48.5743 42.8695C48.7419 43.0371 48.9692 43.1312 49.2063 43.1312C49.4433 43.1312 49.6706 43.0371 49.8382 42.8695C50.0058 42.7019 50.1 42.4745 50.1 42.2375V39.2875C50.108 38.8038 50.3057 38.3425 50.6506 38.0033C50.9955 37.664 51.46 37.4739 51.9438 37.4739C52.4276 37.4739 52.892 37.664 53.2369 38.0033C53.5818 38.3425 53.7795 38.8038 53.7875 39.2875Z" fill="black"/>
<path d="M40 0C32.0888 0 24.3552 2.34596 17.7772 6.74122C11.1992 11.1365 6.07233 17.3836 3.04482 24.6927C0.017316 32.0017 -0.774817 40.0444 0.768591 47.8036C2.312 55.5629 6.12163 62.6902 11.7157 68.2843C17.3098 73.8784 24.4372 77.688 32.1964 79.2314C39.9556 80.7748 47.9983 79.9827 55.3073 76.9552C62.6164 73.9277 68.8635 68.8008 73.2588 62.2228C77.654 55.6448 80 47.9113 80 40C79.9987 29.3917 75.784 19.2184 68.2828 11.7172C60.7816 4.21603 50.6083 0.00132578 40 0V0ZM35.525 15C38.4697 15.0013 41.2935 16.1708 43.3769 18.2518C45.4602 20.3328 46.6329 23.1554 46.6375 26.1C46.575 27.1875 46.4375 31.1625 44.7375 30.5875C44.6287 30.5455 44.5292 30.4823 44.445 30.4015C44.3608 30.3207 44.2935 30.2241 44.247 30.1171C44.2005 30.0101 44.1757 29.8949 44.1741 29.7782C44.1724 29.6616 44.194 29.5458 44.2375 29.4375C44.8534 27.8271 45.0104 26.0774 44.6912 24.383C44.372 22.6887 43.589 21.1161 42.4294 19.8402C41.2697 18.5642 39.7789 17.635 38.1227 17.1558C36.4664 16.6766 34.7098 16.6662 33.048 17.1259C31.3862 17.5855 29.8845 18.497 28.7099 19.7592C27.5353 21.0213 26.7338 22.5846 26.3946 24.275C26.0554 25.9655 26.1918 27.7169 26.7886 29.3345C27.3854 30.9521 28.4192 32.3724 29.775 33.4375C29.9604 33.5834 30.0803 33.797 30.1083 34.0313C30.1364 34.2656 30.0702 34.5015 29.9244 34.687C29.7786 34.8726 29.5651 34.9927 29.3309 35.0209C29.0966 35.0491 28.8607 34.9831 28.675 34.8375C26.8579 33.4121 25.5305 31.4556 24.8777 29.2404C24.225 27.0251 24.2792 24.6614 25.033 22.4785C25.7868 20.2955 27.2026 18.402 29.0832 17.0615C30.9638 15.7211 33.2156 15.0004 35.525 15ZM35.525 20.4875C34.6731 20.4902 33.833 20.6865 33.0681 21.0616C32.3032 21.4366 31.6336 21.9806 31.1098 22.6525C30.5861 23.3244 30.2219 24.1065 30.0448 24.9398C29.8676 25.7731 29.8823 26.6357 30.0875 27.4625C30.1413 27.6892 30.1041 27.928 29.9841 28.1277C29.864 28.3274 29.6705 28.4721 29.445 28.5309C29.2196 28.5898 28.98 28.558 28.7777 28.4424C28.5754 28.3268 28.4263 28.1366 28.3625 27.9125C28.0854 26.819 28.062 25.6765 28.2943 24.5726C28.5266 23.4687 29.0084 22.4326 29.7027 21.5435C30.3971 20.6544 31.2856 19.9359 32.3004 19.4431C33.3151 18.9502 34.4292 18.696 35.5572 18.7C36.6853 18.7039 37.7976 18.9659 38.8088 19.4658C39.8201 19.9657 40.7036 20.6904 41.3918 21.5843C42.0799 22.4782 42.5544 23.5177 42.779 24.6232C43.0036 25.7287 42.9723 26.8709 42.6875 27.9625C42.622 28.1867 42.4708 28.376 42.2667 28.4896C42.0627 28.6032 41.8221 28.6319 41.597 28.5695C41.3719 28.5071 41.1805 28.3586 41.0641 28.1561C40.9477 27.9536 40.9157 27.7134 40.975 27.4875C41.1828 26.6582 41.1991 25.7924 41.0225 24.9558C40.8459 24.1193 40.4812 23.3339 39.956 22.6593C39.4307 21.9847 38.7588 21.4385 37.991 21.0622C37.2233 20.6859 36.38 20.4894 35.525 20.4875ZM55.575 46.15C55.4187 50.5359 53.8491 54.7539 51.1 58.175C50.7599 58.6098 50.579 59.148 50.5875 59.7V64.1125C50.5867 64.2299 50.5628 64.3459 50.5171 64.4541C50.4715 64.5622 50.4049 64.6603 50.3214 64.7427C50.2378 64.8251 50.1388 64.8903 50.03 64.9344C49.9213 64.9786 49.8049 65.0008 49.6875 65H35.125C34.8865 64.9985 34.6579 64.9044 34.4876 64.7375C34.321 64.572 34.2267 64.3473 34.2251 64.1125V58.7375C34.2501 57.3625 33.0501 56.6625 32.0876 55.9C29.7001 54.325 28.8126 51.5125 28.1001 49.25C27.2435 47.2569 26.8135 45.1067 26.8376 42.9375V40.8375C26.8407 39.4912 27.3734 38.2001 28.3208 37.2434C29.2681 36.2868 30.5538 35.7413 31.9001 35.725V26C31.9101 25.0452 32.2964 24.1329 32.9752 23.4612C33.6539 22.7896 34.5702 22.4129 35.5251 22.4129C36.4799 22.4129 37.3962 22.7896 38.075 23.4612C38.7537 24.1329 39.14 25.0452 39.1501 26V31.45C39.664 31.1534 40.2425 30.9863 40.8355 30.9634C41.4284 30.9404 42.0181 31.0622 42.5535 31.3182C43.0888 31.5742 43.5538 31.9567 43.9082 32.4326C44.2626 32.9086 44.4958 33.4637 44.5876 34.05C45.0718 33.7628 45.6159 33.5914 46.1773 33.5493C46.7387 33.5072 47.3023 33.5955 47.824 33.8073C48.3456 34.0191 48.8112 34.3487 49.1844 34.7703C49.5575 35.1918 49.8281 35.694 49.9751 36.2375C50.5238 35.8858 51.1569 35.688 51.8082 35.6648C52.4596 35.6416 53.1052 35.7938 53.6775 36.1056C54.2499 36.4173 54.728 36.8771 55.0618 37.4368C55.3956 37.9966 55.5729 38.6358 55.5751 39.2875L55.575 46.15Z" fill="black"/>
</g>
<defs>
<clipPath id="clip0_47_2">
<rect width="80" height="80" fill="white"/>
</clipPath>
</defs>
</svg>
