<svg width="80" height="80" viewBox="0 0 80 80" fill="none" xmlns="http://www.w3.org/2000/svg">
<rect width="80" height="80" rx="40" fill="black"/>
<path fill-rule="evenodd" clip-rule="evenodd" d="M54.2872 20.0454C46.9154 20.3305 40.1982 21.4688 35.028 23.3089C29.5489 25.2591 25.441 28.1185 22.8607 31.7784C21.1775 34.1658 20.1668 37.0824 20.0252 39.9608C19.8886 42.737 20.3321 45.0139 21.4258 47.1507C21.7975 47.877 22.3547 48.739 22.8029 49.2813C22.9666 49.4794 23.1472 49.699 23.2043 49.7694L23.3079 49.8974L23.0993 50.2749C21.8979 52.4484 20.7722 55.1408 20.3025 56.9638C20.013 58.0873 19.9152 59.2082 20.0798 59.5154C20.163 59.6709 20.3649 59.871 20.5179 59.9497C20.6602 60.0228 21.1606 60.0144 21.3099 59.9363C21.6363 59.7657 21.8281 59.4156 21.8281 58.9905C21.8281 58.4553 22.0567 57.3932 22.389 56.3839C22.8152 55.0896 23.2407 54.0748 24.0607 52.397L24.6655 51.1594L24.8779 51.3208C27.0796 52.9944 29.6601 54.0064 32.7239 54.3981C35.5794 54.7631 38.2645 54.5432 40.4273 53.7672C41.6448 53.3304 43.0386 52.5513 44.0199 51.7591C44.5229 51.3531 45.6096 50.2535 46.0352 49.72C46.8379 48.7139 47.4807 47.6739 48.1331 46.3261C49.2157 44.0895 49.945 41.822 50.772 38.1223C51.2254 36.0938 51.4963 35.0992 51.9787 33.6929C53.4611 29.3712 55.7448 25.6941 59.111 22.2089C59.5208 21.7846 59.8889 21.3741 59.9289 21.2966C60.0202 21.1199 60.0245 20.6349 59.9363 20.466C59.862 20.3236 59.6567 20.1224 59.5073 20.0456C59.3892 19.9849 55.8549 19.9848 54.2872 20.0454ZM56.6307 22.1584C54.5861 24.4276 52.6539 27.3725 51.418 30.1028C50.3753 32.4065 49.7225 34.3842 49.105 37.11C48.0457 41.787 47.105 44.5246 45.7738 46.8046C44.8344 48.4136 43.8028 49.6029 42.4936 50.5864C41.0302 51.6858 39.2742 52.3596 37.1806 52.625C36.4519 52.7174 34.5258 52.7266 33.6504 52.6419C32.092 52.491 30.3683 52.0916 29.1349 51.5956C27.8673 51.0858 26.8539 50.4858 25.6809 49.5506C25.6212 49.503 25.6719 49.3951 26.04 48.7866C26.9796 47.2329 28.2489 45.3848 29.3828 43.9193C33.7797 38.2367 38.9723 33.8204 44.5703 31.0019C44.8502 30.8609 45.1354 30.6863 45.2041 30.6137C45.7688 30.0169 45.3668 29.0695 44.5488 29.0695C44.3524 29.0695 44.2154 29.1192 43.7021 29.3765C42.4137 30.0221 41.1863 30.7425 39.6826 31.7355C34.0771 35.4373 28.6385 41.179 24.6526 47.6033C24.4669 47.9026 24.3089 48.1474 24.3015 48.1474C24.2688 48.1474 23.6475 47.2686 23.4384 46.9264C21.1206 43.134 21.3314 37.706 23.961 33.4745C25.1867 31.5021 26.9787 29.7049 29.2315 28.189C30.3041 27.4671 32.1037 26.4926 33.419 25.9213C36.9447 24.3898 41.3925 23.2312 46.2129 22.5887C49.448 22.1575 52.1874 21.9539 56.7311 21.8068L56.954 21.7996L56.6307 22.1584Z" fill="white"/>
</svg>
