<svg width="80" height="80" viewBox="0 0 80 80" fill="none" xmlns="http://www.w3.org/2000/svg">
<rect width="80" height="80" rx="40" fill="black"/>
<path d="M36.1818 39L36 39.8333L36.9091 44C37.6364 42.6667 38 41.1667 38 39.6667C38 39.5 38 39.1667 37.8182 39H36.1818Z" fill="white"/>
<path d="M64.0518 33.3459C63.5777 32.8742 62.9455 32.717 62.3133 32.717H59.4686L60.1008 29.5723C60.4169 28.7862 59.6267 28 58.8365 28H35.2887C34.4985 28 33.8663 28.7862 34.0244 29.5723L34.6565 32.8742H35.1307C36.395 32.8742 37.3432 33.9748 37.0271 35.2327L36.8691 36.3333H37.8173C38.6075 36.3333 39.2397 36.6478 39.8718 37.1195C40.662 37.9057 40.9781 39.0063 40.9781 40.1069C40.8201 43.0943 39.7138 46.0818 37.6593 48.4403L38.2914 51.5849C38.4495 52.3711 39.2397 53 40.0299 53H53.9373C54.7275 53 55.5177 52.3711 55.6757 51.5849L56.6239 47.0252H58.0463C59.1526 47.0252 60.2588 46.5535 61.2071 45.9245C63.2616 44.195 65 39.1635 65 36.1761C65 35.0755 64.6839 33.9748 64.0518 33.3459ZM35.7628 32.5598L35.1307 29.2579V29.1006H35.2887H58.8365H58.9945V29.2579L58.3624 32.5598H35.7628ZM60.4169 44.8239C59.7847 45.2956 58.9945 45.6101 58.0463 45.6101H56.782L59.1526 33.9748H62.3133C62.6294 33.9748 62.9455 34.1321 63.1035 34.2893C63.5777 34.761 63.7357 35.3899 63.7357 36.1761C63.7357 38.6918 62.1553 43.2516 60.4169 44.8239Z" fill="white"/>
<path d="M39.06 38.0163C38.7467 37.7073 38.12 37.3984 37.65 37.3984H35.6134L36.0834 35.2358C36.2401 34.6179 35.7701 34 35.1434 34H16.9704C16.3437 34 15.8737 34.6179 16.0304 35.2358L19.3203 51.9187C19.477 52.5366 19.947 53 20.7303 53H31.3835C32.0101 53 32.6368 52.5366 32.7934 51.9187L33.4201 48.6748H34.5168C35.4567 48.6748 36.2401 48.3659 37.0234 47.748C38.7467 45.5854 39.8433 43.1138 40 40.3333C40 39.4065 39.6867 38.6341 39.06 38.0163ZM18.2237 40.6423L17.127 35.0813H34.8301L33.7334 40.6423H18.2237ZM36.0834 46.6667C35.6134 46.9756 34.9867 47.2846 34.3601 47.2846H33.5768L35.3001 38.7886H37.65C37.8067 38.7886 37.9634 38.9431 38.12 38.9431C38.4334 39.252 38.59 39.7154 38.59 40.1789C38.4334 42.4959 37.4934 44.813 36.0834 46.6667Z" fill="white"/>
</svg>
