<svg width="80" height="80" viewBox="0 0 80 80" fill="none" xmlns="http://www.w3.org/2000/svg">
<rect width="80" height="80" rx="40" fill="black"/>
<path d="M31.2943 55.1859L29.2832 58.6662L30.7557 59.5171L32.7668 56.0368L31.2943 55.1859Z" fill="white"/>
<path d="M25.5382 48.8483L22.057 50.8582L22.9074 52.331L26.3885 50.3211L25.5382 48.8483Z" fill="white"/>
<path d="M23.0181 30.1L22.1706 31.5745L25.6558 33.5776L26.5032 32.1031L23.0181 30.1Z" fill="white"/>
<path d="M30.7015 23.0402L29.2282 23.8897L31.2361 27.3721L32.7094 26.5226L30.7015 23.0402Z" fill="white"/>
<path d="M41.0457 55.9717H39.345V63.8566H41.0457V55.9717Z" fill="white"/>
<path d="M25.585 40.3563H17.7V42.057H25.585V40.3563Z" fill="white"/>
<path d="M60.8355 40.3563C60.6809 37.2642 59.9079 34.3266 58.5164 31.6983L57.7434 30.3068C56.0427 27.6785 53.8782 25.514 51.4045 23.9679L50.013 23.1949C47.3847 21.8034 44.2925 21.0304 41.355 20.8758V18.7113H39.6543V26.5963H41.355V24.741C49.8584 25.2048 56.6611 32.0075 57.1249 40.5109H55.2696V42.2116H57.1249C56.8157 47.7775 53.7236 52.8795 48.9307 55.8171L48.1577 56.2809L50.1676 59.6822L51.5591 58.9092C54.1874 57.2085 56.3519 55.044 57.898 52.5703L58.671 51.1788C60.0625 48.5505 60.8355 45.4584 60.9901 42.5208H63V40.3563H60.8355Z" fill="white"/>
<path d="M30.2232 35.8727L31.9239 37.2642C32.3877 36.3365 33.3154 35.5635 34.3976 35.5635C35.4799 35.4089 36.4075 36.1819 36.4075 37.2642C36.2529 38.501 35.7891 39.7379 35.016 40.8201L30.2232 47.9321V48.7051H39.9635V46.2314H34.3976L37.4898 41.5932C38.4174 40.3563 39.0358 38.9648 39.1904 37.4188C39.1904 36.3365 38.7266 35.2543 37.9536 34.6358C36.8713 33.8628 35.6345 33.5536 34.3976 33.5536C33.47 33.5536 32.6969 33.8628 31.9239 34.3266C31.1509 34.6358 30.5324 35.2543 30.2232 35.8727Z" fill="white"/>
<path d="M51.4044 43.1392C51.4044 41.9024 51.0952 40.5109 50.1676 39.5833C49.2399 38.6556 48.0031 38.1918 46.7662 38.3464C46.1478 38.3464 45.684 38.501 45.0655 38.6556V36.0273H50.6314V33.7082H42.5918V41.1293L43.5195 41.7478C44.1379 40.9747 45.0655 40.5109 45.9932 40.5109C46.7662 40.5109 47.3846 40.6655 48.0031 41.284C48.4669 41.9024 48.7761 42.6754 48.6215 43.4485C48.6215 45.613 47.6939 46.5406 45.9932 46.5406C44.9109 46.386 43.9833 45.9222 43.2102 45.3037L42.128 47.4682C43.2102 48.3959 44.6017 48.8597 45.9932 48.8597C49.5491 48.8597 51.4044 47.0044 51.4044 43.1392Z" fill="white"/>
</svg>
