<svg width="80" height="80" viewBox="0 0 80 80" fill="none" xmlns="http://www.w3.org/2000/svg">
<rect width="80" height="80" rx="40" fill="black"/>
<path fill-rule="evenodd" clip-rule="evenodd" d="M36.048 20.2171C34.0897 20.5429 31.8085 21.1897 30.195 21.8768C21.4781 25.5887 15.6034 33.7642 15.0287 42.9833C14.8796 45.3739 15.2927 46.1554 16.7056 46.1554C17.9883 46.1554 18.3382 45.6047 18.5021 43.3276C18.8227 38.873 20.2084 35.1656 22.8313 31.7463C31.3882 20.5907 48.6116 20.5907 57.1684 31.7463C59.7913 35.1656 61.1771 38.873 61.4977 43.3276C61.6617 45.6071 62.0109 46.1554 63.2992 46.1554C64.7329 46.1554 65.1128 45.4517 64.973 43.0544C64.4347 33.8202 58.545 25.5973 49.8052 21.8773C48.0914 21.1479 45.9933 20.5616 43.8694 20.2189C42.0655 19.9279 37.7926 19.9268 36.048 20.2171ZM36.677 29.1745C33.2846 29.8997 29.9006 31.8969 27.7708 34.4309C20.3509 43.2585 24.6598 56.5841 35.9102 59.6027C37.7793 60.1041 42.0891 60.1377 43.8694 59.6648C48.4194 58.4559 51.9481 55.7258 54.074 51.7694C57.2904 45.7836 56.2281 38.4594 51.4437 33.6355C49.3777 31.5527 46.8031 30.0627 43.9985 29.327C42.1273 28.8361 38.6029 28.7628 36.677 29.1745ZM43.2107 32.6655C44.3581 32.9722 46.307 33.8551 46.9752 34.3709L47.4379 34.7282L42.9135 39.1894C40.4252 41.6433 38.337 43.8208 38.2732 44.0284C38.1129 44.551 38.3027 45.414 38.6449 45.718C39.0853 46.1092 39.8123 46.3279 40.2994 46.2161C40.5826 46.151 42.3828 44.514 45.3199 41.651L49.8989 37.1874L50.2371 37.5913C50.4231 37.8135 50.8257 38.4831 51.1317 39.0794C53.4396 43.5765 52.6357 49.0455 49.1187 52.7734C47.5907 54.393 45.6154 55.5965 43.3754 56.2727C41.968 56.6977 38.0317 56.6977 36.6243 56.2727C34.3459 55.5849 32.3761 54.3735 30.8254 52.7065C26.9129 48.5006 26.4648 42.4492 29.7113 37.6613C31.5265 34.9841 34.1523 33.2422 37.473 32.512C38.8668 32.2057 41.7821 32.2836 43.2107 32.6655Z" fill="white"/>
</svg>
