<svg width="96" height="96" viewBox="0 0 96 96" fill="none" xmlns="http://www.w3.org/2000/svg">
<path d="M48.0062 4.7998L39.0811 13.7249H56.9319L48.0062 4.7998Z" fill="white"/>
<path d="M75.4266 28.8085V31.4426C78.566 33.2146 80.3138 35.2328 80.3138 37.2031C80.3138 42.5983 67.3293 48.3757 47.9997 48.3757C28.67 48.3757 15.6856 42.5983 15.6856 37.2031C15.6856 35.1877 17.5002 33.1196 20.7776 31.3186V28.7007C16.0807 31.013 13.2856 33.9549 13.2856 37.2031V77.6132C13.2856 85.2218 28.5111 91.1826 47.9615 91.1984V91.1999C47.9744 91.1999 47.9868 91.1992 47.9997 91.1992C48.0127 91.1992 48.025 91.1999 48.038 91.1999V91.1984C67.4884 91.1826 82.7138 85.2218 82.7138 77.6132V37.2031C82.7138 34.004 79.9951 31.1045 75.4266 28.8085ZM80.3138 77.6132C80.3138 83.0119 67.3306 88.7914 47.9997 88.7992C28.6687 88.7914 15.6856 83.0119 15.6856 77.6132V69.1624C20.6949 74.2156 33.0975 77.7156 47.9997 77.7156C62.902 77.7156 75.3045 74.2156 80.3138 69.1624V77.6132ZM80.3138 64.1429C80.3138 69.5381 67.3293 75.3156 47.9997 75.3156C28.67 75.3156 15.6856 69.5381 15.6856 64.1429V55.6928C20.6949 60.7461 33.0975 64.246 47.9997 64.246C62.902 64.246 75.3045 60.7461 80.3138 55.6928V64.1429ZM80.3138 50.6733C80.3138 56.0687 67.3293 61.846 47.9997 61.846C28.67 61.846 15.6856 56.0687 15.6856 50.6733V42.2226C20.6949 47.2757 33.0975 50.7757 47.9997 50.7757C62.902 50.7757 75.3045 47.2757 80.3138 42.2226V50.6733Z" fill="white"/>
<path d="M24.8585 36.421H27.8756V20.2261H22.8833V23.0427H24.8585V36.421Z" fill="white"/>
<path d="M35.1539 36.6425C38.6148 36.6425 40.6558 34.5357 40.6558 31.3623V25.3956C40.6558 22.4212 38.5046 20.0039 35.1539 20.0039C31.8921 20.0039 29.6521 22.3554 29.6521 25.417V31.3623C29.6521 34.4684 31.6044 36.6425 35.1539 36.6425ZM32.6692 25.5057C32.6692 24.086 33.5566 22.9767 35.1753 22.9767C36.7513 22.9767 37.6387 23.9756 37.6387 25.5057V31.2522C37.6387 32.5834 36.7513 33.6484 35.1326 33.6484C33.5123 33.6484 32.6692 32.6263 32.6692 31.2293V25.5057Z" fill="white"/>
<path d="M42.4321 25.417V31.3623C42.4321 34.4684 44.3843 36.6425 47.9339 36.6425C51.3947 36.6425 53.4358 34.5357 53.4358 31.3623V25.3956C53.4358 22.4212 51.2846 20.0039 47.9339 20.0039C44.672 20.0039 42.4321 22.3554 42.4321 25.417ZM50.4185 25.5057V31.2522C50.4185 32.5834 49.5313 33.6484 47.9124 33.6484C46.2921 33.6484 45.4492 32.6263 45.4492 31.2293V25.5057C45.4492 24.086 46.3366 22.9767 47.9553 22.9767C49.5313 22.9767 50.4185 23.9756 50.4185 25.5057Z" fill="white"/>
<path d="M59.028 36.421L72.9387 20.2261H69.1229L55.2122 36.421H59.028Z" fill="white"/>
<path d="M64.8191 32.6936C64.8191 34.8907 66.5938 36.6656 68.7893 36.6656C70.965 36.6656 72.7399 34.8907 72.7399 32.6936C72.7399 30.5197 70.965 28.7446 68.7893 28.7446C66.5938 28.7446 64.8191 30.5197 64.8191 32.6936ZM70.2093 32.6936C70.2093 33.4923 69.5666 34.1349 68.7893 34.1349C67.9908 34.1349 67.3481 33.4923 67.3481 32.6936C67.3481 31.9165 67.9908 31.2523 68.7893 31.2523C69.5666 31.2523 70.2093 31.9165 70.2093 32.6936Z" fill="white"/>
<path d="M55.4126 23.9527C55.4126 26.1482 57.1876 27.9231 59.3832 27.9231C61.5801 27.9231 63.3336 26.1482 63.3336 23.9527C63.3336 21.7786 61.5801 20.0039 59.3832 20.0039C57.1876 20.0039 55.4126 21.7786 55.4126 23.9527ZM59.3832 22.51C60.1603 22.51 60.8257 23.177 60.8257 23.9527C60.8257 24.7513 60.1603 25.417 59.3832 25.417C58.6073 25.417 57.9419 24.7513 57.9419 23.9527C57.9419 23.177 58.6073 22.51 59.3832 22.51Z" fill="white"/>
</svg>
