<svg width="35" height="35" viewBox="0 0 35 35" fill="none" xmlns="http://www.w3.org/2000/svg">
<g clip-path="url(#clip0_60_223)">
<g clip-path="url(#clip1_60_223)">
<path d="M32.9492 5.46875H30.7286C30.7171 2.86095 29.6151 0 27.0703 0C25.956 0 25.3421 0.4422 24.7124 0.920448C24.7071 0.924187 24.7015 0.928192 24.6962 0.932465L21.1158 3.70316C20.3844 3.0743 19.3684 2.73438 18.1836 2.73438C17.0685 2.73438 16.0933 3.04119 15.3707 3.60783C13.9856 2.53624 12.1495 1.11538 11.6291 0.712967C11.0264 0.246468 10.3036 0 9.5388 0C6.982 0 5.89252 2.88151 5.88078 5.46875H2.05078C0.919914 5.46875 0 6.38866 0 7.51953V12.9883C0 13.3659 0.306015 13.6719 0.683594 13.6719H1.36719V32.9492C1.36719 34.0801 2.2871 35 3.41797 35H31.1719C32.31 35 33.6328 34.1041 33.6328 32.9492V13.6719H34.3164C34.694 13.6719 35 13.3659 35 12.9883V7.51953C35 6.38866 34.0801 5.46875 32.9492 5.46875ZM25.5309 2.01527C25.9451 1.70151 26.3109 1.36719 27.0703 1.36719C28.9112 1.36719 29.4784 4.24709 29.3403 6.10001C29.2052 7.92942 28.4914 9.30115 27.5646 9.5137C26.7739 9.69448 26.297 9.45148 25.6756 9.07871L22.1402 7.0015C22.1556 6.94649 22.1695 6.89148 22.1818 6.83594H24.3359C24.7135 6.83594 25.0195 6.52992 25.0195 6.15234C25.0195 5.77476 24.7135 5.46875 24.3359 5.46875H22.1848C22.1332 5.23323 22.0547 5.00465 21.95 4.78622L25.5309 2.01527ZM26.724 15.9256L24.8548 15.4247C24.6796 15.3777 24.493 15.4022 24.3359 15.493C24.1789 15.5835 24.0644 15.7331 24.0174 15.908L23.4801 17.9142L19.2173 9.47632C20.0504 9.31877 20.758 8.96603 21.2854 8.44692L26.724 15.9256ZM15.1566 8.51822C15.6762 8.99727 16.359 9.32358 17.151 9.47445L12.8873 17.9142L12.3498 15.908C12.2521 15.5435 11.8772 15.3269 11.5127 15.4247L9.67072 15.9181L15.1566 8.51822ZM18.1836 10.4622L19.5508 13.1685V33.6328H16.8164V13.1685L18.1836 10.4622ZM20.8913 6.15234C20.8913 7.17934 20.0149 8.19298 18.2098 8.20312H18.1572C16.3083 8.19324 15.4743 7.15076 15.4759 6.15314C15.477 5.12215 16.3566 4.10156 18.1836 4.10156C20.021 4.10156 20.8926 5.12722 20.8913 6.15234ZM9.5388 1.36719C9.99783 1.36719 10.4315 1.51485 10.793 1.7947C11.6732 2.47562 13.5576 3.93387 14.4876 4.65324C14.3496 4.91093 14.2481 5.18543 14.1848 5.46875H12.0312C11.6537 5.46875 11.3477 5.77476 11.3477 6.15234C11.3477 6.52992 11.6537 6.83594 12.0312 6.83594H14.1843C14.2059 6.93287 14.2316 7.02873 14.262 7.12326C14.2212 7.14729 14.6951 6.86878 10.9223 9.08566C10.9188 9.08806 10.9153 9.09046 10.9116 9.09286L10.9113 9.09206C10.3204 9.44427 9.85203 9.69822 9.0456 9.5137C8.11874 9.30141 7.40471 7.92915 7.26906 6.09974C7.13127 4.24843 7.69737 1.36719 9.5388 1.36719ZM1.36719 7.51953C1.36719 7.14249 1.67374 6.83594 2.05078 6.83594H5.97424C6.28399 9.00581 7.31312 10.5193 8.74039 10.8464C10.4913 11.2467 11.4187 10.3111 12.5808 9.69715L10.6478 12.3047H1.36719V7.51953ZM2.73438 32.9492V13.6719H9.63413L7.40524 16.6786C7.23194 16.9123 7.22553 17.2298 7.38922 17.4704C7.55264 17.7107 7.85065 17.8215 8.13129 17.7459L11.2061 16.9221L12.0299 19.997C12.1033 20.2707 12.3381 20.471 12.6198 20.5001C12.9026 20.5289 13.1725 20.3812 13.3004 20.1284L15.4492 15.8749V33.6328H3.41797C3.04092 33.6328 2.73438 33.3263 2.73438 32.9492ZM32.2656 32.9492C32.2656 33.213 31.6685 33.6328 31.1719 33.6328H20.918V15.8749L23.0667 20.1284C23.184 20.3601 23.4211 20.5038 23.6769 20.5038C23.9861 20.5038 24.2572 20.2963 24.3373 19.997L25.1611 16.9221L28.2359 17.7462C28.5157 17.8212 28.8124 17.7118 28.9764 17.4728C29.1403 17.234 29.136 16.9179 28.9657 16.6837L26.7755 13.6719H32.2656V32.9492ZM33.6328 12.3047H25.7814L23.7773 9.54895L24.9659 10.2472C25.8535 10.8099 26.7237 11.1084 27.8698 10.8464C29.2971 10.5193 30.3265 9.00555 30.6351 6.83594H32.9492C33.3263 6.83594 33.6328 7.14249 33.6328 7.51953V12.3047Z" fill="black"/>
</g>
</g>
<defs>
<clipPath id="clip0_60_223">
<rect width="35" height="35" fill="white"/>
</clipPath>
<clipPath id="clip1_60_223">
<rect width="35" height="35" fill="white"/>
</clipPath>
</defs>
</svg>
