<svg width="33" height="33" viewBox="0 0 33 33" fill="none" xmlns="http://www.w3.org/2000/svg">
<path d="M28.7276 19.8653C28.5567 19.8653 28.3905 19.8002 28.2643 19.6806L26.3277 17.8433H21.8818C20.3988 17.8433 19.1923 16.6368 19.1923 15.1538V11.1125C19.1923 9.62952 20.3988 8.42303 21.8818 8.42303H29.9644C31.4474 8.42303 32.6539 9.62952 32.6539 11.1125V15.1538C32.6539 16.572 31.5504 17.7375 30.1568 17.8364L29.3297 19.4929C29.2345 19.6837 29.0544 19.8181 28.8443 19.8551C28.8055 19.862 28.7664 19.8653 28.7276 19.8653ZM21.8818 9.76919C21.1411 9.76919 20.5385 10.3718 20.5385 11.1125V15.1538C20.5385 15.8945 21.1411 16.4971 21.8818 16.4971H26.5962C26.7686 16.4971 26.9343 16.5632 27.0594 16.6819L28.5315 18.0784L29.135 16.8695C29.249 16.6413 29.4821 16.4971 29.7372 16.4971H29.9644C30.7051 16.4971 31.3077 15.8945 31.3077 15.1538V11.1125C31.3077 10.3718 30.7051 9.76919 29.9644 9.76919H21.8818Z" fill="black"/>
<path d="M29.2885 12.4615H22.5577C22.186 12.4615 21.8846 12.1602 21.8846 11.7884C21.8846 11.4167 22.186 11.1154 22.5577 11.1154H29.2885C29.6602 11.1154 29.9616 11.4167 29.9616 11.7884C29.9616 12.1602 29.6602 12.4615 29.2885 12.4615Z" fill="black"/>
<path d="M29.2885 15.1538H22.5577C22.186 15.1538 21.8846 14.8525 21.8846 14.4808C21.8846 14.109 22.186 13.8077 22.5577 13.8077H29.2885C29.6602 13.8077 29.9616 14.109 29.9616 14.4808C29.9616 14.8525 29.6602 15.1538 29.2885 15.1538Z" fill="black"/>
<path d="M4.27242 25.25C4.23358 25.25 4.19455 25.2466 4.15571 25.2398C3.94564 25.2028 3.76553 25.0685 3.67029 24.8776L2.84321 23.2211C1.44967 23.1221 0.346161 21.9567 0.346161 20.5384V16.4972C0.346161 15.0142 1.55265 13.8077 3.03564 13.8077H11.1182C12.6012 13.8077 13.8077 15.0142 13.8077 16.4972V20.5384C13.8077 22.0214 12.6012 23.2279 11.1182 23.2279H6.67234L4.7357 25.0652C4.60963 25.1848 4.44338 25.25 4.27242 25.25ZM3.03564 15.1538C2.29492 15.1538 1.69231 15.7564 1.69231 16.4972V20.5384C1.69231 21.2792 2.29492 21.8818 3.03564 21.8818H3.2628C3.5179 21.8818 3.75105 22.026 3.86501 22.2542L4.46855 23.463L5.94057 22.0665C6.06563 21.9479 6.23141 21.8818 6.40379 21.8818H11.1182C11.8589 21.8818 12.4615 21.2792 12.4615 20.5384V16.4972C12.4615 15.7564 11.8589 15.1538 11.1182 15.1538H3.03564Z" fill="black"/>
<path d="M10.4423 17.8462H3.71156C3.33982 17.8462 3.03848 17.5448 3.03848 17.1731C3.03848 16.8014 3.33982 16.5 3.71156 16.5H10.4423C10.8141 16.5 11.1154 16.8014 11.1154 17.1731C11.1154 17.5448 10.8141 17.8462 10.4423 17.8462Z" fill="black"/>
<path d="M10.4423 20.5385H3.71156C3.33982 20.5385 3.03848 20.2371 3.03848 19.8654C3.03848 19.4937 3.33982 19.1923 3.71156 19.1923H10.4423C10.8141 19.1923 11.1154 19.4937 11.1154 19.8654C11.1154 20.2371 10.8141 20.5385 10.4423 20.5385Z" fill="black"/>
<path d="M24.5769 32.6538H8.42307C7.30967 32.6538 6.40384 31.748 6.40384 30.6346V22.5577C6.40384 22.186 6.70518 21.8846 7.07692 21.8846C7.44866 21.8846 7.88217 22.186 7.88217 22.5577V30.6346C7.88217 31.0058 8.18411 31.3077 8.55524 31.3077H24.5769C24.9481 31.3077 25.25 31.0058 25.25 30.6346V17.1731C25.25 16.8014 25.5514 16.5 25.9231 16.5C26.2947 16.5 26.5961 16.8014 26.5961 17.1731V30.6346C26.5961 31.748 25.6903 32.6538 24.5769 32.6538Z" fill="black"/>
<path d="M7.07692 15.1538C6.70518 15.1538 6.40384 14.8525 6.40384 14.4807V2.36536C6.40384 1.25196 7.30967 0.34613 8.42307 0.34613H24.5769C25.6903 0.34613 26.5961 1.25196 26.5961 2.36536V9.09613C26.5961 9.46787 26.2947 9.76921 25.9231 9.76921C25.5514 9.76921 25 9.46787 25 9.09613V2.36536C25 1.99423 24.6981 1.69228 24.3269 1.69228H8.42307C8.05194 1.69228 7.74999 1.99423 7.74999 2.36536V14.4807C7.74999 14.8525 7.44866 15.1538 7.07692 15.1538Z" fill="black"/>
<path d="M25.9231 5.73074H7.07692C6.70518 5.73074 6.40384 5.4294 6.40384 5.05766C6.40384 4.68592 6.70518 4.38458 7.07692 4.38458H25.9231C26.2947 4.38458 26.5961 4.68592 26.5961 5.05766C26.5961 5.4294 26.2947 5.73074 25.9231 5.73074Z" fill="black"/>
<path d="M25.9231 28.6154H7.07692C6.70518 28.6154 6.40384 28.314 6.40384 27.9423C6.40384 27.5706 6.70518 27.2692 7.07692 27.2692H25.9231C26.2947 27.2692 26.5961 27.5706 26.5961 27.9423C26.5961 28.314 26.2947 28.6154 25.9231 28.6154Z" fill="black"/>
<path d="M17.1731 3.71151H15.8269C15.4552 3.71151 15.1538 3.41017 15.1538 3.03843C15.1538 2.66669 15.4552 2.36536 15.8269 2.36536H17.1731C17.5447 2.36536 17.8461 2.66669 17.8461 3.03843C17.8461 3.41017 17.5447 3.71151 17.1731 3.71151Z" fill="black"/>
<path d="M17.1731 30.6346H15.8269C15.4552 30.6346 15.1538 30.3332 15.1538 29.9615C15.1538 29.5899 15.4552 29.2885 15.8269 29.2885H17.1731C17.5447 29.2885 17.8461 29.5899 17.8461 29.9615C17.8461 30.3332 17.5447 30.6346 17.1731 30.6346Z" fill="black"/>
</svg>
