<svg width="35" height="35" viewBox="0 0 35 35" fill="none" xmlns="http://www.w3.org/2000/svg">
<g clip-path="url(#clip0_60_413)">
<path d="M33.4091 17.6468V12.7276C33.4091 11.0596 32.1152 9.70301 30.4805 9.57147L25.9122 1.5922C25.4889 0.854225 24.8052 0.326772 23.9873 0.107753C23.1731 -0.109776 22.3218 0.00446952 21.5932 0.428564L5.9327 9.54582H3.18223C1.42746 9.54582 0.000442505 10.9728 0.000442505 12.7276V31.8182C0.000442505 33.573 1.42739 35 3.18223 35H30.2273C31.982 35 33.4091 33.573 33.4091 31.8182V26.899C34.3329 26.5696 34.9999 25.6949 34.9999 24.6592V19.8866C34.9999 18.8509 34.3329 17.9763 33.4091 17.6468ZM28.6319 9.54582H21.6988L26.8987 6.51846L28.6319 9.54582ZM26.1083 5.1379L18.537 9.54582H15.3966L25.3231 3.76644L26.1083 5.1379ZM22.394 1.80346C22.7537 1.59294 23.1739 1.53701 23.5755 1.64425C23.9818 1.75297 24.3205 2.01554 24.531 2.38296L24.5327 2.38587L12.2349 9.54582H9.09458L22.394 1.80346ZM31.8181 31.8182C31.8181 32.6952 31.1042 33.4091 30.2273 33.4091H3.18223C2.30526 33.4091 1.59138 32.6952 1.59138 31.8182V12.7276C1.59138 11.8506 2.30526 11.1367 3.18223 11.1367H30.2273C31.1042 11.1367 31.8181 11.8506 31.8181 12.7276V17.5003H27.0455C24.4137 17.5003 22.2728 19.6411 22.2728 22.2729C22.2728 24.9047 24.4137 27.0456 27.0455 27.0456H31.8181V31.8182ZM33.4091 24.6592C33.4091 25.0981 33.0525 25.4547 32.6136 25.4547H27.0455C25.2907 25.4547 23.8637 24.0277 23.8637 22.2729C23.8637 20.5181 25.2906 19.0911 27.0455 19.0911H32.6136C33.0525 19.0911 33.4091 19.4476 33.4091 19.8866V24.6592Z" fill="black"/>
<path d="M27.0453 20.6821C26.1683 20.6821 25.4544 21.396 25.4544 22.2729C25.4544 23.1499 26.1683 23.8638 27.0453 23.8638C27.9222 23.8638 28.6361 23.1499 28.6361 22.2729C28.6362 21.396 27.9223 20.6821 27.0453 20.6821Z" fill="black"/>
</g>
<defs>
<clipPath id="clip0_60_413">
<rect width="35" height="35" fill="white"/>
</clipPath>
</defs>
</svg>
