<svg width="124" height="124" viewBox="0 0 124 124" fill="none" xmlns="http://www.w3.org/2000/svg">
<path d="M59.3387 122.45C58.8334 122.45 58.3281 122.45 57.8228 122.45C55.8047 122.075 53.7509 122.151 51.7158 121.994C46.9464 121.628 42.484 120.125 38.1517 118.268C30.2715 114.892 23.2826 110.169 17.4282 103.869C9.85337 95.7171 4.64537 86.2776 2.31727 75.3641C1.58567 71.9339 1.58412 68.4015 1.58102 64.8923C1.58102 62.7052 1.58102 60.5197 1.58102 58.3373C1.22297 48.6002 4.18812 39.759 8.89702 31.3952C9.89987 29.6143 10.5276 29.4469 12.3039 30.4652C23.5166 36.8915 34.7696 43.2496 46.0149 49.6186C59.8517 57.4569 73.6669 65.334 87.5177 73.1491C96.4875 78.2099 105.422 83.3342 114.387 88.4027C116.298 89.483 116.492 90.1495 115.376 92.0452C106.363 107.334 93.2976 117.254 76.0058 121.46C72.54 122.303 68.9394 122.269 65.3713 122.298C63.3609 122.386 61.3413 122.117 59.3387 122.45Z" fill="#8F55D8"/>
<path d="M41.1045 82.8211C43.8325 81.4261 46.5543 80.0172 49.29 78.6392C56.3286 75.0975 63.3749 71.5697 70.4196 68.0372C70.6444 67.9241 70.8753 67.8078 71.1156 67.7396C71.779 67.5521 72.4424 67.7737 72.6935 68.3224C73.0081 69.0106 72.1851 69.0587 71.8022 69.2524C63.457 73.4576 55.0979 77.6333 46.7495 81.8307C45.0058 82.708 43.2931 83.6473 41.616 84.6904C44.9841 84.337 48.2329 83.5341 51.4383 82.5344C59.9044 79.8932 67.983 76.3282 75.8989 72.3695C76.5313 72.0533 77.1497 71.6921 77.8116 71.4581C78.4703 71.2256 79.0857 71.5991 79.3461 72.123C79.5739 72.5803 78.9245 72.7213 78.6005 72.8841C67.4343 78.4982 56.1162 83.7155 43.7565 86.2203C41.7679 86.6233 39.7529 86.7364 37.741 86.9131C36.9117 86.986 36.1538 86.7643 35.4284 86.3443C27.0646 81.4974 19.2076 75.9097 11.563 70.0135C9.7588 68.6216 9.80685 67.58 11.6591 66.3586C19.9671 60.8824 28.2875 55.4248 36.625 49.9952C37.3085 49.5503 37.9657 48.8373 38.9252 49.0652C39.3049 49.1551 39.7606 49.3411 39.8769 49.741C40.0102 50.1967 39.4956 50.2664 39.2197 50.4323C33.4552 53.8888 27.9295 57.7126 22.2797 61.3458C19.2216 63.3128 16.2223 65.3743 13.1704 67.3505C12.2512 67.9458 12.1164 68.3333 13.0851 69.068C20.1717 74.4434 27.4133 79.5894 35.0548 84.1603C35.9709 84.709 36.4855 84.6424 37.2202 83.8581C44.7873 75.7826 53.7246 69.4927 63.2881 64.0289C63.5066 63.9033 63.7298 63.7778 63.9654 63.6941C64.6381 63.4538 65.2969 63.753 65.5619 64.2412C65.9308 64.9186 65.0721 64.976 64.7125 65.179C56.3658 69.8879 48.5321 75.3005 41.5431 81.888C41.3246 82.0942 41.0533 82.243 40.8053 82.4197C40.9045 82.553 41.0037 82.6863 41.1045 82.8211Z" fill="#FDFDFD"/>
<path d="M34.7959 76.7234C34.8796 76.7312 34.6378 76.7792 34.4828 76.6862C32.9545 75.7609 31.5207 75.5191 30.0606 76.9063C29.6576 77.2892 29.002 76.8645 28.537 76.5421C26.9188 75.423 25.3223 74.2729 23.6855 73.1817C22.7121 72.5322 22.399 71.875 23.4948 71.0985C24.1629 70.6242 23.9257 70.3064 23.4995 69.7918C22.6144 68.7223 22.726 67.7505 23.8575 66.9553C27.7372 64.2289 31.6447 61.5443 35.5523 58.8566C36.3676 58.2955 37.3038 58.1963 38.1315 58.7093C39.1576 59.3433 40.0271 59.2859 40.8316 58.4412C42.4684 56.7222 44.0974 56.9594 45.8892 58.2505C47.1106 59.1309 48.5056 59.768 49.7906 60.5662C51.1267 61.397 51.122 61.8403 49.8572 62.7595C49.572 62.9672 49.2822 63.1702 48.9877 63.364C48.3909 63.7546 48.1755 64.0785 48.7691 64.7698C49.7286 65.8889 49.5736 66.8143 48.3646 67.7133C44.519 70.573 40.6487 73.3971 36.7876 76.2367C36.2792 76.6056 35.7073 76.7637 34.7959 76.7234Z" fill="#FCFCFC"/>
<path d="M122.45 58.8209C122.449 60.8545 122.447 62.8881 122.445 64.9217C122.18 72.0083 120.55 78.7849 117.87 85.3352C117.379 86.5365 116.929 86.8434 115.67 86.1195C106.259 80.7131 96.8023 75.3842 87.3643 70.0228C85.8174 69.1439 85.8252 69.0695 87.3783 68.186C95.0213 63.8383 102.523 59.2766 109.356 53.7044C110.566 52.717 111.735 51.6661 112.82 50.5439C114.203 49.1133 114.12 48.6421 112.335 47.8035C109.776 46.6023 107.19 45.4553 104.585 44.361C98.3926 41.7601 92.1538 39.2754 85.6671 37.4805C84.5898 37.1829 83.5002 37.0202 82.3795 37.0248C77.5311 37.0434 72.6827 37.0543 67.8343 37.0543C64.7204 37.0543 61.9164 38.1346 59.1435 39.4149C54.743 41.4454 50.2976 43.3783 45.891 45.3979C45.1144 45.7544 44.5022 45.7265 43.7706 45.3096C33.725 39.5885 23.6733 33.8737 13.5983 28.2053C12.4885 27.5807 12.4885 27.1048 13.2092 26.1578C23.8298 12.1923 37.769 3.97415 55.2437 1.85375C56.4945 1.70185 57.7578 1.6476 59.0148 1.5484C61.0515 1.5484 63.0867 1.54995 65.1234 1.54995C95.8661 2.8473 121.083 28.0395 122.45 58.8209Z" fill="#8F55D8"/>
<path d="M90.8237 52.1744C88.5468 52.9525 86.2698 53.7276 83.9929 54.5088C79.687 55.9859 75.5175 57.7886 71.4348 59.7927C70.6179 60.1926 69.9871 60.1864 69.1919 59.7323C62.1348 55.6976 55.0544 51.7033 47.9849 47.6919C47.647 47.4997 47.1138 47.3633 47.1913 46.9045C47.2316 46.6658 47.6919 46.4519 48.0019 46.3124C52.7868 44.1486 57.5763 41.9956 62.3673 39.8473C63.1733 39.4862 63.9545 39.3591 64.8349 39.7729C73.2483 43.713 81.6756 47.6206 90.0983 51.5421C90.3618 51.6614 90.6811 51.7296 90.8237 52.1744Z" fill="#8F55D8"/>
<path d="M67.3786 38.9096C73.1756 38.4849 78.6347 38.2787 84.0488 38.9251C87.3999 39.325 90.5573 40.7107 93.7301 41.8809C98.7986 43.7502 103.788 45.8117 108.729 47.9941C108.905 48.0716 109.058 48.1956 109.525 48.4886C107.319 48.8234 105.405 49.0636 103.511 49.4155C100.733 49.9316 97.9662 50.5082 95.2057 51.1034C94.4415 51.2677 93.7441 51.3406 93.0016 50.9949C84.7215 47.1401 76.4321 43.3007 68.1489 39.4536C67.9769 39.3715 67.8327 39.2335 67.3786 38.9096Z" fill="#8F55D8"/>
<path d="M106.843 50.9903C105.578 51.5762 104.313 52.1621 103.049 52.748C95.0769 56.4416 87.0959 60.1136 79.1475 63.8569C78.061 64.3684 77.21 64.4149 76.2196 63.7344C75.3066 63.1082 74.3162 62.5905 73.3335 62.0728C72.3554 61.5582 72.4128 61.1815 73.3815 60.7274C76.9496 59.0534 80.5782 57.5204 84.2858 56.1859C91.2887 53.664 98.4698 51.8211 105.84 50.7423C106.131 50.6989 106.431 50.702 106.727 50.6849C106.765 50.7872 106.804 50.888 106.843 50.9903Z" fill="#8F55D8"/>
<path d="M107.477 53.0657C105.862 54.2669 104.411 55.3984 102.909 56.4556C97.5368 60.2345 91.9119 63.6088 86.242 66.9196C84.6827 67.831 83.3357 68.1673 81.8616 66.9149C81.268 66.4112 80.0543 66.3089 80.0667 65.5401C80.076 64.8767 81.2292 64.7341 81.8957 64.4256C89.9061 60.7025 97.929 57.0058 105.952 53.3121C106.341 53.1323 106.721 52.8239 107.477 53.0657Z" fill="#8F55D8"/>
<path d="M34.923 75.2231C34.4843 74.9859 33.1901 75.2339 34.179 73.935C34.6781 73.2794 34.3743 72.7958 33.8023 72.4207C31.9857 71.2303 30.1521 70.0678 28.337 68.8758C27.6101 68.3984 26.9931 68.6495 26.3871 69.0851C25.6973 69.5811 25.0727 69.3625 24.6991 68.7487C24.307 68.107 25.0417 67.8978 25.4059 67.6436C28.9245 65.1837 32.4662 62.758 35.9847 60.2966C36.6559 59.8269 37.2511 59.8254 37.9455 60.2175C40.937 61.9055 43.9393 63.5733 46.9417 65.238C47.8453 65.7386 47.9879 66.1788 47.0455 66.8593C43.4433 69.4617 39.8752 72.1122 36.2994 74.7519C35.9227 75.0309 35.5383 75.2525 34.923 75.2231Z" fill="#8F55D8"/>
<path d="M32.1949 73.3691C32.1484 74.1255 29.6622 75.4756 29.0561 75.0834C27.8332 74.2898 26.6428 73.4435 25.4477 72.6081C25.2137 72.4438 24.9269 72.2841 25.0695 71.892C25.3966 70.9976 27.6766 70.1901 28.4873 70.7047C29.5072 71.351 30.5162 72.0129 31.5237 72.6794C31.8058 72.8654 32.1654 73.0018 32.1949 73.3691Z" fill="#8F55D8"/>
<path d="M48.4668 61.6931C48.4993 62.2092 46.5882 63.2741 46.0364 62.978C44.6181 62.217 43.2309 61.3955 41.839 60.5864C41.591 60.4422 41.1911 60.2144 41.4685 59.9121C42.0033 59.3293 42.7271 58.4474 43.4355 58.7496C45.1343 59.4735 46.6951 60.5213 48.3071 61.4451C48.3846 61.4885 48.4156 61.6094 48.4668 61.6931Z" fill="#8F55D8"/>
<path d="M36.1537 71.0101C34.5727 71.0256 33.2103 70.5498 32.5531 69.0215C31.9176 67.5397 32.3237 66.1292 33.3699 64.962C35.0098 63.133 37.0667 62.3565 39.4909 62.9904C41.7508 63.5825 42.7258 65.813 41.6066 67.8636C40.4488 69.9871 38.5764 71.0117 36.1537 71.0101Z" fill="#FCFCFC"/>
<path d="M38.0386 64.2784C39.5002 64.2738 40.4783 65.0379 40.4721 66.1818C40.4628 67.8202 38.2959 69.5933 36.2669 69.6197C34.8828 69.6383 33.8908 68.8245 33.8706 67.6512C33.8396 65.9369 35.8794 64.2862 38.0386 64.2784Z" fill="#8F55D8"/>
</svg>
