<svg width="124" height="124" viewBox="0 0 124 124" fill="none" xmlns="http://www.w3.org/2000/svg">
<path d="M65.2085 122.915C63.0711 122.913 60.9336 122.91 58.7962 122.909C44.4788 122.061 31.9827 116.845 21.3776 107.192C10.6873 97.4578 4.3524 85.374 2.1731 71.1032C1.9375 69.5578 1.86 67.9861 1.7081 66.4284C1.70655 63.7856 1.70655 61.1413 1.705 58.4986C2.28005 49.0963 5.0282 40.3558 9.6131 32.1486C10.3153 30.8915 10.9709 31.0248 12.0094 31.6185C21.886 37.262 31.7766 42.8792 41.6687 48.4949C58.683 58.1545 75.7036 67.8048 92.7195 77.4628C99.9734 81.5812 107.209 85.7321 114.486 89.8101C115.676 90.4766 115.579 91.14 115.008 92.1181C108.261 103.695 98.8869 112.383 86.6264 117.865C79.8173 120.908 72.6671 122.588 65.2085 122.915Z" fill="#242424"/>
<path d="M122.605 59.1046C122.605 61.3428 122.603 63.5794 122.603 65.8176C122.31 72.7678 120.632 79.3972 118.06 85.8343C117.552 87.1069 117.059 87.4448 115.76 86.6915C109.548 83.0893 103.297 79.5537 97.0331 76.0399C96.0318 75.4788 95.7528 74.9781 96.4115 73.9288C97.2718 72.5617 98.0003 71.1093 98.7334 69.6663C99.9099 67.3506 99.4309 65.7339 97.2315 64.4102C94.0431 62.4913 94.0323 62.4851 95.9171 59.2472C97.8251 55.9689 99.7595 52.7062 101.685 49.4372C102.615 47.8562 102.577 46.841 101.562 46.269C100.553 45.7002 99.6479 46.1497 98.7117 47.7384C96.4797 51.5297 94.2586 55.3272 92.0421 59.1278C91.0377 60.8499 91.0067 60.8762 89.2645 59.9214C87.5796 58.9976 85.9351 57.9963 84.2239 57.1252C83.2195 56.6153 83.066 56.1255 83.6628 55.1381C86.0389 51.198 88.3407 47.2114 90.6703 43.2419C90.799 43.0233 90.9385 42.8125 91.064 42.594C91.6406 41.5772 91.6577 40.6069 90.5541 39.9776C89.4954 39.3746 88.7142 39.928 88.1609 40.8549C86.5287 43.5906 84.909 46.3341 83.2892 49.0776C82.4925 50.4277 81.6462 51.7529 80.9317 53.1464C80.2884 54.4003 79.5785 54.7336 78.3509 53.847C77.5387 53.2595 76.6134 52.8069 75.6973 52.3853C73.8559 51.5359 72.3199 52.0474 71.3279 53.8051C70.4583 55.3458 69.6012 56.8958 68.7812 58.4644C68.3286 59.3309 67.814 59.4626 66.9693 58.9496C63.1206 56.6091 63.5112 57.7189 65.489 54.0779C68.0713 49.3241 70.8133 44.6555 73.4901 39.9528C77.1605 33.5063 74.9704 25.3285 68.6185 21.7697C62.186 18.166 54.2035 20.4398 50.5129 26.9312C47.5137 32.2074 44.4927 37.4697 41.5477 42.7769C40.9463 43.8603 40.4038 43.9006 39.4134 43.3333C30.9008 38.4555 22.3789 33.5947 13.826 28.7881C12.6449 28.1247 12.4682 27.6411 13.316 26.5282C23.8715 12.6759 37.7223 4.52908 55.025 2.31568C56.1766 2.16843 57.3391 2.11263 58.4954 2.01343C61.039 2.01343 63.5825 2.01343 66.1261 2.01343C80.0668 2.99613 92.2529 8.12353 102.672 17.4514C110.642 24.5861 116.261 33.2661 119.663 43.3767C121.373 48.4731 122.397 53.7183 122.605 59.1046Z" fill="#242424"/>
<path d="M71.8797 33.3823C71.9169 35.0454 71.4519 36.5877 70.6506 38.0152C67.6327 43.386 64.5653 48.7304 61.566 54.112C61.008 55.1133 60.5678 55.3365 59.4875 54.7025C54.7367 51.9218 49.9379 49.2248 45.1267 46.5511C44.1394 46.0024 43.8309 45.5575 44.468 44.4601C47.4827 39.2614 50.3983 34.0054 53.3789 28.7865C55.8 24.5488 60.2981 22.5912 64.6831 23.8157C69.0045 25.0216 71.8968 28.8671 71.8797 33.3823Z" fill="#242424"/>
<path d="M74.7147 55.7194C75.0014 55.8682 75.3626 56.0433 75.7144 56.2402C82.0167 59.7711 88.3082 63.3206 94.6275 66.8205C95.6102 67.3645 95.9915 67.8311 95.2801 68.9006C94.5547 69.9902 93.9533 71.1698 93.3922 72.3555C92.9241 73.3429 92.3754 73.4018 91.4857 72.8872C87.5502 70.6118 83.59 68.3767 79.6375 66.1292C77.1776 64.7311 74.7286 63.3144 72.2502 61.9504C71.4163 61.4916 71.1884 61.0343 71.7263 60.1601C72.4656 58.9573 73.0748 57.6739 73.763 56.4401C73.9505 56.1053 74.0993 55.6713 74.7147 55.7194Z" fill="#242424"/>
<path d="M55.397 104.732C45.7513 104.743 39.139 94.6198 43.555 86.101C47.9043 77.7093 52.793 69.5997 57.4182 61.3506C58.1064 60.1245 58.7899 60.7786 59.5169 61.2111C60.2299 61.6358 61.0963 61.8419 60.3756 63.0928C56.1069 70.4971 51.9637 77.9743 47.6764 85.3678C45.8211 88.567 44.9593 91.8282 46.424 95.3421C47.8826 98.8373 50.5718 100.942 54.3724 101.308C58.5295 101.708 61.8062 100.056 63.9468 96.4519C66.1416 92.7567 68.2093 88.9855 70.3328 85.2469C70.9574 84.148 71.5573 83.032 72.2269 81.9609C72.681 81.2355 72.5601 80.7736 71.8146 80.3737C70.5668 79.7057 69.3299 79.0128 68.107 78.2998C63.4151 75.5641 62.0635 70.3607 64.8039 65.7619C65.2581 64.9993 65.6797 64.5017 66.5477 65.1977C67.2452 65.7572 68.6185 65.8068 67.8605 67.3661C65.9416 71.3186 66.7197 73.6219 70.5126 75.7563C74.1272 77.7899 77.7077 79.8839 81.33 81.902C84.6951 83.7775 87.4944 83.0056 89.3885 79.6902C89.8535 78.8764 90.3138 78.4827 91.1369 79.1632C91.8266 79.7336 93.3503 79.6716 92.4606 81.3781C90.0999 85.8995 84.7865 87.6525 80.2977 85.2407C79.2282 84.6672 78.1479 84.0984 77.1466 83.4179C76.1003 82.7065 75.5222 82.8971 74.9084 84.0069C72.3602 88.6073 69.7314 93.1643 67.1336 97.7384C64.5451 102.305 60.6716 104.698 55.397 104.732Z" fill="#FCFCFC"/>
<path d="M23.5677 79.4731C22.2037 79.4777 21.4659 78.2284 22.1758 76.8985C23.5073 74.403 24.9364 71.9587 26.336 69.4988C29.9568 63.1283 33.6071 56.7749 37.1845 50.3811C37.7921 49.2961 38.3299 49.0295 39.4072 49.7348C40.3077 50.3238 41.0331 50.6539 40.2473 52.0117C35.2609 60.6266 30.3707 69.2989 25.4494 77.951C25.0201 78.7012 24.6264 79.4963 23.5677 79.4731Z" fill="#FCFCFC"/>
</svg>
