<svg width="124" height="124" viewBox="0 0 124 124" fill="none" xmlns="http://www.w3.org/2000/svg">
<path d="M62 122.45C95.3856 122.45 122.45 95.3857 122.45 62C122.45 28.6144 95.3856 1.55005 62 1.55005C28.6144 1.55005 1.54999 28.6144 1.54999 62C1.54999 95.3857 28.6144 122.45 62 122.45Z" fill="#242424"/>
<path d="M51.2244 50.4849C51.2244 52.503 51.1903 54.5227 51.2337 56.5392C51.2787 58.6767 52.0878 60.3662 54.2361 61.1474C56.806 62.0805 59.2643 62.0216 61.2963 59.9771C62.9347 58.3295 63.3857 56.3362 62.4511 54.1274C61.8171 52.6301 60.8096 51.3839 59.7634 50.161C57.0462 46.9835 55.7597 43.3255 56.1457 39.1327C56.2201 38.3174 56.2681 37.2898 57.4477 37.4246C58.4862 37.5424 58.4645 38.5003 58.3684 39.2691C57.7329 44.35 60.712 47.8608 63.5872 51.4242C63.9236 51.8412 64.3886 51.8474 64.8551 51.8644C67.4917 51.959 70.1282 52.038 72.7632 52.1527C74.4279 52.2256 75.5331 51.401 76.2104 49.9858C77.1451 48.0359 77.3078 45.9078 77.4814 43.7905C77.5372 43.1023 77.0924 42.907 76.5483 42.783C75.1363 42.4606 73.7227 42.149 72.3153 41.8065C69.0277 41.0067 67.0391 38.9173 66.2331 35.6514C65.6735 33.3869 65.3837 33.111 63.0509 33.1838C59.9633 33.2799 56.8494 32.7684 53.7959 33.7155C49.1567 35.1539 46.3667 38.243 45.3825 42.9581C44.5284 47.0517 44.0929 51.2429 42.1197 55.0435C40.0489 59.0316 37.0295 62.1704 33.5854 64.9728C26.4322 70.793 22.2425 78.2749 21.1079 87.4462C21.0382 88.0104 20.9421 88.5731 20.8336 89.1311C20.7111 89.7666 20.35 90.1851 19.6602 90.106C18.9767 90.0285 18.6915 89.531 18.7008 88.9001C18.7271 87.1858 19.0216 85.4979 19.3936 83.8363C21.2598 75.5143 25.4247 68.5657 32.1408 63.2817C37.9378 58.7201 41.6609 53.0362 42.6142 45.6241C42.904 43.3751 43.2822 41.1229 44.2975 39.0351C47.0627 33.3574 51.9359 31.1425 57.8941 30.8185C60.0563 30.7007 62.2403 30.6961 64.4072 30.9518C66.5353 31.2029 67.8218 32.1143 68.1876 34.2316C68.789 37.7176 70.8831 39.404 74.1985 39.9728C75.5191 40.1991 76.8304 40.5308 78.1154 40.9168C79.281 41.2655 79.9382 42.0886 79.8049 43.3689C79.5786 45.5265 79.4437 47.6996 78.7385 49.7828C77.669 52.937 75.6803 54.3801 72.3788 54.3475C70.3607 54.3274 68.3426 54.3165 66.3245 54.2576C65.393 54.2313 65.0473 54.5118 65.1605 55.5209C65.3914 57.5746 64.7497 59.4579 63.3981 60.9738C62.6324 61.8325 62.5999 62.6245 62.7595 63.646C64.1871 72.8111 62.2542 81.2152 56.9579 88.835C56.7223 89.1745 56.4836 89.5217 56.1906 89.8069C55.8357 90.1541 55.3877 90.2967 54.9165 90.0146C54.3957 89.7015 54.2593 89.1915 54.4515 88.6676C54.6081 88.2414 54.9057 87.8632 55.1676 87.4819C59.8703 80.6107 61.6699 73.0452 60.6794 64.7837C60.5477 63.6894 60.1788 63.3329 59.1062 63.6537C57.5748 64.1125 56.031 63.942 54.5011 63.5871C51.0415 62.7826 49.0358 60.3522 48.8979 56.3486C48.7553 52.2132 48.8576 48.07 48.8638 43.93C48.8653 43.1085 49.0002 42.2653 50.0526 42.2792C51.1051 42.2932 51.2043 43.1565 51.2089 43.9656C51.2229 46.1387 51.2136 48.3134 51.2136 50.4865C51.2167 50.4849 51.2213 50.4849 51.2244 50.4849Z" fill="#FCFCFC"/>
<path d="M108.082 59.2719C108.078 63.3004 106.688 64.8628 102.981 65.1573C101.827 65.2487 101.031 65.7726 100.462 66.7135C99.0683 69.0183 98.7335 71.5324 98.9335 74.1783C99.2078 77.8332 99.7906 81.4912 99.0885 85.1554C98.8358 86.4729 98.4964 87.7764 98.1321 89.0676C97.9384 89.7527 97.5168 90.3525 96.6736 90.072C95.9373 89.8271 95.8552 89.1342 96.0536 88.5142C97.5447 83.8534 97.2052 79.1336 96.6875 74.3736C96.3884 71.6192 96.7511 68.8881 98.0546 66.3725C99.1179 64.3203 100.6 62.9516 103.126 62.9036C105.166 62.8664 106.319 61.0606 105.774 59.1185C105.667 58.7403 105.465 58.4597 105.084 58.3512C103.105 57.787 102.271 56.1874 101.613 54.4623C101.277 53.5803 100.769 52.9371 99.8418 52.6627C99.0575 52.4318 98.3228 52.2334 97.9802 53.3277C97.8159 53.85 97.3928 54.2174 96.7914 54.1182C96.1326 54.0097 95.8521 53.4997 95.804 52.889C95.7513 52.2194 95.7963 51.5436 95.742 50.874C95.7033 50.3889 96.0117 49.7131 95.446 49.4697C94.9329 49.2496 94.5191 49.8123 94.1161 50.1052C90.9386 52.4209 88.7484 55.476 87.9812 59.3215C87.4232 62.1146 85.9615 63.8475 83.5203 65.2286C74.7209 70.2072 69.5718 77.7774 68.0249 87.7919C67.8792 88.7328 68.0559 90.2812 66.5881 90.0627C64.9916 89.8255 65.6829 88.3809 65.8363 87.3781C67.4948 76.5234 73.1802 68.4324 82.7267 63.0803C84.4131 62.1348 85.326 60.9087 85.7337 59.0472C86.9473 53.5013 90.2349 49.4868 95.1778 46.7975C97.2037 45.6955 98.1011 46.1977 98.0903 48.4901C98.0841 49.727 98.4948 50.1998 99.7333 50.3501C101.601 50.578 103.013 51.5901 103.65 53.447C104.141 54.8792 104.858 55.9735 106.448 56.4804C107.826 56.9237 108.047 58.2536 108.082 59.2719Z" fill="#FCFCFC"/>
</svg>
