<svg width="124" height="124" viewBox="0 0 124 124" fill="none" xmlns="http://www.w3.org/2000/svg">
<path d="M65.3588 122.445C63.1191 122.447 60.8793 122.448 58.6396 122.45C28.272 121.063 3.29994 96.2194 1.54999 65.6565C1.55154 63.1145 1.55309 60.574 1.55464 58.032C3.16044 32.8926 20.3437 11.2515 44.5098 3.97111C49.0156 2.61331 53.6191 1.74221 58.3342 1.55001C60.7786 1.55001 63.2229 1.54846 65.6673 1.54846C79.0825 2.33586 90.9292 7.12846 101.159 15.7728C111.358 24.3924 117.952 35.3013 121.029 48.3027C121.807 51.5933 122.359 54.932 122.444 58.3296C122.447 60.6748 122.448 63.0199 122.452 65.3651C121.697 79.2252 116.718 91.3989 107.61 101.824C97.7507 113.11 85.2732 119.725 70.4893 122.008C68.7952 122.27 67.07 122.306 65.3588 122.445Z" fill="#242424"/>
<path d="M108.125 61.9395C108.134 87.3704 87.4494 108.103 62.0558 108.112C36.6435 108.122 15.8642 87.3843 15.8813 62.031C15.8983 36.5149 36.5831 15.8627 62.1116 15.8704C87.4169 15.8797 108.116 36.6032 108.125 61.9395Z" fill="#F7FDFD"/>
<path d="M106.631 61.9938C106.617 86.6528 86.6202 106.629 61.9628 106.618C37.3519 106.609 17.3507 86.5474 17.3801 61.8993C17.4096 37.2155 37.4728 17.3182 62.2852 17.3662C86.7023 17.4143 106.645 37.4821 106.631 61.9938Z" fill="#242424"/>
<path d="M69.0292 78.0533C68.3968 71.9432 69.6942 66.0067 70.5901 60.0206C71.1946 55.9797 71.5464 51.9017 71.982 47.836C72.075 46.9727 72.2253 46.1357 72.5803 45.3467C72.8763 44.6895 73.222 44.0664 74.0853 44.0525C74.9378 44.0385 75.3548 44.6368 75.6756 45.2661C76.4212 46.7355 76.5638 48.363 76.7343 49.9657C77.2086 54.4297 77.9185 58.8953 77.1698 63.3949C76.6816 66.3306 75.7175 69.1594 75.2478 72.1075C74.4604 77.0458 73.997 82.0166 73.5366 86.9906C73.3692 88.7994 73.1538 90.6021 72.96 92.4078C72.8949 93.0201 72.695 93.5874 72.3834 94.1175C72.0936 94.6104 71.7696 95.0723 71.1124 95.0444C70.4552 95.0149 70.1654 94.5267 69.9344 94.0074C69.1749 92.304 69.1269 90.4564 69.068 88.6599C68.9471 85.129 69.0292 81.5904 69.0292 78.0533Z" fill="#F8FDFD"/>
<path d="M62.0713 76.4925C62.0713 70.4243 62.1705 64.3529 62.0449 58.2862C61.907 51.6228 63.3159 45.2988 66.2702 39.4041C67.9938 35.9662 68.3813 32.3919 68.6402 28.7153C68.7006 27.8597 68.6526 26.9964 68.6836 26.1377C68.6975 25.775 68.5518 25.2356 69.2292 25.3208C69.6911 25.3797 70.1638 25.5084 70.1437 26.1175C70.0119 30.1987 70.246 34.3821 68.4108 38.1626C65.2255 44.7237 63.3965 51.5081 63.5205 58.8783C63.7391 71.7712 63.7019 84.6672 63.7701 97.5617C63.7716 97.9662 63.7763 98.3708 63.7592 98.7753C63.7406 99.2481 63.4089 99.3271 63.023 99.3271C62.6432 99.3271 62.3053 99.2806 62.2898 98.7893C62.2805 98.4855 62.2697 98.1832 62.2697 97.8794C62.2681 90.751 62.2681 83.621 62.2681 76.4925C62.2046 76.4925 62.1379 76.4925 62.0713 76.4925Z" fill="#F6FDFD"/>
<path d="M59.5463 62.4681C59.7726 69.857 59.2875 77.2024 58.466 84.5479C57.9839 88.8615 58.1079 93.2263 58.3296 97.5725C58.3544 98.0732 58.8705 99.0373 57.6941 99.0373C56.6509 99.0388 56.9036 98.1646 56.8865 97.5679C56.6897 91.1478 56.871 84.7571 57.6274 78.3556C58.4582 71.3202 58.063 64.2181 58.1033 57.1408C58.1296 52.4551 57.6166 47.9462 56.0759 43.4543C54.1678 37.8913 54.6049 31.9796 54.4096 26.1842C54.3879 25.5564 54.6204 25.2464 55.2761 25.2449C56.0092 25.2433 55.8976 25.7688 55.9007 26.2012C55.9348 30.3971 56.0418 34.5867 56.5176 38.7609C56.685 40.2241 56.9268 41.6671 57.4476 43.0389C58.9713 47.0549 59.7478 51.1795 59.5649 55.4916C59.4657 57.8119 59.5463 60.1416 59.5463 62.4681Z" fill="#F8FDFD"/>
<path d="M65.3092 75.3222C65.3092 69.984 65.2844 65.8378 65.3154 61.6915C65.3557 56.2696 66.4113 51.0508 68.6712 46.1109C70.9791 41.0657 71.6999 35.6717 72.3152 30.2467C72.4284 29.2438 72.4811 28.2317 72.6345 27.235C72.6857 26.8987 72.3199 26.1717 73.1879 26.3236C73.7846 26.4275 74.183 26.6987 74.09 27.4458C73.8342 29.498 73.6389 31.5595 73.4049 33.6148C72.8174 38.7686 71.4255 43.6852 69.3268 48.4421C66.9073 53.926 66.6329 59.8222 66.6655 65.6905C66.7244 76.2073 66.9646 86.7209 67.1289 97.2377C67.1351 97.6422 67.1382 98.0468 67.1274 98.4513C67.1119 99.0233 66.698 99.0388 66.2749 99.0574C65.8021 99.0775 65.6595 98.8109 65.6564 98.4002C65.6549 98.1475 65.6456 97.8949 65.644 97.6422C65.5913 89.8039 65.193 81.9717 65.3092 75.3222Z" fill="#F8FDFD"/>
<path d="M51.0368 30.6885C50.5191 34.8502 51.1717 38.3842 52.886 41.8004C54.5894 45.1949 54.777 48.9924 55.3148 52.6814C55.7814 55.8838 55.9255 59.1139 56.1363 62.338C56.358 65.7247 55.6899 68.9906 54.5274 72.1355C52.7914 76.832 51.8661 81.637 51.9141 86.659C51.9451 89.9931 51.7359 93.3287 51.6041 96.6627C51.5886 97.0471 51.8661 97.726 51.1546 97.7245C50.5005 97.7229 50.0805 97.3463 50.1146 96.5465C50.468 88.0928 49.8728 79.5368 53.2037 71.4349C55.1521 66.6935 54.8235 61.7304 54.2965 56.7797C54.0609 54.5725 53.816 52.3637 53.4936 50.1673C53.0456 47.12 52.5465 44.0882 51.0725 41.3029C49.8433 38.9794 49.3737 36.4653 49.4636 33.8334C49.5333 31.7611 49.5519 29.6856 49.538 27.6133C49.5333 26.8352 49.8898 26.4291 50.5904 26.4477C51.46 26.4725 50.9934 27.2041 51.0151 27.59C51.0787 28.7541 51.0368 29.9197 51.0368 30.6885Z" fill="#F7FDFD"/>
<path d="M75.5485 96.6937C74.6046 90.0876 75.8151 83.776 77.5914 77.5109C79.6622 70.2073 79.5987 62.7549 79.1182 55.256C78.6795 48.4236 77.0536 41.8051 75.8415 35.1091C75.3749 32.5361 75.1967 29.9026 75.4354 27.2258C76.2135 27.3405 76.9172 27.4459 76.8691 28.4379C76.6103 33.7637 78.1541 38.8291 79.1213 43.9782C80.6201 51.956 81.251 60.0052 80.7503 68.107C80.4372 73.1616 79.1135 78.0627 77.7449 82.9173C76.6103 86.9426 76.7374 91.0176 76.8707 95.1049C76.9048 96.114 76.6072 96.6441 75.5485 96.6937Z" fill="#F8FDFD"/>
<path d="M45.2615 95.2305C44.3765 94.9856 43.7673 94.826 43.7797 93.9362C43.8603 88.0881 43.3039 82.1872 45.0383 76.4677C45.9606 73.4266 47.0719 70.4429 48.005 67.4033C50.0696 60.6717 49.245 54.0408 47.2858 47.4316C46.5124 44.8229 45.1515 42.3925 44.8678 39.6413C44.5206 36.2638 44.7826 32.8724 44.7144 29.4872C44.6989 28.7618 45.2181 28.4332 45.756 28.4146C46.5062 28.3867 46.159 29.0889 46.1652 29.4454C46.2039 31.7719 46.3434 34.1109 46.1512 36.4219C45.8552 39.9714 47.3928 43.0389 48.4437 46.2241C51.2771 54.8173 51.6258 63.3299 48.0732 71.827C45.3375 78.368 44.9996 85.2609 45.26 92.2266C45.291 93.183 45.2615 94.1409 45.2615 95.2305Z" fill="#F7FDFD"/>
<path d="M40.3899 92.2405C39.184 91.8949 38.9515 91.1819 38.9003 90.1496C38.5376 82.6863 39.7079 75.4385 42.1057 68.4093C44.8601 60.3338 44.5439 52.3451 41.9058 44.3502C40.6038 40.4039 40.5991 36.3088 40.4364 32.2292C40.4271 31.9827 40.4255 31.6774 40.5557 31.4991C40.8161 31.1411 41.1726 30.7288 41.6531 30.8559C42.084 30.969 41.8825 31.4635 41.8996 31.7859C41.9926 33.6009 42.0577 35.4175 42.1336 37.2341C42.253 40.1326 42.9877 42.8947 43.82 45.6599C46.0753 53.1511 46.2427 60.6686 43.71 68.1427C41.137 75.7346 39.9435 83.5125 40.4286 91.5291C40.441 91.7275 40.4085 91.9305 40.3899 92.2405Z" fill="#F7FDFD"/>
<path d="M41.9321 53.8609C41.6593 59.6099 41.1432 65.2829 39.2351 70.7327C39.0522 71.2535 38.843 71.7836 38.5392 72.2377C37.5859 73.6653 36.0886 73.7288 35.2702 72.2222C32.6988 67.4916 31.775 62.4696 33.0584 57.1562C33.1855 56.6292 33.4474 56.1007 33.7652 55.6574C35.4609 53.2967 36.1646 50.5641 36.797 47.8004C37.062 46.6441 37.2976 45.3855 38.7763 45.3111C40.2581 45.2352 40.8983 46.4008 41.2517 47.5834C41.8639 49.6325 41.7942 51.7777 41.9321 53.8609Z" fill="#F7FDFD"/>
<path d="M36.2591 88.9359C35.2113 88.3547 34.8564 87.5921 34.9075 86.5148C34.9773 85.0532 34.9354 83.5838 34.906 82.119C34.8471 79.2779 34.0597 76.6785 32.4833 74.2791C28.01 67.4653 27.7047 60.233 30.3738 52.6876C31.7083 48.9165 33.6877 45.4383 35.1261 41.7183C35.8933 39.7358 36.6048 37.7441 36.5831 35.5741C36.5738 34.6301 37.0062 33.9714 37.9595 33.5994C38.5035 37.6402 37.0636 41.182 35.4795 44.6741C33.7729 48.4406 31.916 52.1343 30.876 56.1782C29.4035 61.8977 29.8561 67.4591 33.1219 72.3401C36.2793 77.0567 36.5149 82.1345 36.3521 87.4231C36.3413 87.8711 36.2994 88.319 36.2591 88.9359Z" fill="#F7FCFD"/>
<path d="M88.1314 88.5888C84.7323 80.2994 83.1296 71.7248 83.562 62.7534C83.9046 55.6451 85.2221 48.7507 87.2479 41.9539C87.8214 40.0288 88.1144 38.02 88.553 35.9694C89.9496 36.4623 89.7496 37.5504 89.5419 38.64C88.8212 42.4112 87.5176 46.0428 86.7519 49.7923C84.4424 61.1135 83.8441 72.4083 87.9423 83.5218C88.3081 84.5154 88.6104 85.5322 88.9157 86.5459C89.1978 87.4774 89.0196 88.2323 88.1314 88.5888Z" fill="#F7FDFD"/>
<path d="M98.687 69.2773C98.0484 63.2385 98.2375 57.0587 96.0334 50.7703C94.9251 52.9481 94.7422 54.9414 94.333 56.8572C93.6587 60.0114 92.8962 63.1688 93.5456 66.4408C93.7053 67.2422 93.9192 68.0156 94.3563 68.7038C95.6381 70.7266 96.021 73.002 96.3077 75.3192C96.4658 76.5995 96.0489 77.6721 95.246 78.9478C94.7965 76.5236 94.9034 74.2528 94.2183 72.1185C94.0494 71.5915 93.9858 70.9916 93.6882 70.5514C91.0858 66.7105 91.7197 62.5209 92.4838 58.3932C92.9132 56.076 93.2728 53.7169 94.0819 51.4756C94.4291 50.5146 94.7298 49.3629 95.945 49.3769C97.1292 49.3908 97.5524 50.5223 97.8469 51.4802C99.2899 56.1752 99.6526 60.9848 99.1799 65.8611C99.0683 67.005 98.8528 68.1396 98.687 69.2773Z" fill="#F7FDFD"/>
<path d="M93.0465 41.4811C94.0447 42.3243 94.4151 43.2218 94.1392 44.3641C93.7595 45.9358 93.3735 47.506 92.6109 48.9459C89.2908 55.2157 88.7359 61.9024 89.5001 68.8216C89.9914 73.2732 91.3322 77.4985 92.6791 81.73C93.0697 82.9576 93.0806 82.9545 91.9398 84.0721C88.3763 74.2295 86.1258 64.3033 89.032 53.8827C89.4102 52.5264 89.9542 51.212 90.5014 49.9116C91.0671 48.5646 91.8561 47.3169 92.2188 45.8785C92.5707 44.4757 92.969 43.0823 93.0465 41.4811Z" fill="#F7FDFD"/>
<path d="M32.2446 39.821C31.0077 42.6777 29.5879 45.4708 28.5649 48.4018C25.1348 58.2381 24.986 67.9644 29.9475 77.4318C30.9101 79.267 31.637 81.1921 31.7269 83.3683C28.5587 81.0852 24.6233 68.772 24.6837 61.5691C24.7535 53.4843 27.2412 46.221 32.2446 39.821Z" fill="#F6FCFD"/>
<path d="M61.194 42.0282C62.6774 39.308 63.2276 36.6962 63.7779 34.1062C64.3545 31.3937 64.7792 28.6486 64.7342 25.8524C64.728 25.4184 64.4831 24.7581 65.3372 24.7411C66.1153 24.7271 66.2253 25.2076 66.2098 25.84C66.0734 31.4417 65.0845 36.8714 62.8711 42.0406C62.5069 42.8916 62.1163 44.037 60.9599 43.9146C59.7184 43.7813 59.7308 42.4917 59.6657 41.6144C59.2813 36.4343 57.7793 31.3859 57.8599 26.1547C57.8692 25.5874 57.5964 24.8496 58.5404 24.7535C59.613 24.6419 59.3014 25.4866 59.2999 26.0012C59.289 30.5195 60.419 34.8982 60.9041 39.3545C60.9878 40.1062 61.0684 40.858 61.194 42.0282Z" fill="#F7FDFD"/>
<path d="M79.3832 29.0424C80.4217 29.2377 80.7891 29.7848 80.9751 30.7024C81.8105 34.8177 82.4584 38.9484 82.4367 43.1629C82.4352 43.5008 82.3251 43.8774 82.8506 44.3223C84.2208 40.4271 84.4393 36.4731 84.5618 32.426C85.6592 32.8058 86.0653 33.418 86.0064 34.4968C85.8436 37.479 85.4282 40.4178 84.7555 43.3241C84.6997 43.5674 84.6114 43.8077 84.5168 44.0402C84.1154 45.0399 83.731 46.1745 82.3453 45.8955C81.0712 45.6398 81.0572 44.53 81.051 43.4837C81.0278 39.2243 80.3349 35.0471 79.4886 30.89C79.3708 30.2932 79.2236 29.7104 79.3832 29.0424Z" fill="#F7FCFD"/>
<path d="M83.807 92.2033C83.3265 88.6042 83.0785 85.0826 81.8756 81.3565C81.2975 83.6443 81.2773 85.6329 81.1781 87.6014C81.0867 89.418 81.1162 91.2408 81.0945 93.0605C81.0883 93.5611 81.1797 94.1036 80.6233 94.395C80.3675 94.5283 80.104 94.8383 79.811 94.6477C79.6638 94.5516 79.6204 94.2168 79.6188 93.9889C79.5832 89.7931 79.687 85.6034 80.2823 81.4402C80.3102 81.2433 80.4 81.0542 80.462 80.862C80.6821 80.1754 80.9332 79.4252 81.7594 79.3647C82.6181 79.3012 82.9188 80.0576 83.1854 80.7163C84.0813 82.9375 84.3479 85.3043 84.7463 87.6386C84.8904 88.4833 84.9276 89.3451 85.0625 90.1914C85.2082 91.1137 84.9152 91.7647 83.807 92.2033Z" fill="#F7FCFD"/>
<path d="M74.1117 45.7933C75.1238 47.0317 75.0091 48.4283 75.1827 49.7365C75.6803 53.4952 76.1453 57.2555 75.9655 61.0639C75.9097 62.2295 75.7702 63.3827 75.4524 64.5002C73.2979 72.0782 72.7027 79.8855 72.0099 87.6805C71.8595 89.3793 71.8487 91.106 71.286 92.9288C70.587 91.695 70.6381 90.4581 70.5761 89.3064C70.2181 82.6926 69.8833 76.0648 70.5498 69.4556C70.8474 66.5013 71.6131 63.5981 72.0052 60.65C72.5787 56.3472 73.0127 52.0243 73.4932 47.7091C73.5645 47.0643 73.7056 46.4613 74.1117 45.7933Z" fill="#242424"/>
<path d="M40.4286 54.3958C40.2132 59.2798 39.6924 64.5932 38.0277 69.733C37.8882 70.1639 37.7332 70.5948 37.541 71.004C37.1395 71.8549 36.6575 71.9665 36.2204 71.0443C34.3402 67.0701 33.5218 62.913 34.2007 58.5311C34.2984 57.8972 34.52 57.2167 34.8858 56.7006C36.7148 54.123 37.5332 51.1702 38.2338 48.1586C38.3516 47.6564 38.2617 46.8535 39.0119 46.9093C39.5916 46.9527 39.7854 47.6331 39.8939 48.1958C40.2597 50.0868 40.4147 51.9948 40.4286 54.3958Z" fill="#242424"/>
</svg>
