<svg width="28" height="28" viewBox="0 0 28 28" fill="none" xmlns="http://www.w3.org/2000/svg">
<path d="M27.9391 8.73444L24.6826 18.5228C24.4391 19.2199 23.8 19.6846 23.0391 19.6846H10.4696C9.73913 19.6846 9.03913 19.249 8.79565 18.61L3.98696 6.32365H1.21739C0.547826 6.32365 0 5.80083 0 5.16183C0 4.52282 0.547826 4 1.21739 4H4.83913C5.35652 4 5.81304 4.3195 5.99565 4.78423L10.9565 17.361H22.5217L25.1087 9.51867H10.7739C10.1043 9.51867 9.55652 8.99585 9.55652 8.35685C9.55652 7.71784 10.1043 7.19502 10.7739 7.19502H26.7826C27.1783 7.19502 27.5435 7.39834 27.7565 7.6888C28 7.97925 28.0609 8.38589 27.9391 8.73444ZM11.0783 21.2241C10.5609 21.2241 10.0435 21.4274 9.67826 21.7759C9.31304 22.1245 9.1 22.6183 9.1 23.112C9.1 23.6058 9.31304 24.0996 9.67826 24.4481C10.0435 24.7967 10.5609 25 11.0783 25C11.5957 25 12.113 24.7967 12.4783 24.4481C12.8435 24.0996 13.0565 23.6058 13.0565 23.112C13.0565 22.6183 12.8435 22.1245 12.4783 21.7759C12.113 21.4274 11.5957 21.2241 11.0783 21.2241ZM22.0043 21.2241C21.487 21.2241 20.9696 21.4274 20.6043 21.7759C20.2391 22.1245 20.0261 22.6183 20.0261 23.112C20.0261 23.6058 20.2391 24.0996 20.6043 24.4481C20.9696 24.7967 21.487 25 22.0043 25C22.5217 25 23.0391 24.7967 23.4043 24.4481C23.7696 24.0996 23.9826 23.6058 23.9826 23.112C23.9826 22.6183 23.7696 22.1245 23.4043 21.7759C23.0391 21.4274 22.5217 21.2241 22.0043 21.2241Z" fill="#25AAC8"/>
</svg>
