<svg width="82" height="48" viewBox="0 0 82 48" fill="none" xmlns="http://www.w3.org/2000/svg">
<path d="M39.5249 43.35H3.3999C4.46554 39.374 6.81328 35.8608 10.079 33.355C13.3448 30.8493 17.3461 29.4911 21.4624 29.4911C25.5787 29.4911 29.58 30.8493 32.8458 33.355C36.1115 35.8608 38.4593 39.374 39.5249 43.35Z" fill="white"/>
<path d="M22.0999 26.3499C26.5596 26.3499 30.1749 22.7346 30.1749 18.2749C30.1749 13.8152 26.5596 10.2 22.0999 10.2C17.6402 10.2 14.0249 13.8152 14.0249 18.2749C14.0249 22.7346 17.6402 26.3499 22.0999 26.3499Z" fill="white"/>
<path d="M14.8333 27C13.6287 25.8957 12.6666 24.5578 12.0071 23.0695C11.3476 21.5812 11.0048 19.9744 11 18.3492C11.0056 16.4434 11.4947 14.5695 12.4222 12.8994C13.3498 11.2293 14.6861 9.81638 16.3088 8.79035C17.9314 7.76432 19.7883 7.15798 21.7093 7.02694C23.6302 6.8959 25.5536 7.24436 27.3031 8.04035C29.0526 8.83635 30.5722 10.0544 31.7224 11.5828C32.8727 13.1112 33.6168 14.9009 33.8866 16.788C34.1563 18.675 33.9431 20.5989 33.2663 22.3831C32.5896 24.1674 31.4711 25.7549 30.0134 27" stroke="white" stroke-opacity="0.6" stroke-miterlimit="10" stroke-linecap="round"/>
<path d="M81.5999 43.775H44.7666C45.7933 39.6677 48.1635 36.0215 51.5005 33.416C54.8374 30.8105 58.9496 29.3953 63.1833 29.3953C67.4169 29.3953 71.5291 30.8105 74.866 33.416C78.203 36.0215 80.5732 39.6677 81.5999 43.775Z" fill="white"/>
<path d="M63.1835 26.0668C67.7214 26.0668 71.4001 22.388 71.4001 17.8501C71.4001 13.3122 67.7214 9.63342 63.1835 9.63342C58.6455 9.63342 54.9668 13.3122 54.9668 17.8501C54.9668 22.388 58.6455 26.0668 63.1835 26.0668Z" fill="white"/>
<path d="M63 30C69.6274 30 75 24.6274 75 18C75 11.3726 69.6274 6 63 6C56.3726 6 51 11.3726 51 18C51 24.6274 56.3726 30 63 30Z" stroke="white" stroke-opacity="0.6" stroke-miterlimit="10" stroke-linecap="round" stroke-dasharray="3 9"/>
</svg>
