<svg width="85" height="85" viewBox="0 0 85 85" fill="none" xmlns="http://www.w3.org/2000/svg">
<path d="M65.7333 79.05H19.2666C20.5569 73.8642 23.5451 69.2591 27.7553 65.968C31.9656 62.6769 37.156 60.889 42.4999 60.889C47.8439 60.889 53.0342 62.6769 57.2445 65.968C61.4548 69.2591 64.443 73.8642 65.7333 79.05Z" fill="white" fill-opacity="0.6"/>
<path d="M42.5 56.525C48.2115 56.525 52.8417 51.8949 52.8417 46.1833C52.8417 40.4718 48.2115 35.8417 42.5 35.8417C36.7884 35.8417 32.1583 40.4718 32.1583 46.1833C32.1583 51.8949 36.7884 56.525 42.5 56.525Z" fill="white" fill-opacity="0.6"/>
<path d="M0.283325 35.275C0.351948 31.3461 0.923259 27.4422 1.98333 23.6584C2.62059 21.7453 3.5269 19.9327 4.67499 18.275C5.36806 17.4636 6.31788 16.9137 7.36666 16.7167C7.93639 16.6786 8.5078 16.7598 9.04443 16.9549C9.58105 17.15 10.0711 17.4549 10.4833 17.85C11.7951 19.3951 12.8044 21.1733 13.4583 23.0917C14.025 25.075 14.5917 26.9167 15.0167 28.9C15.6982 32.7342 16.0301 36.6224 16.0083 40.5167C16.0832 44.4538 15.7987 48.3896 15.1583 52.275C14.7333 54.2584 14.3083 56.2417 13.7417 58.0834C13.1096 60.0256 12.1515 61.8461 10.9083 63.4667C10.2553 64.3501 9.29492 64.9566 8.21666 65.1667C7.67739 65.265 7.12204 65.2256 6.60201 65.0523C6.08199 64.879 5.6141 64.5772 5.24166 64.175C4.51633 63.4113 3.8969 62.5537 3.39999 61.625C2.93725 60.766 2.55774 59.8647 2.26666 58.9333C1.11497 55.2095 0.448365 51.3527 0.283325 47.4583C0.743011 51.2808 1.64632 55.0366 2.97499 58.65C3.54279 60.4493 4.51157 62.0962 5.80832 63.4667C6.09273 63.7705 6.45103 63.9955 6.84828 64.1197C7.24553 64.2438 7.66817 64.2629 8.07499 64.175C8.48686 64.0923 8.87655 63.9233 9.2184 63.6791C9.56024 63.4349 9.8465 63.1211 10.0583 62.7584C12.325 59.7834 13.175 55.8167 13.8833 52.1333C14.4716 48.3383 14.7087 44.497 14.5917 40.6584C14.6666 36.7682 14.3821 32.8795 13.7417 29.0417C13.3167 27.2 12.8917 25.3583 12.325 23.5167C11.7423 21.7546 10.8287 20.1198 9.63333 18.7C9.39297 18.3674 9.07158 18.1016 8.69967 17.9281C8.32777 17.7545 7.91768 17.6789 7.50833 17.7083C7.08067 17.746 6.66717 17.8803 6.29904 18.1012C5.93091 18.3221 5.61779 18.6237 5.38332 18.9833C4.1562 20.4345 3.24006 22.1221 2.69166 23.9417C1.44235 27.6106 0.633896 31.4151 0.283325 35.275V35.275Z" fill="white"/>
<path d="M2.83337 37.6833C2.83694 35.297 3.12225 32.9194 3.68337 30.6C4.07998 29.4333 4.65333 28.3344 5.38337 27.3416C5.81334 26.8186 6.41642 26.4668 7.08337 26.35C7.82461 26.3881 8.5279 26.6895 9.06671 27.2C9.86612 28.1702 10.4894 29.273 10.9084 30.4583C11.3247 31.5542 11.61 32.6954 11.7584 33.8583C12.2745 36.183 12.5122 38.5608 12.4667 40.9416C12.4894 43.3149 12.2997 45.6855 11.9 48.025C11.6351 49.1764 11.304 50.3116 10.9084 51.425C10.4894 52.6103 9.86612 53.7131 9.06671 54.6833C8.54359 55.2172 7.83072 55.5227 7.08337 55.5333C6.41184 55.4292 5.80454 55.075 5.38337 54.5417C4.6241 53.5674 4.04808 52.4634 3.68337 51.2833C3.12145 49.0121 2.83605 46.6813 2.83337 44.3416C3.0661 46.6186 3.58981 48.8563 4.39171 51C4.73823 52.073 5.26523 53.0791 5.95004 53.975C6.31409 54.2787 6.75562 54.475 7.22504 54.5417C7.6073 54.4626 7.95456 54.2642 8.21671 53.975C9.42742 52.0921 10.2019 49.9624 10.4834 47.7416C10.8831 45.4975 11.0728 43.221 11.05 40.9416C11.0728 38.6623 10.8831 36.3858 10.4834 34.1416C10.3302 33.0392 10.0934 31.9499 9.77504 30.8833C9.42852 29.8103 8.90152 28.8042 8.21671 27.9083C7.92607 27.5804 7.52006 27.3774 7.08337 27.3416C6.63925 27.4497 6.2418 27.6981 5.95004 28.05C5.26502 28.8934 4.73718 29.8531 4.39171 30.8833C3.57478 33.0714 3.05079 35.3579 2.83337 37.6833V37.6833Z" fill="white"/>
<path d="M84.4334 35.275C84.0828 31.4151 83.2743 27.6106 82.025 23.9417C81.4178 22.1472 80.5074 20.4701 79.3334 18.9833C79.0852 18.6368 78.7685 18.3448 78.403 18.1255C78.0375 17.9062 77.6309 17.7642 77.2084 17.7083C76.7974 17.6642 76.3822 17.7332 76.0077 17.908C75.6331 18.0828 75.3135 18.3567 75.0834 18.7C73.888 20.1198 72.9744 21.7545 72.3917 23.5167C71.787 25.3218 71.3136 27.1683 70.975 29.0417C70.288 32.8752 69.956 36.7639 69.9834 40.6583C69.9845 44.499 70.2686 48.3344 70.8334 52.1333C71.5417 55.8167 72.3917 59.7833 74.5167 62.7583C75.0242 63.4784 75.7818 63.9835 76.6417 64.175C77.0485 64.2628 77.4712 64.2438 77.8684 64.1196C78.2657 63.9955 78.624 63.7705 78.9084 63.4667C80.2051 62.0962 81.1739 60.4493 81.7417 58.65C83.0704 55.0366 83.9737 51.2807 84.4334 47.4583C84.1993 51.345 83.5342 55.1936 82.45 58.9333C82.1112 59.8689 81.6842 60.7701 81.175 61.625C80.7763 62.5757 80.1993 63.4413 79.475 64.175C79.0735 64.5786 78.5806 64.8795 78.038 65.0521C77.4955 65.2248 76.9193 65.2641 76.3584 65.1667C75.2987 64.9113 74.3527 64.3138 73.6667 63.4667C72.5186 61.809 71.6123 59.9964 70.975 58.0833C70.4084 56.2417 69.9834 54.2583 69.5584 52.275C68.8706 48.3939 68.5386 44.4581 68.5667 40.5167C68.6633 36.6221 69.042 32.7397 69.7 28.9C70.0866 26.9307 70.6072 24.99 71.2584 23.0917C71.9123 21.1732 72.9216 19.3951 74.2334 17.85C74.6241 17.4659 75.0902 17.1668 75.6022 16.9718C76.1142 16.7767 76.6611 16.6899 77.2084 16.7167C78.3081 16.8825 79.3127 17.4351 80.0417 18.275C81.2019 19.9054 82.0652 21.7278 82.5917 23.6583C83.6982 27.4362 84.3171 31.3401 84.4334 35.275V35.275Z" fill="white"/>
<path d="M81.8833 37.6833C81.6659 35.3579 81.1419 33.0714 80.325 30.8833C79.9213 29.8797 79.3981 28.9284 78.7666 28.05C78.447 27.6605 77.9912 27.4072 77.4917 27.3416C77.0759 27.4426 76.6885 27.6363 76.3583 27.9083C75.7742 28.8427 75.2989 29.8409 74.9417 30.8833C74.6233 31.9499 74.3865 33.0392 74.2333 34.1416C73.8336 36.3858 73.6439 38.6623 73.6666 40.9416C73.6439 43.221 73.8336 45.4975 74.2333 47.7416C74.3964 49.9671 75.1281 52.1134 76.3583 53.975C76.7833 54.2583 77.0667 54.5417 77.4917 54.5417C77.9283 54.5059 78.3343 54.3029 78.625 53.975C79.3554 53.0863 79.9301 52.0804 80.325 51C81.1269 48.8563 81.6506 46.6186 81.8833 44.3416C81.9015 46.6921 81.5673 49.032 80.8917 51.2833C80.6397 52.4782 80.1054 53.5955 79.3333 54.5417C79.108 54.8215 78.829 55.0534 78.5128 55.2237C78.1965 55.394 77.8493 55.4993 77.4917 55.5333C76.7939 55.487 76.1379 55.1842 75.65 54.6833C74.7977 53.7504 74.168 52.6363 73.8083 51.425C73.4127 50.3116 73.0816 49.1764 72.8167 48.025C72.417 45.6855 72.2273 43.3149 72.25 40.9416C72.2273 38.5684 72.417 36.1978 72.8167 33.8583C73.0816 32.7069 73.4127 31.5716 73.8083 30.4583C74.168 29.2469 74.7977 28.1329 75.65 27.2C76.1731 26.6661 76.886 26.3606 77.6333 26.35C78.2854 26.5057 78.8768 26.8507 79.3333 27.3416C80.0765 28.3059 80.6075 29.4162 80.8917 30.6C81.5668 32.8999 81.9009 35.2864 81.8833 37.6833Z" fill="white"/>
<path d="M36.8333 5.94998C32.9676 6.34641 29.1629 7.20245 25.5 8.49998C23.6588 9.03209 21.9304 9.89629 20.4 11.05C19.7756 11.6548 19.3759 12.4543 19.2666 13.3166C19.2499 13.7244 19.3312 14.1301 19.5037 14.4999C19.6763 14.8697 19.9351 15.1926 20.2583 15.4416C21.6857 16.5924 23.3209 17.4581 25.075 17.9916C26.86 18.6624 28.7125 19.1374 30.6 19.4083C34.3865 20.0899 38.2277 20.4219 42.075 20.4C45.9651 20.4749 49.8539 20.1904 53.6916 19.55C57.375 18.8416 61.3416 17.9916 64.3166 15.8666C65.0003 15.3855 65.4998 14.686 65.7333 13.8833C65.8364 13.4769 65.8248 13.05 65.6997 12.6498C65.5747 12.2496 65.3411 11.892 65.025 11.6166C63.7009 10.2286 62.0423 9.20413 60.2083 8.64165C56.6092 7.29279 52.8448 6.43508 49.0166 6.09165C52.9182 6.1867 56.7845 6.85496 60.4916 8.07498L63.1833 9.20832C64.1709 9.60478 65.0464 10.2371 65.7333 11.05C66.1355 11.4224 66.4372 11.8903 66.6106 12.4103C66.7839 12.9304 66.8233 13.4857 66.725 14.025C66.42 15.063 65.8313 15.9953 65.025 16.7166C63.4002 17.9193 61.5786 18.8301 59.6416 19.4083C57.7597 20.0801 55.8132 20.5548 53.8333 20.825C49.9522 21.5128 46.0164 21.8447 42.075 21.8166C38.1731 21.861 34.278 21.481 30.4583 20.6833C28.4703 20.3813 26.5222 19.8586 24.65 19.125C22.6835 18.5824 20.8824 17.5602 19.4083 16.15C19.0089 15.7704 18.6998 15.3061 18.5036 14.7912C18.3075 14.2764 18.2294 13.7241 18.275 13.175C18.4357 12.1131 18.9924 11.1514 19.8333 10.4833C21.4234 9.22522 23.2561 8.30888 25.2166 7.79165C28.9946 6.68517 32.8984 6.06627 36.8333 5.94998V5.94998Z" fill="white"/>
<path d="M39.1 8.5C36.8305 8.84862 34.6005 9.41798 32.4417 10.2C31.345 10.4882 30.3279 11.0209 29.4667 11.7583C29.1388 12.049 28.9358 12.455 28.9 12.8917C28.9358 13.3284 29.1388 13.7344 29.4667 14.025C30.3019 14.6897 31.267 15.1723 32.3 15.4417L35.7 16.2917C37.9527 16.6212 40.2238 16.8105 42.5 16.8583C44.7793 16.8811 47.0559 16.6914 49.3 16.2917C51.5208 16.0102 53.6505 15.2357 55.5333 14.025C55.8612 13.7344 56.0642 13.3284 56.1 12.8917C55.9991 12.476 55.8054 12.0885 55.5333 11.7583C54.6721 11.0209 53.6549 10.4882 52.5583 10.2C50.3995 9.41798 48.1695 8.84862 45.9 8.5C48.2452 8.55172 50.5758 8.88466 52.8417 9.49167C54.014 9.80727 55.1184 10.3355 56.1 11.05C56.3798 11.2753 56.6117 11.5543 56.782 11.8706C56.9524 12.1869 57.0576 12.534 57.0917 12.8917C57.0535 13.6329 56.7521 14.3362 56.2417 14.875C55.2714 15.6744 54.1686 16.2977 52.9833 16.7167L49.5833 17.5667C47.2383 17.9429 44.8731 18.1795 42.5 18.275C40.1264 18.1865 37.7607 17.9499 35.4167 17.5667L32.0167 16.575C30.8053 16.2153 29.6913 15.5856 28.7583 14.7333C28.2574 14.2454 27.9547 13.5894 27.9083 12.8917C27.9424 12.534 28.0476 12.1869 28.2179 11.8706C28.3883 11.5543 28.6202 11.2753 28.9 11.05C29.8462 10.2779 30.9634 9.7436 32.1583 9.49167C34.4261 8.89373 36.7555 8.56094 39.1 8.5V8.5Z" fill="white"/>
</svg>
