<svg width="82" height="61" viewBox="0 0 82 61" fill="none" xmlns="http://www.w3.org/2000/svg">
<path d="M55.2501 30.2166C55.9672 31.5863 56.5827 33.0068 57.0918 34.4666C57.4186 35.7174 57.6086 36.9999 57.6584 38.2916C57.9418 47.2166 51.5668 55.15 43.4918 55.7166C35.4168 56.2833 27.3418 48.4916 27.3418 38.8583C27.3126 37.3745 27.5036 35.8945 27.9084 34.4666V33.9C28.536 32.2126 29.3434 30.5978 30.3168 29.0833L31.0251 27.6666L42.5001 5.56665L55.2501 30.2166Z" stroke="white" stroke-width="1.5" stroke-linecap="round" stroke-linejoin="round"/>
<path d="M41.225 50.3333H40.6583C35.7 50.6166 31.45 46.225 31.45 40.8416C31.4741 39.9853 31.5689 39.1324 31.7333 38.2916V38.0083C32.025 37.1678 32.4049 36.3605 32.8666 35.6H32.725V36.1666C32.5534 37.1018 32.4586 38.0494 32.4416 39C32.2584 41.638 33.0524 44.2513 34.6723 46.3414C36.2922 48.4316 38.6246 49.8525 41.225 50.3333Z" fill="white"/>
<path d="M59.925 30.3583C59.925 30.3583 60.4917 23.9833 63.0417 21.4333C65.5917 18.8833 71.1167 20.3 69.9834 25.1166C68.85 29.9333 64.175 28.9416 59.925 30.3583Z" fill="white" fill-opacity="0.6"/>
<path d="M22.8084 37.725C22.8084 37.725 20.5417 31.6334 17.5667 29.7917C14.5917 27.95 9.35005 30.5 11.7584 35.0334C14.1667 39.5667 18.2751 37.3 22.8084 37.725Z" fill="white" fill-opacity="0.6"/>
<path d="M65.0249 36.875C66.3098 34.8985 67.9416 33.1707 69.8416 31.775C72.2499 30.3583 77.0665 32.7666 74.5165 35.8833C71.9665 39 68.5666 38.0083 65.0249 36.875Z" fill="white" fill-opacity="0.6"/>
<path d="M8.2168 56.85H76.7835" stroke="white" stroke-miterlimit="10" stroke-linecap="round"/>
<path d="M63.6084 24.2667C63.5853 23.8949 63.644 23.5226 63.7803 23.1759C63.9165 22.8292 64.1271 22.5165 64.3972 22.26C64.6673 22.0034 64.9903 21.8091 65.3435 21.6908C65.6967 21.5725 66.0716 21.533 66.4417 21.5751H67.2917L68.0001 22.0001H66.8667C66.1449 21.9404 65.4247 22.134 64.8301 22.5476C64.2355 22.9613 63.8035 23.5691 63.6084 24.2667Z" fill="#A97398"/>
<path d="M13.175 33.05C13.2262 32.7315 13.3407 32.4265 13.512 32.1531C13.6832 31.8797 13.9076 31.6435 14.1719 31.4586C14.4361 31.2736 14.7349 31.1436 15.0504 31.0762C15.3658 31.0089 15.6916 31.0057 16.0084 31.0667H16.7167L17.2834 31.35H17.1417L16.4334 31.0667C15.7408 30.9323 15.0231 31.0611 14.4205 31.4279C13.8179 31.7947 13.3738 32.3731 13.175 33.05Z" fill="#A97398"/>
<path d="M70.125 33.9C70.2411 33.6995 70.3969 33.5248 70.583 33.3867C70.769 33.2486 70.9813 33.15 71.2069 33.0969C71.4324 33.0439 71.6664 33.0375 71.8945 33.0781C72.1226 33.1188 72.34 33.2056 72.5333 33.3334H72.9583L73.2417 33.7584H73.1L72.675 33.475C72.2694 33.2293 71.7891 33.137 71.3212 33.215C70.8534 33.293 70.429 33.536 70.125 33.9Z" fill="#A97398"/>
</svg>
