<svg width="85" height="50" viewBox="0 0 85 50" fill="none" xmlns="http://www.w3.org/2000/svg">
<path d="M64.3165 2.875L53.4082 16.6167H61.0582L57.5165 25.4L68.7082 12.3667H61.0582L64.3165 2.875Z" fill="white"/>
<path d="M72.5334 12.9333H81.7418V46.7917H7.79175V12.9333H50.2918" stroke="white" stroke-width="1.5" stroke-linecap="round" stroke-linejoin="round"/>
<path d="M7.79164 42.825H3.2583V17.0416H7.79164" stroke="white" stroke-width="1.5" stroke-linecap="round" stroke-linejoin="round"/>
<path d="M19.7542 37.7958L16.1089 30.6348V37.7958H14.7122V28.0252H16.2384L19.9586 35.3838L23.6856 28.0252H25.205V37.7958H23.8151V30.6348L20.1698 37.7958H19.7542Z" fill="white" fill-opacity="0.6"/>
<path d="M27.5898 34.6275C27.5898 34.4413 27.6239 34.2687 27.692 34.1097C27.7647 33.9462 27.8601 33.8031 27.9782 33.6805C28.1008 33.5578 28.2439 33.4624 28.4074 33.3943C28.5709 33.3216 28.7435 33.2853 28.9252 33.2853H32.3865V31.8817H28.0054V30.5394H32.3865C32.5728 30.5394 32.7477 30.5757 32.9112 30.6484C33.0747 30.7166 33.2155 30.812 33.3336 30.9346C33.4563 31.0527 33.5517 31.1935 33.6198 31.357C33.6925 31.5206 33.7288 31.6954 33.7288 31.8817V37.7958H32.3865V36.5694C32.3729 36.7375 32.3275 36.8965 32.2503 37.0464C32.173 37.1963 32.0731 37.328 31.9505 37.4415C31.8324 37.5506 31.6961 37.6369 31.5417 37.7005C31.3872 37.7641 31.2237 37.7958 31.0511 37.7958H28.9252C28.7435 37.7958 28.5709 37.7618 28.4074 37.6936C28.2439 37.621 28.1008 37.5256 27.9782 37.4075C27.8601 37.2848 27.7647 37.1417 27.692 36.9782C27.6239 36.8147 27.5898 36.6398 27.5898 36.4536V34.6275ZM28.9252 36.4536H32.3865V34.6275H28.9252V36.4536Z" fill="white" fill-opacity="0.6"/>
<path d="M35.9705 31.8817C35.9705 31.6954 36.0045 31.5206 36.0727 31.357C36.1453 31.1935 36.2407 31.0527 36.3588 30.9346C36.4815 30.812 36.6246 30.7166 36.7881 30.6484C36.9516 30.5757 37.1242 30.5394 37.3059 30.5394H39.7111C39.8883 30.5394 40.0563 30.5735 40.2153 30.6416C40.3743 30.7052 40.5128 30.7961 40.6309 30.9142C40.7536 31.0277 40.8512 31.164 40.9239 31.323C41.0011 31.4774 41.042 31.6432 41.0466 31.8204V30.5394H42.3888V39.3834C42.3888 39.5696 42.3525 39.7445 42.2798 39.9081C42.2117 40.0716 42.1163 40.2124 41.9937 40.3305C41.8755 40.4531 41.7347 40.5485 41.5712 40.6167C41.4077 40.6893 41.2328 40.7257 41.0466 40.7257H36.8085V39.3834H41.0466V37.5165H37.3059C37.1242 37.5165 36.9516 37.4824 36.7881 37.4143C36.6246 37.3416 36.4815 37.2462 36.3588 37.1281C36.2407 37.0055 36.1453 36.8624 36.0727 36.6989C36.0045 36.5353 35.9705 36.3605 35.9705 36.1742V31.8817ZM41.0466 36.1742V31.8817H37.3059V36.1742H41.0466Z" fill="white" fill-opacity="0.6"/>
<path d="M46.1567 33.6123C45.966 33.6123 45.7843 33.576 45.6117 33.5033C45.4436 33.4261 45.296 33.3262 45.1688 33.2035C45.0416 33.0763 44.9417 32.9287 44.869 32.7606C44.7963 32.588 44.76 32.4063 44.76 32.2155V29.422C44.76 29.2312 44.7963 29.0518 44.869 28.8837C44.9417 28.7111 45.0416 28.5635 45.1688 28.4408C45.296 28.3136 45.4436 28.2137 45.6117 28.141C45.7843 28.0638 45.966 28.0252 46.1567 28.0252H50.899C51.0898 28.0252 51.2692 28.0638 51.4372 28.141C51.6099 28.2137 51.7598 28.3136 51.8869 28.4408C52.0141 28.5635 52.1141 28.7111 52.1867 28.8837C52.2594 29.0518 52.2958 29.2312 52.2958 29.422V30.6825H50.899V29.422H46.1567V32.2155H50.899C51.0898 32.2155 51.2692 32.2519 51.4372 32.3246C51.6099 32.3972 51.7598 32.4972 51.8869 32.6244C52.0141 32.7515 52.1141 32.9014 52.1867 33.0741C52.2594 33.2421 52.2958 33.4215 52.2958 33.6123V36.3991C52.2958 36.5898 52.2594 36.7715 52.1867 36.9442C52.1141 37.1122 52.0141 37.2598 51.8869 37.387C51.7598 37.5142 51.6099 37.6142 51.4372 37.6868C51.2692 37.7595 51.0898 37.7958 50.899 37.7958H46.0205C45.8297 37.7958 45.648 37.7595 45.4754 37.6868C45.3073 37.6142 45.1597 37.5142 45.0325 37.387C44.9053 37.2598 44.8054 37.1122 44.7327 36.9442C44.66 36.7715 44.6237 36.5898 44.6237 36.3991V35.1454H46.0205V36.3991H50.899V33.6123H46.1567Z" fill="white" fill-opacity="0.6"/>
<path d="M54.6805 34.6275C54.6805 34.4413 54.7146 34.2687 54.7827 34.1097C54.8554 33.9462 54.9508 33.8031 55.0689 33.6805C55.1915 33.5578 55.3346 33.4624 55.4981 33.3943C55.6617 33.3216 55.8343 33.2853 56.016 33.2853H59.4772V31.8817H55.0961V30.5394H59.4772C59.6635 30.5394 59.8384 30.5757 60.0019 30.6484C60.1654 30.7166 60.3062 30.812 60.4243 30.9346C60.547 31.0527 60.6424 31.1935 60.7105 31.357C60.7832 31.5206 60.8195 31.6954 60.8195 31.8817V37.7958H59.4772V36.5694C59.4636 36.7375 59.4182 36.8965 59.341 37.0464C59.2638 37.1963 59.1638 37.328 59.0412 37.4415C58.9231 37.5506 58.7868 37.6369 58.6324 37.7005C58.4779 37.7641 58.3144 37.7958 58.1418 37.7958H56.016C55.8343 37.7958 55.6617 37.7618 55.4981 37.6936C55.3346 37.621 55.1915 37.5256 55.0689 37.4075C54.9508 37.2848 54.8554 37.1417 54.7827 36.9782C54.7146 36.8147 54.6805 36.6398 54.6805 36.4536V34.6275ZM56.016 36.4536H59.4772V34.6275H56.016V36.4536Z" fill="white" fill-opacity="0.6"/>
<path d="M65.7525 29.0881V30.5394H68.1373V31.8817H65.7525V37.7958H64.4103V31.8817H62.6387V30.5394H64.4103V29.0881C64.4103 28.9019 64.4443 28.7293 64.5125 28.5703C64.5851 28.4068 64.6828 28.2637 64.8055 28.141C64.9281 28.0184 65.0712 27.923 65.2347 27.8549C65.3982 27.7822 65.5708 27.7458 65.7525 27.7458H68.1373V29.0881H65.7525Z" fill="white" fill-opacity="0.6"/>
<path d="M76.0955 34.8524H71.292V36.4536H76.0955V37.7958H71.292C71.1103 37.7958 70.9376 37.7618 70.7741 37.6936C70.6106 37.621 70.4675 37.5256 70.3449 37.4075C70.2268 37.2848 70.1314 37.1417 70.0587 36.9782C69.9906 36.8147 69.9565 36.6398 69.9565 36.4536V31.8817C69.9565 31.6954 69.9906 31.5206 70.0587 31.357C70.1314 31.1935 70.2268 31.0527 70.3449 30.9346C70.4675 30.812 70.6106 30.7166 70.7741 30.6484C70.9376 30.5757 71.1103 30.5394 71.292 30.5394H74.7532C74.9395 30.5394 75.1144 30.5757 75.2779 30.6484C75.4414 30.7166 75.5822 30.812 75.7003 30.9346C75.823 31.0527 75.9184 31.1935 75.9865 31.357C76.0592 31.5206 76.0955 31.6954 76.0955 31.8817V34.8524ZM71.292 31.8817V33.5101H74.7532V31.8817H71.292Z" fill="white" fill-opacity="0.6"/>
<path d="M15.1492 24.4225L13.6772 19.2743H14.4132L15.5549 23.3706L16.6929 19.2743H17.4289L18.5669 23.3706L19.7086 19.2743H20.4446L18.9726 24.4225H18.1649L17.0627 20.5631L15.957 24.4225H15.1492Z" fill="white" fill-opacity="0.6"/>
<path d="M22.0637 19.2743V24.4225H21.3277V19.2743H22.0637Z" fill="white" fill-opacity="0.6"/>
<path d="M27.456 21.1124C27.456 21.8304 27.1496 22.2397 26.5369 22.3402L27.5063 24.4225H26.6913L25.7364 22.3654H24.1244V24.4225H23.3884V19.2743H26.2067C27.0396 19.2743 27.456 19.6919 27.456 20.5272V21.1124ZM24.1244 21.6294H26.1672C26.3634 21.6294 26.5046 21.5863 26.5908 21.5001C26.677 21.414 26.72 21.2728 26.72 21.0765V20.5631C26.72 20.3669 26.677 20.2257 26.5908 20.1395C26.5046 20.0533 26.3634 20.0103 26.1672 20.0103H24.1244V21.6294Z" fill="white" fill-opacity="0.6"/>
<path d="M28.6874 19.2743H32.439V20.0103H29.4234V21.4822H31.9975V22.2182H29.4234V23.6865H32.439V24.4225H28.6874V19.2743Z" fill="white" fill-opacity="0.6"/>
<path d="M34.2772 19.2743V23.6865H36.9231V24.4225H33.5412V19.2743H34.2772Z" fill="white" fill-opacity="0.6"/>
<path d="M37.8062 19.2743H41.5579V20.0103H38.5422V21.4822H41.1163V22.2182H38.5422V23.6865H41.5579V24.4225H37.8062V19.2743Z" fill="white" fill-opacity="0.6"/>
<path d="M43.396 22.2182C43.2955 22.2182 43.1997 22.199 43.1088 22.1607C43.0202 22.12 42.9424 22.0674 42.8754 22.0028C42.8084 21.9357 42.7558 21.858 42.7175 21.7694C42.6792 21.6785 42.66 21.5827 42.66 21.4822V20.0103C42.66 19.9097 42.6792 19.8152 42.7175 19.7266C42.7558 19.6357 42.8084 19.5579 42.8754 19.4933C42.9424 19.4263 43.0202 19.3736 43.1088 19.3353C43.1997 19.2946 43.2955 19.2743 43.396 19.2743H45.8947C45.9952 19.2743 46.0898 19.2946 46.1783 19.3353C46.2693 19.3736 46.3482 19.4263 46.4153 19.4933C46.4823 19.5579 46.5349 19.6357 46.5732 19.7266C46.6115 19.8152 46.6307 19.9097 46.6307 20.0103V20.6744H45.8947V20.0103H43.396V21.4822H45.8947C45.9952 21.4822 46.0898 21.5013 46.1783 21.5396C46.2693 21.5779 46.3482 21.6306 46.4153 21.6976C46.4823 21.7646 46.5349 21.8436 46.5732 21.9345C46.6115 22.0231 46.6307 22.1176 46.6307 22.2182V23.6865C46.6307 23.787 46.6115 23.8828 46.5732 23.9737C46.5349 24.0623 46.4823 24.1401 46.4153 24.2071C46.3482 24.2741 46.2693 24.3267 46.1783 24.365C46.0898 24.4033 45.9952 24.4225 45.8947 24.4225H43.3242C43.2237 24.4225 43.1279 24.4033 43.037 24.365C42.9484 24.3267 42.8706 24.2741 42.8036 24.2071C42.7366 24.1401 42.684 24.0623 42.6457 23.9737C42.6074 23.8828 42.5882 23.787 42.5882 23.6865V23.0259H43.3242V23.6865H45.8947V22.2182H43.396Z" fill="white" fill-opacity="0.6"/>
<path d="M48.695 22.2182C48.5944 22.2182 48.4987 22.199 48.4078 22.1607C48.3192 22.12 48.2414 22.0674 48.1744 22.0028C48.1074 21.9357 48.0547 21.858 48.0164 21.7694C47.9781 21.6785 47.959 21.5827 47.959 21.4822V20.0103C47.959 19.9097 47.9781 19.8152 48.0164 19.7266C48.0547 19.6357 48.1074 19.5579 48.1744 19.4933C48.2414 19.4263 48.3192 19.3736 48.4078 19.3353C48.4987 19.2946 48.5944 19.2743 48.695 19.2743H51.1937C51.2942 19.2743 51.3887 19.2946 51.4773 19.3353C51.5682 19.3736 51.6472 19.4263 51.7142 19.4933C51.7812 19.5579 51.8339 19.6357 51.8722 19.7266C51.9105 19.8152 51.9296 19.9097 51.9296 20.0103V20.6744H51.1937V20.0103H48.695V21.4822H51.1937C51.2942 21.4822 51.3887 21.5013 51.4773 21.5396C51.5682 21.5779 51.6472 21.6306 51.7142 21.6976C51.7812 21.7646 51.8339 21.8436 51.8722 21.9345C51.9105 22.0231 51.9296 22.1176 51.9296 22.2182V23.6865C51.9296 23.787 51.9105 23.8828 51.8722 23.9737C51.8339 24.0623 51.7812 24.1401 51.7142 24.2071C51.6472 24.2741 51.5682 24.3267 51.4773 24.365C51.3887 24.4033 51.2942 24.4225 51.1937 24.4225H48.6232C48.5226 24.4225 48.4269 24.4033 48.336 24.365C48.2474 24.3267 48.1696 24.2741 48.1026 24.2071C48.0356 24.1401 47.9829 24.0623 47.9446 23.9737C47.9063 23.8828 47.8872 23.787 47.8872 23.6865V23.0259H48.6232V23.6865H51.1937V22.2182H48.695Z" fill="white" fill-opacity="0.6"/>
</svg>
