<svg width="79" height="79" viewBox="0 0 79 79" fill="none" xmlns="http://www.w3.org/2000/svg">
<path d="M79 39.5C79 61.3152 61.3152 79 39.5 79C17.6848 79 0 61.3152 0 39.5C0 17.6848 17.6848 0 39.5 0C61.3152 0 79 17.6848 79 39.5Z" fill="url(#paint0_linear_116_8)"/>
<path d="M56.6714 27.3024C55.0862 24.0492 50.5199 21.3875 45.2084 22.9372C42.6703 23.6703 40.4558 25.2426 38.9268 27.397C37.3978 25.2426 35.1833 23.6703 32.6452 22.9372C27.3218 21.4112 22.7673 24.0492 21.1821 27.3024C18.9581 31.8568 19.8809 36.9791 23.9266 42.5273C27.097 46.8688 31.6278 51.2695 38.2052 56.3799C38.413 56.5421 38.6691 56.6301 38.9327 56.6301C39.1963 56.6301 39.4524 56.5421 39.6602 56.3799C46.2257 51.2813 50.7684 46.9161 53.9387 42.5273C57.9727 36.9791 58.8954 31.8568 56.6714 27.3024Z" fill="white"/>
<defs>
<linearGradient id="paint0_linear_116_8" x1="39.5" y1="0" x2="39.5" y2="79" gradientUnits="userSpaceOnUse">
<stop stop-color="#1DBB55"/>
<stop offset="1" stop-color="#14AF4C"/>
</linearGradient>
</defs>
</svg>
