<svg xmlns="http://www.w3.org/2000/svg" width="32" height="32" viewBox="0 0 32 32" fill="none">
<path d="M15.9993 0.0527649C7.18993 0.0527649 0.0482178 7.19429 0.0482178 16.0036C0.0482178 24.8133 7.18993 31.9543 15.9993 31.9543C24.8096 31.9543 31.9505 24.8133 31.9505 16.0036C31.9505 7.19486 24.8096 0.0535268 15.9991 0.0535268L15.9993 0.0527649V0.0527649ZM23.3143 23.0585C23.0286 23.5271 22.4153 23.6756 21.9467 23.388C18.2016 21.1004 13.4869 20.5823 7.9345 21.8509C7.39946 21.9728 6.86612 21.6375 6.74422 21.1023C6.62174 20.5671 6.95565 20.0337 7.49203 19.9118C13.5682 18.5231 18.7802 19.1213 22.9848 21.6909C23.4534 21.9785 23.6019 22.5899 23.3143 23.0585V23.0585ZM25.2667 18.7147C24.9067 19.3004 24.141 19.4851 23.5562 19.1251C19.2686 16.4891 12.7328 15.7259 7.66136 17.2653C7.00365 17.464 6.30898 17.0933 6.10936 16.4368C5.91127 15.7791 6.28212 15.0857 6.93869 14.8857C12.7316 13.128 19.9334 13.9794 24.8572 17.0051C25.4419 17.3651 25.6267 18.1309 25.2667 18.7149V18.7147ZM25.4343 14.192C20.2934 11.1385 11.8115 10.8577 6.90308 12.3474C6.11488 12.5865 5.28136 12.1415 5.0425 11.3533C4.80365 10.5648 5.24822 9.73181 6.03698 9.49219C11.6715 7.78172 21.0381 8.11219 26.957 11.6259C27.6675 12.0467 27.8998 12.9623 27.4789 13.6703C27.0598 14.3792 26.1417 14.613 25.4351 14.192H25.4343Z" fill="#1ED760"/>
</svg>