<svg width="32" height="32" viewBox="0 0 32 32" fill="none" xmlns="http://www.w3.org/2000/svg">
<path d="M14.4473 31.6036C12.0371 31.3727 9.59711 30.5073 7.50111 29.1396C5.74475 27.9942 5.34839 27.5225 5.34839 26.5825C5.34839 24.6942 7.42475 21.3862 10.9775 17.616C12.9946 15.4742 15.8047 12.9651 16.1084 13.0327C16.6997 13.1647 21.4233 17.7724 23.192 19.9418C25.9884 23.3709 27.2735 26.1796 26.6204 27.4316C26.124 28.3833 23.0433 30.2436 20.7804 30.9582C18.9149 31.5473 16.4651 31.7967 14.4473 31.6036V31.6036ZM2.97602 24.6193C1.51638 22.38 0.77893 20.1756 0.423294 16.9873C0.305476 15.9345 0.34693 15.3327 0.689839 13.1713C1.11638 10.4804 2.64984 7.364 4.49348 5.44764C5.2782 4.63309 5.34802 4.61127 6.30511 4.93491C7.46511 5.32764 8.70511 6.18436 10.6287 7.924L11.7524 8.94L11.1378 9.69273C8.29129 13.1873 5.28693 18.1436 4.15602 21.2091C3.54148 22.8745 3.2942 24.5473 3.55966 25.2436C3.73784 25.7142 3.5742 25.5389 2.9742 24.6204L2.97602 24.6193ZM28.5953 25C28.7397 24.296 28.5571 23.0036 28.1298 21.6996C27.2044 18.876 24.1102 13.6233 21.2691 10.0516L20.3746 8.92727L21.3426 8.03891C22.6058 6.87891 23.4829 6.18436 24.4298 5.59418C25.1764 5.12873 26.2437 4.71673 26.7026 4.71673C26.9851 4.71673 27.9811 5.75309 28.7847 6.88036C30.0298 8.62582 30.9455 10.7458 31.4095 12.9495C31.7095 14.3749 31.7346 17.4222 31.4578 18.844C31.2288 20.0105 30.7488 21.5225 30.2833 22.5484C29.9306 23.3167 29.0615 24.8095 28.6797 25.2953C28.4833 25.5451 28.4833 25.5447 28.5924 25.0058L28.5953 25ZM14.7055 4.18364C13.3942 3.51818 11.3717 2.80364 10.2546 2.61091C9.86329 2.54364 9.19529 2.50545 8.77093 2.52727C7.84875 2.57382 7.88984 2.52582 9.36838 1.82727C10.5975 1.24654 11.6229 0.90509 13.0157 0.612727C14.5811 0.283636 17.5247 0.279999 19.0655 0.604727C20.7291 0.955636 22.6888 1.68473 23.7928 2.36473L24.1215 2.56618L23.3687 2.52836C21.872 2.45273 19.6909 3.05745 17.3491 4.19636C16.6429 4.54036 16.0291 4.81454 15.984 4.80727C15.9393 4.79854 15.3637 4.51818 14.704 4.18364H14.7055Z" fill="#107C10"/>
</svg>
