<svg width="72" height="71" viewBox="0 0 72 71" fill="none" xmlns="http://www.w3.org/2000/svg">
<path d="M61.2869 61.061C59.7732 61.3199 58.2175 61.2205 56.7516 60.7713C55.2857 60.3221 53.9526 59.5363 52.8652 58.4803C52.832 58.4482 52.8005 58.4151 52.7707 58.381L41.1578 45.8477L30.8565 45.8877L19.2296 58.3837C19.2004 58.4167 19.1696 58.4489 19.1374 58.4803C17.6992 59.8781 15.8401 60.7938 13.8301 61.0943C11.8201 61.3948 9.7639 61.0646 7.96015 60.1515C6.15639 59.2384 4.699 57.79 3.79966 56.0168C2.90031 54.2435 2.60585 52.2376 2.95903 50.2905L2.96466 50.2621L7.54959 27.3352C7.55213 27.3163 7.55522 27.2977 7.55859 27.2789C8.21757 23.6031 10.1913 20.272 13.1313 17.8737C16.0713 15.4755 19.7884 14.1643 23.6261 14.1719L48.375 14.1008H48.3801C52.1996 14.1061 55.8964 15.4123 58.8281 17.7926C61.7598 20.1728 63.7409 23.4766 64.4271 27.1296C64.431 27.146 64.4364 27.1624 64.4397 27.1791L69.0382 50.2635L69.0435 50.2905C69.4808 52.7184 68.9098 55.2159 67.4556 57.2349C66.0014 59.254 63.7832 60.6302 61.2869 61.061ZM48.3733 42.5383C51.8046 42.5398 55.0959 41.216 57.5232 38.8581C59.9505 36.5003 61.315 33.3016 61.3164 29.9657C61.3179 26.6297 59.9563 23.4299 57.5311 21.07C55.1059 18.7101 51.8158 17.3835 48.3846 17.3821L23.6312 17.4532C20.6018 17.4459 17.6663 18.4747 15.3385 20.3596C13.0108 22.2444 11.439 24.8652 10.8984 27.7631C10.8936 27.8008 10.8874 27.8383 10.8799 27.8755L6.28059 50.8738C6.05615 52.1289 6.24729 53.4209 6.82649 54.5636C7.40569 55.7063 8.34304 56.6408 9.50351 57.2324C10.664 57.824 11.9877 58.0422 13.2839 57.8555C14.58 57.6689 15.7818 57.087 16.7161 56.1938L28.8532 43.1495C29.0106 42.9802 29.2027 42.8448 29.417 42.7518C29.6313 42.6588 29.8633 42.6103 30.098 42.6094L48.3733 42.5383ZM65.7219 50.8732L62.9677 37.0461C61.6126 39.6802 59.5306 41.8958 56.9544 43.4452C54.3782 44.9947 51.4094 45.8168 48.3801 45.8196L45.684 45.83L55.2876 56.1946C56.2219 57.0878 57.4238 57.6695 58.72 57.856C60.0162 58.0425 61.3398 57.8241 62.5002 57.2323C63.6606 56.6406 64.5978 55.7059 65.1768 54.5631C65.7558 53.4203 65.9466 52.1283 65.7219 50.8732Z" fill="white"/>
<path d="M42.75 31.6719H51.75C52.1976 31.6719 52.6268 31.499 52.9432 31.1913C53.2597 30.8837 53.4375 30.4664 53.4375 30.0312C53.4375 29.5961 53.2597 29.1788 52.9432 28.8712C52.6268 28.5635 52.1976 28.3906 51.75 28.3906H42.75C42.3025 28.3906 41.8732 28.5635 41.5568 28.8712C41.2403 29.1788 41.0625 29.5961 41.0625 30.0312C41.0625 30.4664 41.2403 30.8837 41.5568 31.1913C41.8732 31.499 42.3025 31.6719 42.75 31.6719Z" fill="white" fill-opacity="0.35"/>
<path d="M26.4375 28.3906H29.25C29.6976 28.3906 30.1268 28.5635 30.4432 28.8712C30.7597 29.1788 30.9375 29.5961 30.9375 30.0312C30.9375 30.4664 30.7597 30.8837 30.4432 31.1913C30.1268 31.499 29.6976 31.6719 29.25 31.6719H26.4375V34.4062C26.4375 34.8414 26.2597 35.2587 25.9432 35.5663C25.6268 35.874 25.1976 36.0469 24.75 36.0469C24.3024 36.0469 23.8732 35.874 23.5568 35.5663C23.2403 35.2587 23.0625 34.8414 23.0625 34.4062V31.6719H20.25C19.8024 31.6719 19.3732 31.499 19.0568 31.1913C18.7403 30.8837 18.5625 30.4664 18.5625 30.0312C18.5625 29.5961 18.7403 29.1788 19.0568 28.8712C19.3732 28.5635 19.8024 28.3906 20.25 28.3906H23.0625V25.6562C23.0625 25.2211 23.2403 24.8038 23.5568 24.4962C23.8732 24.1885 24.3024 24.0156 24.75 24.0156C25.1976 24.0156 25.6268 24.1885 25.9432 24.4962C26.2597 24.8038 26.4375 25.2211 26.4375 25.6562V28.3906Z" fill="white" fill-opacity="0.35"/>
</svg>
