<svg width="66" height="67" viewBox="0 0 66 67" fill="none" xmlns="http://www.w3.org/2000/svg">
<path d="M2.20001 15.9V51.1C2.20001 52.267 2.66358 53.3861 3.48874 54.2113C4.3139 55.0364 5.43306 55.5 6.60001 55.5H59.4C60.567 55.5 61.6861 55.0364 62.5113 54.2113C63.3364 53.3861 63.8 52.267 63.8 51.1V15.9C63.8 14.733 63.3364 13.6139 62.5113 12.7887C61.6861 11.9636 60.567 11.5 59.4 11.5H6.60001C5.43306 11.5 4.3139 11.9636 3.48874 12.7887C2.66358 13.6139 2.20001 14.733 2.20001 15.9Z" stroke="white" stroke-width="3"/>
<path d="M35.2 24.7H44M19.8 26.9V40.1M13.2 33.5H26.4M44 42.3H52.8" stroke="white" stroke-opacity="0.35" stroke-width="2.13333"/>
</svg>
