<svg width="100" height="100" viewBox="0 0 100 100" fill="none" xmlns="http://www.w3.org/2000/svg">
<path d="M78.6675 6.83254C77.975 6.20629 77.3525 5.51129 76.84 4.75254C75.8425 4.82879 74.8438 4.81504 73.9063 4.76504C72.6488 4.69754 71.3975 4.54629 70.14 4.49004C67.9975 4.39254 65.8288 4.49504 63.685 4.53129C58.8175 4.61254 53.9513 4.76004 49.0825 4.82254C46.6888 4.85379 44.295 4.83379 41.9013 4.89379C39.6038 4.95129 37.3075 5.04504 35.0088 5.06379C32.7413 5.08254 30.4675 5.03004 28.2125 4.77754C27.2638 4.67129 26.2613 4.56254 25.2725 4.39629C25.1188 4.38504 24.9663 4.37004 24.8125 4.35754C24.55 5.12004 23.9938 5.76754 23.3 6.19254C22.615 7.29504 21.575 8.16504 20.3738 8.57879V94.375H79.1238V7.18379C78.9638 7.07879 78.8113 6.96129 78.6675 6.83254Z" fill="black"/>
<path d="M25.4525 99C24.2113 98.5462 22.8775 98.255 21.7463 97.61C18.085 95.5212 16.35 92.2487 16.3363 88.0612C16.3188 82.7762 16.3325 77.4912 16.3325 72.205C16.3325 52.2425 16.3325 32.2787 16.3325 12.3162C16.3325 7.72499 18.26 4.23999 22.43 2.24124C23.735 1.61624 25.2963 1.24374 26.7425 1.23749C42.1825 1.16874 57.625 1.16249 73.0663 1.21249C78.9688 1.23124 83.4088 5.92499 83.4725 12.0312C83.5025 14.96 83.4775 17.89 83.4775 20.8187C83.4775 43.17 83.48 65.52 83.475 87.8712C83.4738 92.6237 81.3975 96.1137 77.0488 98.1375C76.2013 98.5325 75.2563 98.7187 74.3563 99.0012C58.055 99 41.7538 99 25.4525 99ZM77.7463 50.1925C77.7463 39.3362 77.7463 28.48 77.7463 17.6237C77.7463 15.7137 77.7738 13.8025 77.7388 11.8937C77.6838 8.93374 75.6538 6.94624 72.71 6.92374C71.9138 6.91749 71.1125 6.97999 70.3238 6.90749C69.465 6.82874 69.0513 7.07999 68.7825 7.97249C67.9663 10.68 67.0263 13.35 66.1275 16.0312C65.5563 17.7362 64.6638 18.3825 62.87 18.3837C54.2425 18.3875 45.615 18.3862 36.9875 18.3837C35.1225 18.3837 34.2625 17.7587 33.6688 15.9862C32.7713 13.3037 31.8425 10.6312 31.0075 7.92874C30.7525 7.10374 30.3763 6.81249 29.5338 6.90624C28.81 6.98624 28.0713 6.92124 27.3388 6.92374C24.0425 6.93124 22.065 8.90499 22.0638 12.2262C22.06 37.4725 22.06 62.7187 22.0638 87.965C22.0638 91.2862 24.0425 93.2687 27.3375 93.27C42.3963 93.2725 57.455 93.2725 72.5138 93.2675C72.9563 93.2675 73.41 93.2575 73.8413 93.1675C76.3188 92.65 77.7438 90.7325 77.745 87.9212C77.7488 75.3437 77.7463 62.7675 77.7463 50.1925ZM63.0988 6.98374C54.2513 6.98374 45.5213 6.98374 36.71 6.98374C37.2988 8.74624 37.8413 10.4375 38.445 12.1062C38.5313 12.3437 38.9138 12.6287 39.16 12.63C46.3213 12.6575 53.4838 12.6575 60.645 12.63C60.8925 12.6287 61.2775 12.3462 61.3625 12.11C61.9663 10.4412 62.5088 8.74999 63.0988 6.98374Z" fill="black"/>
<path d="M66.9413 35.1862C66.6013 35.6687 66.3775 35.9662 66.1725 36.2787C63.185 40.8237 60.2037 45.3737 57.2112 49.915C56.3837 51.1712 55.205 51.6837 53.9675 51.3687C52.0337 50.8775 51.1987 48.7162 52.3162 46.9587C53.6987 44.785 55.1375 42.6475 56.5512 40.4925C58.3463 37.7575 60.1413 35.0212 62.0713 32.08C61.2988 32.2362 60.735 32.3525 60.1712 32.465C58.3662 32.825 56.8888 31.94 56.5175 30.2787C56.1663 28.71 57.1675 27.2475 58.9238 26.8625C61.8113 26.23 64.7025 25.6175 67.6012 25.0412C69.4237 24.6787 70.7225 25.53 71.135 27.3575C71.7863 30.24 72.4088 33.13 72.9938 36.0275C73.3438 37.76 72.4288 39.2462 70.9075 39.5812C69.2513 39.9462 67.8225 38.9787 67.39 37.19C67.245 36.5862 67.1188 35.9787 66.9413 35.1862Z" fill="white"/>
<path d="M37.7412 79.5863C38.5375 79.4175 39.12 79.285 39.7062 79.1738C41.465 78.8388 42.9087 79.7188 43.2825 81.3475C43.645 82.925 42.6637 84.3963 40.91 84.7825C37.9925 85.425 35.0687 86.0413 32.1387 86.6225C30.435 86.96 29.0812 86.095 28.6987 84.4113C28.03 81.4663 27.395 78.5138 26.8075 75.5525C26.4675 73.8363 27.4375 72.3538 28.97 72.06C30.6225 71.7425 31.9787 72.6763 32.41 74.4363C32.5575 75.0413 32.6862 75.65 32.8775 76.4925C33.195 76.025 33.385 75.7513 33.5675 75.4738C36.59 70.875 39.615 66.2788 42.6312 61.6763C43.3462 60.5863 44.3337 60.0463 45.6262 60.2475C46.8 60.4313 47.5625 61.1638 47.8987 62.3025C48.1925 63.2988 47.8662 64.165 47.3162 64.9988C44.3375 69.5113 41.3725 74.0338 38.4037 78.5538C38.2162 78.8388 38.0362 79.125 37.7412 79.5863Z" fill="white"/>
<path d="M50 8.625C51.2081 8.625 52.1875 7.64562 52.1875 6.4375C52.1875 5.22938 51.2081 4.25 50 4.25C48.7919 4.25 47.8125 5.22938 47.8125 6.4375C47.8125 7.64562 48.7919 8.625 50 8.625Z" fill="white"/>
</svg>
