<svg width="55" height="55" viewBox="0 0 55 55" fill="none" xmlns="http://www.w3.org/2000/svg">
<path fill-rule="evenodd" clip-rule="evenodd" d="M27.5 13.75C29.3985 13.75 30.9375 12.2111 30.9375 10.3125C30.9375 8.41407 29.3985 6.87504 27.5 6.87504C25.6015 6.87504 24.0625 8.41407 24.0625 10.3125C24.0625 12.2111 25.6015 13.75 27.5 13.75ZM27.5 16.0417C30.6641 16.0417 33.2292 13.4766 33.2292 10.3125C33.2292 7.14841 30.6641 4.58337 27.5 4.58337C24.3359 4.58337 21.7708 7.14841 21.7708 10.3125C21.7708 13.4766 24.3359 16.0417 27.5 16.0417Z" fill="#232B7C" fill-opacity="0.6"/>
<path fill-rule="evenodd" clip-rule="evenodd" d="M19.9077 20.9852C20.9887 21.191 21.7708 22.1361 21.7708 23.2366V46.9792C21.7708 47.612 22.2838 48.125 22.9167 48.125H23.0161C23.6087 48.125 24.1036 47.6731 24.1573 47.0829L25.2083 35.5208C25.2117 34.2576 26.2367 33.2351 27.5 33.2351C28.7633 33.2351 29.7883 34.2574 29.7917 35.5207L30.8427 47.0829C30.8964 47.6731 31.3912 48.125 31.9839 48.125H32.0833C32.7162 48.125 33.2292 47.612 33.2292 46.9792V23.2798C33.2292 22.1792 34.0115 21.2341 35.0927 21.0284C37.1048 20.6459 39.2324 20.1149 41.5706 19.4334C42.1782 19.2564 42.5271 18.6204 42.3501 18.0127C42.1731 17.4052 41.537 17.0563 40.9294 17.2333C35.6195 18.7809 31.5456 19.497 27.5049 19.4789C23.4601 19.4607 19.3813 18.7068 14.0564 17.2293C13.4466 17.0601 12.8151 17.4172 12.6459 18.0271C12.4767 18.6369 12.8339 19.2683 13.4437 19.4375C15.7733 20.0839 17.8963 20.6024 19.9077 20.9852ZM26.3288 47.8987C25.9239 49.3623 24.5841 50.4167 23.0161 50.4167H22.9167C21.0181 50.4167 19.4792 48.8777 19.4792 46.9792V23.2366C17.3871 22.8384 15.1998 22.3031 12.8309 21.6457C11.0016 21.1381 9.93008 19.2437 10.4377 17.4143C10.9453 15.5849 12.8397 14.5135 14.6691 15.0211C19.9048 16.4739 23.7613 17.1704 27.5151 17.1873C31.257 17.204 35.0985 16.5457 40.2882 15.0332C42.1109 14.502 44.019 15.549 44.5502 17.3715C45.0814 19.1942 44.0345 21.1024 42.2118 21.6336C39.8237 22.3295 37.6229 22.8801 35.5208 23.2798V46.9792C35.5208 48.8777 33.9819 50.4167 32.0833 50.4167H31.9839C30.4159 50.4167 29.0761 49.3623 28.6712 47.8987C28.634 47.7642 28.6047 47.6262 28.5837 47.4853C28.5742 47.421 28.5664 47.3559 28.5605 47.2904L27.5094 35.7283C27.5033 35.661 27.5002 35.5938 27.5 35.5268C27.4998 35.5938 27.4967 35.661 27.4906 35.7283L26.4395 47.2904C26.4336 47.3559 26.4258 47.421 26.4163 47.4853C26.3953 47.6262 26.366 47.7642 26.3288 47.8987Z" fill="#232B7C"/>
</svg>
