<svg width="16" height="12" viewBox="0 0 16 12" fill="none" xmlns="http://www.w3.org/2000/svg">
<path d="M8.54411 11.6916L15.7687 1.78278C15.8775 1.63902 15.9523 1.45387 15.9836 1.2512C16.0149 1.04853 16.0012 0.837659 15.9443 0.645781C15.8873 0.453903 15.7898 0.289827 15.6642 0.174723C15.5386 0.0596185 15.3908 -0.00123331 15.2397 1.89458e-05H0.76028C0.609242 -0.00123331 0.461395 0.0596185 0.335815 0.174723C0.210235 0.289827 0.112684 0.453903 0.0557478 0.645781C-0.00118793 0.837659 -0.0148959 1.04853 0.0163924 1.2512C0.0476806 1.45387 0.122529 1.63902 0.231282 1.78278L7.45589 11.6916C7.60037 11.8891 7.79603 12 8 12C8.20397 12 8.39963 11.8891 8.54411 11.6916Z" fill="#595959"/>
</svg>
