<svg width="32" height="32" viewBox="0 0 32 32" fill="none" xmlns="http://www.w3.org/2000/svg">
<path fill-rule="evenodd" clip-rule="evenodd" d="M17.936 0.0582275L17.9241 7.11393L17.912 14.1696L17.3519 12.5317C17.3517 12.5311 17.351 12.5291 17.3508 12.5285L16.627 28.2364C17.3386 30.3191 17.7199 31.4309 17.7242 31.4354C17.7298 31.4412 18.1354 31.4665 18.6255 31.4918C20.1104 31.5681 21.9505 31.7317 23.3464 31.9115C23.6696 31.9531 23.9478 31.9744 23.9645 31.9588C23.9813 31.9433 23.9904 24.7593 23.9848 15.9944L23.9746 0.0582275H20.9553H17.936V0.0582275Z" fill="#B1060F"/>
<path fill-rule="evenodd" clip-rule="evenodd" d="M7.01367 0.0366821V15.989C7.01367 24.7628 7.02196 31.95 7.0321 31.9605C7.04224 31.971 7.56656 31.9197 8.19725 31.8465C8.82794 31.7733 9.6996 31.6823 10.1343 31.6442C10.8009 31.5859 12.7912 31.4533 13.0217 31.4518C13.0887 31.4514 13.093 31.0929 13.1027 24.6951L13.113 17.9388L13.5946 19.3508C13.669 19.5691 13.6923 19.6372 13.7648 19.8498L14.4885 4.14582C14.3352 3.69656 14.4156 3.9324 14.2398 3.41754C13.6486 1.68511 13.1468 0.215699 13.1248 0.152177L13.0848 0.0366821H10.0493H7.01367V0.0366821Z" fill="#B1060F"/>
<path fill-rule="evenodd" clip-rule="evenodd" d="M7.01367 0.0366821V8.99117L13.1007 25.7241C13.1013 25.3406 13.1021 25.1334 13.1027 24.6951L13.113 17.9388L13.5946 19.3508C16.2752 27.2114 17.7154 31.4261 17.7239 31.4348C17.7295 31.4406 18.1351 31.466 18.6252 31.4912C20.1101 31.5676 21.9502 31.7312 23.3461 31.9109C23.6693 31.9525 23.9474 31.9738 23.9642 31.9583C23.9757 31.9476 23.9832 28.4251 23.9852 23.4559L17.9267 5.40524L17.9237 7.11339L17.9117 14.1691L17.3516 12.5312C16.8042 10.9307 16.4388 9.86041 14.2398 3.41754C13.6486 1.68511 13.1468 0.215699 13.1248 0.152177L13.0848 0.0366821H10.0493H7.01367H7.01367Z" fill="url(#paint0_radial_227_2)"/>
<path fill-rule="evenodd" clip-rule="evenodd" d="M7.01367 0.0366842L13.1129 17.947V17.9388L13.5944 19.3508C16.2751 27.2114 17.7153 31.4261 17.7238 31.4348C17.7294 31.4407 18.1349 31.466 18.6251 31.4912C20.11 31.5676 21.9501 31.7312 23.3459 31.9109C23.6675 31.9523 23.9442 31.9736 23.9635 31.9585L17.9116 14.1658V14.1691L17.3514 12.5312C16.8041 10.9307 16.4386 9.86041 14.2397 3.41754C13.6484 1.68511 13.1467 0.215699 13.1247 0.152177L13.0847 0.0366821H10.0491H7.01367V0.0366842Z" fill="#E50914"/>
<path fill-rule="evenodd" clip-rule="evenodd" d="M17.936 0.0582275L17.9241 7.11393L17.912 14.1696L17.3519 12.5317C17.3517 12.5311 17.351 12.5291 17.3508 12.5285L16.627 28.2364C17.3386 30.3191 17.7199 31.4309 17.7242 31.4354C17.7298 31.4412 18.1354 31.4665 18.6255 31.4918C20.1104 31.5681 21.9505 31.7317 23.3464 31.9115C23.6696 31.9531 23.9478 31.9744 23.9645 31.9588C23.9813 31.9433 23.9904 24.7593 23.9848 15.9944L23.9746 0.0582275H20.9553H17.936V0.0582275Z" fill="#B1060F"/>
<path fill-rule="evenodd" clip-rule="evenodd" d="M7.01367 0.0366821V15.989C7.01367 24.7628 7.02196 31.95 7.0321 31.9605C7.04224 31.971 7.56656 31.9197 8.19725 31.8465C8.82794 31.7733 9.6996 31.6823 10.1343 31.6442C10.8009 31.5859 12.7912 31.4533 13.0217 31.4518C13.0887 31.4514 13.093 31.0929 13.1027 24.6951L13.113 17.9388L13.5946 19.3508C13.669 19.5691 13.6923 19.6372 13.7648 19.8498L14.4885 4.14582C14.3352 3.69656 14.4156 3.9324 14.2398 3.41754C13.6486 1.68511 13.1468 0.215699 13.1248 0.152177L13.0848 0.0366821H10.0493H7.01367V0.0366821Z" fill="#B1060F"/>
<path fill-rule="evenodd" clip-rule="evenodd" d="M7.01367 0.0366821V8.99117L13.1007 25.7241C13.1013 25.3406 13.1021 25.1334 13.1027 24.6951L13.113 17.9388L13.5946 19.3508C16.2752 27.2114 17.7154 31.4261 17.7239 31.4348C17.7295 31.4406 18.1351 31.466 18.6252 31.4912C20.1101 31.5676 21.9502 31.7312 23.3461 31.9109C23.6693 31.9525 23.9474 31.9738 23.9642 31.9583C23.9757 31.9476 23.9832 28.4251 23.9852 23.4559L17.9267 5.40524L17.9237 7.11339L17.9117 14.1691L17.3516 12.5312C16.8042 10.9307 16.4388 9.86041 14.2398 3.41754C13.6486 1.68511 13.1468 0.215699 13.1248 0.152177L13.0848 0.0366821H10.0493H7.01367H7.01367Z" fill="url(#paint1_radial_227_2)"/>
<path fill-rule="evenodd" clip-rule="evenodd" d="M7.01367 0.0366842L13.1129 17.947V17.9388L13.5944 19.3508C16.2751 27.2114 17.7153 31.4261 17.7238 31.4348C17.7294 31.4407 18.1349 31.466 18.6251 31.4912C20.11 31.5676 21.9501 31.7312 23.3459 31.9109C23.6675 31.9523 23.9442 31.9736 23.9635 31.9585L17.9116 14.1658V14.1691L17.3514 12.5312C16.8041 10.9307 16.4386 9.86041 14.2397 3.41754C13.6484 1.68511 13.1467 0.215699 13.1247 0.152177L13.0847 0.0366821H10.0491H7.01367V0.0366842Z" fill="#E50914"/>
<defs>
<radialGradient id="paint0_radial_227_2" cx="0" cy="0" r="1" gradientUnits="userSpaceOnUse" gradientTransform="translate(15.2177 15.8144) rotate(-19.7388) scale(3.86187 145.441)">
<stop/>
<stop offset="1" stop-opacity="0"/>
</radialGradient>
<radialGradient id="paint1_radial_227_2" cx="0" cy="0" r="1" gradientUnits="userSpaceOnUse" gradientTransform="translate(15.2177 15.8144) rotate(-19.7388) scale(3.86187 145.441)">
<stop/>
<stop offset="1" stop-opacity="0"/>
</radialGradient>
</defs>
</svg>
