<svg width="102" height="111" viewBox="0 0 102 111" fill="none" xmlns="http://www.w3.org/2000/svg">
<circle cx="51.5" cy="50.5" r="50.5" fill="#292929"/>
<path d="M51.8808 50.5818C39.3908 50.5818 29.2314 60.7411 29.2314 73.2312C29.2314 73.7093 29.6498 74.1276 30.1279 74.1276H42.0203C43.9924 77.4144 47.5781 79.6854 51.6418 79.6854C55.7055 79.6854 59.351 77.4742 61.2633 74.1276H73.5741C74.0522 74.1276 74.4705 73.7093 74.4705 73.2312C74.5302 60.7411 64.3709 50.5818 51.8808 50.5818ZM31.084 72.3348C31.3828 65.4025 35.0283 59.3666 40.4665 55.781V68.4503C40.4665 69.8248 40.7055 71.0798 41.1836 72.3348H31.084ZM51.6418 77.8328C46.4426 77.8328 42.2593 73.5898 42.2593 68.4503V54.7053C45.1279 53.2113 48.4147 52.3149 51.8808 52.3149C55.1677 52.3149 58.2753 53.0917 61.084 54.4662V68.3905C61.084 69.9443 60.7255 71.3786 60.0681 72.6336C60.0083 72.6933 60.0083 72.7531 59.9486 72.8129C58.335 75.8607 55.2275 77.8328 51.6418 77.8328ZM62.1597 72.3348C62.5781 71.1396 62.8769 69.8248 62.8769 68.4503V55.4822C68.5541 59.0081 72.4386 65.2232 72.7374 72.275H62.1597V72.3348Z" fill="white"/>
<path d="M51.522 48.1315C58.6933 48.1315 64.5499 42.2749 64.5499 35.1036C64.5499 34.8048 64.5499 34.506 64.4902 34.2072H69.5698C70.0479 34.2072 70.4662 33.7889 70.4662 33.3108C70.4662 32.8327 70.0479 32.4144 69.5698 32.4144H64.2511C62.9961 26.5578 57.7372 22.1355 51.522 22.1355C44.3507 22.1355 38.4941 27.9921 38.4941 35.1634C38.4941 42.2749 44.3507 48.1315 51.522 48.1315ZM51.522 23.9283C56.781 23.9283 61.2033 27.5737 62.3985 32.4741H40.6455C41.8408 27.5737 46.2631 23.9283 51.522 23.9283ZM40.3467 34.267H62.6376C62.6376 34.5658 62.6973 34.8646 62.6973 35.1634C62.6973 41.3188 57.6774 46.3984 51.4623 46.3984C45.2471 46.3984 40.287 41.3188 40.287 35.1036C40.287 34.8048 40.287 34.506 40.3467 34.267Z" fill="white" fill-opacity="0.53"/>
<circle cx="79.5" cy="105.5" r="5.5" fill="#DC1A1B"/>
<circle cx="5.56401" cy="15.5641" r="3.94194" transform="rotate(-41.4434 5.56401 15.5641)" fill="#DC1A1B"/>
<circle cx="89" cy="97" r="2" fill="#292929"/>
<circle cx="10.823" cy="6.82292" r="2" transform="rotate(-41.4434 10.823 6.82292)" fill="#292929"/>
</svg>
