<svg width="102" height="111" viewBox="0 0 102 111" fill="none" xmlns="http://www.w3.org/2000/svg">
<circle cx="51.5" cy="50.5" r="50.5" fill="#292929"/>
<circle cx="79.5" cy="105.5" r="5.5" fill="#DC1A1B"/>
<circle cx="5.56401" cy="15.5641" r="3.94194" transform="rotate(-41.4434 5.56401 15.5641)" fill="#DC1A1B"/>
<circle cx="89" cy="97" r="2" fill="#292929"/>
<circle cx="10.823" cy="6.82292" r="2" transform="rotate(-41.4434 10.823 6.82292)" fill="#292929"/>
<path d="M41.875 74.625H31.75C30.8549 74.625 29.9964 74.2694 29.3635 73.6365C28.7306 73.0035 28.375 72.1451 28.375 71.25V51C28.375 50.1049 28.7306 49.2465 29.3635 48.6135C29.9964 47.9806 30.8549 47.625 31.75 47.625H41.875C42.7701 47.625 43.6285 47.9806 44.2615 48.6135C44.8944 49.2465 45.25 50.1049 45.25 51V71.25C45.25 72.1451 44.8944 73.0035 44.2615 73.6365C43.6285 74.2694 42.7701 74.625 41.875 74.625ZM30.75 50V72.25H42.875V50H30.75Z" fill="white" fill-opacity="0.53"/>
<path d="M72.25 30.75H35.125C34.2299 30.75 33.3714 31.1056 32.7385 31.7385C32.1056 32.3714 31.75 33.2299 31.75 34.125V44.25H34.125V33.125H73.25V58.75H48.625V61.125H52V67.875H48.625V70.25H63.8125V67.875H54.375V61.125H72.25C73.1451 61.125 74.0036 60.7694 74.6365 60.1365C75.2694 59.5035 75.625 58.6451 75.625 57.75V34.125C75.625 33.2299 75.2694 32.3714 74.6365 31.7385C74.0036 31.1056 73.1451 30.75 72.25 30.75Z" fill="white"/>
</svg>
