<svg width="31" height="31" viewBox="0 0 31 31" fill="none" xmlns="http://www.w3.org/2000/svg">
<path d="M15.141 28.977C14.961 28.977 14.783 28.97 14.605 28.963L21.834 16.444L26.013 23.682C23.478 26.902 19.547 28.977 15.14 28.977H15.141ZM2.904 21.588H17.359L13.174 28.835C8.713 28.197 4.933 25.425 2.904 21.588ZM3.439 7.771L10.664 20.284H2.299C1.659 18.693 1.304 16.958 1.304 15.141C1.304 12.434 2.089 9.907 3.439 7.772V7.771ZM15.141 1.304C15.321 1.304 15.499 1.311 15.677 1.318L8.447 13.837L4.267 6.599C6.802 3.378 10.733 1.304 15.14 1.304H15.141ZM27.378 8.693H12.923L17.108 1.446C21.569 2.083 25.349 4.856 27.378 8.693ZM18.112 20.284H12.17L9.2 15.141L12.17 9.998H18.111L21.081 15.141L18.111 20.284H18.112ZM26.843 22.51L19.617 9.997H27.982C28.622 11.588 28.977 13.323 28.977 15.14C28.977 17.848 28.192 20.374 26.842 22.509L26.843 22.51ZM27.361 24.067C29.2612 21.4791 30.2847 18.3516 30.282 15.141C30.2837 13.0748 29.8599 11.0303 29.037 9.135C29.026 9.102 29.011 9.072 28.995 9.042C26.868 4.228 22.305 0.725 16.877 0.102C16.8552 0.0981355 16.8331 0.0954649 16.811 0.094C16.262 0.033 15.705 0 15.141 0C10.177 0 5.764 2.401 3.002 6.102C2.97 6.137 2.945 6.174 2.921 6.215C1.087 8.72 4.23313e-06 11.805 4.23313e-06 15.141C-0.00154517 17.2069 0.422252 19.251 1.245 21.146C1.257 21.18 1.271 21.21 1.288 21.24C3.408 26.037 7.946 29.531 13.349 30.172C13.405 30.187 13.461 30.195 13.518 30.195C14.0571 30.2524 14.5989 30.2815 15.141 30.282C20.104 30.282 24.518 27.881 27.28 24.18C27.3111 24.1454 27.3383 24.1075 27.361 24.067Z" fill="black"/>
</svg>
