<svg width="18" height="32" viewBox="0 0 18 32" fill="none" xmlns="http://www.w3.org/2000/svg">
<path d="M1.87036 3.27979C1.87248 2.92013 2.01696 2.57613 2.27222 2.32275C2.52747 2.06938 2.8727 1.9272 3.23236 1.92773H14.9354C15.295 1.9272 15.6403 2.06938 15.8955 2.32275C16.1508 2.57613 16.2952 2.92013 16.2974 3.27979V28.4829C16.2955 28.8427 16.1512 29.1868 15.8959 29.4404C15.6406 29.694 15.2952 29.8365 14.9354 29.8359H3.23236C2.87253 29.8365 2.52716 29.694 2.27188 29.4404C2.0166 29.1868 1.87221 28.8427 1.87036 28.4829V3.27979ZM15.2194 0.783691C15.1254 0.773691 15.0324 0.754883 14.9354 0.754883H3.23236C3.13536 0.754883 3.04236 0.773691 2.94836 0.783691C2.44786 0.839829 1.9755 1.04392 1.59177 1.37012C1.20803 1.69631 0.930383 2.12982 0.794373 2.61475C0.735373 2.82775 0.693383 3.04879 0.692383 3.27979V28.4829C0.693383 28.7149 0.735373 28.9349 0.794373 29.1479C0.942378 29.6815 1.26067 30.1518 1.70078 30.4878C2.14088 30.8237 2.67869 31.0067 3.23236 31.0088H14.9354C15.6064 31.0088 16.2502 30.7431 16.7261 30.27C17.202 29.7969 17.4714 29.1549 17.4754 28.4839V3.28076C17.4744 1.98676 16.4844 0.928668 15.2204 0.784668L15.2194 0.783691Z" fill="black"/>
<path d="M7.09413 9.58443C7.04746 9.64382 7.02342 9.71312 7.02272 9.78595C7.02272 9.82979 7.03049 9.87575 7.05383 9.91606C7.1111 10.044 7.25253 10.1303 7.40455 10.1296L8.9312 10.1303L8.9312 21.8061L7.40455 21.8054L7.3395 21.811C7.27841 21.8199 7.22041 21.8435 7.17051 21.8799C7.12061 21.9162 7.08032 21.9642 7.05312 22.0196C6.99231 22.1469 7.02625 22.2968 7.13373 22.3944L9.04151 24.1098L9.08959 24.1466C9.15677 24.1897 9.23384 24.2116 9.31304 24.2116C9.41132 24.2109 9.50749 24.1784 9.58386 24.1105L11.4923 22.3944L11.5312 22.3512C11.5771 22.2946 11.6023 22.224 11.6026 22.1511C11.6026 22.1059 11.5949 22.0613 11.5715 22.0196C11.515 21.8923 11.3735 21.8061 11.2208 21.8061L9.69417 21.8054L9.69417 10.1296L11.2208 10.1303L11.2859 10.1247C11.347 10.1158 11.405 10.0921 11.4549 10.0558C11.5047 10.0194 11.545 9.97147 11.5722 9.91606C11.6331 9.78878 11.5991 9.63887 11.4916 9.54129L9.58315 7.82514L9.53577 7.78908C9.4686 7.74595 9.39152 7.72403 9.31233 7.72403C9.21404 7.72473 9.11787 7.75726 9.04151 7.82514L7.13303 9.54129L7.09413 9.58443Z" fill="black"/>
</svg>
