<svg width="31" height="31" viewBox="0 0 31 31" fill="none" xmlns="http://www.w3.org/2000/svg">
<path d="M15.6772 24.5287C15.5105 24.529 15.3504 24.4633 15.2322 24.3459L7.16016 16.2729C7.04689 16.1593 6.98123 16.0067 6.97658 15.8464C6.97194 15.686 7.02865 15.5298 7.13515 15.4098L13.1852 8.63176C17.4142 3.68376 24.3002 0.482888 30.3052 0.584888C30.6402 0.592888 30.9102 0.862681 30.9182 1.19768C31.0572 7.20668 27.8202 14.0898 22.8602 18.3278L16.0942 24.3698C15.9799 24.4731 15.8312 24.53 15.6772 24.5297V24.5287ZM8.46816 15.8049L15.7012 23.0387L22.0352 17.3837C26.5642 13.5127 29.5722 7.34277 29.6652 1.83977C24.1632 1.93177 17.9952 4.93991 14.1312 9.45891L8.46816 15.8049Z" fill="black"/>
<path d="M17.9082 28.9619C17.6832 28.8869 17.4982 28.7138 17.4652 28.4778L16.6482 23.1199C16.5992 22.7779 16.6822 22.0429 17.0242 21.9929C17.3662 21.9429 17.7962 21.9588 17.8462 22.3018L18.5162 26.9878C20.7072 24.3628 21.9072 21.2538 21.9072 17.8608C21.9072 17.5148 22.3132 17.1099 22.6582 17.1099C23.0032 17.1099 23.1742 17.2968 23.1742 17.6428C23.1742 21.7938 21.4962 25.8568 18.5702 28.7878C18.4452 28.9128 18.2622 28.9897 18.0862 28.9897C18.0254 28.9898 17.965 28.9806 17.9072 28.9619H17.9082Z" fill="black"/>
<path d="M9.12508 14.9036C9.0953 14.904 9.06553 14.9022 9.03608 14.8977L3.05108 14.0396C2.81608 14.0056 2.62009 13.8417 2.54609 13.6157C2.47209 13.3897 2.53209 13.1416 2.70109 12.9756C5.66809 10.0086 9.72109 8.33057 13.8631 8.33057C14.2081 8.33057 14.9581 8.68857 14.4881 8.95557C14.0181 9.22257 14.2081 9.58057 13.8631 9.58057C10.4611 9.58057 7.12309 10.8095 4.53109 12.9875L9.21308 13.6587C9.55408 13.7087 9.74309 13.9907 9.51109 14.1047C9.27909 14.2187 9.43008 14.9026 9.12508 14.9026V14.9036Z" fill="black"/>
<path d="M22.3531 12.3208C21.9366 12.3217 21.524 12.2404 21.1391 12.0813C20.7541 11.9222 20.4044 11.6885 20.1101 11.3938C18.8741 10.1578 18.8741 8.14591 20.1101 6.90991C21.3461 5.67391 23.3591 5.67391 24.5951 6.90991C25.8311 8.14591 25.8311 10.1578 24.5951 11.3938C24.3008 11.6885 23.9511 11.9222 23.5661 12.0813C23.1812 12.2404 22.7686 12.3217 22.3521 12.3208H22.3531ZM22.3531 7.25097C22.1033 7.25045 21.8558 7.29905 21.6248 7.39429C21.3939 7.48952 21.184 7.62945 21.0071 7.80591C20.652 8.16368 20.4527 8.64728 20.4527 9.15137C20.4527 9.65545 20.652 10.1391 21.0071 10.4968C21.3649 10.8522 21.8488 11.0518 22.3531 11.0518C22.8574 11.0518 23.3413 10.8522 23.6991 10.4968C24.0542 10.1391 24.2535 9.65545 24.2535 9.15137C24.2535 8.64728 24.0542 8.16368 23.6991 7.80591C23.3271 7.43691 22.8401 7.25097 22.3531 7.25097Z" fill="black"/>
<path d="M1.50302 30.6326C1.33802 30.6326 1.17701 30.5687 1.05601 30.4487C0.975477 30.3683 0.918259 30.2674 0.890439 30.157C0.862618 30.0466 0.865229 29.9306 0.898007 29.8215C1.10501 29.1315 2.95902 23.0297 4.30902 21.6797C5.83002 20.1587 8.30501 20.1577 9.82501 21.6797C11.345 23.2017 11.346 25.6755 9.82501 27.1965C8.47501 28.5475 2.37402 30.4017 1.68402 30.6087C1.62302 30.6247 1.56301 30.6336 1.50201 30.6336L1.50302 30.6326ZM7.06901 21.7986C6.39301 21.7986 5.71701 22.0556 5.20201 22.5696C4.47401 23.2996 3.26202 26.5565 2.46202 29.0415C4.94602 28.2415 8.20402 27.0295 8.93202 26.3015C9.96102 25.2725 9.96102 23.5976 8.93202 22.5696C8.68735 22.3247 8.39674 22.1306 8.07687 21.9983C7.757 21.866 7.41416 21.7981 7.06801 21.7986H7.06901Z" fill="black"/>
</svg>
