<svg width="26" height="31" viewBox="0 0 26 31" fill="none" xmlns="http://www.w3.org/2000/svg">
<mask id="mask0" style="mask-type:alpha" maskUnits="userSpaceOnUse" x="0" y="0" width="26" height="31">
<path d="M6.30114 0.115723C4.90314 0.115723 3.76514 1.24172 3.76514 2.62472V8.93972L0.871145 11.8037C0.824262 11.8502 0.787046 11.9055 0.761645 11.9664C0.736243 12.0274 0.723158 12.0927 0.723145 12.1587V15.6707C0.723145 15.9477 0.950144 16.1727 1.23014 16.1727H3.76514V17.9717L0.871145 20.8357C0.776145 20.9297 0.723145 21.0577 0.723145 21.1907V27.7137C0.723145 29.0967 1.86014 30.2227 3.25914 30.2227H22.5291C23.9271 30.2227 25.0641 29.0977 25.0641 27.7137V2.62472C25.0641 1.24072 23.9271 0.115723 22.5291 0.115723H6.30114ZM1.73714 12.3657L4.63114 9.50272C4.72614 9.40872 4.77914 9.28072 4.77914 9.14772V2.62472C4.77914 1.79472 5.46214 1.11872 6.30114 1.11872H22.5281C23.3661 1.11872 24.0491 1.79472 24.0491 2.62472V27.7127C24.0491 28.5427 23.3661 29.2187 22.5281 29.2187H3.25814C2.41914 29.2187 1.73714 28.5437 1.73714 27.7127V21.3977L4.63114 18.5337C4.72614 18.4397 4.77914 18.3117 4.77914 18.1787V15.6707C4.77914 15.3937 4.55214 15.1687 4.27214 15.1687H1.73714V12.3657Z" fill="white"/>
</mask>
<g mask="url(#mask0)">
<path d="M-0.877808 31.8226H26.6662V-1.48535H-0.877808V31.8226Z" fill="black"/>
<path fill-rule="evenodd" clip-rule="evenodd" d="M-0.877808 31.8226H26.6662V-1.48535H-0.877808V31.8226Z" stroke="black" stroke-width="0.5"/>
<path fill-rule="evenodd" clip-rule="evenodd" d="M22.5281 0.115723H6.30114C4.90314 0.115723 3.76614 1.24172 3.76614 2.62472V8.93972L0.872145 11.8037C0.825081 11.8501 0.787681 11.9054 0.762106 11.9663C0.736531 12.0272 0.723289 12.0926 0.723145 12.1587V15.6707C0.723145 15.9477 0.950144 16.1727 1.23014 16.1727H3.76514V17.9717L0.872145 20.8357C0.825081 20.8821 0.787681 20.9374 0.762106 20.9983C0.736531 21.0592 0.723289 21.1246 0.723145 21.1907V27.7137C0.723145 29.0967 1.86114 30.2227 3.25914 30.2227H22.5291C23.9271 30.2227 25.0641 29.0977 25.0641 27.7137V2.62472C25.0641 1.24172 23.9271 0.115723 22.5291 0.115723H22.5281ZM24.0491 27.7127C24.0491 28.5427 23.3661 29.2177 22.5281 29.2177H3.25914C2.42014 29.2177 1.73814 28.5427 1.73814 27.7127V21.3977L4.63214 18.5337C4.67921 18.4873 4.71661 18.4321 4.74218 18.3711C4.76776 18.3102 4.781 18.2448 4.78114 18.1787V15.6697C4.78114 15.3927 4.55414 15.1677 4.27414 15.1677H1.73714V12.3657L4.63114 9.50172C4.67821 9.45533 4.71561 9.40007 4.74118 9.33914C4.76676 9.27821 4.78 9.21281 4.78014 9.14672V2.62472C4.78014 1.79472 5.46314 1.11972 6.30114 1.11972H22.5281C23.3661 1.11972 24.0491 1.79472 24.0491 2.62472V27.7127Z" stroke="black" stroke-width="0.5"/>
<mask id="mask1" style="mask-type:alpha" maskUnits="userSpaceOnUse" x="6" y="25" width="16" height="2">
<path d="M6.80315 25.3638C6.52615 25.3638 6.30115 25.5788 6.30115 25.8448C6.30115 26.1098 6.52615 26.3248 6.80315 26.3248H20.8521C21.1291 26.3248 21.3541 26.1098 21.3541 25.8448C21.3541 25.5798 21.1291 25.3648 20.8521 25.3648H6.80315V25.3638Z" fill="white"/>
</mask>
<g mask="url(#mask1)">
<path d="M4.7002 27.9257H22.9562V23.7617H4.7002V27.9257Z" fill="black"/>
<path fill-rule="evenodd" clip-rule="evenodd" d="M5.20715 28.9409H23.4632V24.7769H5.20715V28.9409Z" stroke="black" stroke-width="0.5"/>
<path d="M-134.112 84.9877H205.057V-230.801H-134.112V84.9877Z" stroke="black" stroke-width="0.5"/>
</g>
<mask id="mask2" style="mask-type:alpha" maskUnits="userSpaceOnUse" x="16" y="4" width="2" height="5">
<path d="M16.8971 4.5327V7.6557C16.8971 7.9427 17.1131 8.1757 17.3771 8.1757C17.6421 8.1757 17.8581 7.9427 17.8581 7.6557V4.5327C17.8581 4.2457 17.6421 4.0127 17.3771 4.0127C17.1121 4.0127 16.8971 4.2457 16.8971 4.5327Z" fill="white"/>
</mask>
<g mask="url(#mask2)">
<path d="M15.2961 9.77762H19.4601V2.41162H15.2961V9.77762Z" fill="black"/>
<path d="M15.2961 9.77762H19.4601V2.41162H15.2961V9.77762Z" stroke="black" stroke-width="0.5"/>
</g>
<mask id="mask3" style="mask-type:alpha" maskUnits="userSpaceOnUse" x="14" y="4" width="2" height="5">
<path d="M14.3352 4.5327V7.6557C14.3352 7.9427 14.5502 8.1757 14.8152 8.1757C15.0802 8.1757 15.2962 7.9427 15.2962 7.6557V4.5327C15.2962 4.2457 15.0802 4.0127 14.8152 4.0127C14.5502 4.0127 14.3352 4.2457 14.3352 4.5327Z" fill="white"/>
</mask>
<g mask="url(#mask3)">
<path d="M12.7343 9.77762H16.8983V2.41162H12.7343V9.77762Z" fill="black"/>
</g>
<mask id="mask4" style="mask-type:alpha" maskUnits="userSpaceOnUse" x="19" y="4" width="2" height="5">
<path d="M19.4591 4.5327V7.6557C19.4591 7.9427 19.6751 8.1757 19.9401 8.1757C20.2051 8.1757 20.4201 7.9427 20.4201 7.6557V4.5327C20.4201 4.2457 20.2051 4.0127 19.9401 4.0127C19.6741 4.0127 19.4591 4.2457 19.4591 4.5327Z" fill="white"/>
</mask>
<g mask="url(#mask4)">
<path d="M17.8582 9.77762H22.0222V2.41162H17.8582V9.77762Z" fill="black"/>
</g>
<mask id="mask5" style="mask-type:alpha" maskUnits="userSpaceOnUse" x="18" y="2" width="2" height="6">
<path d="M18.9791 3.51756V6.64056C18.9791 6.92756 19.1951 7.16056 19.4601 7.16056C19.7251 7.16056 19.9401 6.92756 19.9401 6.64056V3.51756C19.9401 3.23056 19.7251 2.99756 19.4601 2.99756C19.1951 2.99756 18.9791 3.23056 18.9791 3.51756Z" fill="white"/>
</mask>
<g mask="url(#mask5)">
<path d="M17.3782 8.76248H21.5422V1.39648H17.3782V8.76248Z" stroke="black" stroke-width="0.5"/>
</g>
<mask id="mask6" style="mask-type:alpha" maskUnits="userSpaceOnUse" x="11" y="3" width="16" height="17">
<path d="M22.8991 3.85554C22.8061 3.86654 22.7221 3.90654 22.6581 3.97054C22.6169 4.00982 22.5866 4.05908 22.5701 4.11354C22.5081 4.27754 22.5561 4.47754 22.6921 4.61254L24.0411 5.96254L13.7211 16.2825L12.3721 14.9325L12.3101 14.8795C12.1801 14.7855 12.0131 14.7575 11.8731 14.8105C11.7061 14.8695 11.6041 15.0325 11.6131 15.2135L11.7831 18.4165L11.7931 18.4915C11.8146 18.5881 11.8631 18.6766 11.9331 18.7465C12.0201 18.8335 12.1351 18.8885 12.2621 18.8965L15.4661 19.0665L15.5391 19.0635C15.6298 19.054 15.7144 19.0138 15.7791 18.9495C15.8206 18.9104 15.8513 18.8611 15.8681 18.8065C15.8971 18.7204 15.9011 18.6277 15.8795 18.5393C15.8579 18.451 15.8116 18.3706 15.7461 18.3075L14.3971 16.9575L24.7171 6.63654L26.0651 7.98654L26.1271 8.03954C26.2581 8.13354 26.4251 8.16154 26.5651 8.10854C26.7321 8.04954 26.8341 7.88654 26.8251 7.70554L26.6551 4.50154L26.6451 4.42754C26.6231 4.33054 26.5751 4.24354 26.5051 4.17254C26.4181 4.08554 26.3031 4.03054 26.1761 4.02254L22.9721 3.85254L22.9001 3.85554H22.8991Z" fill="white"/>
</mask>
<g mask="url(#mask6)">
<path d="M10.1711 9.77762H14.3351V2.41162H10.1711V9.77762Z" fill="black"/>
</g>
<mask id="mask7" style="mask-type:alpha" maskUnits="userSpaceOnUse" x="16" y="16" width="6" height="9">
<path d="M16.5912 16.7696C16.4593 16.7709 16.3332 16.8243 16.2405 16.9181C16.1478 17.012 16.0959 17.1386 16.0962 17.2706V24.2766C16.0962 24.5526 16.3182 24.7766 16.5912 24.7766H19.3132C20.5412 24.7766 21.5412 23.7666 21.5412 22.5246C21.5412 21.8176 21.2172 21.1866 20.7112 20.7726C21.2172 20.3596 21.5412 19.7276 21.5412 19.0206C21.5412 17.7796 20.5412 16.7686 19.3132 16.7686H16.5912V16.7696ZM17.0862 17.7706H19.3132C19.9962 17.7706 20.5512 18.3316 20.5512 19.0216C20.5512 19.7116 19.9962 20.2726 19.3132 20.2726H17.0862V17.7706ZM17.0862 21.2736H19.3132C19.9962 21.2736 20.5512 21.8346 20.5512 22.5246C20.5512 23.2146 19.9962 23.7756 19.3132 23.7756H17.0862V21.2736Z" fill="white"/>
</mask>
<g mask="url(#mask7)">
<path fill-rule="evenodd" clip-rule="evenodd" d="M14.4952 26.3775H23.1422V15.1675H14.4952V26.3775Z" stroke="black" stroke-width="0.5"/>
<path d="M-134.112 84.9877H205.057V-230.801H-134.112V84.9877Z" stroke="black" stroke-width="0.5"/>
</g>
</g>
</svg>
