<svg width="55" height="55" viewBox="0 0 55 55" fill="none" xmlns="http://www.w3.org/2000/svg">
<path fill-rule="evenodd" clip-rule="evenodd" d="M27.4999 13.75C29.3984 13.75 30.9374 12.2111 30.9374 10.3125C30.9374 8.41407 29.3984 6.87504 27.4999 6.87504C25.6014 6.87504 24.0624 8.41407 24.0624 10.3125C24.0624 12.2111 25.6014 13.75 27.4999 13.75ZM27.4999 16.0417C30.664 16.0417 33.2291 13.4766 33.2291 10.3125C33.2291 7.14841 30.664 4.58337 27.4999 4.58337C24.3358 4.58337 21.7708 7.14841 21.7708 10.3125C21.7708 13.4766 24.3358 16.0417 27.4999 16.0417Z" fill="#26A247" fill-opacity="0.6"/>
<path fill-rule="evenodd" clip-rule="evenodd" d="M19.9078 20.9852C20.9888 21.191 21.7709 22.1361 21.7709 23.2366V46.9792C21.7709 47.612 22.2839 48.125 22.9168 48.125H23.0162C23.6089 48.125 24.1037 47.6731 24.1574 47.0829L25.2084 35.5208C25.2118 34.2576 26.2368 33.2351 27.5001 33.2351C28.7634 33.2351 29.7884 34.2574 29.7918 35.5207L30.8428 47.0829C30.8965 47.6731 31.3914 48.125 31.984 48.125H32.0834C32.7163 48.125 33.2293 47.612 33.2293 46.9792V23.2798C33.2293 22.1792 34.0116 21.2341 35.0929 21.0284C37.1049 20.6459 39.2325 20.1149 41.5707 19.4334C42.1783 19.2564 42.5272 18.6204 42.3502 18.0127C42.1732 17.4052 41.5371 17.0563 40.9295 17.2333C35.6196 18.7809 31.5457 19.497 27.505 19.4789C23.4602 19.4607 19.3814 18.7068 14.0565 17.2293C13.4467 17.0601 12.8152 17.4172 12.646 18.0271C12.4769 18.6369 12.834 19.2683 13.4438 19.4375C15.7734 20.0839 17.8964 20.6024 19.9078 20.9852ZM26.3289 47.8987C25.924 49.3623 24.5842 50.4167 23.0162 50.4167H22.9168C21.0182 50.4167 19.4793 48.8777 19.4793 46.9792V23.2366C17.3872 22.8384 15.1999 22.3031 12.831 21.6457C11.0017 21.1381 9.93018 19.2437 10.4378 17.4143C10.9454 15.5849 12.8399 14.5135 14.6692 15.0211C19.9049 16.4739 23.7614 17.1704 27.5152 17.1873C31.2571 17.204 35.0986 16.5457 40.2883 15.0332C42.111 14.502 44.0191 15.549 44.5503 17.3715C45.0815 19.1942 44.0346 21.1024 42.2119 21.6336C39.8238 22.3295 37.623 22.8801 35.5209 23.2798V46.9792C35.5209 48.8777 33.982 50.4167 32.0834 50.4167H31.984C30.416 50.4167 29.0762 49.3623 28.6713 47.8987C28.6341 47.7642 28.6048 47.6262 28.5838 47.4853C28.5743 47.421 28.5665 47.3559 28.5606 47.2904L27.5095 35.7283C27.5034 35.661 27.5003 35.5938 27.5001 35.5268C27.4999 35.5938 27.4968 35.661 27.4907 35.7283L26.4396 47.2904C26.4337 47.3559 26.4259 47.421 26.4164 47.4853C26.3954 47.6262 26.3661 47.7642 26.3289 47.8987Z" fill="#26A247"/>
</svg>
