<svg width="55" height="55" viewBox="0 0 55 55" fill="none" xmlns="http://www.w3.org/2000/svg">
<path d="M32.6287 45.0545C31.6327 45.054 30.6404 44.9338 29.6732 44.6965C26.0522 43.8039 24.5864 42.1179 24.0013 41.027C21.6795 41.5 15.4611 42.2171 12.8776 37.048C12.2313 35.9491 11.9799 34.6624 12.165 33.4011C12.35 32.1397 12.9605 30.9795 13.8951 30.1125C15.2997 28.7772 17.1732 28.048 19.1109 28.0824C19.7944 26.6655 20.9736 25.5484 22.4253 24.9424C24.2363 24.2661 26.3131 24.6132 28.5981 25.9729C28.8209 26.1089 28.981 26.3273 29.0439 26.5806C29.1067 26.8339 29.0671 27.1018 28.9338 27.3262C28.8004 27.5505 28.5839 27.7133 28.3314 27.7791C28.0788 27.8449 27.8104 27.8085 27.5845 27.6777C25.8469 26.6433 24.3484 26.3448 23.1325 26.7961C22.552 27.0699 22.0311 27.4555 21.5997 27.9308C21.1683 28.4061 20.8348 28.9618 20.6183 29.5661C20.572 29.7049 20.4956 29.8318 20.3944 29.9376C20.2933 30.0434 20.17 30.1255 20.0334 30.178C19.8968 30.2305 19.7503 30.2522 19.6043 30.2414C19.4583 30.2306 19.3166 30.1876 19.1892 30.1155C18.7558 29.8715 16.7098 30.172 15.2618 31.5506C14.6302 32.1219 14.2221 32.8991 14.1103 33.7435C13.9986 34.5878 14.1905 35.4444 14.6519 36.1603C17.048 40.9555 24.2542 38.9313 24.3276 38.9115C24.4639 38.8719 24.6072 38.862 24.7478 38.8826C24.8883 38.9031 25.0228 38.9536 25.1421 39.0306C25.2614 39.1076 25.3628 39.2093 25.4394 39.3289C25.516 39.4485 25.566 39.5832 25.5861 39.7238C25.599 39.7813 26.0384 41.7559 30.1482 42.7675C33.3348 43.553 36.3319 42.703 37.3882 41.4286C37.6353 41.1353 37.7861 40.7729 37.82 40.3909C37.8539 40.0088 37.7692 39.6256 37.5776 39.2933C37.4676 39.0544 37.4571 38.7815 37.5483 38.5348C37.6396 38.2881 37.8251 38.0877 38.064 37.9778C38.303 37.8678 38.5759 37.8573 38.8226 37.9485C39.0693 38.0398 39.2697 38.2253 39.3796 38.4642C39.7294 39.1356 39.8722 39.8957 39.7899 40.6483C39.7076 41.4009 39.404 42.1121 38.9175 42.6921C37.6718 44.1966 35.2618 45.0545 32.6287 45.0545Z" fill="#26A247"/>
<path d="M11.5804 35.9302C9.36153 35.972 7.18734 35.3038 5.37491 34.0231C3.1236 32.344 1.78868 29.6751 1.40784 26.0889C0.77608 20.1522 5.44929 17.4665 8.49006 16.7236C8.96214 15.1834 10.545 11.4504 14.9137 10.8276C17.5303 10.4268 20.2063 10.7252 22.6704 11.6924C23.9121 10.1809 26.6226 8.44237 30.8296 9.48175C34.9534 10.4983 36.5611 12.1694 37.177 13.2158C39.4779 12.947 45.9749 12.8657 48.4286 19.817C50.0491 24.4079 47.7919 26.2317 46.7426 26.804C44.0469 28.2768 39.9261 27.2106 38.4444 25.3034C35.8758 22.0028 37.6124 19.7079 37.6877 19.6117C37.7668 19.5057 37.8662 19.4166 37.9802 19.3496C38.0942 19.2826 38.2204 19.2391 38.3515 19.2216C38.4825 19.2041 38.6158 19.213 38.7433 19.2477C38.8709 19.2825 38.9902 19.3424 39.0943 19.4239C39.1984 19.5054 39.2851 19.607 39.3494 19.7225C39.4137 19.838 39.4542 19.9653 39.4686 20.0967C39.483 20.2281 39.4709 20.3611 39.4332 20.4878C39.3954 20.6145 39.3327 20.7324 39.2488 20.8345C39.2299 20.8643 38.4296 22.0554 40.0095 24.0855C40.9536 25.3005 44.043 26.0175 45.7915 25.0634C47.4418 24.1619 47.1165 22.0713 46.5541 20.4775C44.16 13.6948 37.0937 15.2102 36.7961 15.2767C36.6656 15.3066 36.5303 15.3097 36.3985 15.2859C36.2666 15.2621 36.141 15.2119 36.0291 15.1382C35.9173 15.0645 35.8215 14.9689 35.7476 14.8572C35.6737 14.7455 35.6231 14.62 35.5991 14.4882C35.5991 14.4882 35.0149 12.5582 30.3427 11.4068C25.6705 10.2553 23.9438 13.2911 23.8724 13.4171C23.8089 13.5328 23.7232 13.6349 23.62 13.7172C23.5169 13.7996 23.3984 13.8607 23.2714 13.8969C23.1445 13.9332 23.0116 13.9439 22.8806 13.9284C22.7495 13.913 22.6227 13.8716 22.5077 13.8069C20.2222 12.7419 17.6696 12.3878 15.1805 12.7903C11.1807 13.3615 10.2891 17.5825 10.2524 17.761C10.2135 17.9587 10.1153 18.1398 9.97095 18.2803C9.82656 18.4208 9.6428 18.514 9.44414 18.5475C9.1714 18.5951 2.71895 19.7842 3.36757 25.8797C3.69783 28.8887 4.76497 31.0904 6.54718 32.4263C8.42462 33.6754 10.6986 34.1839 12.9292 33.8535C13.188 33.8059 13.4552 33.863 13.6719 34.0124C13.8885 34.1617 14.037 34.391 14.0846 34.6499C14.1322 34.9087 14.0751 35.1758 13.9257 35.3925C13.7764 35.6092 13.5471 35.7577 13.2882 35.8053C12.7234 35.8945 12.1522 35.9363 11.5804 35.9302Z" fill="#26A247"/>
<path d="M47.8792 39.6434H47.8584C47.5955 39.6376 47.3457 39.5278 47.1638 39.3379C46.9819 39.148 46.8828 38.8937 46.8884 38.6308C46.8886 38.4998 46.9152 38.3702 46.9667 38.2498C47.0182 38.1294 47.0935 38.0206 47.188 37.93C47.2826 37.8394 47.3945 37.7689 47.517 37.7226C47.6396 37.6764 47.7702 37.6553 47.901 37.6608C47.9903 37.6608 50.5441 37.5547 51.5289 32.6941C52.5534 27.636 47.4547 24.7688 47.4022 24.7411C47.2879 24.6783 47.1872 24.5938 47.1057 24.4921C47.0241 24.3905 46.9634 24.2737 46.927 24.1486C46.8906 24.0235 46.8792 23.8925 46.8934 23.7629C46.9076 23.6334 46.9472 23.508 47.0099 23.3937C47.0726 23.2795 47.1572 23.1788 47.2589 23.0972C47.3605 23.0157 47.4772 22.955 47.6023 22.9186C47.7275 22.8822 47.8585 22.8707 47.988 22.885C48.1176 22.8992 48.243 22.9388 48.3572 23.0015C50.5847 24.2243 54.5211 27.9048 53.4728 33.0878C52.1765 39.4916 48.2422 39.6434 47.8792 39.6434Z" fill="#26A247"/>
<g opacity="0.6">
<path d="M42.1269 45.8291C39.9985 45.7238 37.9213 45.1393 36.0503 44.1193C35.8209 43.9904 35.6522 43.7757 35.5811 43.5223C35.5101 43.269 35.5425 42.9979 35.6714 42.7685C35.8003 42.5391 36.015 42.3704 36.2684 42.2993C36.5217 42.2283 36.7929 42.2607 37.0222 42.3896C37.0609 42.4115 40.9655 44.5715 43.6859 43.6036C44.184 43.4181 44.6341 43.1233 45.003 42.7406C45.3719 42.358 45.6501 41.8974 45.8172 41.3929C46.2664 40.442 46.4742 39.395 46.4223 38.3446C46.3704 37.2943 46.0604 36.2729 45.5197 35.3709C44.8427 34.4178 43.9499 33.6384 42.9142 33.0963C41.8784 32.5542 40.7291 32.2648 39.5602 32.2518C39.2971 32.2386 39.0501 32.1215 38.8734 31.9262C38.6967 31.7309 38.6048 31.4735 38.618 31.2104C38.6311 30.9474 38.7482 30.7003 38.9435 30.5237C39.1388 30.347 39.3963 30.2551 39.6593 30.2682C41.1433 30.2971 42.5992 30.6773 43.9079 31.3775C45.2165 32.0778 46.3405 33.0782 47.1879 34.2968C47.8962 35.4651 48.3092 36.7884 48.3909 38.1523C48.4726 39.5161 48.2207 40.8793 47.657 42.1238C47.3869 42.8931 46.9491 43.5927 46.3754 44.172C45.8016 44.7513 45.1062 45.1957 44.3395 45.473C43.6275 45.7165 42.8793 45.8369 42.1269 45.8291ZM25.959 21.1469C25.7195 21.1474 25.4879 21.0612 25.307 20.9042C25.1261 20.7472 25.0082 20.53 24.9749 20.2928C24.9417 20.0556 24.9954 19.8144 25.1262 19.6137C25.2569 19.4131 25.4559 19.2665 25.6863 19.2011C26.0101 19.1377 26.3131 18.9949 26.5683 18.7857C26.8234 18.5764 27.0226 18.3072 27.1482 18.002C27.2596 17.5569 27.2676 17.0921 27.1715 16.6434C27.0754 16.1947 26.8778 15.774 26.5938 15.4135C26.444 15.1973 26.3862 14.9304 26.4332 14.6716C26.4801 14.4128 26.628 14.1833 26.8442 14.0335C27.0604 13.8837 27.3273 13.8259 27.5861 13.8729C27.8449 13.9198 28.0744 14.0677 28.2242 14.2839C28.6922 14.901 29.0079 15.6197 29.1458 16.3818C29.2836 17.1438 29.2397 17.9276 29.0177 18.6695C28.7869 19.2715 28.4129 19.8083 27.928 20.2332C27.4431 20.6582 26.8619 20.9585 26.2348 21.1083C26.1452 21.1344 26.0523 21.1474 25.959 21.1469Z" fill="#26A247"/>
<path d="M33.2456 26.5927C32.9879 26.5928 32.7404 26.4927 32.5553 26.3135C32.3702 26.1343 32.262 25.8902 32.2538 25.6327C32.0554 19.5551 28.2193 19.2139 28.0556 19.202C27.7939 19.1849 27.5495 19.0648 27.3761 18.868C27.2027 18.6711 27.1143 18.4136 27.1303 18.1517C27.1447 17.8911 27.2618 17.6467 27.4561 17.4723C27.6504 17.2979 27.906 17.2077 28.1667 17.2215C28.2242 17.2215 33.9815 17.6112 34.2354 25.5692C34.2436 25.8319 34.1473 26.0872 33.9675 26.2789C33.7876 26.4707 33.539 26.5832 33.2763 26.5917L33.2456 26.5927ZM26.4986 37.517C26.3184 37.5168 26.1417 37.4675 25.9875 37.3745C25.8332 37.2814 25.7072 37.1481 25.623 36.9889C25.5387 36.8296 25.4995 36.6504 25.5094 36.4706C25.5194 36.2907 25.5781 36.1169 25.6794 35.9679C25.9671 35.6291 26.1781 35.2322 26.298 34.8042C26.4178 34.3762 26.4436 33.9274 26.3736 33.4885C26.2226 33.1863 26.0135 32.9168 25.7582 32.6956C25.503 32.4743 25.2065 32.3056 24.886 32.1992C24.6345 32.1216 24.4242 31.9473 24.3012 31.7146C24.1783 31.4819 24.1528 31.2099 24.2304 30.9585C24.308 30.707 24.4823 30.4967 24.715 30.3737C24.9477 30.2508 25.2196 30.2253 25.4711 30.3029C26.0874 30.5014 26.6541 30.8296 27.1331 31.2653C27.612 31.701 27.9922 32.2341 28.2481 32.8289C28.4469 33.559 28.4668 34.3263 28.3061 35.0658C28.1454 35.8052 27.8087 36.495 27.3247 37.0767C27.2339 37.2124 27.111 37.3236 26.9669 37.4005C26.8227 37.4773 26.6619 37.5173 26.4986 37.517Z" fill="#26A247"/>
<path d="M34.7611 37.517C34.5415 37.5168 34.3283 37.4437 34.1547 37.3093C33.9812 37.1748 33.8571 36.9866 33.802 36.7741C33.7077 36.2129 33.4886 35.6799 33.161 35.2146C32.8333 34.7493 32.4054 34.3634 31.9087 34.0855C30.1731 33.2633 27.8871 34.3046 27.8643 34.3155C27.7464 34.3708 27.6187 34.4023 27.4886 34.4083C27.3585 34.4142 27.2285 34.3945 27.106 34.3502C26.9835 34.3059 26.8709 34.2379 26.7747 34.1501C26.6785 34.0623 26.6005 33.9564 26.5452 33.8385C26.49 33.7206 26.4584 33.5929 26.4525 33.4628C26.4465 33.3327 26.4663 33.2027 26.5106 33.0802C26.5549 32.9577 26.6229 32.8451 26.7107 32.7489C26.7985 32.6527 26.9044 32.5747 27.0223 32.5194C27.1492 32.459 30.1593 31.0735 32.7438 32.2854C33.5106 32.6803 34.1771 33.2449 34.6927 33.9364C35.2083 34.6278 35.5594 35.4277 35.7191 36.2753C35.7573 36.422 35.7614 36.5756 35.731 36.7241C35.7005 36.8727 35.6365 37.0123 35.5436 37.1322C35.4508 37.2521 35.3318 37.3492 35.1956 37.4159C35.0594 37.4826 34.9097 37.5172 34.7581 37.517H34.7611ZM7.67982 28.3451C7.5409 28.3452 7.40359 28.3154 7.27716 28.2578C7.0389 28.1508 6.85246 27.9542 6.75832 27.7106C6.66418 27.4669 6.66993 27.196 6.77434 26.9566C7.04154 26.3677 7.4339 25.844 7.9241 25.4221C8.41431 25.0003 8.99058 24.6903 9.61278 24.5139C10.9408 24.2352 12.3461 24.7698 13.7782 26.1007C13.8739 26.1892 13.9512 26.2956 14.0057 26.4139C14.0603 26.5322 14.091 26.6601 14.0961 26.7903C14.1012 26.9204 14.0806 27.0503 14.0355 27.1726C13.9904 27.2948 13.9217 27.4069 13.8333 27.5026C13.7448 27.5982 13.6384 27.6756 13.5201 27.7301C13.4018 27.7846 13.2739 27.8153 13.1437 27.8204C13.0135 27.8256 12.8836 27.805 12.7614 27.7599C12.6392 27.7148 12.527 27.6461 12.4314 27.5576C12.1329 27.2112 11.7629 26.9334 11.3469 26.7436C10.9309 26.5537 10.4787 26.4562 10.0214 26.4578C9.70436 26.5647 9.41291 26.7361 9.1654 26.9613C8.9179 27.1864 8.71971 27.4604 8.58332 27.7659C8.50357 27.9385 8.37615 28.0847 8.21608 28.1873C8.05601 28.2899 7.86996 28.3447 7.67982 28.3451ZM19.222 21.9809C19.0549 21.9809 18.8904 21.9386 18.744 21.8579C18.1318 21.5741 17.5911 21.1563 17.1619 20.6355C16.7328 20.1147 16.4261 19.5041 16.2646 18.8489C16.1725 18.1988 16.2101 17.5368 16.375 16.9012C16.5399 16.2657 16.829 15.669 17.2256 15.1456C17.3906 14.9478 17.626 14.8219 17.8822 14.7946C18.1383 14.7674 18.3951 14.8408 18.598 14.9994C18.801 15.1581 18.9342 15.3894 18.9696 15.6446C19.005 15.8997 18.9398 16.1586 18.7876 16.3665C18.338 16.9677 18.1319 17.7165 18.2104 18.4631C18.3235 18.8306 18.5151 19.1692 18.772 19.4553C19.0289 19.7415 19.3449 19.9684 19.6981 20.1204C19.8909 20.2265 20.0429 20.3938 20.1302 20.5959C20.2175 20.7979 20.2351 21.0233 20.1802 21.2364C20.1253 21.4496 20.0011 21.6384 19.8271 21.7732C19.6531 21.908 19.4392 21.9811 19.219 21.9809H19.222Z" fill="#26A247"/>
<path d="M10.3953 26.426H10.3676C10.1056 26.4187 9.85708 26.308 9.67644 26.1181C9.49581 25.9281 9.3977 25.6744 9.40357 25.4124C9.41397 23.3364 10.2234 21.3441 11.6639 19.8492C13.1044 18.3543 15.0652 17.4714 17.1394 17.384C17.4024 17.3676 17.6612 17.4563 17.8588 17.6307C18.0564 17.805 18.1767 18.0508 18.1931 18.3138C18.2096 18.5768 18.1208 18.8356 17.9465 19.0332C17.7721 19.2309 17.5264 19.3511 17.2633 19.3676C11.6281 19.7206 11.3921 25.2329 11.3851 25.4679C11.3764 25.7247 11.2683 25.9681 11.0837 26.1468C10.8991 26.3255 10.6523 26.4256 10.3953 26.426Z" fill="#26A247"/>
</g>
</svg>
