<svg width="116" height="72" viewBox="0 0 116 72" fill="none" xmlns="http://www.w3.org/2000/svg">
<rect x="1.5" y="1.5" width="113" height="67" fill="white" stroke="#CCCCCC" stroke-width="3"/>
<rect x="3" y="16" width="110" height="14" fill="#CCCCCC"/>
<path d="M68.2305 55V52.1191H62.3711V49.7168L68.582 40.625H70.8867V49.707H72.6641V52.1191H70.8867V55H68.2305ZM68.2305 49.707V44.8145L64.9395 49.707H68.2305ZM74.0215 51.3184L76.7559 51.0352C76.834 51.6536 77.0651 52.1452 77.4492 52.5098C77.8333 52.8678 78.276 53.0469 78.7773 53.0469C79.3503 53.0469 79.8353 52.8158 80.2324 52.3535C80.6296 51.8848 80.8281 51.1816 80.8281 50.2441C80.8281 49.3652 80.6296 48.7077 80.2324 48.2715C79.8418 47.8288 79.3307 47.6074 78.6992 47.6074C77.9115 47.6074 77.2051 47.9557 76.5801 48.6523L74.3535 48.3301L75.7598 40.8789H83.0156V43.4473H77.8398L77.4102 45.8789C78.0221 45.5729 78.6471 45.4199 79.2852 45.4199C80.5026 45.4199 81.5345 45.8626 82.3809 46.748C83.2272 47.6335 83.6504 48.7826 83.6504 50.1953C83.6504 51.3737 83.3086 52.4251 82.625 53.3496C81.694 54.6126 80.4017 55.2441 78.748 55.2441C77.4264 55.2441 76.349 54.8893 75.5156 54.1797C74.6823 53.4701 74.1842 52.5163 74.0215 51.3184ZM94.4121 44.1895L91.7559 44.4824C91.6908 43.9355 91.5215 43.5319 91.248 43.2715C90.9746 43.0111 90.6198 42.8809 90.1836 42.8809C89.6042 42.8809 89.1126 43.1413 88.709 43.6621C88.3118 44.1829 88.0612 45.2669 87.957 46.9141C88.6406 46.1068 89.4902 45.7031 90.5059 45.7031C91.6517 45.7031 92.6315 46.1393 93.4453 47.0117C94.2656 47.8841 94.6758 49.0104 94.6758 50.3906C94.6758 51.8555 94.2461 53.0306 93.3867 53.916C92.5273 54.8014 91.4238 55.2441 90.0762 55.2441C88.6309 55.2441 87.4427 54.6842 86.5117 53.5645C85.5807 52.4382 85.1152 50.5957 85.1152 48.0371C85.1152 45.4134 85.6003 43.5221 86.5703 42.3633C87.5404 41.2044 88.8001 40.625 90.3496 40.625C91.4368 40.625 92.3353 40.931 93.0449 41.543C93.7611 42.1484 94.2168 43.0306 94.4121 44.1895ZM88.1914 50.1758C88.1914 51.0677 88.3965 51.7578 88.8066 52.2461C89.2168 52.7279 89.6855 52.9688 90.2129 52.9688C90.7207 52.9688 91.1439 52.7702 91.4824 52.373C91.821 51.9759 91.9902 51.3249 91.9902 50.4199C91.9902 49.4889 91.8079 48.8086 91.4434 48.3789C91.0788 47.9427 90.623 47.7246 90.0762 47.7246C89.5488 47.7246 89.1029 47.9329 88.7383 48.3496C88.3737 48.7598 88.1914 49.3685 88.1914 50.1758Z" fill="#5EB42A"/>
<path d="M28.5889 53.3984L26.377 51.6846C27.0801 50.8936 27.8125 50.1367 28.5742 49.4141C28.877 49.1211 29.0674 48.9355 29.1455 48.8574C28.9014 48.8184 28.2031 48.6572 27.0508 48.374C26.2207 48.1689 25.6738 48.0176 25.4102 47.9199L26.2744 45.3418C27.5537 45.8594 28.6963 46.4307 29.7021 47.0557C29.4678 45.4639 29.3506 44.165 29.3506 43.1592H31.958C31.958 43.8721 31.8262 45.1807 31.5625 47.085C31.7578 47.0068 32.1777 46.8164 32.8223 46.5137C33.7012 46.1133 34.5117 45.7715 35.2539 45.4883L36.0303 48.1396C34.9463 48.3838 33.6914 48.623 32.2656 48.8574L34.0234 50.835C34.375 51.2354 34.6533 51.5625 34.8584 51.8164L32.6172 53.2959L30.6396 50.0293C30.0439 51.084 29.3604 52.207 28.5889 53.3984ZM40.2783 53.3984L38.0664 51.6846C38.7695 50.8936 39.502 50.1367 40.2637 49.4141C40.5664 49.1211 40.7568 48.9355 40.835 48.8574C40.5908 48.8184 39.8926 48.6572 38.7402 48.374C37.9102 48.1689 37.3633 48.0176 37.0996 47.9199L37.9639 45.3418C39.2432 45.8594 40.3857 46.4307 41.3916 47.0557C41.1572 45.4639 41.04 44.165 41.04 43.1592H43.6475C43.6475 43.8721 43.5156 45.1807 43.252 47.085C43.4473 47.0068 43.8672 46.8164 44.5117 46.5137C45.3906 46.1133 46.2012 45.7715 46.9434 45.4883L47.7197 48.1396C46.6357 48.3838 45.3809 48.623 43.9551 48.8574L45.7129 50.835C46.0645 51.2354 46.3428 51.5625 46.5479 51.8164L44.3066 53.2959L42.3291 50.0293C41.7334 51.084 41.0498 52.207 40.2783 53.3984ZM51.9678 53.3984L49.7559 51.6846C50.459 50.8936 51.1914 50.1367 51.9531 49.4141C52.2559 49.1211 52.4463 48.9355 52.5244 48.8574C52.2803 48.8184 51.582 48.6572 50.4297 48.374C49.5996 48.1689 49.0527 48.0176 48.7891 47.9199L49.6533 45.3418C50.9326 45.8594 52.0752 46.4307 53.0811 47.0557C52.8467 45.4639 52.7295 44.165 52.7295 43.1592H55.3369C55.3369 43.8721 55.2051 45.1807 54.9414 47.085C55.1367 47.0068 55.5566 46.8164 56.2012 46.5137C57.0801 46.1133 57.8906 45.7715 58.6328 45.4883L59.4092 48.1396C58.3252 48.3838 57.0703 48.623 55.6445 48.8574L57.4023 50.835C57.7539 51.2354 58.0322 51.5625 58.2373 51.8164L55.9961 53.2959L54.0186 50.0293C53.4229 51.084 52.7393 52.207 51.9678 53.3984Z" fill="#AAAAAA"/>
</svg>
