<svg width="334" height="30" viewBox="0 0 334 30" fill="none" xmlns="http://www.w3.org/2000/svg">
<path d="M48.792 25.7981C48.792 27.4856 47.4068 28.8542 45.7 28.8542H3.09198C1.38516 28.8542 0 27.4839 0 25.7981V3.0619C0 1.37268 1.38516 0.00488281 3.09198 0.00488281H45.7C47.4077 0.00488281 48.792 1.37268 48.792 3.0619V25.7981Z" fill="white"/>
<path d="M21.1138 9.58154L19.439 19.2989H22.1176L23.7933 9.58154H21.1138Z" fill="#07085B"/>
<path d="M17.1935 9.5918L14.5702 16.2188L14.2909 15.2186C13.773 14.0132 12.3039 12.2812 10.5798 11.1904L12.9784 19.2946L15.8127 19.2895L20.0313 9.58923L17.1935 9.5918Z" fill="#07085B"/>
<path d="M13.2741 10.4467C13.1176 9.79355 12.6671 9.59864 12.1059 9.57556H7.95304L7.91846 9.78928C12.1059 12.1342 13.6528 13.8704 14.5408 16.3496L13.2741 10.4467Z" fill="#07085B"/>
<path d="M29.2223 11.4443C30.0999 11.4306 30.7346 11.6195 31.2274 11.8161L31.4695 11.9281L31.831 9.82257C31.3018 9.62595 30.4692 9.41479 29.4316 9.41479C26.7849 9.41479 24.9198 10.7322 24.906 12.6214C24.8879 14.0174 26.235 14.7962 27.2518 15.2621C28.2946 15.7391 28.6456 16.0418 28.6404 16.4683C28.6318 17.118 27.8078 17.4155 27.0374 17.4155C25.9652 17.4155 25.3963 17.2685 24.5152 16.9086L24.1702 16.7513L23.7932 18.9252C24.4209 19.1979 25.577 19.4313 26.778 19.4441C29.5941 19.4441 31.4237 18.1422 31.4436 16.123C31.4557 15.0185 30.7406 14.1764 29.1921 13.4848C28.2557 13.0343 27.6815 12.7343 27.6876 12.2795C27.6876 11.876 28.1752 11.4443 29.2223 11.4443Z" fill="#07085B"/>
<path d="M38.7068 9.5918H36.6368C35.9944 9.5918 35.5162 9.76448 35.2335 10.3988L31.2561 19.304H34.0697C34.0697 19.304 34.5279 18.1072 34.6317 17.8447C34.9386 17.8447 37.6726 17.8481 38.0626 17.8481C38.1421 18.1867 38.3886 19.304 38.3886 19.304H40.8736L38.7068 9.5918ZM35.4021 15.8546C35.6234 15.2964 36.4691 13.1387 36.4691 13.1387C36.4544 13.1652 36.6878 12.577 36.827 12.2111L37.0069 13.0489C37.0069 13.0489 37.5213 15.369 37.6285 15.8546H35.4021Z" fill="#07085B"/>
<path d="M105.368 26.1718C105.368 27.8585 103.984 29.228 102.276 29.228H59.6684C57.9607 29.228 56.5764 27.8577 56.5764 26.1718V3.43483C56.5764 1.74646 57.9607 0.378662 59.6684 0.378662H102.276C103.984 0.378662 105.368 1.74646 105.368 3.43483V26.1718Z" fill="white"/>
<path d="M76.8204 7.40402L72.3017 18.06H69.3542L67.1303 9.55402C66.9954 9.03169 66.8787 8.83935 66.468 8.61879C65.7979 8.25889 64.6903 7.92207 63.7175 7.71263L63.7824 7.40316H68.5284C69.1319 7.40316 69.6767 7.80068 69.8141 8.48885L70.9883 14.6567L73.8884 7.40402H76.8204ZM80.8055 7.40402L78.4995 18.06H75.711L78.0171 7.40402H80.8055ZM88.3703 14.5807C88.3816 11.769 84.4371 11.6134 84.463 10.3567C84.4725 9.97462 84.8408 9.5677 85.6458 9.46426C86.0444 9.41297 87.1477 9.37279 88.3963 9.94128L88.8848 7.68014C88.2138 7.43992 87.35 7.20911 86.2762 7.20911C83.5197 7.20911 81.5794 8.6564 81.5647 10.7312C81.5465 12.2665 82.9499 13.1214 84.0047 13.6318C85.0925 14.1541 85.4565 14.4892 85.4513 14.956C85.4435 15.6706 84.5832 15.9869 83.7834 15.9997C82.3801 16.0211 81.5673 15.6245 80.9188 15.3261L80.4139 17.6608C81.0658 17.9583 82.2685 18.213 83.5136 18.2267C86.4448 18.2275 88.3608 16.7956 88.3703 14.5807ZM95.6489 18.06H98.2273L95.9749 7.40402H93.5963C93.0602 7.40402 92.6088 7.71177 92.4091 8.18452L88.2251 18.06H91.1536L91.7338 16.4682H95.3117L95.6489 18.06ZM92.5362 14.2849L94.0052 10.2824L94.8491 14.2849H92.5362ZM84.3748 20.9939H83.2421V22.0369H84.5088V22.3506H82.8599V19.4577H84.444V19.7697H83.2421V20.6836H84.3748V20.9939ZM85.0942 19.303H85.4755V22.3497H85.0942V19.303ZM86.4387 21.3795C86.4474 21.8915 86.7733 22.1018 87.159 22.1018C87.4322 22.1018 87.6025 22.054 87.7409 21.9941L87.81 22.2625C87.6752 22.3224 87.4408 22.3959 87.1071 22.3959C86.4603 22.3959 86.0747 21.9719 86.0747 21.3453C86.0747 20.7186 86.4482 20.2279 87.0595 20.2279C87.7495 20.2279 87.9276 20.8195 87.9276 21.2034C87.9276 21.2803 87.9233 21.335 87.9138 21.3786H86.4387V21.3795ZM87.5593 21.1093C87.5636 20.8742 87.459 20.4998 87.0301 20.4998C86.6393 20.4998 86.4742 20.8469 86.4439 21.1093H87.5593ZM90.0062 22.2771C89.9059 22.3249 89.6846 22.3985 89.4027 22.3985C88.7689 22.3985 88.3574 21.9727 88.3574 21.3384C88.3574 20.699 88.7992 20.2314 89.4857 20.2314C89.7114 20.2314 89.9111 20.2861 90.0149 20.3416L89.9284 20.6306C89.8368 20.5819 89.6932 20.5314 89.4857 20.5314C89.0033 20.5314 88.7439 20.8879 88.7439 21.3171C88.7439 21.7983 89.056 22.0933 89.4728 22.0933C89.6889 22.0933 89.8333 22.0428 89.9414 21.9958L90.0062 22.2771ZM91.0775 19.7749V20.2724H91.624V20.5596H91.0775V21.6812C91.0775 21.9377 91.151 22.0847 91.3637 22.0847C91.4675 22.0847 91.5289 22.0762 91.5851 22.0599L91.6024 22.348C91.5289 22.372 91.4113 22.3993 91.2634 22.3993C91.0853 22.3993 90.9418 22.3395 90.851 22.2395C90.7464 22.1232 90.704 21.9377 90.704 21.694V20.5596H90.378V20.2724H90.704V19.886L91.0775 19.7749ZM92.1575 20.9212C92.1575 20.6759 92.1523 20.4665 92.1402 20.2724H92.4739L92.4912 20.6836H92.5042C92.6002 20.4058 92.8345 20.2288 93.0904 20.2288C93.1293 20.2288 93.1596 20.2339 93.1942 20.2373V20.5947C93.1553 20.5844 93.1164 20.5844 93.0636 20.5844C92.7947 20.5844 92.6045 20.7819 92.5518 21.0657C92.5431 21.1187 92.5388 21.1811 92.5388 21.2418V22.3497H92.1575V20.9212ZM95.5426 21.2948C95.5426 22.0616 95.0004 22.3968 94.4964 22.3968C93.9317 22.3968 93.489 21.9847 93.489 21.3282C93.489 20.6366 93.9542 20.2297 94.5309 20.2297C95.1345 20.2297 95.5426 20.6631 95.5426 21.2948ZM93.8799 21.3153C93.8799 21.7701 94.141 22.1146 94.5136 22.1146C94.8777 22.1146 95.1518 21.7761 95.1518 21.3085C95.1518 20.9571 94.9736 20.5135 94.5223 20.5135C94.0761 20.5135 93.8799 20.9264 93.8799 21.3153ZM96.1279 20.834C96.1279 20.6152 96.1236 20.4451 96.1106 20.2733H96.4496L96.4712 20.6152H96.4799C96.5845 20.422 96.8274 20.2297 97.1742 20.2297C97.4647 20.2297 97.916 20.4015 97.916 21.1144V22.3497H97.5347V21.1529C97.5347 20.8169 97.4085 20.5383 97.0479 20.5383C96.8006 20.5383 96.6052 20.7144 96.5361 20.9255C96.5188 20.9725 96.5101 21.0358 96.5101 21.0999V22.3497H96.1288L96.1279 20.834Z" fill="#1A1F71"/>
<path d="M162.388 25.9299C162.388 27.6208 161.003 28.9886 159.295 28.9886H116.668C114.958 28.9886 113.574 27.6191 113.574 25.9299V3.18605C113.574 1.49597 114.959 0.128174 116.668 0.128174H159.295C161.003 0.128174 162.388 1.49682 162.388 3.18605V25.9299Z" fill="white"/>
<path d="M127.862 26.2505V24.6792C127.862 24.0748 127.492 23.6824 126.856 23.6824C126.538 23.6824 126.193 23.7876 125.954 24.1278C125.769 23.8397 125.504 23.6824 125.107 23.6824C124.841 23.6824 124.577 23.7611 124.364 24.05V23.7363H123.808V26.2505H124.364V24.8613C124.364 24.4159 124.603 24.2065 124.974 24.2065C125.345 24.2065 125.531 24.4416 125.531 24.8613V26.2505H126.088V24.8613C126.088 24.4159 126.353 24.2065 126.698 24.2065C127.069 24.2065 127.254 24.4416 127.254 24.8613V26.2505H127.862ZM136.103 23.7354H135.202V22.9754H134.645V23.7354H134.141V24.2321H134.645V25.3862C134.645 25.9632 134.883 26.3018 135.519 26.3018C135.757 26.3018 136.024 26.2231 136.208 26.1188L136.05 25.6469C135.89 25.7504 135.705 25.7769 135.572 25.7769C135.307 25.7769 135.201 25.6204 135.201 25.358V24.2321H136.102L136.103 23.7354ZM140.82 23.6824C140.502 23.6824 140.291 23.8406 140.158 24.05V23.7363H139.601V26.2505H140.158V24.8365C140.158 24.4168 140.343 24.18 140.687 24.18C140.794 24.18 140.926 24.2073 141.032 24.2338L141.191 23.7098C141.085 23.6824 140.926 23.6824 140.82 23.6824ZM133.692 23.944C133.427 23.7602 133.056 23.6816 132.658 23.6816C132.023 23.6816 131.599 23.9953 131.599 24.492C131.599 24.9117 131.917 25.1477 132.473 25.2255L132.738 25.252C133.029 25.305 133.188 25.3819 133.188 25.5127C133.188 25.6974 132.977 25.8282 132.606 25.8282C132.235 25.8282 131.942 25.6974 131.757 25.5657L131.493 25.9846C131.783 26.194 132.182 26.2983 132.579 26.2983C133.321 26.2983 133.745 25.9598 133.745 25.4871C133.745 25.0417 133.4 24.8074 132.87 24.7271L132.606 24.7006C132.368 24.6758 132.182 24.6228 132.182 24.4655C132.182 24.2817 132.368 24.1765 132.658 24.1765C132.977 24.1765 133.295 24.3073 133.453 24.3877L133.692 23.944ZM148.478 23.6824C148.16 23.6824 147.948 23.8406 147.817 24.05V23.7363H147.26V26.2505H147.817V24.8365C147.817 24.4168 148.001 24.18 148.346 24.18C148.451 24.18 148.583 24.2073 148.689 24.2338L148.85 23.7098C148.743 23.6824 148.583 23.6824 148.478 23.6824ZM141.376 24.9921C141.376 25.7512 141.906 26.3009 142.728 26.3009C143.099 26.3009 143.364 26.2214 143.627 26.0137L143.364 25.5674C143.151 25.7264 142.94 25.8042 142.7 25.8042C142.25 25.8042 141.933 25.4888 141.933 24.9921C141.933 24.5193 142.251 24.2065 142.7 24.18C142.939 24.18 143.152 24.2586 143.364 24.415L143.627 23.9705C143.364 23.7585 143.099 23.6799 142.728 23.6799C141.908 23.6824 141.376 24.2321 141.376 24.9921ZM146.517 24.9921V23.7337H145.96V24.0475C145.775 23.8124 145.51 23.6799 145.166 23.6799C144.45 23.6799 143.894 24.2295 143.894 24.9904C143.894 25.7486 144.45 26.2992 145.166 26.2992C145.537 26.2992 145.801 26.1684 145.96 25.9316V26.247H146.517V24.9921ZM144.477 24.9921C144.477 24.5458 144.769 24.18 145.245 24.18C145.696 24.18 146.014 24.5193 146.014 24.9921C146.014 25.4375 145.696 25.8042 145.245 25.8042C144.769 25.7777 144.477 25.4366 144.477 24.9921ZM137.826 23.6824C137.085 23.6824 136.554 24.2065 136.554 24.9921C136.554 25.7777 137.085 26.3018 137.853 26.3018C138.224 26.3018 138.595 26.1975 138.886 25.9615L138.621 25.5691C138.409 25.7264 138.144 25.8316 137.879 25.8316C137.534 25.8316 137.19 25.6743 137.11 25.2297H138.992V25.0212C139.018 24.2065 138.541 23.6824 137.826 23.6824ZM137.826 24.1543C138.171 24.1543 138.409 24.3629 138.463 24.7553H137.137C137.191 24.4159 137.429 24.1543 137.826 24.1543ZM151.63 24.9921V22.7395H151.075V24.0475C150.889 23.8132 150.624 23.6816 150.28 23.6816C149.564 23.6816 149.008 24.2313 149.008 24.9912C149.008 25.7504 149.564 26.3 150.28 26.3C150.65 26.3 150.915 26.1692 151.075 25.9333V26.2487H151.63V24.9921ZM149.591 24.9921C149.591 24.5458 149.882 24.18 150.359 24.18C150.81 24.18 151.128 24.5193 151.128 24.9921C151.128 25.4375 150.809 25.8042 150.359 25.8042C149.882 25.7777 149.591 25.4366 149.591 24.9921ZM130.99 24.9921V23.7337H130.433V24.0475C130.248 23.8124 129.982 23.6799 129.639 23.6799C128.924 23.6799 128.367 24.2295 128.367 24.9904C128.367 25.7486 128.924 26.2992 129.639 26.2992C130.009 26.2992 130.275 26.1684 130.433 25.9316V26.247H130.99V24.9921ZM128.923 24.9921C128.923 24.5458 129.214 24.18 129.691 24.18C130.141 24.18 130.46 24.5193 130.46 24.9921C130.46 25.4375 130.141 25.8042 129.691 25.8042C129.214 25.7777 128.923 25.4366 128.923 24.9921Z" fill="black"/>
<path d="M141.854 4.63672H133.508V19.4645H141.854V4.63672Z" fill="#FF5F00"/>
<path d="M134.037 12.0502C134.037 9.03764 135.468 6.36531 137.667 4.63676C136.051 3.37924 134.011 2.61926 131.784 2.61926C126.512 2.61926 122.246 6.8372 122.246 12.0502C122.246 17.2632 126.512 21.4811 131.784 21.4811C134.011 21.4811 136.051 20.7212 137.667 19.4645C135.468 17.7607 134.037 15.0628 134.037 12.0502Z" fill="#EB001B"/>
<path d="M153.115 12.0502C153.115 17.2632 148.849 21.4811 143.576 21.4811C141.349 21.4811 139.31 20.7212 137.693 19.4645C139.919 17.7368 141.324 15.0636 141.324 12.0511C141.324 9.03849 139.893 6.36616 137.693 4.63761C139.31 3.3801 141.349 2.62012 143.576 2.62012C148.85 2.61926 153.115 6.86284 153.115 12.0502Z" fill="#F79E1B"/>
<path d="M219.595 25.9299C219.595 27.6208 218.209 28.9886 216.502 28.9886H173.874C172.165 28.9886 170.781 27.6191 170.781 25.9299V3.18605C170.781 1.49597 172.166 0.128174 173.874 0.128174H216.502C218.21 0.128174 219.595 1.49682 219.595 3.18605V25.9299Z" fill="white"/>
<path d="M199.289 19.9758H190.71V4.73169H199.289V19.9758Z" fill="#6C6BBD"/>
<path d="M191.255 12.3544C191.255 9.26233 192.719 6.50793 194.999 4.73236C193.332 3.43467 191.227 2.6593 188.94 2.6593C183.526 2.6593 179.137 6.99948 179.137 12.3535C179.137 17.7085 183.526 22.0478 188.94 22.0478C191.227 22.0478 193.332 21.2716 194.999 19.9756C192.719 18.2017 191.255 15.4456 191.255 12.3544Z" fill="#D32011"/>
<path d="M210.864 12.3537C210.864 17.7077 206.473 22.0471 201.061 22.0471C198.773 22.0471 196.668 21.2708 195 19.9748C197.281 18.2001 198.745 15.444 198.745 12.352C198.745 9.25989 197.283 6.50549 195 4.72992C196.668 3.43223 198.773 2.65686 201.061 2.65686C206.473 2.65857 210.864 6.99961 210.864 12.3537Z" fill="#0099DF"/>
<path d="M202.192 24.2808C202.306 24.2808 202.468 24.3031 202.595 24.3509L202.42 24.8784C202.3 24.8288 202.18 24.8143 202.065 24.8143C201.695 24.8143 201.509 25.0519 201.509 25.4751V26.919H200.944V24.3441H201.504V24.6561C201.651 24.4321 201.864 24.2808 202.192 24.2808ZM200.097 24.8579H199.173V26.0196C199.173 26.2804 199.265 26.4522 199.549 26.4522C199.696 26.4522 199.882 26.4018 200.051 26.3052L200.213 26.7848C200.033 26.9096 199.75 26.9848 199.505 26.9848C198.835 26.9848 198.601 26.6283 198.601 26.0316V24.8579H198.073V24.3458H198.601V23.5653H199.173V24.3458H200.097V24.8579ZM192.85 25.4076C192.91 25.034 193.139 24.7826 193.541 24.7826C193.906 24.7826 194.142 25.01 194.201 25.4076H192.85ZM194.789 25.6315C194.783 24.8297 194.282 24.2808 193.552 24.2808C192.79 24.2808 192.256 24.8314 192.256 25.6315C192.256 26.4514 192.811 26.9839 193.589 26.9839C193.982 26.9839 194.341 26.8882 194.656 26.6232L194.38 26.2086C194.162 26.3795 193.884 26.477 193.623 26.477C193.258 26.477 192.925 26.3103 192.845 25.8487H194.777C194.782 25.7769 194.789 25.7093 194.789 25.6315ZM197.276 25.0032C197.119 24.9066 196.799 24.7826 196.466 24.7826C196.156 24.7826 195.97 24.8963 195.97 25.0853C195.97 25.2554 196.167 25.305 196.411 25.3383L196.679 25.3759C197.244 25.4563 197.587 25.6939 197.587 26.1453C197.587 26.6343 197.152 26.9848 196.401 26.9848C195.976 26.9848 195.585 26.8762 195.272 26.6488L195.54 26.2128C195.732 26.3582 196.015 26.4813 196.406 26.4813C196.792 26.4813 197 26.3684 197 26.171C197 26.0231 196.853 25.9427 196.543 25.9008L196.275 25.8658C195.692 25.7837 195.375 25.5255 195.375 25.1058C195.375 24.5929 195.802 24.28 196.459 24.28C196.873 24.28 197.249 24.3706 197.522 24.5493L197.276 25.0032ZM204.262 24.8134C204.145 24.8134 204.037 24.8322 203.936 24.8733C203.837 24.9143 203.751 24.9707 203.677 25.0425C203.604 25.1143 203.548 25.2032 203.505 25.305C203.463 25.4084 203.444 25.5195 203.444 25.6426C203.444 25.7657 203.463 25.8743 203.505 25.9778C203.547 26.0803 203.604 26.1684 203.677 26.2411C203.751 26.3137 203.837 26.3701 203.936 26.4103C204.037 26.4522 204.145 26.471 204.262 26.471C204.379 26.471 204.487 26.4522 204.586 26.4103C204.687 26.3701 204.774 26.3137 204.847 26.2411C204.921 26.1684 204.978 26.0803 205.022 25.9778C205.063 25.876 205.083 25.7657 205.083 25.6426C205.083 25.5195 205.063 25.4101 205.022 25.305C204.979 25.2041 204.921 25.1143 204.847 25.0425C204.774 24.9707 204.687 24.9143 204.586 24.8733C204.487 24.8339 204.379 24.8134 204.262 24.8134ZM204.262 24.2808C204.464 24.2808 204.651 24.315 204.823 24.3851C204.993 24.4544 205.144 24.5501 205.27 24.6715C205.396 24.7929 205.494 24.9382 205.565 25.1032C205.636 25.2665 205.671 25.4469 205.671 25.6426C205.671 25.8367 205.636 26.0171 205.565 26.1821C205.494 26.3462 205.396 26.4924 205.27 26.6129C205.144 26.7352 204.996 26.8301 204.823 26.9002C204.651 26.9686 204.464 27.0036 204.262 27.0036C204.06 27.0036 203.874 26.9686 203.702 26.9002C203.53 26.8301 203.381 26.7352 203.256 26.6129C203.131 26.4924 203.034 26.3462 202.963 26.1821C202.892 26.0171 202.857 25.8367 202.857 25.6426C202.857 25.4469 202.893 25.2682 202.963 25.1032C203.035 24.9382 203.132 24.7929 203.256 24.6715C203.382 24.5501 203.529 24.4544 203.702 24.3851C203.874 24.315 204.059 24.2808 204.262 24.2808ZM189.539 25.6315C189.539 25.1802 189.84 24.8091 190.33 24.8091C190.797 24.8091 191.113 25.1639 191.113 25.6315C191.113 26.1034 190.797 26.4573 190.33 26.4573C189.84 26.4573 189.539 26.0872 189.539 25.6315ZM191.647 25.6315V24.3458H191.082V24.6587C190.903 24.427 190.631 24.2808 190.259 24.2808C189.529 24.2808 188.957 24.8459 188.957 25.6315C188.957 26.4189 189.529 26.9848 190.259 26.9848C190.63 26.9848 190.901 26.8386 191.082 26.6095V26.9198H191.647V25.6315ZM188.457 26.9198V25.3041C188.457 24.6954 188.063 24.2885 187.432 24.2817C187.1 24.2766 186.758 24.3791 186.516 24.7408C186.337 24.4544 186.054 24.2817 185.656 24.2817C185.379 24.2817 185.105 24.3638 184.893 24.6647V24.3467H184.327V26.9215H184.898V25.493C184.898 25.0468 185.149 24.81 185.534 24.81C185.911 24.81 186.101 25.0528 186.101 25.4879V26.9215H186.673V25.493C186.673 25.0468 186.936 24.81 187.308 24.81C187.697 24.81 187.881 25.0528 187.881 25.4879V26.9215H188.455V26.9198H188.457Z" fill="#110F0D"/>
<path d="M276.848 25.8103C276.848 27.4995 275.465 28.8673 273.758 28.8673H231.154C229.449 28.8673 228.064 27.4969 228.064 25.8103V3.07924C228.064 1.39087 229.449 0.0230713 231.154 0.0230713H273.756C275.466 0.0230713 276.848 1.39087 276.848 3.07924V25.8103Z" fill="white"/>
<path d="M248.217 15.5295L246.151 21.0341L245.931 19.915C245.415 18.5438 244.302 17.1034 243.005 16.5186L244.895 23.591L247.13 23.5876L250.453 15.5244H248.217V15.5295Z" fill="#025EA3"/>
<path d="M249.989 23.6012L251.31 15.5184H253.418L252.099 23.6012H249.989Z" fill="#025EA3"/>
<path d="M259.756 15.7177C259.338 15.5561 258.681 15.3792 257.864 15.3792C255.776 15.3792 254.31 16.476 254.295 18.0446C254.282 19.2073 255.344 19.8561 256.144 20.2417C256.969 20.6375 257.243 20.8905 257.243 21.2436C257.232 21.7864 256.581 22.0326 255.975 22.0326C255.131 22.0326 254.683 21.9104 253.991 21.6095L253.718 21.4821L253.422 23.2918C253.916 23.5175 254.827 23.7107 255.777 23.721C257.993 23.721 259.433 22.6362 259.451 20.9606C259.461 20.0382 258.895 19.3398 257.677 18.7653C256.939 18.3909 256.485 18.1421 256.493 17.7608C256.494 17.424 256.874 17.0658 257.701 17.0658C258.394 17.0556 258.89 17.2128 259.282 17.3778L259.471 17.4702L259.756 15.7177Z" fill="#025EA3"/>
<path d="M265.167 15.5295H263.537C263.032 15.5295 262.653 15.6697 262.43 16.1989L259.297 23.6038H261.514C261.514 23.6038 261.875 22.6053 261.958 22.3882C262.2 22.3882 264.354 22.3933 264.661 22.3933C264.724 22.6754 264.917 23.6038 264.917 23.6038H266.878L265.167 15.5295ZM262.565 20.7349C262.742 20.2707 263.406 18.4746 263.406 18.4746C263.392 18.4968 263.578 18.0061 263.688 17.706L263.828 18.4019C263.828 18.4019 264.233 20.3305 264.317 20.7349C263.987 20.7349 262.977 20.7349 262.565 20.7349Z" fill="#025EA3"/>
<path d="M244.235 15.5227H240.832L240.812 15.6612C243.46 16.3306 245.204 17.9719 245.932 19.9176L245.194 16.2057C245.064 15.6928 244.696 15.5415 244.235 15.5227Z" fill="#F1A535"/>
<path d="M234.447 13.5702H233.101L231.549 6.65001L233.038 6.40466L234.1 11.8203L236.805 6.47647H238.233L234.447 13.5702Z" fill="#025EA3"/>
<path d="M241.445 11.3083H238.237C238.147 12.27 238.602 12.6897 239.367 12.6897C240.008 12.6897 240.575 12.4538 241.183 12.0751L241.178 13.0368C240.583 13.4061 239.893 13.6412 239.086 13.6412C237.689 13.6412 236.764 12.8539 237.043 11.0723C237.293 9.46515 238.417 8.49316 239.722 8.49316C241.222 8.49316 241.722 9.60963 241.505 11.0116C241.488 11.1133 241.457 11.2356 241.445 11.3083ZM239.557 9.34291C239.06 9.34291 238.596 9.73187 238.377 10.5397H240.366C240.4 9.77291 240.156 9.34291 239.557 9.34291Z" fill="#025EA3"/>
<path d="M243.538 10.7039L243.097 13.5395H241.854L242.624 8.59575H243.68L243.682 9.58825C244.102 9.01549 244.673 8.5342 245.457 8.49402L245.465 9.71221C244.679 9.76265 243.974 10.1721 243.538 10.7039Z" fill="#025EA3"/>
<path d="M245.448 13.5386L246.217 8.59487H247.46L246.69 13.5386H245.448ZM246.979 7.7665C246.565 7.7665 246.276 7.48011 246.342 7.07063C246.406 6.65174 246.784 6.35339 247.199 6.35339C247.603 6.35339 247.887 6.65174 247.822 7.07063C247.757 7.48011 247.38 7.7665 246.979 7.7665Z" fill="#025EA3"/>
<path d="M250.899 7.2441C250.476 7.2441 250.219 7.42789 250.152 7.86901L250.037 8.59565H250.989V9.59841H249.883L249.268 13.5394H248.035L248.65 9.59841H247.925L248.081 8.59565H248.807L248.939 7.74591C249.107 6.65082 249.878 6.24133 250.901 6.24133C251.12 6.24133 251.281 6.26185 251.403 6.28237L251.412 7.28513C251.29 7.26547 251.107 7.2441 250.899 7.2441Z" fill="#025EA3"/>
<path d="M250.913 13.5386L251.683 8.59487H252.926L252.156 13.5386H250.913ZM252.442 7.7665C252.029 7.7665 251.74 7.48011 251.808 7.07063C251.872 6.65174 252.25 6.35339 252.664 6.35339C253.068 6.35339 253.353 6.65174 253.29 7.07063C253.225 7.48011 252.849 7.7665 252.442 7.7665Z" fill="#025EA3"/>
<path d="M257.742 11.3083H254.535C254.445 12.27 254.898 12.6897 255.664 12.6897C256.306 12.6897 256.872 12.4538 257.48 12.0751L257.475 13.0368C256.88 13.4061 256.19 13.6412 255.381 13.6412C253.985 13.6412 253.06 12.8539 253.34 11.0723C253.589 9.46515 254.714 8.49316 256.019 8.49316C257.519 8.49316 258.019 9.60963 257.802 11.0116C257.784 11.1133 257.755 11.2356 257.742 11.3083ZM255.852 9.34291C255.356 9.34291 254.892 9.73187 254.674 10.5397H256.663C256.696 9.77291 256.455 9.34291 255.852 9.34291Z" fill="#025EA3"/>
<path d="M261.421 13.5386L261.427 12.8529C261.01 13.2727 260.466 13.6411 259.77 13.6411C258.725 13.6411 258.005 12.8743 258.265 11.2048C258.552 9.36251 259.706 8.54354 260.865 8.54354C261.341 8.54354 261.711 8.62476 261.996 8.72734L262.368 6.34225L263.642 6.14819L262.492 13.5394L261.421 13.5386ZM261.837 9.74122C261.55 9.59845 261.324 9.52579 260.898 9.52579C260.246 9.52579 259.689 10.0481 259.52 11.1329C259.368 12.0947 259.713 12.5452 260.259 12.5452C260.717 12.5452 261.108 12.2785 261.504 11.8707L261.837 9.74122Z" fill="#025EA3"/>
<path d="M266.296 13.5873C265.708 13.5873 265.227 13.4942 264.781 13.3386L265.598 8.08966L266.56 7.94263L266.209 10.214C266.489 9.96611 266.879 9.71819 267.359 9.71819C268.158 9.71819 268.695 10.3063 268.5 11.5647C268.285 12.9419 267.426 13.5873 266.296 13.5873ZM266.99 10.5389C266.676 10.5389 266.36 10.7475 266.083 11.027L265.816 12.7248C266.002 12.7949 266.13 12.8257 266.397 12.8257C266.992 12.8257 267.408 12.4683 267.542 11.616C267.655 10.8954 267.412 10.5389 266.99 10.5389Z" fill="#025EA3"/>
<path d="M270.716 13.7403C270.237 14.6636 269.761 14.9491 269.031 14.9491C268.866 14.9491 268.774 14.9346 268.69 14.9115L268.686 14.1438C268.806 14.1746 268.934 14.1977 269.115 14.1977C269.388 14.1977 269.63 14.0737 269.787 13.8036L269.912 13.5548L269.115 9.86431L270.115 9.7395L270.577 12.4067L271.83 9.79421H272.764L270.716 13.7403Z" fill="#025EA3"/>
<path d="M334 25.9394C334 27.6261 332.616 28.993 330.913 28.993H288.36C286.654 28.993 285.271 27.6244 285.271 25.9394V3.23402C285.271 1.54736 286.654 0.181274 288.36 0.181274H330.913C332.619 0.181274 334 1.54736 334 3.23402V25.9394Z" fill="white"/>
<path d="M329.077 12.7582C329.077 12.3077 329.436 11.9392 329.869 11.9392C330.313 11.9392 330.661 12.3068 330.661 12.7582C330.661 13.2095 330.313 13.5771 329.869 13.5771C329.436 13.5891 329.077 13.2198 329.077 12.7582ZM329.87 13.3985C330.207 13.3985 330.47 13.1138 330.47 12.7701C330.47 12.4265 330.193 12.141 329.87 12.141C329.534 12.141 329.269 12.4256 329.269 12.7701C329.268 13.1147 329.535 13.3985 329.87 13.3985ZM329.761 13.1266H329.595V12.4017H329.895C329.955 12.4017 330.028 12.4017 330.075 12.4376C330.132 12.4735 330.158 12.5445 330.158 12.6154C330.158 12.6992 330.111 12.7693 330.04 12.7932L330.17 13.1138H329.991L329.883 12.8291H329.761V13.1266ZM329.761 12.7231H329.857C329.894 12.7231 329.929 12.7231 329.951 12.7103C329.974 12.6992 329.988 12.6633 329.988 12.6274C329.988 12.6034 329.974 12.5684 329.951 12.5564C329.929 12.5445 329.88 12.5445 329.857 12.5445H329.772L329.761 12.7231Z" fill="#FD0C15"/>
<path d="M317.737 7.28872L317.521 8.689C317.053 8.43938 316.707 8.34534 316.333 8.34534C315.349 8.34534 314.653 9.34127 314.653 10.7535C314.653 11.7264 315.123 12.3188 315.892 12.3188C316.216 12.3188 316.574 12.2128 317.02 11.9871L316.79 13.4583C316.299 13.6011 315.986 13.6481 315.617 13.6481C314.188 13.6481 313.299 12.5804 313.299 10.8715C313.299 8.57017 314.522 6.95618 316.287 6.95618C316.513 6.95618 316.719 6.98011 316.886 7.02713L317.44 7.16904C317.581 7.22974 317.618 7.24085 317.737 7.28872Z" fill="#FD0C15"/>
<path d="M313.334 8.24964C313.299 8.23767 313.248 8.23767 313.201 8.23767C312.77 8.23767 312.519 8.46336 312.11 9.09254L312.23 8.29751H311.029L310.215 13.5302H311.546C312.026 10.327 312.145 9.78071 312.782 9.78071C312.82 9.78071 312.83 9.78071 312.878 9.78071C312.999 9.15153 313.153 8.68904 313.382 8.26161L313.334 8.24964Z" fill="#FD0C15"/>
<path d="M305.402 13.4583C305.04 13.578 304.753 13.637 304.452 13.637C303.78 13.637 303.409 13.2335 303.409 12.4855C303.409 12.3436 303.423 12.1777 303.446 12.0119L303.531 11.5015L303.589 11.0861L304.165 7.51611H305.484L305.328 8.28721H306.012L305.821 9.55584H305.149L304.8 11.7392C304.788 11.8349 304.778 11.905 304.778 11.9529C304.778 12.2265 304.92 12.3444 305.232 12.3444C305.39 12.3444 305.498 12.3316 305.592 12.2974L305.402 13.4583Z" fill="#FD0C15"/>
<path d="M300.171 9.94732C300.171 10.6116 300.481 11.0621 301.177 11.4066C301.705 11.6673 301.804 11.7502 301.804 11.9879C301.804 12.3085 301.563 12.4632 301.047 12.4632C300.65 12.4632 300.291 12.4034 299.858 12.2495L299.679 13.4591L299.738 13.4711L299.978 13.5181C300.062 13.5309 300.171 13.554 300.325 13.566C300.637 13.5891 300.889 13.6139 301.055 13.6139C302.448 13.6139 303.097 13.0565 303.097 11.8691C303.097 11.157 302.833 10.7295 302.161 10.4098C301.608 10.1482 301.548 10.0892 301.548 9.8396C301.548 9.55493 301.764 9.41302 302.198 9.41302C302.462 9.41302 302.809 9.44893 303.146 9.49595L303.337 8.2863C302.991 8.22646 302.476 8.17944 302.173 8.17944C300.674 8.17944 300.158 8.97362 300.171 9.94732Z" fill="#FD0C15"/>
<path d="M328.309 13.5173H327.051L327.11 13.0078C326.75 13.4113 326.367 13.5891 325.885 13.5891C324.914 13.5891 324.278 12.7239 324.278 11.4177C324.278 9.67376 325.261 8.20253 326.438 8.20253C326.955 8.20253 327.338 8.42907 327.711 8.91463L327.998 7.07581H329.308L328.309 13.5173ZM326.353 12.2957C326.978 12.2957 327.409 11.5716 327.409 10.5278C327.409 9.86354 327.157 9.49509 326.701 9.49509C326.102 9.49509 325.672 10.2311 325.672 11.2501C325.671 11.9392 325.897 12.2957 326.353 12.2957Z" fill="#FD0C15"/>
<path d="M309.601 13.4104C309.147 13.5523 308.714 13.6241 308.234 13.6241C306.758 13.6241 305.979 12.8163 305.979 11.2741C305.979 9.47117 306.962 8.15381 308.294 8.15381C309.389 8.15381 310.082 8.90182 310.082 10.0636C310.082 10.444 310.033 10.8236 309.914 11.3579H307.274C307.262 11.4408 307.262 11.4758 307.262 11.5237C307.262 12.1409 307.659 12.4495 308.425 12.4495C308.895 12.4495 309.326 12.3427 309.807 12.1178L309.601 13.4104ZM308.858 10.2901C308.872 10.1833 308.872 10.0892 308.872 10.0294C308.872 9.60196 308.642 9.35319 308.246 9.35319C307.826 9.35319 307.525 9.68488 307.407 10.2901H308.858Z" fill="#FD0C15"/>
<path d="M294.844 13.5173H293.522L294.279 8.57011L292.574 13.5173H291.675L291.567 8.60602L290.763 13.5173H289.527L290.558 7.08777H292.468L292.514 11.074L293.811 7.08777H295.875L294.844 13.5173Z" fill="#FD0C15"/>
<path d="M298.262 11.1929C298.117 11.18 298.058 11.1689 297.963 11.1689C297.207 11.1689 296.831 11.4408 296.831 11.9631C296.831 12.2837 297.028 12.4974 297.315 12.4974C297.843 12.4974 298.238 11.9631 298.262 11.1929ZM299.221 13.5173H298.117L298.141 12.9719C297.806 13.4104 297.362 13.6002 296.751 13.6002C296.032 13.6002 295.539 13.018 295.539 12.176C295.539 10.8945 296.403 10.1593 297.867 10.1593C298.023 10.1593 298.213 10.1704 298.408 10.1952C298.443 10.0174 298.455 9.94647 298.455 9.85243C298.455 9.50792 298.227 9.37712 297.604 9.37712C297.231 9.37712 296.8 9.43696 296.502 9.53185L296.333 9.5917L296.213 9.62675L296.394 8.45215C297.055 8.24955 297.498 8.16748 297.978 8.16748C299.118 8.16748 299.718 8.70178 299.718 9.6977C299.718 9.95844 299.694 10.1482 299.61 10.7415L299.346 12.6034L299.295 12.9351L299.261 13.1958L299.236 13.3856L299.221 13.5173Z" fill="#FD0C15"/>
<path d="M320.028 11.1929C319.897 11.1801 319.826 11.1689 319.729 11.1689C318.974 11.1689 318.589 11.4408 318.589 11.9631C318.589 12.2837 318.782 12.4974 319.071 12.4974C319.61 12.4974 320.005 11.9631 320.028 11.1929ZM320.99 13.5173H319.886L319.909 12.9719C319.573 13.4104 319.131 13.6002 318.519 13.6002C317.797 13.6002 317.305 13.018 317.305 12.176C317.305 10.8945 318.17 10.1593 319.634 10.1593C319.779 10.1593 319.983 10.1704 320.176 10.1952C320.212 10.0174 320.222 9.94647 320.222 9.85244C320.222 9.50792 319.994 9.37713 319.371 9.37713C318.998 9.37713 318.567 9.43697 318.269 9.53186L318.076 9.57973L317.956 9.61564L318.135 8.44104C318.795 8.23929 319.239 8.15637 319.719 8.15637C320.858 8.15637 321.46 8.69067 321.46 9.68659C321.46 9.94733 321.435 10.1371 321.35 10.7304L321.075 12.5812L321.038 12.9129L321.003 13.1745L320.978 13.3523L320.99 13.5173Z" fill="#FD0C15"/>
<path d="M324.698 8.24964C324.663 8.23767 324.613 8.23767 324.565 8.23767C324.134 8.23767 323.883 8.46336 323.474 9.09254L323.594 8.29751H322.395L321.579 13.5302H322.912C323.388 10.327 323.511 9.78071 324.146 9.78071C324.184 9.78071 324.184 9.78071 324.242 9.78071C324.361 9.15153 324.53 8.68904 324.746 8.26161L324.698 8.24964Z" fill="#FD0C15"/>
<path d="M319.13 18.6072C319.13 19.7947 318.756 20.4939 318.169 20.4939C317.737 20.5059 317.485 20.0315 317.485 19.333C317.485 18.5029 317.868 17.5549 318.472 17.5549C318.963 17.5515 319.13 18.0601 319.13 18.6072ZM320.437 18.6201C320.437 17.3027 319.778 16.2692 318.541 16.2692C317.114 16.2692 316.192 17.5139 316.192 19.3544C316.192 20.67 316.744 21.7515 318.084 21.7515C319.443 21.7515 320.437 20.8008 320.437 18.6201Z" fill="#F3AE12"/>
<path d="M316.61 15.3561L316.408 16.7564C315.96 16.5085 315.651 16.4127 315.304 16.4127C314.38 16.4127 313.732 17.4112 313.732 18.8209C313.732 19.7946 314.164 20.3862 314.884 20.3862C315.196 20.3862 315.53 20.2802 315.941 20.0536L315.725 21.5257C315.269 21.6676 314.968 21.7172 314.619 21.7172C313.288 21.7172 312.447 20.6478 312.447 18.9406C312.447 16.6384 313.6 15.0236 315.243 15.0236C315.458 15.0236 315.638 15.0466 315.798 15.0954L316.299 15.2381C316.465 15.2869 316.5 15.2971 316.61 15.3561Z" fill="#F3AE12"/>
<path d="M308.413 16.3076C308.378 16.2914 308.329 16.2914 308.284 16.2914C307.873 16.2914 307.646 16.5196 307.26 17.1471L307.38 16.3504H306.266L305.509 21.583H306.747C307.192 18.3807 307.311 17.8327 307.897 17.8327C307.934 17.8327 307.934 17.8327 307.993 17.8447C308.103 17.2172 308.259 16.7556 308.463 16.329L308.413 16.3076Z" fill="#F3AE12"/>
<path d="M324.588 21.5369H323.413L323.474 21.0274C323.137 21.4301 322.778 21.6079 322.322 21.6079C321.422 21.6079 320.821 20.7427 320.821 19.4356C320.821 17.6934 321.746 16.2205 322.839 16.2205C323.319 16.2205 323.69 16.4462 324.026 16.9454L324.301 15.1066H325.526L324.588 21.5369ZM322.754 20.3042C323.342 20.3042 323.737 19.5784 323.737 18.5355C323.737 17.8721 323.511 17.5147 323.077 17.5147C322.515 17.5147 322.118 18.2414 322.118 19.2732C322.117 19.9605 322.332 20.3042 322.754 20.3042Z" fill="#F3AE12"/>
<path d="M296.798 21.5138C296.379 21.6574 295.97 21.7275 295.526 21.7275C294.146 21.7275 293.425 20.9214 293.425 19.3783C293.425 17.5857 294.348 16.2589 295.585 16.2589C296.605 16.2589 297.253 16.9941 297.253 18.1695C297.253 18.55 297.204 18.9278 297.098 19.463H294.637C294.625 19.5459 294.625 19.5809 294.625 19.6271C294.625 20.2332 294.997 20.5401 295.716 20.5401C296.161 20.5401 296.557 20.4341 297.001 20.2084L296.798 21.5138ZM296.103 18.3944C296.103 18.2867 296.116 18.1918 296.116 18.1319C296.116 17.7045 295.899 17.4557 295.527 17.4557C295.132 17.4557 294.855 17.7891 294.735 18.3944H296.103Z" fill="#F3AE12"/>
<path d="M311.534 21.5138C311.115 21.6574 310.706 21.7275 310.26 21.7275C308.869 21.7275 308.15 20.9214 308.15 19.3783C308.15 17.5857 309.073 16.2589 310.31 16.2589C311.33 16.2589 311.99 16.9941 311.99 18.1695C311.99 18.55 311.942 18.9278 311.832 19.463H309.371C309.359 19.5459 309.359 19.5809 309.359 19.6271C309.359 20.2332 309.733 20.5401 310.452 20.5401C310.897 20.5401 311.294 20.4341 311.735 20.2084L311.534 21.5138ZM310.839 18.3944C310.851 18.2867 310.851 18.1918 310.851 18.1319C310.851 17.7045 310.635 17.4557 310.263 17.4557C309.866 17.4557 309.591 17.7891 309.471 18.3944H310.839Z" fill="#F3AE12"/>
<path d="M328.814 21.5138C328.383 21.6574 327.974 21.7275 327.54 21.7275C326.16 21.7275 325.43 20.9214 325.43 19.3783C325.43 17.5857 326.353 16.2589 327.602 16.2589C328.622 16.2589 329.27 16.9941 329.27 18.1695C329.27 18.55 329.221 18.9278 329.113 19.463H326.654C326.642 19.5459 326.642 19.5809 326.642 19.6271C326.642 20.2332 327.014 20.5401 327.735 20.5401C328.179 20.5401 328.573 20.4341 329.018 20.2084L328.814 21.5138ZM328.118 18.3944C328.118 18.2867 328.13 18.1918 328.13 18.1319C328.13 17.7045 327.914 17.4557 327.542 17.4557C327.143 17.4557 326.87 17.7891 326.75 18.3944H328.118Z" fill="#F3AE12"/>
<path d="M293.125 16.5427C292.887 16.3777 292.551 16.2469 292.095 16.2469C291.592 16.2469 291.197 16.3538 291.197 16.8744C291.197 17.7994 293.02 17.4557 293.02 19.4493C293.02 21.2642 291.817 21.7403 290.727 21.7403C290.247 21.7403 289.685 21.5847 289.274 21.3967L289.575 20.0665C289.829 20.2922 290.32 20.4443 290.741 20.4443C291.136 20.4443 291.737 20.3375 291.737 19.663C291.737 18.6064 289.912 18.9987 289.912 17.1488C289.912 15.4527 290.979 14.9535 292.013 14.9535C292.589 14.9535 293.141 15.0373 293.453 15.251L293.125 16.5427Z" fill="#F3AE12"/>
<path d="M300.422 21.5138C300.171 21.6326 299.823 21.7164 299.32 21.7164C298.239 21.7164 297.567 20.647 297.567 19.3433C297.567 17.6335 298.538 16.2811 299.967 16.2811C300.279 16.2811 300.759 16.4111 301.13 16.6265L300.855 17.8712C300.59 17.6925 300.315 17.5857 300.028 17.5857C299.367 17.5857 298.887 18.1901 298.887 19.2586C298.887 19.8776 299.236 20.3854 299.776 20.3854C300.099 20.3854 300.329 20.3136 300.602 20.1588L300.422 21.5138Z" fill="#F3AE12"/>
<path d="M305.054 20.1973C304.995 20.6461 304.936 21.0872 304.898 21.548H303.71L303.806 20.7085H303.792C303.42 21.277 303.035 21.6676 302.351 21.6676C301.608 21.6676 301.201 20.8854 301.201 19.8767C301.201 19.5211 301.223 19.3304 301.295 18.7859L301.632 16.3649H302.964L302.605 18.7987C302.569 19.0594 302.52 19.3167 302.52 19.592C302.52 19.9006 302.663 20.2109 303.023 20.1853C303.563 20.1853 303.886 19.5313 303.984 18.7611L304.357 16.3649H305.64L305.054 20.1973Z" fill="#F3AE12"/>
<path d="M330.049 21.4898H329.844V20.6239H329.558V20.4341H330.337V20.6239H330.049V21.4898Z" fill="#F3AE12"/>
<path d="M331.38 21.4898H331.19V20.6119L331.009 21.4898H330.816L330.637 20.6119V21.4898H330.445V20.4341H330.745L330.912 21.265H330.924L331.091 20.4341H331.38V21.4898Z" fill="#F3AE12"/>
</svg>
