<svg width="50" height="50" viewBox="0 0 50 50" fill="none" xmlns="http://www.w3.org/2000/svg">
<path d="M9.25501 34.4931H5.54376C5.56188 34.5881 5.57376 34.6856 5.57876 34.7844C5.61813 35.6688 4.88063 36.4344 4.03876 36.5738V42.1556H10.3369V36.0638C9.73064 35.7913 9.31626 35.1856 9.25501 34.4931Z" fill="white"/>
<path d="M44.425 15.4819C44.4237 15.4619 44.4219 15.4419 44.4212 15.4219C44.3894 14.7162 44.8531 14.0862 45.4688 13.79V8.15686H39.3419V13.3194C40.095 13.5406 40.615 14.2481 40.6519 15.0594C40.6581 15.2037 40.6438 15.345 40.6113 15.4812H44.425V15.4819Z" fill="white"/>
<path d="M31.5244 25.0231C31.3031 24.9156 31.0887 24.7956 30.8725 24.6794C30.8456 24.6794 30.7444 24.6362 30.5244 24.4994C30.5744 24.53 30.6331 24.5531 30.685 24.58C30.7475 24.6125 30.81 24.6456 30.8725 24.6794C30.9006 24.6794 30.8469 24.6337 30.7594 24.5969C30.6656 24.5575 30.5712 24.5187 30.4769 24.4794C29.7525 24.1781 29.0275 23.8769 28.32 23.5375C27.6925 23.2362 27.0669 22.9094 26.5037 22.4975C25.7637 21.9556 25.0194 21.3144 24.7544 20.3956C24.5656 19.7412 24.6069 19.0269 24.6862 18.3587C24.7762 17.605 24.8544 16.7325 25.2631 16.0662C25.2975 16.01 25.3375 15.9537 25.3806 15.8981C25.2356 15.63 25.1631 15.3387 25.1619 15.0462C25.1062 14.9987 25.0531 14.9487 25.0037 14.895H23.0037C22.9894 14.9094 22.9756 14.9237 22.9606 14.9381C22.9444 14.9525 22.9281 14.9669 22.9125 14.9819C22.9 15.0006 22.8875 15.0194 22.8769 15.0387C22.8656 15.0587 22.8375 15.1206 22.8169 15.165C22.6556 15.5644 22.5012 15.9669 22.2481 16.3181C21.9969 16.6669 21.7231 16.9837 21.43 17.2956C21.3275 17.4044 21.2287 17.5162 21.1287 17.6275C21.1006 17.6694 21.0719 17.7112 21.045 17.7544C20.265 19.0225 19.3487 20.1744 18.3325 21.2612C18.1875 21.4162 18.0106 21.5375 17.8175 21.625V25.1525C17.965 25.195 18.105 25.2531 18.2262 25.3244C18.4812 25.4737 18.6712 25.6719 18.8175 25.9037C19.3937 26.1419 19.9687 26.3825 20.5306 26.6531C21.6675 27.2006 22.8681 27.9425 23.6437 28.9781C23.6869 29.0219 23.7294 29.0662 23.77 29.1125C24.49 29.9394 24.7337 30.9188 24.5894 31.9906C24.4994 32.6581 24.2762 33.2963 24.1519 33.9538C24.1125 34.4344 24.1125 34.9288 24.0325 35.4038C24.3331 35.4281 24.6337 35.4525 24.9337 35.4888C25.2406 35.5256 25.5337 35.5688 25.82 35.6256C26.3037 34.7625 26.9456 34.0475 27.6406 33.3806C27.7794 32.9481 28.0744 32.5569 28.4562 32.2994C28.5594 32.23 28.6619 32.1594 28.7625 32.0863C28.7637 32.0856 28.765 32.0844 28.7662 32.0838C28.875 31.9931 28.9212 31.9556 28.9306 31.9487C29 31.8919 29.0687 31.8344 29.1356 31.7756C29.4525 31.4963 29.7525 31.1981 30.0369 30.8856C30.1925 30.7144 30.3437 30.5381 30.49 30.3581C30.5006 30.345 30.5131 30.3294 30.5262 30.3125C30.7062 30.0656 30.6056 30.2094 30.5262 30.3125C30.5062 30.34 30.4825 30.3725 30.455 30.4106C30.5144 30.3294 30.5762 30.25 30.6356 30.1687C30.8944 29.8138 31.1362 29.4456 31.3606 29.0681C31.5862 28.6881 31.7944 28.2975 31.9837 27.8987C32.0275 27.8069 32.07 27.7144 32.1119 27.6212C32.1219 27.5994 32.1312 27.5769 32.1412 27.555C32.2119 27.3775 32.2819 27.2 32.3456 27.0206C32.5256 26.5156 32.675 26.0006 32.7906 25.4775C32.3556 25.3875 31.9244 25.2175 31.5244 25.0231Z" fill="white"/>
<path d="M41.6306 17.155C41.5575 17.1394 41.5219 17.1231 41.4875 17.1256C40.0163 17.23 39.8238 16.7575 39.9156 15.455C39.9469 15.0119 39.7894 14.7144 39.4813 14.4037C37.8431 12.7481 38.1838 13.5025 38.1494 11.2331C38.135 10.2831 38.1469 9.33249 38.1469 8.31499C37.895 8.31499 37.6825 8.31749 37.4694 8.31437C36.7838 8.30499 36.3788 7.96749 36.39 7.41687C36.4013 6.88249 36.79 6.55999 37.4481 6.55499C38.25 6.54937 39.0513 6.55374 39.9075 6.55374C39.9075 5.24124 39.9075 3.98124 39.9075 2.72061C39.9075 2.51936 39.8963 2.31561 39.9138 2.11561C39.9594 1.60499 40.3456 1.25374 40.8225 1.27436C41.2981 1.29436 41.6538 1.65436 41.6613 2.18624C41.6775 3.24999 41.6669 4.31374 41.6675 5.37749C41.6675 5.74249 41.6675 6.10812 41.6675 6.51374C42.2488 6.51374 42.805 6.51374 43.4288 6.51374C43.4288 5.75187 43.4288 4.98811 43.4288 4.22374C43.4288 3.59999 43.425 2.97686 43.43 2.35311C43.435 1.66999 43.7775 1.26249 44.3269 1.27436C44.8569 1.28561 45.185 1.68061 45.1888 2.33374C45.1938 3.54436 45.1906 4.75436 45.1906 5.96499C45.1906 6.14437 45.1906 6.32312 45.1906 6.55374C46.0263 6.55374 46.8094 6.55124 47.5931 6.55437C48.295 6.55749 48.6956 6.87062 48.7075 7.41624C48.72 7.97937 48.305 8.30937 47.5738 8.31499C47.3919 8.31624 47.21 8.31499 46.9513 8.31499C46.9513 8.93687 46.9513 9.53437 46.9513 10.1331C46.9513 10.9219 46.9888 11.7131 46.9331 12.4975C46.9088 12.8319 46.7038 13.16 46.5519 13.4756C46.4919 13.6 46.3606 13.6994 46.2456 13.7881C45.4594 14.3919 45.0263 15.1181 45.1694 16.1744C45.25 16.7694 44.835 17.0988 44.2125 17.1194C43.9763 17.1275 43.74 17.1206 43.43 17.1206C43.43 17.3619 43.43 17.575 43.43 17.7875C43.43 25.9306 43.43 34.0738 43.43 42.2169C43.43 43.3031 43.195 43.5388 42.1106 43.5388C34.1894 43.5388 26.2675 43.5388 18.3469 43.5388C18.1638 43.5388 17.9763 43.5575 17.7981 43.5263C17.3238 43.4444 17.035 43.1544 17.0294 42.6681C17.0244 42.1806 17.3094 41.8844 17.7813 41.7956C17.9769 41.7588 18.1831 41.7788 18.385 41.7788C25.9025 41.7781 33.4206 41.7781 40.9388 41.7781C41.1563 41.7781 41.375 41.7781 41.6313 41.7781C41.6306 33.5613 41.6306 25.375 41.6306 17.155ZM43.4806 15.3394C43.1813 14.3056 43.7613 13.7025 44.4094 13.1275C44.6138 12.9456 44.805 12.7469 44.99 12.5444C45.0713 12.455 45.1781 12.3375 45.1788 12.2319C45.1919 10.9394 45.1875 9.64687 45.1875 8.35312C43.395 8.35312 41.6681 8.35312 39.9081 8.35312C39.9081 9.30249 39.9731 10.2219 39.89 11.1262C39.8081 12.0119 40.0519 12.6794 40.76 13.2069C41.4319 13.7069 41.8231 14.3512 41.6838 15.2312C41.68 15.2581 41.7156 15.2906 41.7444 15.34C42.2769 15.3394 42.8188 15.3394 43.4806 15.3394Z" fill="white"/>
<path d="M4.69249 43.5387C3.80687 43.5387 3.00187 43.545 2.19624 43.5369C1.55874 43.5306 1.16249 43.1725 1.17499 42.6387C1.18687 42.1237 1.56999 41.795 2.18062 41.78C2.41312 41.7744 2.64687 41.7794 2.93124 41.7794C2.93124 40.4106 2.95062 39.095 2.92187 37.7794C2.90999 37.2419 3.04124 36.8087 3.46624 36.4731C3.53812 36.4169 3.58999 36.3356 3.66249 36.2806C4.43874 35.6912 4.85437 34.9744 4.71249 33.9394C4.62999 33.3344 5.03437 32.9987 5.64874 32.975C5.90062 32.965 6.15249 32.9737 6.45312 32.9737C6.45312 32.7037 6.45312 32.4887 6.45312 32.2731C6.45312 24.1306 6.45312 15.9875 6.45312 7.84437C6.45312 6.79812 6.69812 6.555 7.74937 6.555C15.6887 6.555 23.6281 6.555 31.5681 6.555C31.66 6.555 31.7512 6.55312 31.8431 6.55562C32.4794 6.57187 32.8762 6.92437 32.8606 7.45937C32.8456 7.97375 32.4625 8.31125 31.85 8.31312C30.1075 8.32 28.3662 8.31562 26.6237 8.31562C20.7194 8.31562 14.8156 8.31562 8.91124 8.31562C8.69562 8.31562 8.48062 8.31562 8.24062 8.31562C8.24062 16.5425 8.24062 24.715 8.24062 32.9731C8.50187 32.9731 8.76812 32.9637 9.03312 32.975C9.61999 33 10.0387 33.3356 9.95187 33.8987C9.78437 34.9881 10.2619 35.715 11.0581 36.3262C11.6006 36.7425 11.775 37.2762 11.7487 37.9594C11.7012 39.2031 11.735 40.45 11.735 41.78C12.0425 41.78 12.3281 41.7656 12.6119 41.7831C13.135 41.815 13.49 42.1762 13.4919 42.655C13.4937 43.1331 13.14 43.5175 12.6181 43.5306C11.7606 43.5519 10.9012 43.5362 9.97499 43.5362C9.97499 44.3031 9.97499 45.03 9.97499 45.7569C9.97499 46.4169 9.97874 47.0775 9.97374 47.7375C9.96874 48.42 9.62499 48.8294 9.07687 48.8175C8.54687 48.8062 8.21874 48.4112 8.21562 47.7581C8.21062 46.5475 8.21437 45.3375 8.21374 44.1269C8.21374 43.9475 8.21374 43.7681 8.21374 43.565C7.61874 43.565 7.07562 43.565 6.45249 43.565C6.45249 43.8669 6.45249 44.1706 6.45249 44.4744C6.45249 45.5931 6.45937 46.7119 6.44937 47.8306C6.44437 48.4337 6.08687 48.8175 5.57124 48.8169C5.05499 48.8162 4.69937 48.4325 4.69499 47.8287C4.68624 46.4212 4.69249 45.0131 4.69249 43.5387ZM6.47937 34.7544C6.39812 36.0362 6.39812 36.0356 5.50437 36.93C5.29749 37.1375 5.08499 37.34 4.88874 37.5556C4.80749 37.645 4.70499 37.7637 4.70374 37.87C4.69124 39.1619 4.69499 40.4537 4.69499 41.7369C6.49374 41.7369 8.22124 41.7369 9.97437 41.7369C9.97437 40.7469 9.92249 39.7925 9.99062 38.8475C10.0487 38.0494 9.84062 37.445 9.19874 36.9544C8.51937 36.435 8.03062 35.7937 8.19812 34.8544C8.20249 34.8294 8.16312 34.7969 8.13499 34.7537C7.60062 34.7544 7.05812 34.7544 6.47937 34.7544Z" fill="white"/>
<path d="M26.8307 11.83C26.6038 13.1394 26.3557 14.5831 26.1032 16.0256C25.87 17.3606 25.645 18.6969 25.3888 20.0269C25.31 20.4363 25.44 20.6356 25.7994 20.8338C28.3807 22.2581 30.9475 23.7063 33.5182 25.1488C34.4044 25.6463 34.4919 26.1031 33.8507 26.8994C30.6663 30.8531 27.4788 34.8044 24.2925 38.7569C24.2582 38.8 24.2213 38.8413 24.1894 38.885C23.8894 39.3019 23.5019 39.5113 23.0044 39.2863C22.4957 39.0563 22.4413 38.6082 22.5482 38.1188C22.8138 36.9025 23.0825 35.6869 23.35 34.4713C23.6563 33.0763 23.9475 31.6781 24.2769 30.2894C24.3707 29.8931 24.2563 29.7206 23.9088 29.5313C21.3838 28.1575 18.8725 26.7594 16.3588 25.3663C15.4938 24.8875 15.4006 24.4531 15.9925 23.65C19.0156 19.5494 22.04 15.4513 25.0644 11.3525C25.1407 11.2494 25.2157 11.1444 25.2988 11.0475C25.5675 10.7338 25.9113 10.6375 26.2894 10.78C26.695 10.9331 26.8738 11.2581 26.8307 11.83ZM32.0413 26.345C31.7582 26.1831 31.5394 26.0556 31.3175 25.9313C28.9225 24.5888 26.5319 23.2375 24.1282 21.9113C23.6007 21.6206 23.3969 21.2413 23.5069 20.6544C23.6857 19.7006 23.8444 18.7431 24.0094 17.7875C24.1469 16.9881 24.2813 16.1894 24.4169 15.3894C24.38 15.3756 24.3425 15.3619 24.3057 15.3481C22.1494 18.27 19.9938 21.1913 17.8169 24.1413C18.0088 24.2538 18.1469 24.3394 18.2881 24.4181C20.7225 25.7656 23.1582 27.11 25.5907 28.4606C26.22 28.81 26.3225 29.0531 26.1732 29.7606C26.0369 30.405 25.895 31.0488 25.7569 31.6925C25.5307 32.7419 25.305 33.7913 25.0794 34.8413C25.1088 34.8519 25.1375 34.8625 25.1669 34.8731C27.4407 32.0519 29.715 29.23 32.0413 26.345Z" fill="white"/>
</svg>
