<svg width="100" height="100" viewBox="0 0 100 100" fill="none" xmlns="http://www.w3.org/2000/svg">
<path d="M68.8362 0.716248C70.7375 2.03 70.8175 3.1075 69.14 4.78375C67.5812 6.34125 66.0225 7.90124 64.4175 9.50624C71.0825 14.3725 74.3925 20.93 74.6787 29.1725C58.1912 29.1725 41.8025 29.1725 25.2675 29.1725C25.5162 20.9587 28.8425 14.3962 35.52 9.50124C33.9162 7.89999 32.3575 6.34125 30.7975 4.78375C29.12 3.10875 29.2012 2.03 31.1012 0.716248C31.4225 0.716248 31.7425 0.716248 32.0637 0.716248C32.5975 1.1125 33.1775 1.46 33.655 1.915C34.95 3.15125 36.2025 4.4325 37.4712 5.69625C38.86 7.07874 38.8587 7.075 40.6362 6.3325C41.0475 6.16125 41.4687 6.00625 41.8962 5.87875C48.19 4.00125 54.3825 4.1575 60.4362 6.8375C60.9362 7.05874 61.225 6.95374 61.5875 6.585C63.1075 5.03 64.645 3.49125 66.2112 1.9825C66.7087 1.5025 67.3137 1.135 67.87 0.716248C68.195 0.716248 68.5162 0.716248 68.8362 0.716248ZM39.6887 22.0512C41.3875 22.0437 42.7325 20.6975 42.7362 19C42.74 17.315 41.3837 15.9337 39.705 15.9112C38.0025 15.8887 36.5837 17.3187 36.6062 19.0312C36.6287 20.7237 37.9912 22.0587 39.6887 22.0512ZM60.2312 22.05C61.9325 22.065 63.3012 20.7437 63.335 19.0512C63.3687 17.3387 61.96 15.9012 60.255 15.91C58.5812 15.9187 57.2112 17.2962 57.2037 18.9787C57.1975 20.6787 58.5337 22.035 60.2312 22.05Z" fill="black"/>
<path d="M66.4313 78.53C66.4313 79.125 66.4338 79.57 66.4313 80.0163C66.405 84.5275 66.4725 89.0425 66.3175 93.55C66.215 96.5363 63.3213 99.04 60.3 99.0688C57.3 99.0975 54.3388 96.62 54.2188 93.6275C54.0375 89.1225 54.1125 84.6075 54.08 80.0963C54.0763 79.6188 54.08 79.1425 54.08 78.5975C51.3375 78.5975 48.6625 78.5975 45.8638 78.5975C45.8638 78.9938 45.8638 79.3663 45.8638 79.7388C45.8638 83.9638 45.8813 88.1888 45.8575 92.4138C45.8388 95.8588 43.73 98.4475 40.5713 98.9775C37.3 99.525 33.79 96.935 33.63 93.6188C33.4513 89.915 33.5363 86.1975 33.5113 82.4863C33.5025 81.21 33.51 79.9338 33.51 78.5313C32.1875 78.5313 30.9463 78.5388 29.705 78.53C26.7925 78.51 25.3 77.065 25.2975 74.1663C25.285 60.8188 25.2913 47.4725 25.2938 34.125C25.2938 33.9075 25.3188 33.6913 25.335 33.4238C41.7575 33.4238 58.1338 33.4238 74.6513 33.4238C74.6513 33.7675 74.6513 34.1038 74.6513 34.44C74.6513 47.5625 74.6525 60.6863 74.65 73.8088C74.6488 77.145 73.26 78.5263 69.9213 78.53C68.8038 78.5313 67.6875 78.53 66.4313 78.53Z" fill="black"/>
<path d="M21.23 53.9288C21.23 58.6013 21.2488 63.2738 21.2238 67.9475C21.2063 71.195 19.0013 73.8837 16.0738 74.3112C12.1375 74.8875 8.90253 71.9475 8.89628 67.745C8.88378 58.495 8.89003 49.2463 8.89378 39.9963C8.89378 38.345 9.34503 36.8513 10.4463 35.5725C12.0813 33.6763 14.5588 32.9388 16.8725 33.6925C19.31 34.4875 21.1363 36.6538 21.175 39.1438C21.2513 44.0713 21.1975 49 21.1975 53.9288C21.2075 53.9288 21.2188 53.9288 21.23 53.9288Z" fill="black"/>
<path d="M91.1413 53.9725C91.1413 58.6138 91.1613 63.2538 91.135 67.895C91.115 71.3675 88.8625 73.9313 85.5288 74.3588C82.3962 74.7613 79.1487 72.1288 78.8587 68.9475C78.8212 68.5338 78.8062 68.1163 78.8062 67.7013C78.8037 58.4838 78.8 49.2663 78.8062 40.0488C78.8087 37.0163 80.3675 34.665 82.9375 33.76C86.9988 32.33 91.0925 35.3475 91.1325 39.8588C91.1738 44.5625 91.1413 49.2675 91.1413 53.9725Z" fill="black"/>
</svg>
