<svg width="100" height="100" viewBox="0 0 100 100" fill="none" xmlns="http://www.w3.org/2000/svg">
<path d="M1.06374 23.7525C1.06374 23.435 1.06374 23.1175 1.06374 22.7987C1.55999 21.5087 2.49999 20.9925 3.87374 21.0312C5.85874 21.0875 7.84749 21.045 9.89624 21.045C9.69624 13.3475 13.4487 9.66122 21.0462 9.89122C21.0462 7.80247 21.0875 5.83622 21.0325 3.87247C20.9925 2.49997 21.5087 1.55997 22.8 1.06372C23.1175 1.06372 23.435 1.06372 23.7537 1.06372C25.0762 1.60997 25.5587 2.62997 25.4775 4.01247C25.4312 4.80372 25.4687 5.59997 25.4687 6.39372C25.4687 7.55247 25.4687 8.70997 25.4687 9.87997C28.4837 9.87997 31.3575 9.87997 34.3462 9.87997C34.3462 7.82997 34.375 5.83747 34.3362 3.84747C34.31 2.48122 34.8262 1.52622 36.1462 1.06497C36.4637 1.06497 36.7812 1.06497 37.1 1.06497C38.4075 1.63372 38.84 2.67122 38.8062 4.04122C38.7587 5.97122 38.7937 7.90247 38.7937 9.85747C41.7812 9.85747 44.6762 9.85747 47.6425 9.85747C47.6425 7.87122 47.6737 5.96872 47.6325 4.06872C47.6025 2.71372 48.0162 1.66122 49.3025 1.06622C49.6837 1.06622 50.065 1.06622 50.4462 1.06622C51.3475 1.55372 52.0512 2.18747 52.085 3.30747C52.1 3.81497 52.1037 4.32372 52.105 4.83122C52.1075 6.50372 52.1062 8.17497 52.1062 9.88747C55.1112 9.88747 57.9862 9.88747 60.955 9.88747C60.955 7.90247 60.9912 5.97122 60.9425 4.04122C60.9087 2.67122 61.3425 1.63497 62.6487 1.06497C62.9662 1.06497 63.2837 1.06497 63.6025 1.06497C64.9212 1.52747 65.445 2.48122 65.4112 3.84747C65.3725 5.43372 65.4025 7.02247 65.4025 8.60997C65.4025 9.03622 65.4025 9.46122 65.4025 9.87872C68.4637 9.87872 71.3425 9.87872 74.2787 9.87872C74.2787 7.88122 74.32 5.94622 74.265 4.01247C74.2262 2.63122 74.6725 1.60997 75.995 1.06497C76.3125 1.06497 76.63 1.06497 76.9487 1.06497C78.2412 1.56122 78.7962 2.50497 78.71 3.87872C78.6662 4.57497 78.7025 5.27622 78.7025 5.97497C78.7025 7.26372 78.7025 8.55372 78.7025 9.96747C81.9337 9.76247 84.8587 10.2262 87.1837 12.5337C89.5362 14.8687 89.9787 17.8325 89.7912 21.0475C91.8687 21.0475 93.7987 21.045 95.73 21.0475C97.64 21.05 98.685 21.84 98.6737 23.2675C98.6625 24.6837 97.605 25.4687 95.7012 25.47C93.7712 25.4712 91.8412 25.47 89.8862 25.47C89.8862 28.465 89.8862 31.365 89.8862 34.3462C90.465 34.3462 90.9687 34.3412 91.4725 34.3475C93.25 34.3687 95.0312 34.335 96.8037 34.44C97.88 34.5037 98.6362 35.4575 98.6687 36.5125C98.6987 37.5037 98.0075 38.4325 96.9887 38.65C96.4375 38.7675 95.8575 38.7825 95.29 38.7887C93.4925 38.805 91.6937 38.795 89.87 38.795C89.87 41.7987 89.87 44.675 89.87 47.6437C90.6237 47.6437 91.3187 47.6337 92.0125 47.6462C93.63 47.675 95.2525 47.6425 96.8612 47.775C97.9412 47.8637 98.6787 48.855 98.67 49.8887C98.6612 50.93 97.9237 51.8075 96.8362 51.9975C96.34 52.0837 95.8275 52.1 95.3225 52.1025C93.52 52.1137 91.7175 52.1075 89.8625 52.1075C89.8625 55.0975 89.8625 57.9737 89.8625 60.9562C91.7762 60.9562 93.6412 60.9525 95.5075 60.9587C95.9187 60.96 96.3375 60.9575 96.7387 61.03C97.9287 61.245 98.7175 62.18 98.6675 63.2625C98.615 64.3962 97.8125 65.2925 96.59 65.345C94.6875 65.4287 92.78 65.3875 90.8737 65.405C90.5387 65.4075 90.2037 65.4387 89.8087 65.46C89.8087 68.2675 89.8075 70.965 89.8125 73.6612C89.8125 73.845 89.8612 74.0287 89.8975 74.2787C90.27 74.2787 90.615 74.2787 90.96 74.2787C92.7387 74.28 94.5187 74.2425 96.2975 74.2912C98.1837 74.3425 99.23 76.0687 98.3487 77.5912C97.8412 78.4687 97.0275 78.7075 96.0837 78.7037C94.03 78.6962 91.975 78.7012 89.8075 78.7012C89.8075 79.38 89.815 79.9437 89.8062 80.5075C89.7212 86.0437 86.0412 89.7225 80.505 89.805C79.9212 89.8137 79.3362 89.8062 78.6912 89.8062C78.6912 92.1512 78.725 94.31 78.6787 96.4675C78.6512 97.7537 77.6925 98.6625 76.5075 98.67C75.3862 98.6775 74.445 97.7987 74.3037 96.58C74.26 96.2037 74.2812 95.8187 74.2812 95.4375C74.28 93.5987 74.28 91.7612 74.28 89.875C71.305 89.875 68.4037 89.875 65.4037 89.875C65.4037 90.7612 65.4125 91.58 65.4012 92.3987C65.3812 93.89 65.4112 95.3862 65.3 96.8712C65.2262 97.8587 64.3575 98.555 63.355 98.655C62.5037 98.74 61.5037 98.195 61.2087 97.3725C61.0312 96.8775 60.9725 96.32 60.965 95.7887C60.9375 93.8287 60.9537 91.8675 60.9537 89.86C57.97 89.86 55.0937 89.86 52.105 89.86C52.105 91.365 52.1187 92.8187 52.1 94.2725C52.0887 95.1587 52.0912 96.0537 51.9725 96.9287C51.8362 97.9312 51.1237 98.4737 50.1675 98.6225C49.2337 98.7675 48.4337 98.4012 48.0187 97.5575C47.765 97.0425 47.6725 96.4062 47.66 95.82C47.6175 93.8562 47.6437 91.8912 47.6437 89.8825C44.6525 89.8825 41.7537 89.8825 38.795 89.8825C38.795 91.9575 38.8037 93.9575 38.7925 95.9562C38.7825 97.6075 37.9425 98.635 36.6075 98.6687C35.2387 98.7037 34.3712 97.6662 34.35 95.9475C34.3375 94.9312 34.3475 93.9137 34.3475 92.8975C34.3475 91.8937 34.3475 90.89 34.3475 89.8587C31.3187 89.8587 28.4412 89.8587 25.4712 89.8587C25.4712 90.22 25.4712 90.53 25.4712 90.8387C25.4712 92.65 25.5012 94.4612 25.4612 96.2712C25.4212 98.035 23.9362 99.1087 22.4337 98.4862C21.3875 98.0537 21.0412 97.1812 21.0462 96.1062C21.0575 94.0487 21.05 91.9912 21.05 89.8525C13.3762 90.0625 9.66124 86.3275 9.89749 78.7C7.81374 78.7 5.84499 78.6562 3.87999 78.715C2.50124 78.7562 1.56499 78.2362 1.06749 76.9462C1.06749 76.6287 1.06749 76.3112 1.06749 75.9925C1.61249 74.67 2.63499 74.1887 4.01499 74.2687C4.80624 74.3137 5.60249 74.2775 6.39499 74.2775C7.55374 74.2775 8.71124 74.2775 9.88249 74.2775C9.88249 71.2637 9.88249 68.39 9.88249 65.4C7.86499 65.4 5.90499 65.3687 3.94749 65.4112C2.55749 65.4412 1.53999 64.9787 1.06624 63.6C1.06624 63.2825 1.06624 62.965 1.06624 62.6462C1.63499 61.34 2.67249 60.9062 4.04249 60.94C5.97249 60.9875 7.90374 60.9525 9.85874 60.9525C9.85874 57.965 9.85874 55.07 9.85874 52.1037C7.87249 52.1037 5.96999 52.0725 4.06999 52.1137C2.71499 52.1437 1.66249 51.73 1.06749 50.4437C1.06749 50.0625 1.06749 49.6812 1.06749 49.3C1.55499 48.3987 2.18874 47.695 3.30874 47.6612C3.81624 47.6462 4.32499 47.6425 4.83249 47.6412C6.50499 47.6387 8.17624 47.64 9.88874 47.64C9.88874 44.635 9.88874 41.76 9.88874 38.7912C7.90374 38.7912 5.97249 38.755 4.04249 38.8037C2.67249 38.8375 1.63624 38.4037 1.06624 37.0975C1.06624 36.78 1.06624 36.4625 1.06624 36.1437C1.53999 34.765 2.55749 34.3025 3.94749 34.3325C5.90624 34.375 7.86499 34.3437 9.87999 34.3437C9.87999 31.3275 9.87999 28.4275 9.87999 25.4662C7.88249 25.4662 5.94749 25.4262 4.01499 25.48C2.62999 25.5212 1.60874 25.075 1.06374 23.7525ZM18.805 49.8025C18.805 59.1762 18.805 68.5512 18.805 77.925C18.805 80.1887 19.565 80.9425 21.8462 80.9425C40.5312 80.9425 59.215 80.9425 77.9 80.9425C80.1812 80.9425 80.9412 80.1887 80.9412 77.925C80.9425 59.24 80.9425 40.5562 80.9412 21.8712C80.9412 19.5375 80.2037 18.8062 77.8525 18.8062C59.2 18.8062 40.5462 18.8062 21.8937 18.8062C19.5425 18.8062 18.805 19.5375 18.805 21.8712C18.805 31.1812 18.805 40.4912 18.805 49.8025Z" fill="black"/>
<path d="M76.51 49.8737C76.51 58.3887 76.4975 66.905 76.53 75.42C76.5337 76.295 76.2975 76.5312 75.42 76.53C58.3887 76.5037 41.3587 76.5037 24.3275 76.53C23.4525 76.5312 23.2162 76.2987 23.2175 75.4212C23.2437 58.39 23.2437 41.36 23.2175 24.3288C23.2162 23.4538 23.4487 23.2175 24.3262 23.2188C41.3575 23.245 58.3875 23.245 75.4187 23.2188C76.2937 23.2175 76.5325 23.45 76.53 24.3275C76.4975 32.8425 76.51 41.3575 76.51 49.8737Z" fill="black"/>
</svg>
