<svg width="50" height="50" viewBox="0 0 50 50" fill="none" xmlns="http://www.w3.org/2000/svg">
<path d="M49.4375 11.3619C49.4375 11.68 49.4375 11.9981 49.4375 12.3162C49.2012 13.0875 48.6675 13.6406 48.1106 14.1912C46.4037 15.8787 44.7131 17.5819 43.0169 19.28C42.8969 19.4 42.785 19.5281 42.6762 19.645C43.6237 21.0694 43.5137 22.1244 42.3137 23.325C35.84 29.8 29.3669 36.2744 22.8931 42.7481C22.7475 42.8944 22.5994 43.04 22.4406 43.1706C21.5406 43.9125 20.2525 43.9438 19.3731 43.1775C18.6675 42.5631 18.0287 41.8719 17.3587 41.2163C17.2394 41.0994 17.1137 40.9888 16.9056 40.7956C16.3281 41.4131 15.8219 42.0331 15.235 42.5644C14.3325 43.3825 13.0331 43.37 12.0969 42.5981C11.8656 42.4075 11.6506 42.1975 11.3763 41.9494C11.255 42.0944 11.1519 42.2375 11.0288 42.3613C8.88438 44.51 6.73875 46.6587 4.58813 48.8006C4.355 49.0325 4.08438 49.2269 3.83125 49.4388C3.70375 49.4388 3.57688 49.4388 3.44938 49.4388C3.20438 49.2419 2.9425 49.0619 2.71688 48.845C2.1675 48.3156 1.63375 47.7694 1.09501 47.2294C0.423755 46.5569 0.420005 46.2163 1.08188 45.5544C3.27375 43.3612 5.465 41.1681 7.66063 38.9787C7.7825 38.8575 7.94 38.7719 8.08938 38.6637C7.95125 38.5075 7.89188 38.4344 7.82688 38.3669C6.47813 36.9644 6.48875 35.6856 7.86688 34.3106C8.29125 33.8869 8.72625 33.4737 9.18688 33.0262C8.44188 32.2856 7.74375 31.615 7.07188 30.9188C6 29.81 5.9875 28.4037 7.07625 27.3125C13.6675 20.705 20.2675 14.1062 26.8712 7.51062C27.77 6.61312 28.9087 6.455 29.9175 7.04187C30.0656 7.12812 30.2037 7.23125 30.4544 7.39813C30.55 7.25875 30.63 7.09562 30.7512 6.97312C32.5562 5.15812 34.3662 3.34813 36.1769 1.53813C37.4519 0.26375 38.8675 0.263125 40.1406 1.535C42.7831 4.17688 45.4194 6.82438 48.07 9.45813C48.635 10.0206 49.1812 10.5831 49.4375 11.3619ZM37.09 14.0606C37.235 13.8906 37.3406 13.75 37.4637 13.6263C38.7537 12.3306 40.0444 11.035 41.3406 9.74625C41.8337 9.25562 42.265 9.24438 42.7494 9.71562C43.4331 10.3806 44.1087 11.0544 44.7719 11.74C45.2056 12.1875 45.1987 12.6231 44.7606 13.0763C44.1856 13.6706 43.5956 14.2494 43.01 14.8331C42.1562 15.6856 41.3012 16.5369 40.4919 17.3431C40.8581 17.7194 41.1956 18.0662 41.5469 18.4275C41.6344 18.3456 41.74 18.2525 41.8394 18.1525C43.6719 16.3206 45.505 14.4881 47.3362 12.655C47.97 12.0206 47.965 11.6631 47.3169 11.0144C44.5406 8.23687 41.7644 5.46 38.9875 2.68375C38.3406 2.03688 37.9887 2.03563 37.3462 2.6775C35.5244 4.49813 33.7037 6.31938 31.8837 8.14188C31.7737 8.25188 31.6712 8.36938 31.555 8.49438C31.9169 8.85437 32.26 9.195 32.6194 9.5525C34.0062 8.16562 35.3875 6.7825 36.77 5.40125C37.4194 4.7525 37.795 4.75625 38.4537 5.41437C39.0275 5.9875 39.6006 6.56063 40.1719 7.13625C40.7956 7.76438 40.7994 8.12375 40.1825 8.74187C38.8919 10.0362 37.5981 11.3288 36.3069 12.6231C36.2 12.7306 36.1 12.845 36.0025 12.95C36.3625 13.3162 36.6937 13.655 37.09 14.0606ZM27.7225 25.9431C27.9656 25.7862 28.125 25.6825 28.285 25.5806C29.825 24.5988 31.3644 23.6162 32.905 22.6362C33.2737 22.4012 33.5 22.095 33.3556 21.6419C33.2131 21.1944 32.8669 21.0462 32.4219 21.0812C32.295 21.0912 32.1675 21.0931 32.0412 21.1056C28.5331 21.4562 25.0244 21.8069 21.5169 22.1594C21.1487 22.1962 20.8431 22.3313 20.6987 22.7113C20.5525 23.0963 20.705 23.3925 20.9662 23.6556C21.2412 23.9325 21.5244 24.2013 21.8275 24.4963C21.6762 24.6025 21.5894 24.6688 21.4975 24.7275C19.9175 25.735 18.3356 26.7394 16.7569 27.7488C16.2531 28.0706 16.0937 28.4294 16.2487 28.8512C16.3919 29.24 16.7606 29.4056 17.3169 29.3431C17.7587 29.2931 18.2019 29.255 18.6444 29.2106C21.805 28.8937 24.9656 28.5763 28.1262 28.2619C28.4925 28.2256 28.77 28.0644 28.8925 27.7156C29.0144 27.3681 28.9094 27.0562 28.6456 26.8037C28.3594 26.5294 28.0656 26.2619 27.7225 25.9431ZM10.2531 34.2019C9.77063 34.6937 9.28688 35.1756 8.81563 35.6694C8.35688 36.15 8.35438 36.565 8.81 37.0406C9.205 37.4538 9.61688 37.8513 10.0213 38.2556C10.9981 39.2325 11.9762 40.2088 12.9519 41.1875C13.2731 41.5094 13.675 41.7162 14.0512 41.4087C14.6831 40.8925 15.245 40.2919 15.8006 39.7606C13.9294 37.885 12.1144 36.0669 10.2531 34.2019Z" fill="white"/>
<path d="M23.29 23.6225C25.2644 23.4256 27.1538 23.2375 29.0431 23.0494C29.0575 23.0763 29.0725 23.1025 29.0869 23.1294C28.875 23.2681 28.6644 23.4088 28.4506 23.545C27.7413 23.9969 27.0306 24.4469 26.3213 24.8988C25.5038 25.42 25.4494 25.8656 26.1138 26.5706C26.165 26.625 26.2106 26.6856 26.3088 26.8037C24.3419 27.0025 22.4413 27.1937 20.4225 27.3975C20.5875 27.2637 20.6656 27.1863 20.7556 27.1287C21.5844 26.5988 22.4163 26.0731 23.2463 25.545C24.0925 25.0063 24.1425 24.5913 23.455 23.8419C23.4138 23.7963 23.3806 23.7431 23.29 23.6225Z" fill="white"/>
</svg>
