<svg width="50" height="50" viewBox="0 0 50 50" fill="none" xmlns="http://www.w3.org/2000/svg">
<path d="M0.4375 23.5156C0.561875 22.5875 0.655625 21.6544 0.81625 20.7325C1.71312 15.5825 4.03437 11.1631 7.69187 7.43998C8.35063 6.76936 9.29187 6.73998 9.91562 7.34061C10.5494 7.95123 10.5675 8.87561 9.89688 9.56061C7.69188 11.8137 5.92375 14.3656 4.90562 17.3519C2.02687 25.7937 3.53375 33.3887 9.46875 40.0775C9.60625 40.2325 9.75688 40.3756 9.89625 40.5293C10.5406 41.2393 10.5475 42.1425 9.91562 42.7543C9.2925 43.3575 8.35625 43.325 7.6925 42.6568C6.25875 41.2131 5.0125 39.6212 3.96937 37.8731C1.97625 34.5312 0.821875 30.9218 0.52 27.0406C0.508125 26.8856 0.465625 26.7331 0.4375 26.58C0.4375 25.5587 0.4375 24.5368 0.4375 23.5156Z" fill="white"/>
<path d="M27.7425 20.4513C27.9381 20.4513 28.1106 20.4513 28.2831 20.4513C30.0225 20.4513 31.7619 20.455 33.5013 20.4494C34.1656 20.4469 34.6888 20.6944 34.9938 21.295C35.2988 21.8963 35.185 22.4663 34.7931 22.9994C30.4675 28.8856 26.1444 34.7744 21.8169 40.6594C21.2944 41.37 20.5456 41.5763 19.8456 41.2344C19.1438 40.8919 18.8438 40.1875 19.0556 39.3306C19.9788 35.6038 20.9069 31.8788 21.8325 28.1525C21.8706 27.9988 21.9013 27.8438 21.9531 27.6094C21.7525 27.6094 21.5869 27.6094 21.4213 27.6094C19.7938 27.6094 18.1663 27.6025 16.5388 27.6125C15.8313 27.6169 15.2413 27.4144 14.9069 26.7494C14.5819 26.1031 14.7706 25.53 15.17 24.9669C18.815 19.8288 22.4525 14.6856 26.0856 9.53939C26.4619 9.00627 26.9256 8.65814 27.6 8.71751C28.1838 8.76876 28.6675 9.06001 28.8463 9.61876C28.9713 10.01 28.9781 10.4681 28.9275 10.8825C28.5488 13.9844 28.1419 17.0825 27.745 20.1825C27.7344 20.2563 27.7425 20.3331 27.7425 20.4513Z" fill="white"/>
<path d="M49.475 25.5587C49.3694 31.85 47.0044 37.6994 42.2869 42.5887C41.8113 43.0819 41.2644 43.3075 40.605 43.1162C40.0237 42.9475 39.6644 42.5275 39.5475 41.9294C39.4287 41.3225 39.685 40.8487 40.1006 40.4269C41.7375 38.7669 43.085 36.8981 44.115 34.805C46.0469 30.8794 46.7556 26.7431 46.2306 22.3987C45.6425 17.5306 43.6169 13.3438 40.2363 9.80313C40.1481 9.71063 40.0588 9.61938 39.9744 9.52375C39.3612 8.83438 39.3694 7.935 39.9925 7.335C40.6031 6.74688 41.5431 6.76438 42.1825 7.40438C43.6675 8.88938 44.9469 10.5369 46.0119 12.3475C48.3206 16.2731 49.4457 20.5219 49.475 25.5587Z" fill="white"/>
<path d="M6.56123 24.625C6.63373 19.925 8.41436 15.4844 12.0094 11.7881C12.6681 11.1106 13.5919 11.06 14.2294 11.6544C14.8794 12.2613 14.8875 13.2131 14.2113 13.91C11.7925 16.4006 10.2631 19.3394 9.80499 22.7888C9.13437 27.8394 10.56 32.2382 14.0138 35.9888C14.3038 36.3038 14.5725 36.7032 14.6781 37.1088C14.8469 37.7563 14.4606 38.3938 13.8713 38.6907C13.2656 38.9957 12.5831 38.8813 12.0719 38.3694C10.755 37.0519 9.65312 35.5725 8.77811 33.9288C7.30311 31.1607 6.58498 28.2007 6.56123 24.625Z" fill="white"/>
<path d="M43.3419 25.475C43.2675 30.1556 41.4987 34.585 37.925 38.2756C37.2394 38.9837 36.315 39.0444 35.6738 38.4369C35.0144 37.8131 35.0331 36.8687 35.73 36.145C38.8362 32.9156 40.3762 29.0575 40.2569 24.5831C40.1487 20.5263 38.6381 17.0263 35.8563 14.0663C35.575 13.7669 35.3225 13.3731 35.2256 12.9819C35.0644 12.3319 35.4494 11.6944 36.0375 11.4013C36.6419 11.1 37.3225 11.2156 37.8369 11.73C39.3969 13.2894 40.6475 15.0694 41.5781 17.0681C42.7531 19.5913 43.3231 22.2513 43.3419 25.475Z" fill="white"/>
</svg>
